<svg width="65" height="68" viewBox="0 0 65 68" xmlns="http://www.w3.org/2000/svg">
<path d="M38.4625 0C40.4388 2.06125 42.415 4.1225 44.4338 6.1625C46.3888 8.16 48.4288 10.0938 50.3625 12.1125C50.7238 12.495 50.9575 13.1325 51 13.6638C51.085 15.2575 51 16.8513 51.0425 18.445C51.0425 19.0188 50.8512 19.3588 50.405 19.7625C49.5975 20.4638 48.8963 21.335 48.2375 22.185C47.7488 22.8438 47.3875 23.6088 46.7925 24.2888C46.7925 21.2075 46.7925 18.1262 46.7925 14.8962C45.2412 14.8962 43.8175 14.8962 42.3725 14.8962C41.3525 14.8962 40.3112 14.8962 39.2912 14.8962C37.2725 14.875 36.1463 13.7488 36.1463 11.73C36.1463 9.28625 36.1463 6.86375 36.1463 4.335C25.5213 4.335 14.96 4.335 4.335 4.335C4.335 21.9937 4.335 39.61 4.335 57.375C14.9175 57.375 25.5 57.375 36.2313 57.375C36.0187 58.7988 35.87 60.0525 35.615 61.285C35.5725 61.4975 34.9563 61.6887 34.595 61.6887C28.22 61.71 21.845 61.6888 15.47 61.6675C12.07 61.6675 8.67 61.5612 5.27 61.6887C2.5925 61.7738 0.85 60.775 0 58.225C0 39.95 0 21.675 0 3.4C0.53125 1.76375 1.63625 0.68 3.1875 0C14.9388 0 26.7113 0 38.4625 0Z" fill="currentColor"/>
<path d="M38.4627 68.0001C37.6552 67.4688 37.5702 66.8526 38.0589 66.0238C38.2927 65.6413 38.4414 65.1101 38.3989 64.6638C38.1227 61.5401 38.6752 58.5438 40.0989 55.8238C42.9039 50.5113 45.9427 45.3263 48.8964 40.0988C48.9602 39.9713 49.0664 39.8863 49.1939 39.7163C51.6377 41.1613 54.0602 42.5851 56.5252 44.0513C53.7627 48.9601 51.0002 53.7626 48.3439 58.6288C47.1752 60.7751 45.6664 62.6238 43.7327 64.1113C42.7977 64.8338 41.6502 65.3226 40.7364 66.0663C40.0777 66.5976 39.6314 67.3626 39.1002 68.0213C38.8877 68.0001 38.6752 68.0001 38.4627 68.0001Z" fill="currentColor"/>
<path d="M64.8126 29.3251C62.4538 33.4901 60.1163 37.6763 57.7151 41.9051C55.2288 40.4388 52.8063 38.9938 50.3413 37.5276C52.6151 33.4901 54.8038 29.4951 57.1201 25.5638C58.4163 23.3751 61.9013 23.4176 63.6226 25.5426C64.1113 26.1588 64.4301 26.9238 64.8126 27.6251C64.8126 28.1988 64.8126 28.7513 64.8126 29.3251Z" fill="currentColor"/>
<path d="M21.3138 42.5212C17.8713 42.5212 14.4501 42.5212 11.0076 42.5212C9.45634 42.5212 8.50009 41.6925 8.52134 40.3962C8.54259 39.1212 9.52009 38.2712 11.0501 38.2712C17.8713 38.2712 24.7138 38.2712 31.5351 38.2712C33.0651 38.2712 34.0213 39.1212 34.0001 40.4175C34.0001 41.735 33.0651 42.5212 31.4926 42.5212C28.1138 42.5212 24.7138 42.5212 21.3138 42.5212Z" fill="currentColor"/>
<path d="M21.271 51.0213C17.871 51.0213 14.471 51.0213 11.071 51.0213C9.49854 51.0213 8.54229 50.235 8.49979 48.96C8.45729 47.6637 9.49854 46.75 11.0498 46.75C17.871 46.75 24.7135 46.75 31.5348 46.75C32.7885 46.75 33.6598 47.3237 33.8935 48.3225C34.1273 49.2787 33.8935 50.1288 33.0435 50.6388C32.6185 50.8938 32.0448 51 31.5348 51C28.1348 51.0425 24.7135 51.0213 21.271 51.0213Z" fill="currentColor"/>
<path d="M21.1438 25.5212C17.7863 25.5212 14.4075 25.5212 11.05 25.5212C9.49875 25.5212 8.52125 24.7138 8.5 23.4388C8.5 22.1213 9.49875 21.25 11.0925 21.25C17.8925 21.25 24.6925 21.25 31.4925 21.25C33.0438 21.25 34 22.0363 34.0213 23.3538C34.0425 24.7138 33.1075 25.5 31.45 25.5C28.0075 25.5213 24.5863 25.5212 21.1438 25.5212Z" fill="currentColor"/>
<path d="M21.2926 34.0212C17.8501 34.0212 14.4288 34.0212 10.9863 34.0212C9.45634 34.0212 8.50009 33.1712 8.52134 31.875C8.54259 30.6425 9.52009 29.7712 10.9651 29.7712C17.8288 29.7712 24.6926 29.7712 31.5776 29.7712C33.1076 29.7712 34.0638 30.6212 34.0426 31.9387C34.0213 33.2137 33.1076 34.0212 31.6201 34.0212C28.1563 34.0212 24.7138 34.0212 21.2926 34.0212Z" fill="currentColor"/>
<path d="M21.2711 17.0212C17.8711 17.0212 14.4711 17.0212 11.0711 17.0212C9.47734 17.0212 8.47859 16.15 8.49984 14.8537C8.54234 13.5787 9.51984 12.7712 11.0498 12.7712C17.8498 12.7712 24.6498 12.7712 31.4498 12.7712C33.0861 12.7712 34.0211 13.5787 33.9998 14.96C33.9786 16.2562 33.0436 17.0425 31.4711 17.0425C28.0711 17.0212 24.6711 17.0212 21.2711 17.0212Z" fill="currentColor"/>
<path d="M54.2299 25.3513C54.1661 25.5213 54.0386 25.9463 53.8474 26.3076C51.7436 30.0688 49.6399 33.8088 47.5149 37.5701C46.8349 38.7813 45.8999 39.1426 44.9011 38.6326C43.8811 38.1013 43.6261 36.9751 44.2849 35.7851C46.4099 31.9601 48.5774 28.1563 50.7236 24.3526C51.2124 23.5026 51.8711 22.9926 52.8911 23.3113C53.8049 23.5451 54.2511 24.1826 54.2299 25.3513Z" fill="currentColor"/>
</svg>
