<svg width="58" height="68" viewBox="0 0 58 68" xmlns="http://www.w3.org/2000/svg">
<path d="M52.0478 62.7518C51.9461 62.7518 51.8797 62.7518 51.8089 62.7518C50.3176 62.7518 48.8308 62.7518 47.3396 62.7518C47.1183 62.7518 46.8971 62.743 46.6802 62.7164C45.8174 62.6235 45.1846 62.9509 44.658 63.6501C43.5606 65.1104 42.41 66.5264 41.2507 67.9955C39.432 64.1147 37.631 60.2693 35.8211 56.4018C35.6839 56.5169 35.5733 56.6187 35.4538 56.7116C34.5556 57.4107 33.675 57.486 32.697 56.8974C32.1483 56.5656 31.6394 56.1762 31.1084 55.8133C30.5907 55.4593 30.0508 55.1451 29.4313 54.9991C28.4357 54.769 27.533 55.0168 26.6966 55.5434C25.993 55.9859 25.3072 56.4638 24.6036 56.9107C24.2363 57.1452 23.8336 57.3178 23.3823 57.3045C22.9707 57.2913 22.6167 57.1143 22.2671 56.9196C22.0193 56.778 21.776 56.6231 21.5149 56.4594C19.7272 60.287 17.9439 64.1014 16.1473 67.9557C15.8287 67.5751 15.5278 67.2255 15.2401 66.8671C14.2755 65.6502 13.3197 64.4245 12.3506 63.212C12.0851 62.8801 11.7311 62.6987 11.293 62.7075C9.77518 62.7429 8.25738 62.7783 6.74401 62.8093C6.27495 62.8182 5.80147 62.8093 5.29701 62.8093C5.39879 62.535 5.48729 62.2518 5.61119 61.9863C6.91659 59.1719 8.23083 56.362 9.54065 53.5477C9.91678 52.7379 10.3106 51.9414 10.6823 51.1271C11.1071 50.1935 11.2222 49.2332 10.8239 48.2597C10.3726 47.1579 9.48755 46.5649 8.37686 46.2905C7.5184 46.0781 6.63781 45.941 5.77492 45.7463C4.6421 45.4896 4.00932 44.6665 4.09339 43.5249C4.13322 42.985 4.27925 42.4584 4.36775 41.923C4.46953 41.3168 4.61998 40.7105 4.64653 40.0999C4.70405 38.7812 4.08897 37.79 3.00483 37.0687C2.33664 36.6218 1.65961 36.1925 1.00912 35.7235C-0.0838686 34.958 -0.296272 33.834 0.411739 32.7144C0.911772 31.9224 1.43835 31.1524 1.93839 30.3603C2.24372 29.8735 2.41187 29.3337 2.43399 28.754C2.46055 28.0548 2.24372 27.4176 1.86759 26.838C1.39853 26.1078 0.916197 25.3821 0.442714 24.652C0.199336 24.2758 0.0267581 23.8687 0.00463281 23.4174C-0.0307677 22.612 0.389614 22.0456 1.0047 21.6075C1.66403 21.1385 2.34549 20.696 3.01368 20.2402C3.67744 19.7844 4.20845 19.218 4.47838 18.4392C4.72175 17.74 4.67308 17.0364 4.54033 16.3284C4.38987 15.5496 4.1996 14.7796 4.09339 13.9964C3.94294 12.8901 4.4297 11.8945 5.81917 11.5715C6.64223 11.3812 7.46972 11.2263 8.29278 11.0405C9.93006 10.6732 10.8151 9.61117 11.116 8.00044C11.262 7.22163 11.4169 6.4384 11.6072 5.67286C11.8992 4.51792 12.886 3.90726 14.0586 4.11966C14.9879 4.28781 15.9172 4.47367 16.8509 4.61969C18.112 4.8144 19.1563 4.37632 19.9351 3.39395C20.5192 2.65496 21.0149 1.8496 21.5547 1.07522C21.8822 0.606158 22.276 0.212328 22.8513 0.0663004C23.4929 -0.097427 24.077 0.0840007 24.6124 0.429156C25.316 0.876088 26.0108 1.33629 26.7055 1.7965C27.2365 2.14608 27.8118 2.38061 28.449 2.43371C29.1702 2.49124 29.8384 2.29211 30.4402 1.91155C31.1748 1.44692 31.8917 0.955739 32.6174 0.477832C32.9847 0.234453 33.3741 0.0530252 33.821 0.0176247C34.6042 -0.0531764 35.1972 0.287554 35.6353 0.884938C36.0999 1.51772 36.5336 2.17706 36.9628 2.83639C37.4982 3.66388 38.1797 4.28339 39.1532 4.54447C39.8258 4.72147 40.4896 4.64182 41.1578 4.50907C41.9277 4.35419 42.6977 4.19931 43.4721 4.09311C44.627 3.93381 45.5297 4.63297 45.7864 5.84544C45.9634 6.67735 46.1183 7.51369 46.3085 8.34118C46.6581 9.8634 47.6449 10.744 49.1494 11.0759C49.9327 11.2484 50.7159 11.3989 51.4947 11.5759C52.3266 11.7618 52.9506 12.1954 53.1939 13.0627C53.3267 13.5318 53.2515 13.992 53.1585 14.4566C52.9992 15.2708 52.8001 16.0806 52.7028 16.8993C52.5435 18.2754 53.0612 19.3773 54.2073 20.1694C54.9463 20.6827 55.703 21.1694 56.4287 21.7005C57.0039 22.1208 57.3579 22.6872 57.3314 23.4307C57.3137 23.913 57.1234 24.3422 56.8579 24.7405C56.4021 25.4219 55.9375 26.0945 55.495 26.7804C55.1498 27.3159 54.9507 27.9044 54.9197 28.5416C54.8843 29.2717 55.1056 29.9399 55.495 30.5462C55.9463 31.2453 56.411 31.9356 56.8756 32.6304C57.1323 33.0153 57.3181 33.4313 57.3358 33.9004C57.3668 34.7146 56.9552 35.3075 56.3225 35.7545C55.6676 36.2191 54.9861 36.6395 54.3223 37.0908C53.5347 37.6263 52.9683 38.3299 52.7603 39.2812C52.6098 39.9804 52.6983 40.6707 52.8444 41.3566C52.9904 42.0381 53.1585 42.7151 53.2559 43.4054C53.4152 44.5426 52.7426 45.4985 51.6186 45.7507C50.7956 45.9365 49.9681 46.0914 49.1406 46.2419C47.6316 46.5118 46.3926 47.7862 46.1935 49.3129C46.1448 49.6846 46.1758 50.0563 46.3439 50.4103C47.5962 53.083 48.8397 55.7558 50.0831 58.4329C50.6805 59.7162 51.2735 61.0039 51.862 62.2916C51.9372 62.4332 51.9815 62.5792 52.0478 62.7518ZM48.0874 28.8779C48.1272 18.0453 39.5603 9.32796 28.8384 9.23504C18.258 9.14211 9.3725 17.6294 9.22647 28.4487C9.07602 39.4494 18.0102 47.9853 28.5729 48.1225C39.3037 48.2597 48.1582 39.2326 48.0874 28.8779Z" fill="currentColor"/>
<path d="M28.8162 45.8171C19.4085 45.8746 11.3948 38.3918 11.5275 28.4354C11.6514 19.01 19.3023 11.5272 28.6481 11.5139C37.9673 11.5007 45.9014 19.0631 45.8262 28.7186C45.751 38.352 38.0115 45.8702 28.8162 45.8171ZM20.3334 29.6656C20.3644 30.1302 20.6387 30.4267 20.9175 30.7099C22.0016 31.8073 23.0902 32.8959 24.1876 33.98C24.5947 34.3871 25.0195 34.7721 25.5505 35.0243C25.7718 35.1261 25.9798 35.25 26.1877 35.3739C26.3117 35.4491 26.4179 35.4624 26.555 35.3916C26.8073 35.2588 27.0816 35.1571 27.3294 35.0199C27.5595 34.8916 27.7985 34.7632 27.9888 34.5862C28.6614 33.949 29.3207 33.2897 29.98 32.6348C32.0288 30.5948 34.0732 28.5504 36.1176 26.5105C36.2592 26.3689 36.3964 26.2273 36.5247 26.0768C36.8256 25.7228 36.923 25.267 36.7061 24.9529C36.4583 24.59 36.1928 24.2271 35.8742 23.9307C35.4627 23.5457 34.852 23.3952 34.2989 23.8953C33.9714 24.1917 33.644 24.4882 33.3298 24.8024C31.4447 26.6831 29.5641 28.5681 27.679 30.4488C27.4533 30.67 27.2188 30.8869 26.971 31.0816C26.5639 31.4002 26.2763 31.4002 25.8514 31.0904C25.7098 30.9887 25.5727 30.8736 25.4443 30.7497C24.6788 29.993 23.9177 29.2319 23.1522 28.4752C23.0017 28.3248 22.8335 28.1876 22.661 28.0637C22.2937 27.8026 21.9176 27.8159 21.5459 28.0637C21.1564 28.3248 20.8157 28.6434 20.5723 29.046C20.4661 29.2319 20.413 29.4576 20.3334 29.6656Z" fill="currentColor"/>
</svg>
