<svg width="64" height="68" viewBox="0 0 64 68" xmlns="http://www.w3.org/2000/svg">
<path d="M38.4591 0C38.8784 0.279032 39.3256 0.511558 39.6889 0.837095C39.9125 1.04172 40.0523 1.37656 40.1175 1.68349C40.3132 2.57639 40.4436 3.47859 40.6206 4.37149C40.6486 4.51101 40.8069 4.66913 40.9467 4.73424C41.9342 5.16208 42.9498 5.56203 43.9373 5.99918C44.1609 6.10149 44.2914 6.1387 44.5056 5.98058C45.1392 5.50622 45.7913 5.06907 46.4435 4.62262C47.459 3.93435 48.4745 3.94365 49.3783 4.73424C50.0677 5.3295 50.7012 5.98988 51.3161 6.67816C51.959 7.40364 51.9962 8.60347 51.4466 9.40336C50.9807 10.0916 50.5056 10.7892 50.0118 11.4589C49.8441 11.6821 49.8814 11.8309 49.9838 12.0728C50.4031 13.068 50.7851 14.0818 51.195 15.077C51.2416 15.1979 51.4093 15.3281 51.5304 15.356C52.4155 15.5328 53.3006 15.6816 54.1856 15.8304C55.1359 15.9885 55.8813 16.9279 55.9279 18.0719C55.9558 18.8346 55.9558 19.588 55.9279 20.3507C55.8813 21.6156 55.0987 22.4341 53.8409 22.6109C53.0397 22.7225 52.2478 22.8713 51.4652 23.0294C51.3348 23.0573 51.1857 23.2061 51.1298 23.327C50.6826 24.4246 50.2633 25.5407 49.8068 26.7219C50.2633 27.373 50.7944 28.1171 51.2975 28.8705C51.9962 29.9215 52.0056 30.8144 51.195 31.7538C50.5522 32.4979 49.8161 33.1769 49.0708 33.8186C48.4093 34.386 47.2634 34.3767 46.546 33.8651C45.8379 33.3629 45.1578 32.8234 44.4497 32.3212C44.3473 32.2467 44.133 32.2188 44.0119 32.2747C42.987 32.6746 41.9808 33.1118 40.9653 33.5024C40.7417 33.5954 40.6206 33.6791 40.5833 33.9395C40.4436 34.8231 40.2852 35.7067 40.1082 36.5903C39.9312 37.4739 39.0368 38.2087 38.0865 38.2273C37.2014 38.2459 36.3163 38.2459 35.4312 38.2273C34.3878 38.2087 33.5586 37.4553 33.3816 36.4229C33.2418 35.5858 33.1021 34.7487 32.9344 33.9116C32.9064 33.7721 32.7573 33.5954 32.6176 33.5396C31.5834 33.0931 30.54 32.6653 29.4872 32.2561C29.3754 32.2095 29.1891 32.2467 29.0773 32.3119C28.276 32.842 27.4934 33.3908 26.6922 33.9209C26.0028 34.386 24.8382 34.2651 24.1022 33.5954C23.4314 32.9815 22.7885 32.3305 22.1829 31.6515C21.5028 30.8888 21.4656 29.7541 22.0339 28.9077C22.4997 28.2194 22.9749 27.5311 23.4686 26.8521C23.5991 26.6661 23.6084 26.5452 23.5152 26.322C23.0867 25.3175 22.7047 24.285 22.2854 23.2712C22.2295 23.1503 22.0805 23.0108 21.95 22.9829C21.1022 22.8155 20.2451 22.6574 19.3879 22.5271C18.3911 22.3783 17.6178 21.5877 17.5805 20.5832C17.5432 19.6531 17.5432 18.723 17.5712 17.7929C17.6085 16.7791 18.419 15.9606 19.4066 15.8211C20.2823 15.6909 21.1488 15.5235 22.0152 15.356C22.127 15.3374 22.2482 15.1793 22.2947 15.0584C22.714 14.0446 23.1239 13.0308 23.5152 12.0077C23.5711 11.8681 23.5618 11.6449 23.4873 11.5333C23.0401 10.845 22.5649 10.1754 22.0991 9.50568C21.4376 8.55697 21.4376 7.50595 22.2109 6.65955C22.8817 5.91547 23.6177 5.21789 24.3817 4.55752C25.0059 4.01805 26.1798 4.03666 26.8692 4.51101C27.5959 5.01327 28.3133 5.52483 29.04 6.01778C29.1425 6.08289 29.3288 6.12009 29.4406 6.07359C30.5027 5.65504 31.5648 5.22719 32.6176 4.79004C32.7294 4.74354 32.8505 4.59472 32.8691 4.47381C33.0462 3.59021 33.1859 2.70661 33.3536 1.83231C33.484 1.13473 33.866 0.623171 34.4996 0.288333C34.6766 0.195322 34.8443 0.111613 35.012 0.0186021C36.1579 0 37.3132 0 38.4591 0ZM43.3317 19.1974C43.2852 15.4304 40.3225 12.5285 36.5772 12.575C33.1114 12.6215 30.1394 15.6444 30.1487 19.0486C30.158 22.8062 33.0741 25.7081 36.7449 25.736C40.3597 25.7639 43.3783 22.7225 43.3317 19.1974Z" fill="currentColor"/>
<path d="M13.7607 68.0001C9.15827 63.517 4.60243 59.0804 0 54.5973C0.316766 54.2624 0.605583 53.9555 0.903716 53.6579C3.44716 51.1373 5.99061 48.626 8.53406 46.1147C9.74522 44.9149 10.9378 43.7057 12.4005 42.7942C14.3383 41.5944 16.4253 40.8503 18.6892 40.562C20.4873 40.3387 22.2575 40.4411 23.9997 40.8596C25.1084 41.1293 26.1798 41.5665 27.2699 41.9106C27.5121 41.985 27.7823 42.0222 28.0431 42.0222C32.2543 42.0315 36.4561 42.0315 40.6672 42.0222C42.0461 42.0222 43.192 42.4873 44.1144 43.5476C45.5212 45.1567 45.3628 47.7796 43.779 49.2212C42.8566 50.0583 41.7945 50.4397 40.5647 50.4304C37.984 50.4211 35.4126 50.4211 32.8319 50.4304C31.7698 50.4304 31.1083 51.1838 31.1642 52.2255C31.2015 52.8859 31.9095 53.6206 32.7574 53.6113C34.2946 53.5834 35.8319 53.6206 37.3691 53.602C38.8877 53.5834 40.425 53.6579 41.925 53.4811C44.2355 53.2114 46.015 51.9651 47.2727 50.0025C47.9435 48.9608 48.3441 47.8168 48.3907 46.5611C48.4 46.4216 48.4839 46.2635 48.577 46.1612C50.487 44.0127 52.4155 41.8641 54.3347 39.7249C54.9124 39.0831 55.4621 38.4134 56.0863 37.8089C57.3068 36.6276 58.7695 36.2091 60.4465 36.6276C63.0831 37.2973 64.0241 39.9667 63.2787 42.2083C63.0551 42.8965 62.5427 43.529 62.0582 44.1057C61.0334 45.3427 59.9527 46.5332 58.8906 47.7517C57.698 49.1189 56.5055 50.4769 55.313 51.8441C54.1111 53.2207 52.9093 54.588 51.7074 55.9645C50.487 57.3597 49.2572 58.7548 48.046 60.1593C47.2448 61.0894 46.3783 61.9451 45.3255 62.5869C43.6951 63.5542 41.9436 64.0843 40.0337 64.0843C32.8412 64.0843 25.6581 64.1029 18.4656 64.0564C17.711 64.0564 17.2824 64.3541 16.8259 64.8377C15.829 65.898 14.8135 66.9212 13.7607 68.0001Z" fill="currentColor"/>
</svg>
