<svg width="68" height="68" viewBox="0 0 68 68" xmlns="http://www.w3.org/2000/svg">
<path d="M-0.000160079 56.8155C0.405418 55.9912 1.16301 55.8097 1.71398 56.3996C1.98182 56.6869 2.05834 57.0121 1.9206 57.3751C1.76755 57.7683 1.46145 57.9801 1.05587 58.0179C0.673253 58.0557 0.367156 57.8893 0.152888 57.5642C0.091669 57.4734 0.0457544 57.3675 -0.0078125 57.2692C-0.000160079 57.118 -0.000160079 56.9667 -0.000160079 56.8155Z" fill="currentColor"/>
<path d="M43.2056 26.6193C45.0805 27.7007 46.9094 28.7594 48.746 29.8182C50.2382 30.6803 51.7304 31.5499 53.2303 32.3969C53.4675 32.533 53.59 32.6994 53.6588 32.9716C54.7225 37.4334 55.8015 41.8876 56.8958 46.4249C57.5003 46.3342 58.0972 46.2586 58.6865 46.1451C60.1787 45.8502 61.5714 45.3284 62.7346 44.3226C63.8365 43.3698 64.4487 42.1598 64.6554 40.7381C65.015 38.2274 64.4105 35.9134 63.0943 33.7732C62.4362 32.6994 61.6633 31.6936 60.9516 30.65C60.7832 30.408 60.5996 30.3853 60.3394 30.4534C59.8114 30.5971 59.2757 30.7105 58.7477 30.8391C57.0029 31.2626 55.3577 30.3248 54.9215 28.6006C54.1639 25.606 53.4446 22.5962 52.7099 19.594C52.3962 18.3084 52.0595 17.0379 51.784 15.7448C51.4396 14.1491 52.3962 12.5989 53.9879 12.1905C56.054 11.6611 58.1278 11.162 60.2093 10.6932C61.9694 10.2999 63.5381 11.2982 63.9666 13.045C64.9997 17.2572 66.0328 21.4619 67.0506 25.674C67.4638 27.3907 66.4078 29.0317 64.663 29.4249C64.0738 29.5611 63.4845 29.7047 62.8417 29.856C62.9718 30.0299 63.0713 30.166 63.1708 30.3022C64.5482 32.17 65.7726 34.1287 66.3465 36.4049C66.8899 38.5677 66.9434 40.7381 66.117 42.8631C65.2293 45.1393 63.4922 46.5459 61.2577 47.4231C60.1404 47.8618 58.9849 48.1416 57.7911 48.2701C57.6534 48.2852 57.5233 48.3231 57.3014 48.376C57.4544 48.7692 57.5463 49.1776 57.7529 49.5028C60.4771 53.7377 63.2244 57.965 65.9486 62.1998C67.3337 64.3475 66.2777 67.4103 63.3391 67.9396C61.6862 68.2345 60.3164 67.5086 59.4747 66.1927C57.1713 62.5855 54.845 58.9934 52.5263 55.3938C51.7534 54.1914 50.9346 53.0192 50.2229 51.7866C49.8785 51.1892 49.6719 50.4934 49.5036 49.8128C48.9373 47.582 48.4169 45.3435 47.8659 43.0522C47.4527 43.3773 47.0701 43.6723 46.6951 43.9823C44.3994 45.8426 42.1113 47.7105 39.8079 49.5633C39.609 49.7221 39.5018 49.8885 39.4942 50.1607C39.4636 52.6562 39.4253 55.1518 39.3871 57.6398C39.3488 60.0295 39.3488 62.4267 39.257 64.8164C39.2034 66.17 38.2545 67.5161 36.4638 67.8942C34.7497 68.2572 33.1809 67.6296 32.2627 66.2003C31.8877 65.6104 31.727 64.9525 31.7346 64.2568C31.7576 59.9236 31.7729 55.5904 31.8112 51.2572C31.8188 50.1153 31.8571 48.9659 31.9642 47.8315C32.0331 47.1207 32.4157 46.5157 32.959 46.009C36.1807 43.0295 39.3871 40.0424 42.6087 37.0704C42.8153 36.8813 42.8613 36.6998 42.8 36.4427C42.3638 34.4917 41.9353 32.5406 41.5068 30.5895C41.4762 30.461 41.4685 30.3097 41.5144 30.1963C42.0807 29.0166 42.6393 27.8444 43.2056 26.6193Z" fill="currentColor"/>
<path d="M53.0542 30.5137C49.9703 28.7366 46.9399 26.9821 43.879 25.2201C44.1621 24.6152 44.4376 24.0329 44.6978 23.4506C44.912 22.959 44.6748 22.4902 44.1621 22.3616C43.8024 22.2708 43.4504 22.4599 43.2515 22.8834C42.7081 24.0329 42.1725 25.1899 41.6291 26.3394C41.0782 27.5115 40.5195 28.6837 39.9686 29.8558C39.6931 30.4457 39.2416 30.8313 38.6217 31.0582C35.3848 32.2531 32.1554 33.4706 28.9185 34.673C27.4492 35.2175 25.8498 34.4688 25.4519 33.0547C25.1382 31.9506 25.8575 30.5742 26.9441 30.1886C29.722 29.213 32.4998 28.2299 35.2776 27.2544C35.5072 27.1712 35.6449 27.0578 35.7368 26.8158C36.9765 23.4354 38.1855 20.0475 39.4788 16.6899C40.2823 14.6103 42.4709 12.7953 45.0192 12.8709C46.6109 12.9163 47.774 13.7255 48.7 14.9354C49.4499 15.9185 49.8402 17.0529 50.1157 18.2402C51.0263 22.1196 51.9676 25.9915 52.8935 29.8634C52.9547 30.0676 52.993 30.2566 53.0542 30.5137Z" fill="currentColor"/>
<path d="M25.5972 7.11613C25.5972 6.53383 25.5972 5.97422 25.5972 5.35412C26.6149 5.35412 27.6098 5.35412 28.6122 5.35412C29.5994 5.35412 30.5865 5.35412 31.6196 5.35412C31.8339 3.27449 32.7981 1.67885 34.6653 0.665503C35.8514 0.0227092 37.1294 -0.151223 38.4379 0.121019C40.9173 0.635254 43.4273 2.70732 42.9835 7.10856C37.1982 7.11613 31.4054 7.11613 25.5972 7.11613Z" fill="currentColor"/>
<path d="M38.3312 18.3537C32.4158 18.694 28.031 14.0961 27.8091 8.57568C32.852 8.57568 37.895 8.57568 42.9379 8.57568C42.9991 10.8822 41.1932 13.1584 38.8515 13.6953C38.4306 13.7937 38.3465 13.9525 38.3541 14.3381C38.3771 15.6237 38.3618 16.9018 38.3618 18.1873C38.3694 18.2327 38.3465 18.2856 38.3312 18.3537ZM29.7758 10.2545C30.6175 14.0583 33.9769 16.4556 36.6247 16.5539C36.6247 14.4591 36.6247 12.3644 36.6247 10.2545C34.3366 10.2545 32.0715 10.2545 29.7758 10.2545Z" fill="currentColor"/>
<path d="M10.7822 52.0437C10.8894 51.8093 10.9582 51.5446 11.1036 51.3404C14.9375 45.9485 18.7867 40.5642 22.6282 35.1798C22.7812 34.9605 22.9343 34.7488 23.095 34.537C23.5006 34.0228 24.151 33.9094 24.6484 34.2648C25.1611 34.6278 25.2836 35.2857 24.9009 35.8377C24.35 36.6393 23.776 37.4258 23.2098 38.2199C20.1258 42.5455 17.0343 46.8862 13.935 51.227C13.5677 51.7412 13.208 52.263 12.8254 52.7621C12.527 53.1554 12.0066 53.2839 11.5551 53.1175C11.096 52.936 10.8205 52.5428 10.7822 52.0437Z" fill="currentColor"/>
<path d="M58.9467 5.91382C59.2222 7.03304 59.4823 8.09932 59.7502 9.20341C58.6865 9.45296 57.6534 9.69496 56.6203 9.94451C55.5949 10.1865 54.5771 10.4361 53.5364 10.6856C53.2686 9.59665 53.0084 8.5228 52.7329 7.40359C54.7914 6.90448 56.8423 6.41293 58.9467 5.91382Z" fill="currentColor"/>
<path d="M11.4023 54.6829C11.3947 55.2274 10.9432 55.666 10.3999 55.6584C9.86418 55.6584 9.40504 55.1896 9.41269 54.6602C9.42034 54.1384 9.86418 53.7074 10.3999 53.7149C10.9508 53.7149 11.41 54.1536 11.4023 54.6829Z" fill="currentColor"/>
<path d="M10.5756 56.9591C11.1419 56.9666 11.5704 57.3826 11.5704 57.9346C11.5704 58.4791 11.1113 58.9253 10.5756 58.9101C10.0323 58.895 9.58078 58.4337 9.59608 57.9044C9.60373 57.3826 10.0552 56.9515 10.5756 56.9591Z" fill="currentColor"/>
<path d="M4.18588 55.2123C4.73686 55.2198 5.16539 55.6736 5.15009 56.218C5.13478 56.7323 4.66798 57.1785 4.15527 57.1709C3.6196 57.1558 3.1375 56.6718 3.16046 56.1727C3.18341 55.6282 3.64256 55.2047 4.18588 55.2123Z" fill="currentColor"/>
<path d="M9.77988 61.1485C9.78754 60.6192 10.2237 60.2032 10.7594 60.2108C11.3027 60.2184 11.7772 60.6797 11.7619 61.1939C11.7466 61.7308 11.2568 62.177 10.6982 62.1694C10.2084 62.1543 9.77223 61.6779 9.77988 61.1485Z" fill="currentColor"/>
<path d="M6.02248 61.5873C5.4715 61.5873 5.04297 61.1487 5.04297 60.5966C5.04297 60.0748 5.48681 59.6438 6.02248 59.6438C6.5658 59.6438 7.02495 60.0824 7.02495 60.6269C7.0326 61.1563 6.58876 61.5873 6.02248 61.5873Z" fill="currentColor"/>
<path d="M3.19883 63.2886C3.19883 62.7517 3.65032 62.3282 4.2166 62.3358C4.74462 62.3434 5.18081 62.782 5.18081 63.3113C5.17315 63.8407 4.70636 64.302 4.17834 64.2944C3.63502 64.2869 3.19118 63.8331 3.19883 63.2886Z" fill="currentColor"/>
<path d="M8.8766 57.927C8.8766 58.4714 8.43276 58.9101 7.88944 58.9101C7.36142 58.9101 6.88697 58.4412 6.89462 57.9194C6.90227 57.39 7.36142 56.9666 7.92005 56.9666C8.45572 56.9666 8.8766 57.39 8.8766 57.927Z" fill="currentColor"/>
<path d="M7.34647 56.3163C6.8108 56.3239 6.344 55.8701 6.35166 55.3332C6.35166 54.8038 6.78784 54.3652 7.30821 54.3577C7.85918 54.3577 8.31833 54.7887 8.33363 55.3181C8.34894 55.8474 7.88979 56.3087 7.34647 56.3163Z" fill="currentColor"/>
<path d="M10.9124 63.4551C11.471 63.4551 11.9225 63.8861 11.9302 64.4155C11.9378 64.9524 11.4863 65.391 10.9277 65.391C10.3691 65.391 9.93288 64.9524 9.94053 64.4079C9.95583 63.8786 10.3844 63.4551 10.9124 63.4551Z" fill="currentColor"/>
</svg>
