<svg width="24" height="24" viewBox="0 0 24 24" xmlns="http://www.w3.org/2000/svg">
<path d="M24.0001 12.3138C23.9721 12.6497 23.9441 12.9895 23.9201 13.3253C23.8081 14.7406 23.3682 16.056 22.7603 17.3273C22.4204 18.031 22.0124 18.7026 21.5125 19.2984C20.5887 20.4018 19.5928 21.4333 18.345 22.1969C16.8773 23.0965 15.2975 23.6482 13.6058 23.8881C12.0381 24.1079 10.4943 24.016 8.9586 23.5882C7.92277 23.3004 6.93094 22.9325 6.00709 22.4008C5.45519 22.081 4.93527 21.7011 4.44335 21.2974C3.93944 20.8856 3.46752 20.4298 3.01559 19.958C2.18773 19.0945 1.58783 18.071 1.08391 16.9915C0.200062 15.0885 -0.127884 13.0895 0.0440877 11.0145C0.26805 8.28786 1.30388 5.90905 3.16757 3.89805C5.10724 1.8031 7.48685 0.53973 10.3144 0.135932C10.6383 0.087956 10.9623 0.071964 11.2862 0.03998C11.3662 0.031984 11.4422 0.011994 11.5182 0C11.8781 0 12.2381 0 12.598 0C12.9619 0.03998 13.3259 0.071964 13.6858 0.123938C15.5015 0.383808 17.1732 1.0075 18.665 2.08696C19.1929 2.47076 19.7288 2.84658 20.2127 3.27836C20.9206 3.91004 21.5045 4.65367 22.0324 5.44528C22.9643 6.84058 23.5402 8.37181 23.8281 10.015C23.9001 10.4188 23.9361 10.8306 23.9921 11.2384C24.0001 11.5942 24.0001 11.954 24.0001 12.3138ZM19.6768 4.47776C14.6137 9.56322 9.5825 14.6167 4.53934 19.6782C6.95494 21.965 9.85045 23.0685 13.1899 22.6487C17.5852 22.093 20.5527 19.6262 22.1524 15.5002C23.4202 11.3743 22.5763 7.72414 19.6768 4.47776ZM3.69548 18.7706C4.1674 18.2749 4.62332 17.7991 5.07125 17.3193C5.10724 17.2794 5.12724 17.1994 5.11924 17.1434C4.91928 15.976 4.69131 14.8126 4.51934 13.6452C4.27538 12.002 4.11141 10.3548 4.28738 8.69165C4.39536 7.67216 4.61533 6.68466 5.07525 5.75712C6.07108 3.74613 8.57067 3.32634 10.1704 4.90555C10.7423 5.46926 11.1222 6.14893 11.3902 6.89655C11.4902 7.18041 11.5782 7.47226 11.6701 7.75612C11.7501 7.74413 11.8221 7.71614 11.8781 7.73213C12.0861 7.7961 12.1261 7.68816 12.1781 7.51624C12.426 6.68466 12.75 5.89305 13.3099 5.2014C14.3137 3.96602 16.1454 3.50625 17.4812 4.41379C17.5452 4.45777 17.6172 4.50575 17.6891 4.52974C17.7411 4.54573 17.8251 4.54573 17.8571 4.51374C18.1411 4.23388 18.417 3.94603 18.701 3.65417C18.661 3.61819 18.633 3.5902 18.605 3.56222C17.6452 2.7906 16.5773 2.21489 15.4095 1.83108C12.842 0.991504 10.3104 1.12344 7.81479 2.13493C7.08291 2.43078 6.37503 2.77061 5.77113 3.29035C5.28322 3.71014 4.81129 4.15792 4.33537 4.5937C4.13141 4.78161 3.90344 4.95752 3.73147 5.17341C2.3957 6.84458 1.54384 8.71164 1.34387 10.8666C1.1839 12.5657 1.34787 14.2129 1.96777 15.8121C2.3717 16.8596 2.91161 17.8311 3.69548 18.7706ZM9.39053 10.4028C9.5825 9.81109 10.0024 9.50725 10.4344 9.21139C10.5343 9.14343 10.6223 9.04348 10.6743 8.93553C10.8383 8.61569 10.9783 8.28386 11.2582 8.03598C11.2942 8.004 11.2982 7.91604 11.2862 7.86007C11.1142 7.02049 10.7983 6.24488 10.2704 5.56122C9.72647 4.85357 9.03859 4.3978 8.12674 4.32184C7.1789 4.24188 6.40303 4.56572 5.79913 5.29735C5.3552 5.83708 5.07925 6.46077 4.91928 7.13643C4.54334 8.71164 4.54734 10.3108 4.68331 11.906C4.7913 13.1894 5.02326 14.4648 5.21123 15.7401C5.26722 16.1239 5.3632 16.4998 5.44719 16.8956C5.49918 16.8636 5.51518 16.8556 5.53117 16.8436C6.17507 16.2079 6.82296 15.5722 7.46285 14.9285C7.51484 14.8766 7.54284 14.7606 7.53084 14.6847C7.49085 14.4888 7.59883 14.3768 7.7508 14.3808C8.05875 14.3848 8.20673 14.1729 8.3827 13.993C8.67465 13.6972 8.9666 13.3973 9.27055 13.0895C8.55867 12.7616 7.87478 12.4458 7.1749 12.1259C7.1669 12.1859 7.1589 12.2379 7.1589 12.2859C7.13091 12.8456 7.10691 13.4053 7.07492 13.961C7.07092 14.045 7.03892 14.1609 6.98293 14.2009C6.72297 14.3848 6.44702 14.5527 6.17107 14.7126C5.9871 14.8206 5.81913 14.7926 5.74314 14.6647C5.67115 14.5367 5.73114 14.3728 5.90311 14.2609C6.07508 14.1489 6.25905 14.049 6.42702 13.933C6.48301 13.8931 6.53101 13.8131 6.53501 13.7451C6.559 13.4133 6.563 13.0815 6.583 12.7456C6.60299 12.3858 6.61499 12.026 6.66298 11.6702C6.69098 11.4463 6.83896 11.3863 7.03892 11.4783C7.69081 11.7821 8.33871 12.086 8.9906 12.3898C9.07058 12.4258 9.15857 12.4538 9.24655 12.4898C9.24655 12.082 9.24655 11.6982 9.24655 11.2984C9.31454 11.3223 9.38253 11.3463 9.45052 11.3703C9.78646 11.4783 10.1184 11.5902 10.4584 11.6862C10.6823 11.7501 10.7423 11.7061 10.8543 11.4623C10.6863 11.4183 10.5223 11.3703 10.3544 11.3303C9.52651 11.1264 8.81863 10.6707 8.08275 10.2709C7.89078 10.1669 7.7828 10.031 7.7788 9.81909C7.7668 9.29535 7.7668 8.76762 7.7588 8.24388C7.7588 8.07596 7.90278 8.01999 8.01476 8.01999C8.09475 8.01999 8.19473 8.12394 8.24672 8.2039C8.29071 8.26787 8.28271 8.37181 8.28271 8.45577C8.28671 8.83558 8.28271 9.21539 8.28671 9.5952C8.28671 9.65917 8.29071 9.75112 8.33071 9.77511C8.66265 9.98701 9.00659 10.1829 9.39053 10.4028ZM17.5052 4.84158C17.3412 4.74163 17.2052 4.64168 17.0493 4.56572C16.0654 4.09795 14.5537 4.28986 13.7178 5.29735C13.1179 6.02099 12.706 6.82059 12.502 7.73613C12.458 7.93203 12.446 8.07996 12.622 8.21989C12.718 8.29985 12.774 8.43578 12.838 8.55172C12.9179 8.69965 12.9739 8.85557 13.0539 8.9995C13.1179 9.11944 13.2019 9.15142 13.3179 9.03148C14.6577 7.69215 15.9974 6.36082 17.3372 5.02549C17.3932 4.98151 17.4332 4.92154 17.5052 4.84158Z" fill="currentColor"/>
<path d="M15.5773 14.8488C15.1774 14.8128 14.8014 14.7808 14.4255 14.7448C14.2855 14.7328 14.2855 14.8208 14.2735 14.9207C14.1695 15.6324 14.0736 16.344 13.9536 17.0517C13.8496 17.6554 13.6936 18.2471 13.4137 18.7988C13.1217 19.3705 12.7058 19.8103 12.0659 19.9942C12.0419 20.0022 12.0139 20.0062 11.9659 20.0142C11.9659 19.9302 11.9659 19.8623 11.9659 19.7903C11.9659 17.8313 11.9659 15.8723 11.9619 13.9172C11.9619 13.7693 12.0059 13.6694 12.1099 13.5694C12.8178 12.8738 13.5217 12.1741 14.2255 11.4745C14.2735 11.4265 14.3335 11.3865 14.4295 11.3105C14.4295 11.7223 14.4295 12.0902 14.4295 12.494C14.5255 12.458 14.5815 12.438 14.6415 12.41C15.2574 12.1261 15.8733 11.8423 16.4892 11.5504C16.9611 11.3265 17.1211 11.4145 17.1451 11.9382C17.169 12.5099 17.185 13.0817 17.189 13.6534C17.189 13.8173 17.241 13.9053 17.385 13.9772C17.557 14.0612 17.717 14.1771 17.8889 14.2651C18.0649 14.357 18.0569 14.5089 17.9969 14.6409C17.9329 14.7808 17.7969 14.8248 17.645 14.7288C17.385 14.5689 17.1171 14.417 16.8651 14.2491C16.7131 14.1491 16.6491 13.9932 16.6531 13.8013C16.6611 13.2416 16.6571 12.6859 16.6571 12.0822C16.4892 12.1541 16.3852 12.1941 16.2852 12.2421C15.7093 12.498 15.1334 12.7578 14.5535 13.0097C14.4495 13.0537 14.3975 13.1056 14.3975 13.2256C14.3935 13.4655 14.3695 13.7053 14.3615 13.9452C14.3535 14.1651 14.3975 14.2091 14.6215 14.2331C15.0454 14.2731 15.4693 14.313 15.8933 14.353C15.9572 14.361 16.0252 14.377 16.0852 14.405C16.2292 14.465 16.2852 14.5569 16.2252 14.7208C15.9213 15.5564 15.6293 16.4 15.3174 17.2356C15.2334 17.4635 15.2094 17.6794 15.2574 17.9152C15.3653 18.451 15.4653 18.9867 15.5533 19.5264C15.5773 19.6664 15.6453 19.8343 15.4893 19.9502C15.3054 20.0902 15.1174 20.0182 15.0614 19.7663C14.9694 19.3425 14.8974 18.9187 14.8214 18.491C14.8014 18.387 14.8014 18.2791 14.7734 18.1751C14.6175 17.6074 14.7774 17.0917 14.9894 16.5719C15.1934 16.0802 15.3573 15.5764 15.5373 15.0727C15.5533 15.0087 15.5573 14.9367 15.5773 14.8488Z" fill="currentColor"/>
<path d="M11.5459 14.1812C11.5459 16.1362 11.5459 18.0472 11.5459 19.9703C11.2659 19.9463 11.062 19.8023 10.882 19.6184C10.5061 19.2346 10.2501 18.7709 10.0981 18.2671C9.91015 17.6394 9.77818 16.9957 9.6222 16.3561C9.58621 16.2041 9.6222 16.0802 9.74218 15.9643C10.2901 15.4285 10.826 14.8848 11.3699 14.3411C11.4139 14.2931 11.4659 14.2491 11.5459 14.1812Z" fill="currentColor"/>
<path d="M19.1126 6.69678C19.1726 7.06859 19.2446 7.43241 19.2926 7.79623C19.3846 8.50787 19.5166 9.21952 19.5286 9.93516C19.5606 11.6383 19.3646 13.3255 19.0567 14.9966C18.8647 16.0281 18.6447 17.0556 18.4328 18.0871C18.4048 18.223 18.3968 18.4189 18.1888 18.3789C17.9848 18.339 18.0448 18.163 18.0728 18.0191C18.3528 16.5878 18.6767 15.1685 18.8967 13.7293C19.1966 11.7902 19.3006 9.83521 19.0007 7.88019C18.9607 7.62431 18.8887 7.37244 18.8327 7.12057C18.7807 6.88069 18.8287 6.79273 19.1126 6.69678Z" fill="currentColor"/>
<path d="M8.84261 16.8877C9.14256 17.3195 9.08657 17.7713 8.98659 18.235C8.8906 18.6828 8.83061 19.1386 8.74663 19.5903C8.73063 19.6863 8.71863 19.8062 8.65864 19.8702C8.59465 19.9422 8.47067 20.0141 8.37869 20.0061C8.26271 19.9941 8.16672 19.8942 8.19072 19.7463C8.2787 19.2105 8.37869 18.6748 8.45067 18.1351C8.48667 17.8712 8.46267 17.5953 8.47067 17.3275C8.47067 17.2795 8.48267 17.2235 8.51066 17.1915C8.62265 17.0836 8.73863 16.9836 8.84261 16.8877Z" fill="currentColor"/>
</svg>
