<svg width="25" height="24" viewBox="0 0 25 24" xmlns="http://www.w3.org/2000/svg">
<path d="M24.0735 12.5105C23.8941 12.5105 23.9017 12.513 23.8865 12.6924C23.8486 13.1144 23.8107 13.5364 23.7501 13.9533C23.7071 14.254 23.6414 14.5522 23.5656 14.8453C23.4949 15.1182 23.3559 15.5553 23.2573 15.8206C23.1108 16.2199 22.9541 16.6166 22.7848 17.0083C22.6736 17.2609 22.5271 17.4959 22.3906 17.736C22.2239 18.0266 22.0596 18.3197 21.8752 18.6002C21.7362 18.8124 21.5644 19.0045 21.4127 19.2066C20.9958 19.76 20.5157 20.2603 19.9977 20.7177C19.6288 21.0436 19.2422 21.357 18.8404 21.64C18.474 21.8952 18.0798 22.115 17.6856 22.3273C17.3243 22.5218 16.9503 22.6937 16.5764 22.8604C16.3439 22.964 16.0988 23.0398 15.8562 23.1207C15.601 23.2041 15.3433 23.2875 15.083 23.3532C14.8505 23.4113 14.6105 23.4517 14.3729 23.4922C14.052 23.5503 13.7337 23.6084 13.4102 23.6513C13.2308 23.6766 13.0489 23.6716 12.867 23.6741C12.7735 23.6766 12.728 23.7069 12.728 23.8055C12.7305 24.6444 12.7305 22.4486 12.7305 23.7928C12.7305 23.808 12.7381 23.8257 12.7406 23.8409H11.6288C11.6313 23.664 11.6364 23.4871 11.6364 23.3102C11.6364 22.1403 11.6364 24.5054 11.6389 23.8409C11.6389 23.7246 11.6035 23.6791 11.4822 23.669C11.0451 23.6311 10.6054 23.5983 10.1708 23.5326C9.80188 23.477 9.43549 23.3961 9.07668 23.2925C8.68249 23.1788 8.29841 23.0196 7.90927 22.8882C7.23713 22.6633 6.61553 22.3247 6.01414 21.9609C5.42791 21.6046 4.872 21.1978 4.36663 20.7303C3.83852 20.2426 3.33821 19.7246 2.89853 19.151C2.52961 18.6735 2.1986 18.1731 1.90296 17.6476C1.70839 17.3014 1.5492 16.935 1.39001 16.5711C1.24092 16.2275 1.10447 15.8813 0.983184 15.5275C0.897271 15.2774 0.846734 15.0146 0.783563 14.7568C0.720392 14.4966 0.657221 14.2363 0.606684 13.9735C0.578888 13.8371 0.558674 13.6981 0.546039 13.5566C0.515717 13.2609 0.495502 12.9628 0.475287 12.6671C0.467707 12.5433 0.412116 12.5079 0.290828 12.5105C-0.737599 12.5155 1.54667 12.513 0.518244 12.513C0.46518 12.513 0.409589 12.513 0.346418 12.513V11.4189C0.396955 11.4189 0.447492 11.4189 0.495502 11.4189C1.52646 11.4189 -0.750234 11.4189 0.28072 11.4189C0.442438 11.4189 0.460126 11.4037 0.475287 11.2445C0.482868 11.1662 0.475288 11.0853 0.485395 11.0045C0.528351 10.633 0.563727 10.2616 0.621845 9.89519C0.664801 9.61218 0.730499 9.3317 0.798724 9.05375C0.846734 8.85665 0.925066 8.66461 0.983184 8.47004C1.02867 8.31591 1.08173 8.16177 1.13479 8.00763C1.20302 7.81306 1.26872 7.61597 1.3521 7.42646C1.47592 7.1485 1.60479 6.87308 1.74629 6.60523C1.92823 6.2641 2.11521 5.92551 2.31989 5.59954C2.79746 4.83896 3.37358 4.15671 4.01793 3.53258C4.45507 3.1106 4.91496 2.71136 5.42286 2.37781C5.78167 2.14029 6.13543 1.89266 6.51193 1.68293C6.85811 1.48836 7.2245 1.32917 7.59089 1.17251C7.93454 1.02342 8.28325 0.884446 8.63701 0.763158C8.89222 0.677245 9.16006 0.629235 9.42033 0.566063C9.6528 0.510473 9.88527 0.452355 10.1203 0.404345C10.2694 0.374023 10.5119 0.33612 10.6635 0.320959C10.9415 0.295691 11.2194 0.278003 11.4974 0.260315C11.5934 0.255261 11.644 0.222412 11.6414 0.116284C11.6389 -0.459837 11.6389 1.76632 11.6389 0.179456C11.6389 0.14408 11.6667 0.116284 11.7021 0.116284C12.028 0.116284 12.354 0.116284 12.68 0.116284C12.7153 0.116284 12.7431 0.146607 12.7406 0.181983C12.7381 0.214832 12.7356 0.247681 12.7356 0.28053C12.733 1.82696 12.733 -0.444676 12.7305 0.091016C12.7305 0.214832 12.7659 0.255261 12.8947 0.265368C13.342 0.300744 13.7892 0.338647 14.2314 0.404345C14.5448 0.452355 14.8556 0.538268 15.1639 0.619127C15.4721 0.699986 15.7804 0.780845 16.0836 0.884446C16.3565 0.97794 16.6244 1.09923 16.8897 1.21546C17.1323 1.31906 17.3774 1.41761 17.6073 1.54648C17.9838 1.75621 18.3553 1.97857 18.7166 2.21357C19.3559 2.62797 19.9371 3.11565 20.4778 3.65387C20.9023 4.07838 21.294 4.52816 21.6477 5.01332C21.9863 5.47826 22.3022 5.95836 22.5599 6.47383C22.7469 6.84528 22.9339 7.21925 23.0931 7.60333C23.2245 7.91919 23.318 8.25273 23.4165 8.58122C23.5075 8.88192 23.5959 9.18767 23.6566 9.49594C23.7349 9.88002 23.7905 10.2666 23.8436 10.6532C23.8739 10.8756 23.879 11.103 23.9042 11.3279C23.9067 11.3608 23.9573 11.4062 23.9927 11.4163C24.0483 11.4315 24.1089 11.4214 24.1695 11.4214M12.733 22.5547C12.8189 22.5421 12.8771 22.5345 12.9352 22.5269C13.2308 22.4991 13.529 22.4738 13.8246 22.441C13.9535 22.4258 14.0824 22.4031 14.2062 22.3728C14.5018 22.302 14.7949 22.2262 15.088 22.1479C15.3129 22.0872 15.5378 22.0291 15.7526 21.9457C16.071 21.8219 16.3868 21.6905 16.6951 21.5414C17.0337 21.3772 17.3774 21.2129 17.6907 21.0083C18.0975 20.7455 18.4841 20.4549 18.8657 20.1567C19.1335 19.947 19.3938 19.7246 19.6338 19.482C19.9017 19.2142 20.1569 18.9312 20.3894 18.6356C20.68 18.2641 20.9554 17.88 21.2131 17.4833C21.481 17.0689 21.716 16.6343 21.8928 16.1693C22.004 15.8813 22.1354 15.6008 22.2314 15.3052C22.335 14.9817 22.4109 14.6507 22.4917 14.3197C22.5524 14.0746 22.6181 13.827 22.6534 13.5793C22.6989 13.2685 22.7115 12.9527 22.7419 12.6393C22.752 12.5433 22.7242 12.5029 22.6206 12.5029C22.0596 12.5079 21.5012 12.5054 20.9402 12.5054C20.8442 12.5054 20.7987 12.5433 20.7962 12.6368C20.7861 13.0689 20.7078 13.4934 20.6067 13.9103C20.5309 14.2287 20.4652 14.5522 20.3489 14.8554C20.167 15.3229 19.975 15.7928 19.7273 16.23C19.462 16.7 19.1462 17.1498 18.8177 17.5793C18.5751 17.8952 18.282 18.1731 17.9939 18.4511C17.5088 18.9186 16.9579 19.2976 16.3868 19.6488C16.2302 19.7448 16.1822 19.7347 16.1241 19.6235C16.0786 19.5376 16.0432 19.4416 15.9826 19.3658C15.9042 19.2723 15.9522 19.2268 16.028 19.1839C16.1089 19.1359 16.1948 19.0929 16.2757 19.0424C17.0514 18.5496 17.7488 17.9659 18.3376 17.2559C18.6762 16.8465 18.9819 16.417 19.227 15.9445C19.3786 15.6539 19.5201 15.3557 19.644 15.0525C19.7602 14.772 19.8512 14.4789 19.9421 14.1883C19.9977 14.0064 20.0381 13.8194 20.0735 13.6299C20.1342 13.2938 20.1847 12.9552 20.2403 12.6166C20.2555 12.5256 20.2125 12.4978 20.1266 12.5004C19.9042 12.5029 19.6793 12.5004 19.457 12.5004C19.3407 12.5004 19.2245 12.5004 19.1057 12.5004C19.1057 12.1289 19.1057 11.7752 19.1057 11.4088C19.1588 11.4088 19.2043 11.4088 19.2498 11.4088C19.5328 11.4088 19.8133 11.4037 20.0963 11.4113C20.2125 11.4138 20.258 11.381 20.2403 11.2622C20.1999 11.0019 20.167 10.7392 20.1241 10.4814C20.0887 10.2641 20.0558 10.0443 19.9927 9.83707C19.8891 9.50352 19.7779 9.16998 19.6414 8.84654C19.4898 8.48268 19.3306 8.11881 19.131 7.78021C18.9213 7.42393 18.6762 7.08786 18.421 6.76442C17.9585 6.17314 17.4153 5.65766 16.7987 5.2281C16.5486 5.05374 16.2858 4.89708 16.0306 4.73284C15.9598 4.68735 15.9017 4.64692 15.9826 4.54838C16.0457 4.47004 16.076 4.36644 16.1316 4.28053C16.1746 4.21736 16.2226 4.14155 16.3161 4.23505C16.3591 4.27548 16.4247 4.29064 16.4753 4.32601C16.8644 4.59891 17.2637 4.85918 17.6376 5.15229C18.1481 5.54901 18.5852 6.02405 18.9794 6.53953C19.2776 6.92867 19.558 7.33044 19.7703 7.77263C19.9143 8.07333 20.0584 8.3715 20.1923 8.67472C20.2757 8.86423 20.3439 9.0588 20.4121 9.25337C20.4601 9.38982 20.5081 9.52879 20.5385 9.6703C20.5915 9.90024 20.637 10.1327 20.6724 10.3677C20.7204 10.6659 20.7633 10.964 20.7911 11.2622C20.8038 11.3784 20.8442 11.4113 20.9554 11.4113C21.5062 11.4088 22.0596 11.4088 22.6105 11.4138C22.7166 11.4138 22.7545 11.381 22.7419 11.2748C22.6989 10.9135 22.6736 10.5496 22.6105 10.1908C22.5473 9.82696 22.4639 9.46562 22.3654 9.10934C22.2795 8.79095 22.1784 8.4751 22.0596 8.16935C21.9055 7.77769 21.7488 7.38603 21.5517 7.01458C21.3395 6.61534 21.0893 6.23631 20.8392 5.85981C20.5031 5.35191 20.0988 4.89455 19.6692 4.46246C19.3963 4.18704 19.1032 3.92677 18.7975 3.68925C18.4311 3.40119 18.0495 3.13081 17.6579 2.87813C17.3799 2.69872 17.0767 2.55217 16.776 2.40814C16.4677 2.26158 16.1493 2.13018 15.8309 2.00637C15.6389 1.93056 15.4368 1.8775 15.2397 1.81433C15.0628 1.75874 14.8859 1.69304 14.7065 1.65261C14.4589 1.59702 14.2087 1.55153 13.9585 1.51363C13.673 1.46815 13.3875 1.43277 13.1019 1.39992C12.9882 1.38982 12.8669 1.38982 12.7356 1.37971C12.733 1.42772 12.7254 1.47826 12.7254 1.52627C12.7254 1.90529 12.7229 2.28432 12.7254 2.66335C12.7254 2.75684 12.7052 2.7998 12.5991 2.79727C12.3136 2.79222 12.0255 2.79222 11.74 2.79727C11.6566 2.79727 11.6263 2.76442 11.6288 2.68609C11.6313 2.62797 11.6237 2.56733 11.6187 2.50668C11.5656 2.56733 11.5353 2.62797 11.51 2.69114C11.4241 2.91856 11.3407 3.1485 11.2573 3.37592C11.2018 3.53258 11.1335 3.68672 11.0982 3.84591C11.0274 4.17946 10.9415 4.51553 10.9263 4.85412C10.9086 5.28874 10.9238 5.72841 10.9819 6.15798C11.0299 6.51174 11.1537 6.85791 11.2649 7.20157C11.3635 7.50226 11.4822 7.7979 11.6035 8.09102C11.6819 8.28558 11.7804 8.47257 11.8663 8.66208C11.975 8.90213 12.0786 9.14724 12.1923 9.38476C12.3211 9.65008 12.4627 9.90529 12.594 10.1706C12.7735 10.5294 12.9503 10.8882 13.1196 11.2496C13.2561 11.5402 13.3925 11.8333 13.5012 12.1365C13.6402 12.5206 13.7665 12.9097 13.8752 13.3014C13.9838 13.693 14.0798 14.0898 14.1582 14.489C14.2188 14.7998 14.2719 15.1182 14.2795 15.434C14.2896 15.9748 14.2719 16.5155 14.2441 17.0563C14.2239 17.4959 14.138 17.9255 13.9965 18.345C13.8903 18.6583 13.8095 18.9817 13.673 19.2799C13.4633 19.7373 13.2157 20.1769 12.9049 20.5736C12.7861 20.7253 12.6648 20.8769 12.5334 21.0411C12.6042 21.0487 12.6572 21.0563 12.7254 21.0639C12.733 21.5642 12.733 22.0544 12.733 22.5547ZM11.3812 22.062C11.3963 21.976 11.3989 21.9179 11.4191 21.8623C11.4671 21.7259 11.5454 21.597 11.5681 21.458C11.6035 21.2256 11.7147 21.0234 11.7855 20.8061C11.8562 20.5838 11.9421 20.3664 12.0002 20.1441C12.076 19.8585 12.1367 19.5705 12.1898 19.2824C12.2529 18.9337 12.3237 18.585 12.3489 18.2338C12.3919 17.6476 12.3692 17.0588 12.2984 16.4726C12.2832 16.3488 12.258 16.2249 12.2277 16.1011C12.1746 15.8788 12.119 15.6589 12.0609 15.4391C12.0002 15.2117 11.9396 14.9843 11.8613 14.7644C11.7779 14.5244 11.6743 14.2894 11.5808 14.0544C11.4696 13.779 11.366 13.5035 11.2498 13.2332C11.1234 12.9426 10.9819 12.657 10.8505 12.369C10.6787 11.9899 10.5069 11.6134 10.3477 11.2319C10.1657 10.7998 9.98382 10.3652 9.82715 9.92298C9.70081 9.56922 9.60984 9.20283 9.50624 8.83896C9.47845 8.74042 9.46329 8.63682 9.44307 8.53574C9.38748 8.26284 9.32936 7.98994 9.27883 7.71704C9.26114 7.61344 9.27377 7.50731 9.26366 7.40119C9.19544 6.72904 9.22071 6.0569 9.32936 5.39234C9.38748 5.05122 9.47592 4.70757 9.59468 4.3816C9.74377 3.96973 9.9636 3.58817 10.2289 3.23441C10.6004 2.74168 11.0451 2.32222 11.5378 1.95583C11.5808 1.92298 11.6237 1.86486 11.6313 1.8118C11.6465 1.70314 11.644 1.59196 11.6313 1.48331C11.6288 1.45046 11.5757 1.39487 11.5454 1.39487C11.3407 1.39992 11.1335 1.4075 10.9289 1.43025C10.6964 1.45551 10.4664 1.49342 10.2365 1.53385C10.0192 1.57175 9.79936 1.60965 9.58963 1.6703C9.29399 1.75368 9.00593 1.85476 8.71534 1.9533C8.50814 2.02405 8.30094 2.09228 8.10131 2.17819C7.83094 2.29695 7.56057 2.41824 7.3003 2.56227C6.91117 2.77706 6.51445 2.98426 6.15311 3.23947C5.73618 3.53511 5.33694 3.8636 4.95792 4.20725C4.62184 4.513 4.29588 4.83896 4.01287 5.19525C3.66922 5.62734 3.36095 6.09228 3.06531 6.55975C2.86569 6.87055 2.69891 7.20662 2.54225 7.54269C2.39822 7.85097 2.28451 8.1744 2.16828 8.49531C2.06467 8.78337 1.96107 9.07143 1.88274 9.36707C1.80441 9.66019 1.75135 9.96088 1.70334 10.2591C1.65027 10.6027 1.61995 10.9489 1.57699 11.2951C1.56689 11.3734 1.59215 11.4163 1.67554 11.4163C2.26177 11.4163 2.84547 11.4163 3.4317 11.4138C3.45949 11.4138 3.50751 11.386 3.51509 11.3633C3.53783 11.2824 3.54793 11.199 3.56057 11.1182C3.60352 10.8428 3.63132 10.5623 3.68691 10.2894C3.75514 9.96088 3.83094 9.63239 3.93202 9.31148C4.04067 8.96278 4.15943 8.61155 4.31357 8.28053C4.57131 7.72462 4.87958 7.19146 5.25103 6.70125C5.64775 6.17819 6.07984 5.69304 6.58268 5.266C7.04256 4.87434 7.53277 4.53321 8.0533 4.23252C8.12658 4.18956 8.16196 4.19967 8.19986 4.2679C8.25545 4.3715 8.30599 4.4852 8.37927 4.57617C8.44749 4.65956 8.39696 4.69746 8.34136 4.73031C7.83852 5.00826 7.37106 5.33675 6.93896 5.71578C6.39317 6.19335 5.90548 6.72147 5.5113 7.33296C5.27377 7.70188 5.06404 8.09102 4.85684 8.47762C4.75324 8.67472 4.67491 8.88697 4.5991 9.09923C4.5233 9.30896 4.46013 9.52374 4.40201 9.73852C4.33884 9.96594 4.28325 10.1934 4.23524 10.4258C4.19733 10.6103 4.17459 10.7973 4.14932 10.9843C4.13164 11.1232 4.11648 11.2622 4.09879 11.4239C4.5233 11.4239 4.92254 11.4239 5.31673 11.4239C5.31673 11.7954 5.31673 12.1466 5.31673 12.5206C4.90991 12.5206 4.51319 12.5206 4.08615 12.5206C4.39696 15.5149 5.84484 17.7486 8.42728 19.2647C8.34642 19.4012 8.26303 19.5301 8.19228 19.664C8.15438 19.7373 8.11395 19.7347 8.05583 19.6994C7.89917 19.6033 7.73239 19.5225 7.58584 19.4138C7.19418 19.1258 6.79746 18.8453 6.42854 18.5294C5.93581 18.1049 5.50624 17.6147 5.14238 17.0714C4.91243 16.7253 4.67491 16.3791 4.49045 16.0102C4.29083 15.616 4.13669 15.1965 3.98508 14.7796C3.87137 14.4688 3.7703 14.1504 3.70207 13.827C3.63132 13.4858 3.60353 13.1321 3.55804 12.7859C3.55046 12.7227 3.52772 12.6621 3.52267 12.6014C3.51761 12.5307 3.48476 12.5105 3.41654 12.5105C2.84294 12.513 2.27188 12.513 1.69828 12.5105C1.5871 12.5105 1.56183 12.556 1.57699 12.657C1.59721 12.7884 1.60732 12.9223 1.62248 13.0563C1.64774 13.2736 1.66543 13.4909 1.70586 13.7057C1.74882 13.9432 1.80946 14.1757 1.86505 14.4107C1.92823 14.6735 1.98382 14.9362 2.06467 15.194C2.14301 15.4441 2.24408 15.6892 2.34768 15.9318C2.49424 16.2704 2.63069 16.6166 2.80757 16.9375C3.02235 17.3317 3.25987 17.7133 3.51761 18.0822C3.76777 18.4385 4.03814 18.7872 4.33378 19.1055C4.66986 19.4669 5.02614 19.8156 5.40517 20.1314C5.8322 20.4852 6.27946 20.8213 6.77219 21.0815C7.18154 21.2988 7.58584 21.5364 8.01035 21.7158C8.46518 21.9078 8.94023 22.062 9.41275 22.2035C9.7185 22.2944 10.0394 22.3399 10.3527 22.4006C10.4993 22.4284 10.6484 22.446 10.7975 22.4637C11.04 22.4915 11.2801 22.5143 11.5227 22.532C11.5555 22.5345 11.6187 22.4915 11.6187 22.4688C11.6263 22.2894 11.6237 22.11 11.6237 21.9078C11.5404 21.9609 11.4772 22.0013 11.3812 22.062Z" fill="currentColor"/>
<path d="M15.5553 3.79773C15.4441 4.0681 15.3127 4.33089 15.2243 4.60885C15.1359 4.88427 15.0929 5.17486 15.0222 5.45787C14.9362 5.79394 14.9413 6.13506 14.9716 6.47366C14.9994 6.81479 15.0601 7.15086 15.199 7.46924C15.3633 7.84827 15.5199 8.23487 15.6968 8.60885C15.8156 8.86153 15.9596 9.10411 16.0885 9.35174C16.2628 9.68023 16.4372 10.0087 16.6065 10.3397C16.7 10.5217 16.796 10.7036 16.8769 10.8906C16.9779 11.1231 17.074 11.3581 17.1523 11.5981C17.2584 11.9291 17.3494 12.2652 17.4404 12.5987C17.4707 12.7099 17.4934 12.8262 17.506 12.9424C17.5616 13.4528 17.6147 13.9658 17.5642 14.4787C17.5263 14.8552 17.4808 15.2292 17.3519 15.5931C17.1952 16.0327 17.0108 16.4497 16.753 16.8438C16.4928 17.2406 16.1542 17.5589 15.8181 17.8799C15.7954 17.9001 15.7549 17.9026 15.6817 17.9253C15.7145 17.8318 15.7373 17.7712 15.7549 17.7131C15.8535 17.3795 15.9621 17.0485 16.0481 16.7124C16.1087 16.48 16.1517 16.2399 16.1845 16.0024C16.23 15.684 16.278 15.3631 16.2856 15.0422C16.2906 14.7718 16.2452 14.4989 16.2123 14.2311C16.1921 14.0744 16.1618 13.9178 16.1239 13.7636C16.0834 13.5893 16.038 13.4174 15.9773 13.2507C15.8737 12.9651 15.7625 12.6821 15.6438 12.4016C15.5199 12.1136 15.3886 11.8306 15.2521 11.5501C15.0853 11.2039 14.911 10.8603 14.7366 10.5191C14.6103 10.2715 14.4713 10.0289 14.345 9.77878C14.1428 9.37701 13.9432 8.97271 13.7537 8.56336C13.5591 8.13885 13.4959 7.68655 13.5263 7.22413C13.5465 6.92597 13.6046 6.63285 13.6829 6.33974C13.7739 6.00619 13.9028 5.69034 14.067 5.39217C14.345 4.8868 14.6709 4.41681 15.1434 4.06305C15.2496 3.98219 15.3481 3.89122 15.4517 3.80531C15.4745 3.78762 15.5073 3.78257 15.5351 3.77246C15.5402 3.78004 15.5477 3.79015 15.5553 3.79773Z" fill="currentColor"/>
<path d="M8.06812 7.01185C8.0378 7.10787 8.00748 7.20642 7.9721 7.29991C7.87861 7.56523 7.78006 7.82802 7.68404 8.09082C7.492 8.62651 7.4642 9.17989 7.50969 9.73832C7.52232 9.90762 7.57286 10.0744 7.61834 10.2386C7.67393 10.4458 7.73205 10.653 7.80785 10.8527C7.89124 11.0801 7.98221 11.3075 8.09086 11.5248C8.29554 11.9392 8.51032 12.3486 8.7251 12.7579C8.85397 13.0055 9.00305 13.2431 9.12687 13.4932C9.26585 13.7712 9.38713 14.0592 9.51095 14.3448C9.59181 14.5318 9.66762 14.7187 9.73079 14.9108C9.7889 15.0877 9.83439 15.2671 9.87987 15.449C9.93546 15.6739 9.986 15.9013 10.0391 16.1287C10.0441 16.1439 10.0492 16.1616 10.0492 16.1767C10.1098 16.7074 10.1629 17.2405 10.0972 17.7737C10.0567 18.1148 9.96326 18.4484 9.8824 18.7844C9.76616 19.2696 9.54633 19.7168 9.25321 20.1136C9.01822 20.4319 8.71752 20.7048 8.44462 20.9954C8.39408 21.0485 8.33091 21.0914 8.27279 21.1395C8.26016 21.1319 8.24753 21.1243 8.23489 21.1167C8.26016 21.0258 8.2829 20.9323 8.3107 20.8413C8.36881 20.6417 8.43451 20.4446 8.48758 20.245C8.56591 19.9518 8.65435 19.6613 8.70489 19.3631C8.75542 19.0573 8.78827 18.744 8.78827 18.4357C8.78574 18.034 8.77058 17.6271 8.70741 17.2304C8.65435 16.8944 8.54569 16.5608 8.42693 16.2399C8.28796 15.8634 8.11613 15.497 7.94683 15.1306C7.70931 14.6151 7.4541 14.1098 7.2191 13.5943C7.0498 13.2228 6.8805 12.8514 6.739 12.4673C6.62782 12.1666 6.55454 11.8482 6.47368 11.5374C6.30943 10.8931 6.34986 10.2361 6.37766 9.58418C6.39282 9.22284 6.52422 8.87919 6.68593 8.55323C6.86029 8.19947 7.06749 7.86593 7.34291 7.58292C7.55264 7.36561 7.79269 7.17862 8.01758 6.979C8.03274 6.98911 8.05043 6.99922 8.06812 7.01185Z" fill="currentColor"/>
</svg>
