<svg width="25" height="24" viewBox="0 0 25 24" xmlns="http://www.w3.org/2000/svg">
<path d="M12.015 1.96588e-06C18.6367 0.00374728 23.9963 5.37453 24.0038 12C24.0075 18.603 18.6405 24.0075 11.9963 24C5.35209 23.9925 -0.01495 18.6142 3.12872e-05 11.97C0.0150126 5.34457 5.3858 -0.00374335 12.015 1.96588e-06ZM20.457 18.794C22.7341 15.7715 23.4083 12.4682 22.3633 8.85019C21.2098 4.84644 17.6367 1.8015 13.4495 1.26592C9.96258 0.820227 6.9476 1.87641 4.37456 4.29588C9.74535 9.13483 15.0862 13.9513 20.457 18.794ZM3.5431 5.20599C1.3034 8.16854 0.599282 11.4232 1.59179 14.985C2.74535 19.1236 6.28093 22.176 10.5506 22.7303C14.0375 23.1798 17.0525 22.1199 19.6255 19.7041C14.2585 14.8652 8.91389 10.0487 3.5431 5.20599Z" fill="currentColor"/>
<path d="M13.809 5.05635C13.8615 4.87657 13.8877 4.68182 13.9738 4.52451C14.0974 4.29605 14.4045 4.19867 14.6405 4.2586C14.8765 4.31852 15.0712 4.54699 15.1012 4.79418C15.1274 5.03762 14.9888 5.26983 14.7641 5.4159C14.5731 5.5395 14.3821 5.67433 14.221 5.82789C13.8203 6.20991 13.7229 6.69305 13.839 7.22114C13.854 7.2923 13.9251 7.36721 13.9888 7.40466C14.3896 7.65185 14.7978 7.8953 15.206 8.13126C15.2772 8.17245 15.3821 8.19867 15.4607 8.17994C16.0487 8.02639 16.3521 7.57695 16.5768 7.05635C16.6105 6.9777 16.633 6.89156 16.678 6.81665C16.7978 6.6144 17.0412 6.52451 17.2622 6.59193C17.4982 6.66309 17.6442 6.86908 17.6368 7.11253C17.6293 7.35223 17.4757 7.52826 17.236 7.58818C17.0188 7.64062 16.7978 7.68931 16.5918 7.76796C16.206 7.92152 15.9963 8.22863 15.9102 8.62189C15.8914 8.70429 15.9289 8.8129 15.9776 8.88781C16.1349 9.14249 16.3446 9.36721 16.472 9.63687C16.6218 9.95897 16.8839 10.0526 17.1873 10.0901C17.7753 10.1612 18.2397 9.8953 18.6592 9.52451C18.7379 9.45335 18.8053 9.37096 18.8839 9.2998C19.0862 9.11253 19.3858 9.09006 19.6068 9.24736C19.824 9.40092 19.9027 9.70429 19.7903 9.95148C19.678 10.1949 19.4308 10.311 19.1536 10.2549C18.3521 10.0863 17.603 10.4047 17.1723 11.105C16.9588 11.4459 17.0974 11.9215 17.4532 12.1125C17.8652 12.3335 18.2622 12.3073 18.6517 12.0526C18.8615 11.914 19.045 11.9103 19.1836 12.0301C19.3633 12.1837 19.4083 12.4234 19.2847 12.5994C19.1611 12.7792 18.9214 12.8391 18.7191 12.7193C18.4345 12.5507 18.1311 12.4571 17.7978 12.4346C17.5431 12.4196 17.3072 12.4983 17.1574 12.6781C17.0637 12.7942 17.0263 13.0264 17.0712 13.1687C17.2547 13.7193 17.5244 14.2249 18.0675 14.517C18.5244 14.7605 19.0113 14.7867 19.5057 14.6818C19.9289 14.5919 20.2098 14.6631 20.4045 14.9515C20.633 15.2811 20.5618 15.7343 20.2472 15.974C19.9177 16.2286 19.4607 16.1762 19.1948 15.8429C18.9064 15.4833 18.5806 15.1725 18.1723 14.9515C17.7603 14.7268 17.3334 14.6107 16.8577 14.6931C16.7791 14.708 16.6667 14.6556 16.5993 14.5994C14.2397 12.4796 11.8877 10.3597 9.53188 8.23612C8.80904 7.58444 8.08994 6.93275 7.36335 6.28481C7.23975 6.1762 7.24349 6.08631 7.3184 5.96272C7.43076 5.78294 7.64799 5.68556 7.85024 5.73051C8.07121 5.7792 8.22477 5.94774 8.25473 6.19118C8.30342 6.55073 8.41952 6.88406 8.64799 7.16871C8.7566 7.29979 8.89143 7.42339 9.03376 7.51328C9.25848 7.65186 9.49818 7.72676 9.74162 7.532C9.79031 7.49455 9.85024 7.47208 9.91016 7.45335C10.6143 7.24362 10.7678 6.64811 10.8765 6.04137C10.9439 5.65935 10.8427 5.28856 10.6293 4.95523C10.4757 4.71178 10.3147 4.48706 10.0937 4.2923C9.88394 4.11253 9.82402 3.74174 9.92514 3.53575C10.0937 3.18744 10.3633 3.01141 10.6854 3.04137C11.0075 3.07133 11.2884 3.27732 11.3409 3.58818C11.3708 3.77171 11.3446 3.97395 11.2959 4.15747C11.1274 4.76796 11.1049 5.37096 11.3184 5.9777C11.4869 6.45335 11.839 6.77171 12.2622 6.99642C12.427 7.08631 12.6517 7.10129 12.8577 7.00391C13.4233 6.74549 13.678 6.2586 13.8015 5.68931C13.8465 5.49081 13.8502 5.28481 13.8727 5.08257C13.854 5.06758 13.8315 5.06009 13.809 5.05635Z" fill="currentColor"/>
<path d="M12.2509 17.2323C12.1011 17.2959 11.94 17.3409 11.809 17.427C11.5281 17.618 11.2209 17.7978 10.9925 18.045C10.4681 18.6105 10.4569 19.2922 10.6816 19.9888C10.7453 20.1911 10.8202 20.3821 10.7453 20.603C10.6516 20.8952 10.4157 21.1087 10.1161 21.1349C9.78273 21.1648 9.47936 20.9851 9.34453 20.6854C9.22468 20.412 9.29584 20.06 9.50558 19.854C9.99247 19.3746 10.3221 18.809 10.4007 18.1162C10.4457 17.7079 10.337 17.3371 10.1348 16.9888C10.1086 16.9439 10.0561 16.9102 10.0112 16.8877C9.92506 16.839 9.82019 16.8165 9.74154 16.7604C9.44191 16.5281 9.13854 16.6218 8.84266 16.7379C8.52805 16.8615 8.27712 17.075 8.17599 17.4045C8.10858 17.6218 8.08236 17.854 8.05989 18.0824C8.03367 18.3633 7.86139 18.5619 7.59921 18.5843C7.35202 18.6068 7.11981 18.427 7.06738 18.1798C7.01494 17.9401 7.15727 17.7341 7.40446 17.5993C7.67412 17.4495 7.95502 17.2959 8.1685 17.0787C8.3333 16.9139 8.42693 16.6555 8.49434 16.4233C8.573 16.1574 8.48685 15.9064 8.28461 15.7042C8.19097 15.6105 8.08985 15.5207 8.02618 15.4083C7.78273 15.0001 7.39322 14.8278 6.95876 14.7229C6.49435 14.6143 6.05614 14.7192 5.66288 14.9514C5.35577 15.1311 5.07487 15.3671 4.80521 15.6068C4.48311 15.8914 4.02993 15.8989 3.75277 15.5918C3.48685 15.2959 3.52431 14.824 3.83891 14.5731C4.03367 14.4158 4.25464 14.3933 4.49435 14.4607C5.37075 14.7079 6.46438 14.266 6.9288 13.472C6.97375 13.3933 6.96251 13.2735 6.95502 13.1723C6.92506 12.7903 6.87262 12.4045 6.8539 12.0225C6.84266 11.7753 6.74528 11.633 6.49434 11.5656C6.04116 11.4457 5.6067 11.4944 5.18723 11.7079C4.97749 11.8128 4.79023 11.7753 4.65914 11.5993C4.51682 11.4045 4.51682 11.1536 4.66288 10.9963C4.81644 10.8315 5.02618 10.809 5.22468 10.9251C5.40446 11.0338 5.58049 11.1574 5.77524 11.236C6.16476 11.3933 6.68536 11.2547 6.95876 10.9401C6.99247 10.8989 7.0112 10.8427 7.02618 10.7903C7.07861 10.6368 7.10483 10.4682 7.17974 10.3296C7.29584 10.1199 7.23592 9.94762 7.1273 9.77159C6.77524 9.19855 6.21719 8.98507 5.59172 8.89518C5.45689 8.87646 5.31832 8.8802 5.17974 8.86897C4.82393 8.84275 4.55802 8.53938 4.58798 8.2023C4.62169 7.83526 4.94004 7.57683 5.30333 7.62552C5.53554 7.65548 5.68161 7.81279 5.77899 8.00754C6.02993 8.50567 6.367 8.90267 6.94004 9.03751C6.99996 9.05249 7.05989 9.10118 7.10858 9.14612C10.4981 12.1986 13.8839 15.2547 17.2734 18.3034C17.3895 18.4083 17.3932 18.4832 17.3071 18.5993C17.1498 18.8053 16.8876 18.9027 16.6442 18.8353C16.3857 18.7641 16.2359 18.5731 16.1835 18.3034C16.1348 18.0487 16.0861 17.7866 15.9887 17.5469C15.7303 16.9027 15.1048 16.6742 14.5131 16.6442C14.4606 16.6405 14.4082 16.678 14.3558 16.6967C14.0449 16.8203 13.734 16.9551 13.4194 17.0675C13.3146 17.1049 13.2696 17.1536 13.2546 17.2585C13.1797 17.8053 13.4269 18.2248 13.7827 18.5993C13.9737 18.8016 14.0187 18.9926 13.9138 19.2285C13.8352 19.4083 13.6816 19.4682 13.5018 19.4607C13.3221 19.4532 13.1573 19.3821 13.1161 19.1948C13.0861 19.0487 13.0861 18.8839 13.1236 18.7416C13.2809 18.1611 13.1123 17.663 12.6104 17.3446C12.5243 17.2884 12.3932 17.2735 12.2509 17.2323Z" fill="currentColor"/>
</svg>
