<svg width="24" height="24" viewBox="0 0 24 24" xmlns="http://www.w3.org/2000/svg">
<path d="M11.2501 0C11.7245 0 12.2007 0 12.6751 0C12.6826 0.005625 12.6882 0.015 12.6957 0.016875C12.9076 0.0375 13.1195 0.050625 13.3313 0.076875C13.6088 0.110625 13.8882 0.140625 14.162 0.193125C14.4713 0.253125 14.7751 0.335625 15.0807 0.4125C15.752 0.579375 16.3988 0.825 17.0251 1.11938C17.3888 1.29 17.7507 1.47 18.092 1.68563C18.2513 1.78688 18.422 1.87313 18.5776 1.97813C18.752 2.09438 18.917 2.22563 19.0838 2.35125C19.2038 2.44313 19.322 2.53875 19.442 2.6325C19.5151 2.69062 19.5882 2.74875 19.6595 2.80875C19.7288 2.86688 19.8001 2.925 19.8676 2.985C19.8976 3.01125 19.9238 3.04313 19.9557 3.06938C20.0551 3.15375 20.1657 3.22688 20.2557 3.32063C20.4657 3.53813 20.6663 3.76688 20.8726 3.98813C20.9476 4.07063 21.0301 4.14563 21.1088 4.22438C21.1313 4.24875 21.152 4.27688 21.1726 4.30313C21.2213 4.37063 21.2663 4.44 21.3188 4.50563C21.4032 4.60875 21.4988 4.70062 21.5757 4.8075C21.6713 4.93875 21.7501 5.07938 21.8401 5.21438C21.8663 5.25375 21.9095 5.28188 21.9357 5.32125C21.9807 5.3925 22.0126 5.47313 22.0576 5.54438C22.1495 5.69063 22.2488 5.83313 22.3407 5.97937C22.3745 6.03188 22.3913 6.09563 22.4195 6.15188C22.607 6.53438 22.817 6.90938 22.9782 7.30313C23.1676 7.76438 23.3232 8.23875 23.4732 8.71313C23.6157 9.16313 23.7151 9.62438 23.7751 10.0931C23.8163 10.4062 23.8501 10.7212 23.8876 11.0363C23.897 11.1206 23.912 11.2031 23.9251 11.2875C23.9251 11.7619 23.9251 12.2381 23.9251 12.7125C23.9195 12.7219 23.9082 12.7313 23.9063 12.7406C23.8857 12.9469 23.8726 13.1531 23.8482 13.3575C23.8145 13.6388 23.7882 13.92 23.732 14.1956C23.6476 14.595 23.5407 14.9906 23.4395 15.3881C23.2857 15.9806 23.057 16.545 22.7982 17.0981C22.6801 17.3513 22.5451 17.5969 22.4195 17.8463C22.3913 17.9025 22.3745 17.9663 22.3407 18.0188C22.2676 18.1369 22.187 18.2513 22.1101 18.3675C22.0276 18.4931 21.947 18.6188 21.8645 18.7444C21.8232 18.8081 21.7763 18.87 21.7351 18.9338C21.6732 19.0275 21.6188 19.1269 21.5532 19.2169C21.4895 19.3031 21.4088 19.3781 21.3413 19.4606C21.212 19.62 21.0901 19.7869 20.957 19.9444C20.8707 20.0456 20.7695 20.1338 20.6757 20.2275C20.6607 20.2425 20.6457 20.2594 20.6307 20.2763C20.4957 20.4206 20.3663 20.5706 20.2257 20.7094C20.1132 20.82 19.9857 20.9138 19.8676 21.0169C19.8095 21.0675 19.7626 21.1294 19.7026 21.1781C19.5751 21.2812 19.442 21.3769 19.3126 21.4781C19.1495 21.6056 18.9901 21.7388 18.8213 21.8606C18.7032 21.945 18.5757 22.0144 18.4482 22.0875C18.3076 22.1681 18.1895 22.2806 18.0376 22.35C17.8351 22.4419 17.6476 22.5675 17.4488 22.6725C17.2688 22.7663 17.087 22.8581 16.9013 22.9369C16.5826 23.0719 16.2638 23.2088 15.9395 23.325C15.3338 23.5444 14.7151 23.715 14.0795 23.8144C13.7007 23.8744 13.3182 23.9137 12.9376 23.9644C12.8513 23.9756 12.7651 23.9888 12.6788 24.0019C12.2045 24.0019 11.7282 24.0019 11.2538 24.0019C11.2445 23.9963 11.2351 23.985 11.2257 23.9831C10.922 23.9513 10.6182 23.9306 10.3163 23.8875C9.95633 23.835 9.59445 23.7788 9.24195 23.6963C8.71508 23.5725 8.19758 23.415 7.6932 23.2181C7.06133 22.9725 6.45008 22.6856 5.86883 22.3331C5.75633 22.2656 5.64383 22.1963 5.53133 22.1269C5.39445 22.0425 5.25383 21.9619 5.1207 21.8719C5.03633 21.8156 4.96133 21.7444 4.8807 21.6806C4.7532 21.5794 4.62195 21.4781 4.49445 21.3769C4.41945 21.3169 4.34445 21.255 4.26945 21.1931C4.20008 21.135 4.1307 21.0769 4.06133 21.0188C4.0257 20.9888 3.99195 20.9569 3.95633 20.9287C3.88695 20.8725 3.81008 20.8219 3.74633 20.7581C3.5682 20.5744 3.3957 20.3831 3.21945 20.1975C3.1782 20.1525 3.1257 20.1187 3.08445 20.0737C3.00758 19.9875 2.93445 19.8956 2.85945 19.8075C2.82383 19.7663 2.78258 19.7288 2.74883 19.6856C2.67945 19.5956 2.61383 19.5 2.54445 19.41C2.4807 19.3294 2.40758 19.2563 2.3457 19.1737C2.2782 19.0837 2.22383 18.9844 2.16008 18.8944C2.10945 18.8231 2.0457 18.7612 1.99883 18.6863C1.94445 18.6019 1.90883 18.5081 1.85445 18.4237C1.77945 18.3038 1.69133 18.1912 1.6182 18.0713C1.56008 17.9756 1.51883 17.8687 1.4682 17.7675C1.29383 17.4113 1.09695 17.0644 0.948828 16.6987C0.763203 16.2375 0.605703 15.765 0.455703 15.2906C0.313203 14.8406 0.213828 14.3794 0.153828 13.9106C0.112578 13.5975 0.0788281 13.2825 0.0394531 12.9675C0.0300781 12.8831 0.0150781 12.8006 0.00195312 12.7163C0.00195312 12.2419 0.00195312 11.7656 0.00195312 11.2913C0.00757812 11.2763 0.0188281 11.2594 0.0207031 11.2444C0.0338281 11.0963 0.0394531 10.9481 0.0582031 10.8019C0.0975781 10.4944 0.142578 10.1888 0.187578 9.88125C0.260703 9.3825 0.393828 8.89875 0.540078 8.41875C0.744453 7.74938 1.01633 7.10813 1.3332 6.48375C1.41758 6.31687 1.49445 6.14625 1.5882 5.98688C1.68945 5.81437 1.8057 5.64937 1.91445 5.48063C1.95383 5.42063 1.98195 5.35313 2.0232 5.295C2.0757 5.21812 2.14133 5.14875 2.19383 5.07188C2.25758 4.98 2.3082 4.87688 2.37383 4.78688C2.43945 4.69875 2.52008 4.62563 2.58945 4.54125C2.71695 4.38375 2.83695 4.21875 2.9682 4.065C3.05445 3.96375 3.1557 3.87563 3.24945 3.78C3.26445 3.765 3.28133 3.75 3.29445 3.73313C3.42758 3.58875 3.55695 3.43688 3.69758 3.29813C3.81008 3.1875 3.93758 3.09375 4.0557 2.99063C4.1157 2.93813 4.16633 2.87438 4.2282 2.82375C4.35008 2.72438 4.47945 2.6325 4.6032 2.535C4.7757 2.40188 4.94258 2.26313 5.1207 2.13563C5.23695 2.05313 5.36445 1.98563 5.4882 1.9125C5.62508 1.83188 5.7432 1.72313 5.89133 1.65563C6.09383 1.56188 6.28133 1.43625 6.48008 1.33312C6.66008 1.23937 6.84195 1.14938 7.02945 1.06875C7.3407 0.93375 7.65195 0.796875 7.97258 0.684375C8.58195 0.470625 9.20258 0.2925 9.84195 0.193125C10.2245 0.135 10.6088 0.091875 10.9932 0.043125C11.0776 0.02625 11.1638 0.013125 11.2501 0ZM9.47258 14.5575C9.3657 14.55 9.27945 14.565 9.21195 14.5369C9.1107 14.4938 9.0132 14.4919 8.91008 14.4994C8.86883 14.5031 8.8257 14.5031 8.78445 14.4975C8.6982 14.4863 8.61195 14.4694 8.5257 14.4581C8.50695 14.4563 8.4882 14.4694 8.46758 14.4769C8.4357 14.4881 8.40383 14.5106 8.37383 14.5069C8.19195 14.4919 8.01195 14.4694 7.84695 14.58C7.82258 14.5969 7.77945 14.5819 7.7457 14.5875C7.69695 14.5931 7.63695 14.5894 7.6032 14.6156C7.4682 14.7244 7.30133 14.7281 7.1457 14.775C7.08383 14.7938 7.01633 14.7863 6.95445 14.7975C6.85508 14.8163 6.75945 14.8575 6.66008 14.8631C6.42758 14.8744 6.19508 14.8631 5.96445 14.8706C5.74695 14.8781 5.53883 14.8294 5.3307 14.7769C5.23883 14.7544 5.1507 14.715 5.05883 14.7019C4.85258 14.6756 4.64445 14.6625 4.43633 14.6438C4.3107 14.6325 4.1832 14.6175 4.05758 14.6063C3.93758 14.5969 3.8157 14.5894 3.6957 14.5875C3.51383 14.5856 3.3357 14.5763 3.16133 14.6719C2.98883 14.7675 2.80508 14.8388 2.6982 15.015C2.6607 15.0769 2.64383 15.1538 2.61945 15.2231C2.53883 15.45 2.58758 15.6656 2.6907 15.87C2.76008 16.0069 2.8557 16.1288 3.00008 16.1981C3.11445 16.2525 3.2307 16.32 3.35258 16.3444C3.5532 16.3819 3.75945 16.3875 3.96195 16.4044C4.07633 16.4138 4.1907 16.4194 4.30508 16.4344C4.42883 16.4513 4.55258 16.4888 4.67633 16.4963C4.85445 16.5075 5.03445 16.5 5.21258 16.5C5.8182 16.4963 6.42383 16.515 7.02758 16.4625C7.18508 16.4494 7.3407 16.4363 7.4982 16.4231C7.56195 16.4175 7.62758 16.4137 7.69133 16.4025C7.84695 16.3744 8.0007 16.3388 8.15445 16.3125C8.27633 16.2919 8.40008 16.275 8.52195 16.2619C8.5932 16.2544 8.66633 16.2638 8.7357 16.2525C8.86133 16.2338 8.98508 16.1906 9.1107 16.185C9.43508 16.17 9.75758 16.1681 10.082 16.1625C10.3163 16.1588 10.5451 16.1719 10.7682 16.2656C10.9557 16.3444 11.1301 16.4363 11.297 16.5506C11.4057 16.6256 11.507 16.7194 11.672 16.7138C11.6607 16.7719 11.6645 16.8319 11.6382 16.8675C11.5801 16.9425 11.5032 16.9913 11.3963 16.9725C11.3288 16.9613 11.2595 16.9725 11.1901 16.9706C11.1657 16.9706 11.1395 16.9669 11.1207 16.9538C11.0251 16.8994 10.9332 16.8375 10.8376 16.785C10.7251 16.7231 10.6145 16.6556 10.4963 16.6069C10.3801 16.56 10.2545 16.5113 10.1326 16.5075C9.96758 16.5 9.79883 16.4756 9.63195 16.5356C9.54008 16.5694 9.43508 16.5638 9.3357 16.5731C9.12008 16.5938 8.90445 16.6125 8.68883 16.6331C8.62695 16.6388 8.56695 16.6575 8.50508 16.6669C8.34195 16.6875 8.1807 16.7063 8.01758 16.7269C7.89758 16.7419 7.77758 16.7588 7.6557 16.7719C7.59383 16.7794 7.53195 16.7756 7.47008 16.785C7.34445 16.8056 7.21883 16.8319 7.0932 16.8581C7.0032 16.8769 6.9132 16.8994 6.82133 16.9125C6.66758 16.935 6.51383 16.9688 6.36008 16.9669C6.09758 16.965 5.83508 16.9837 5.56883 16.9237C5.3082 16.8638 5.0307 16.9369 4.75883 16.8825C4.53195 16.8375 4.2957 16.8412 4.0632 16.8206C3.93383 16.8094 3.80445 16.7962 3.67508 16.7831C3.66383 16.7812 3.6507 16.7775 3.63945 16.7738C3.50633 16.7456 3.36945 16.7231 3.2382 16.6875C3.1032 16.6519 2.9682 16.6144 2.8407 16.5619C2.73945 16.5206 2.6382 16.4663 2.55758 16.395C2.46383 16.3125 2.3757 16.2131 2.31383 16.1044C2.25008 15.9919 2.22758 15.8569 2.16945 15.7388C2.07945 15.5569 2.10945 15.3675 2.13945 15.1856C2.1657 15.0375 2.23695 14.8913 2.31008 14.7563C2.3757 14.6381 2.45633 14.5163 2.55758 14.4319C2.66633 14.3419 2.8107 14.2931 2.9382 14.2219C3.12945 14.115 3.34508 14.0813 3.5532 14.0738C3.91133 14.0606 4.27133 14.0869 4.63133 14.1C4.76445 14.1056 4.89758 14.1225 5.0307 14.1394C5.2407 14.1675 5.4507 14.2106 5.6607 14.2256C5.9307 14.2444 6.20258 14.25 6.47258 14.2481C6.6657 14.2463 6.86445 14.2463 7.04445 14.1544C7.08008 14.1356 7.12133 14.115 7.14195 14.0831C7.22633 13.9613 7.27508 13.8263 7.2732 13.6744C7.2732 13.6238 7.26195 13.5694 7.2807 13.5263C7.34445 13.3725 7.3932 13.2188 7.3932 13.05C7.3932 12.8869 7.41008 12.7238 7.42695 12.5625C7.44008 12.4388 7.46258 12.3169 7.48508 12.195C7.49445 12.1388 7.50945 12.0844 7.52445 12.03C7.54133 11.9663 7.56383 11.9062 7.5732 11.8425C7.58633 11.7619 7.5282 11.6625 7.64258 11.6119C7.6482 11.61 7.65195 11.5875 7.6482 11.5763C7.6032 11.3644 7.7532 11.1862 7.74758 10.98C7.74758 10.9594 7.75695 10.9388 7.7682 10.92C7.83383 10.7925 7.89945 10.6631 7.9707 10.5375C8.05695 10.3856 8.14883 10.2375 8.23508 10.0837C8.2707 10.0219 8.28008 9.92438 8.3307 9.89438C8.49383 9.80063 8.52195 9.61312 8.63445 9.48375C8.77695 9.31688 8.8932 9.13313 9.09758 9.03188C9.13133 9.015 9.1482 8.97937 9.10695 8.94188C9.07508 8.91375 9.04695 8.88188 9.02258 8.84813C8.96445 8.77313 8.91008 8.69812 8.85195 8.62313C8.79945 8.55375 8.74695 8.48813 8.69445 8.41875C8.63258 8.33625 8.5707 8.25375 8.50883 8.17125C8.45445 8.09813 8.40008 8.02688 8.34758 7.95375C8.29883 7.88438 8.25383 7.80938 8.2032 7.74188C8.14883 7.66875 8.0832 7.60125 8.02883 7.52813C7.93883 7.40625 7.86008 7.27688 7.7682 7.15688C7.67258 7.03125 7.5657 6.915 7.46445 6.79313C7.45695 6.78375 7.4532 6.7725 7.4457 6.76125C7.39508 6.68438 7.3482 6.60563 7.29383 6.5325C7.23758 6.4575 7.17383 6.38812 7.1157 6.315C7.05008 6.2325 6.9882 6.14813 6.92445 6.06563C6.8757 6.00188 6.82133 5.94187 6.77445 5.87437C6.72008 5.7975 6.67508 5.715 6.62258 5.63625C6.58695 5.58188 6.5457 5.53312 6.50633 5.48063C6.47633 5.44125 6.44258 5.40188 6.41258 5.3625C6.36383 5.29875 6.31883 5.23313 6.2682 5.17125C6.21195 5.1 6.1482 5.0325 6.09383 4.95938C6.04133 4.88813 6.00008 4.80938 5.94945 4.73625C5.8782 4.635 5.80133 4.5375 5.72633 4.43813C5.53883 4.18688 5.35133 3.93563 5.16195 3.68625C5.12445 3.6375 5.07945 3.615 5.0232 3.66938C4.9332 3.75938 4.84133 3.8475 4.74945 3.93375C4.62945 4.04813 4.50758 4.15875 4.38945 4.27688C4.16633 4.5 3.9432 4.72312 3.73133 4.95563C3.60195 5.09812 3.4932 5.26125 3.37883 5.41687C3.2832 5.54625 3.1932 5.67938 3.09758 5.81063C2.9982 5.94938 2.89133 6.08438 2.79758 6.22875C2.70195 6.375 2.6157 6.52688 2.5332 6.68062C2.46195 6.81187 2.40758 6.95062 2.34008 7.08563C2.28945 7.185 2.22383 7.27875 2.17695 7.38C2.08508 7.57688 1.9932 7.77563 1.91445 7.97813C1.7307 8.4525 1.57695 8.93437 1.45695 9.4275C1.3407 9.9075 1.25633 10.3931 1.20195 10.8825C1.16445 11.2144 1.1532 11.55 1.14383 11.8837C1.1382 12.12 1.15133 12.3562 1.16258 12.5925C1.17008 12.765 1.17945 12.9394 1.20008 13.11C1.23008 13.3594 1.26758 13.6088 1.31258 13.8563C1.35945 14.1188 1.40445 14.3813 1.47383 14.6381C1.57695 15.015 1.69133 15.39 1.8207 15.7594C1.95758 16.1475 2.12445 16.5244 2.32508 16.8881C2.4282 17.0738 2.4957 17.2781 2.63633 17.4431C2.66633 17.4769 2.66258 17.5388 2.68883 17.5781C2.76758 17.6963 2.85758 17.8088 2.93633 17.9288C3.0057 18.0319 3.06195 18.1444 3.12945 18.2494C3.16695 18.3075 3.21945 18.3544 3.2607 18.4106C3.3207 18.4931 3.36945 18.5813 3.4332 18.66C3.50445 18.75 3.58695 18.8325 3.66008 18.9225C3.7857 19.0725 3.9057 19.2281 4.0332 19.3744C4.09695 19.4456 4.17758 19.5019 4.24508 19.5713C4.29758 19.6256 4.33695 19.6931 4.38945 19.7475C4.47383 19.8337 4.5657 19.9144 4.6557 19.9988C4.67258 20.0138 4.6857 20.0306 4.70258 20.0438C4.77758 20.1056 4.85633 20.1656 4.93133 20.2294C5.02883 20.3119 5.11695 20.4075 5.22008 20.4825C5.41508 20.6269 5.6157 20.7619 5.81258 20.9025C5.94195 20.9944 6.06758 21.0938 6.2007 21.18C6.36008 21.2831 6.52133 21.3844 6.69008 21.4688C7.0707 21.66 7.4532 21.8494 7.84133 22.0238C8.32695 22.2413 8.83695 22.4006 9.35258 22.5263C9.8232 22.6425 10.2995 22.7362 10.7832 22.7756C11.1132 22.8019 11.4432 22.8319 11.7732 22.8488C11.9307 22.8563 12.0901 22.8431 12.2476 22.8319C12.6488 22.8037 13.0501 22.7794 13.4495 22.7362C13.7232 22.7063 13.997 22.6594 14.2651 22.5975C14.5745 22.5263 14.8782 22.4306 15.1857 22.3463C15.677 22.2113 16.1457 22.0125 16.6051 21.7969C16.8601 21.6769 17.1095 21.54 17.3551 21.3994C17.5763 21.2738 17.7863 21.1313 18.002 20.9944C18.077 20.9456 18.0788 20.8706 18.0151 20.8106C17.9907 20.7881 17.9682 20.7638 17.9495 20.7375C17.8988 20.6681 17.8538 20.595 17.8032 20.5238C17.7638 20.4675 17.7207 20.415 17.6757 20.3625C17.6195 20.295 17.5557 20.2313 17.5013 20.16C17.4357 20.0737 17.3757 19.9837 17.312 19.8956C17.267 19.8356 17.2145 19.7831 17.1713 19.7231C17.087 19.5994 17.0082 19.47 16.9238 19.3463C16.8845 19.2863 16.8376 19.2319 16.7926 19.1756C16.727 19.095 16.6595 19.0163 16.5976 18.9319C16.547 18.8663 16.5057 18.7931 16.4551 18.7294C16.397 18.6581 16.3332 18.5925 16.2713 18.5231C16.2657 18.5175 16.2638 18.5063 16.2582 18.4988C16.2076 18.42 16.1607 18.3394 16.1045 18.2644C16.0501 18.1912 15.9863 18.1238 15.932 18.0506C15.8757 17.9738 15.827 17.8913 15.7707 17.8163C15.7107 17.7375 15.6413 17.6644 15.5813 17.5837C15.5307 17.5163 15.4913 17.4375 15.4388 17.37C15.347 17.25 15.2457 17.1375 15.1538 17.0194C15.0451 16.8788 14.942 16.7362 14.837 16.5938C14.672 16.3688 14.5107 16.1419 14.3438 15.9206C14.2538 15.8006 14.1545 15.69 14.0645 15.5719C13.9726 15.45 13.892 15.3188 13.802 15.1969C13.7907 15.1819 13.7438 15.1781 13.7232 15.1894C13.6295 15.2325 13.4345 15.195 13.3651 15.1144C13.2526 14.9831 13.1232 14.895 12.9413 14.9194C12.9207 14.9213 12.8982 14.9175 12.8776 14.9138C12.8195 14.9025 12.7632 14.8894 12.692 14.8744C12.767 15.0038 12.8307 15.1088 12.8907 15.2138C12.9676 15.3488 12.9601 15.4913 12.9151 15.63C12.8813 15.735 12.7857 15.7463 12.7295 15.6619C12.7163 15.6431 12.7182 15.615 12.7145 15.5906C12.6995 15.4988 12.6938 15.4031 12.6657 15.315C12.6488 15.2587 12.6076 15.1969 12.5588 15.1688C12.4763 15.12 12.3788 15.09 12.2851 15.0638C12.1595 15.0281 12.0301 14.9981 11.9007 14.9794C11.7882 14.9625 11.672 14.9681 11.5576 14.9531C11.4695 14.9419 11.3851 14.91 11.2988 14.8913C11.1901 14.8669 11.0813 14.835 10.9707 14.8313C10.8695 14.8275 10.7682 14.8612 10.667 14.8744C10.6126 14.8819 10.5545 14.8763 10.5001 14.8856C10.3988 14.9063 10.2995 14.9438 10.1982 14.955C10.0351 14.9719 9.8682 14.985 9.70508 14.9719C9.58883 14.9625 9.47258 14.9194 9.36383 14.8725C9.27008 14.8313 9.2832 14.7075 9.37133 14.655C9.40508 14.64 9.42945 14.6025 9.47258 14.5575ZM19.082 20.1506C19.1626 20.0831 19.2563 20.01 19.3426 19.9275C19.4588 19.815 19.5638 19.6931 19.6782 19.5788C19.7776 19.4794 19.8863 19.3913 19.982 19.29C20.0851 19.1794 20.1788 19.0613 20.2745 18.9431C20.3982 18.7913 20.5238 18.6375 20.6382 18.48C20.7188 18.3694 20.7807 18.2475 20.8595 18.135C20.9457 18.0094 21.0451 17.8913 21.1295 17.7638C21.2176 17.6288 21.3001 17.4862 21.377 17.3438C21.4576 17.1919 21.5251 17.0363 21.602 16.8825C21.6488 16.7888 21.7107 16.7006 21.7538 16.6031C21.8438 16.4044 21.9357 16.2075 22.0126 16.0031C22.1176 15.7256 22.2226 15.4481 22.3051 15.1631C22.4063 14.8144 22.5038 14.4619 22.5713 14.1056C22.6426 13.7325 22.6838 13.3519 22.7232 12.9731C22.7551 12.6713 22.7776 12.3675 22.7776 12.0656C22.7757 11.7225 22.7495 11.3794 22.7251 11.0363C22.7082 10.7963 22.6895 10.5563 22.6482 10.32C22.5863 9.97125 22.5095 9.62438 22.427 9.27938C22.2676 8.61 22.0276 7.96875 21.7313 7.34812C21.6845 7.24688 21.6188 7.155 21.5682 7.05562C21.4576 6.84375 21.3545 6.63 21.2382 6.42C21.1857 6.32438 21.1107 6.24188 21.0507 6.15C20.972 6.02625 20.9045 5.89688 20.822 5.775C20.7207 5.62688 20.612 5.48438 20.5032 5.34188C20.4338 5.25375 20.357 5.17125 20.2838 5.08687C20.1488 4.9275 20.0195 4.76625 19.8807 4.60875C19.8188 4.53938 19.742 4.485 19.6782 4.41937C19.6276 4.36688 19.592 4.30125 19.5413 4.24875C19.4626 4.16813 19.3801 4.09312 19.2938 4.02C19.1626 3.9075 19.0257 3.79875 18.8926 3.68813C18.7913 3.60375 18.6957 3.51 18.5907 3.42937C18.4801 3.345 18.3582 3.27563 18.2438 3.19313C18.167 3.13875 18.1013 3.07125 18.0245 3.01688C17.9251 2.94563 17.8238 2.87438 17.7188 2.8125C17.4488 2.655 17.1788 2.49563 16.9032 2.3475C16.6932 2.235 16.4757 2.13188 16.2545 2.04375C15.8738 1.89188 15.4932 1.73812 15.1032 1.61625C14.6007 1.45875 14.087 1.33688 13.562 1.27313C13.247 1.23375 12.9338 1.185 12.617 1.16625C12.302 1.1475 11.9832 1.1625 11.6663 1.16063C11.267 1.15875 10.8695 1.19438 10.4738 1.25625C10.1982 1.29938 9.9207 1.33875 9.6507 1.40062C9.34133 1.47187 9.03758 1.56188 8.73195 1.64813C8.2407 1.785 7.77195 1.98 7.31445 2.20125C7.08945 2.31 6.87758 2.44313 6.6582 2.56313C6.51008 2.64563 6.3582 2.72438 6.21008 2.80875C6.16133 2.83688 6.10695 2.87625 6.14633 2.94563C6.17633 2.99813 6.21758 3.045 6.25508 3.09375C6.3207 3.18 6.38633 3.26438 6.45383 3.34875C6.49508 3.39938 6.54008 3.44813 6.58133 3.49875C6.60195 3.52313 6.61695 3.55125 6.6357 3.57563C6.65258 3.59625 6.67508 3.61313 6.69008 3.63563C6.7407 3.71062 6.78383 3.79125 6.84008 3.8625C6.89633 3.93375 6.96195 3.99938 7.02195 4.06687C7.02758 4.0725 7.02758 4.08563 7.0332 4.09313C7.05383 4.12313 7.07633 4.15313 7.09883 4.18125C7.11383 4.2 7.12883 4.21875 7.14195 4.23938C7.19258 4.31438 7.23758 4.395 7.29195 4.46625C7.3482 4.5375 7.41195 4.60313 7.47383 4.67063C7.47758 4.67438 7.47758 4.68188 7.48133 4.6875C7.5282 4.76063 7.56945 4.83938 7.62195 4.90688C7.68195 4.98375 7.75695 5.04938 7.81508 5.12813C7.89008 5.22938 7.95195 5.34188 8.02883 5.44312C8.27633 5.77688 8.5257 6.10687 8.77695 6.43875C8.81445 6.48938 8.8632 6.53063 8.90445 6.57938C8.9307 6.60938 8.95133 6.645 8.97383 6.67688C8.98883 6.69563 9.00383 6.71438 9.01695 6.735C9.06758 6.81 9.11258 6.88875 9.16883 6.96C9.22508 7.03125 9.28883 7.09688 9.3507 7.16438C9.35445 7.16813 9.35258 7.1775 9.35633 7.18125C9.40695 7.26 9.45758 7.33875 9.51195 7.41375C9.5682 7.48875 9.63195 7.55813 9.6882 7.63313C9.74258 7.70625 9.78758 7.78688 9.84383 7.85813C9.90008 7.92938 9.9957 7.98563 10.0182 8.06438C10.0482 8.1675 10.127 8.17875 10.187 8.2275C10.2957 8.14688 10.397 8.06812 10.5038 7.995C10.5395 7.97063 10.6051 7.94063 10.6295 7.95563C10.7513 8.0325 10.8582 7.96125 10.967 7.935C11.0795 7.90688 11.1863 7.85438 11.2951 7.81313C11.3232 7.80375 11.3551 7.79625 11.3851 7.79625C11.5426 7.79813 11.6926 7.77375 11.8501 7.73625C12.0601 7.68563 12.2888 7.71 12.5082 7.7025C12.5176 7.7025 12.5307 7.7025 12.5345 7.70813C12.5795 7.785 12.6545 7.75125 12.7182 7.75875C12.8438 7.77187 12.9713 7.785 13.097 7.80188C13.1401 7.8075 13.1813 7.83187 13.2245 7.84312C13.3126 7.8675 13.4045 7.90875 13.4926 7.90688C13.7026 7.89938 13.8995 7.95937 14.102 7.99312C14.1357 7.99875 14.1695 8.00062 14.2013 8.01188C14.3401 8.06437 14.4826 8.10938 14.612 8.17688C14.7151 8.23125 14.8332 8.27437 14.8801 8.40563C14.9045 8.475 14.9626 8.51625 15.0451 8.535C15.1276 8.55375 15.2101 8.59313 15.2776 8.64375C15.4088 8.74312 15.5213 8.865 15.6901 8.90438C15.7032 8.90812 15.7145 8.92688 15.7257 8.94C15.767 8.98875 15.7988 9.0525 15.8495 9.08625C15.9995 9.1875 16.1551 9.27563 16.3088 9.37125C16.4438 9.45563 16.5882 9.48375 16.7532 9.45563C16.7438 9.41625 16.7438 9.37688 16.7251 9.34875C16.652 9.23438 16.6182 9.11438 16.6351 8.97937C16.6426 8.92125 16.6613 8.865 16.6707 8.80688C16.7007 8.61938 16.7682 8.45438 16.9051 8.31188C17.1188 8.08687 17.3682 8.05875 17.6438 8.1375C17.7845 8.17688 17.9232 8.22938 18.0563 8.28938C18.2495 8.3775 18.4126 8.5125 18.5401 8.68125C18.7257 8.92875 18.7763 9.22875 18.8195 9.52313C18.842 9.67688 18.8045 9.84 18.7951 9.99938C18.7932 10.0181 18.7932 10.0369 18.7988 10.0538C18.8138 10.1081 18.8288 10.1625 18.8513 10.215C18.8663 10.2506 18.8945 10.2825 18.9188 10.3219C18.9657 10.2581 18.8982 10.1663 19.0145 10.1588C19.0182 10.2788 19.0257 10.3988 19.202 10.3519C19.2076 10.3313 19.217 10.3031 19.2338 10.2525C19.2563 10.2937 19.2676 10.3162 19.2807 10.3369C19.3407 10.4381 19.3913 10.545 19.5338 10.5563C19.5695 10.56 19.622 10.5994 19.6313 10.6331C19.6688 10.7775 19.8038 10.8019 19.9013 10.8694C19.9538 10.9069 20.042 10.8825 20.072 10.9725C20.0832 11.0081 20.1207 11.0381 20.1545 11.0625C20.2163 11.1056 20.2838 11.13 20.327 11.205C20.3832 11.3025 20.462 11.3888 20.537 11.4731C20.5782 11.5181 20.6401 11.5444 20.6795 11.5913C20.7432 11.6644 20.7938 11.7506 20.852 11.8275C20.9513 11.9587 21.0601 12.0844 21.1501 12.2213C21.1857 12.2756 21.197 12.2625 21.2288 12.2325C21.2607 12.2025 21.2926 12.1725 21.3245 12.1406C21.332 12.1463 21.3395 12.15 21.347 12.1556C21.3113 12.2438 21.2776 12.33 21.242 12.4181C21.2513 12.4219 21.2588 12.4275 21.2682 12.4313C21.3282 12.375 21.3957 12.3244 21.4445 12.2587C21.4913 12.1969 21.5213 12.12 21.5495 12.0469C21.5776 11.97 21.5945 11.8875 21.6151 11.8088C21.6226 11.8088 21.632 11.8106 21.6395 11.8106C21.6395 11.8575 21.6526 11.91 21.6376 11.9494C21.5682 12.1238 21.4988 12.2963 21.4145 12.465C21.3732 12.5494 21.437 12.5944 21.4595 12.6525C21.4651 12.6656 21.512 12.6694 21.5401 12.6656C21.5738 12.66 21.6057 12.6375 21.6395 12.63C21.7763 12.6 21.8663 12.5138 21.9338 12.3956C21.947 12.3731 21.9788 12.3619 22.0013 12.3469C22.0088 12.3544 22.0163 12.3619 22.0238 12.3694C22.0126 12.3994 22.0088 12.4388 21.9863 12.4556C21.887 12.5363 21.7876 12.6188 21.677 12.6825C21.602 12.7275 21.4988 12.7369 21.5832 12.8588C21.587 12.8625 21.5832 12.8719 21.5851 12.8775C21.587 12.9506 21.587 13.0181 21.527 13.0781C21.497 13.11 21.5026 13.1737 21.4763 13.2113C21.4107 13.3031 21.3338 13.3875 21.2607 13.4756C21.347 13.6013 21.4276 14.1075 21.3657 14.205C21.3582 14.1506 21.3732 14.0925 21.3563 14.0438C21.3001 13.8844 21.2982 13.7119 21.2138 13.56C21.1838 13.5056 21.1557 13.4963 21.1107 13.5019C21.0751 13.5056 21.0413 13.5206 21.0076 13.53C21.0695 13.785 21.1407 14.0381 21.1895 14.295C21.2401 14.5631 21.2063 14.8369 21.197 15.1069C21.1707 14.925 21.1557 14.7431 21.137 14.5612C21.1201 14.4075 21.1032 14.2556 21.0788 14.1038C21.0545 13.9481 21.0001 13.8056 20.8932 13.6875C20.8782 13.6706 20.837 13.6556 20.8182 13.665C20.7582 13.6912 20.7057 13.7288 20.642 13.7663C20.7713 14.1638 20.7113 14.5725 20.702 14.9794C20.6776 14.9456 20.672 14.9081 20.6701 14.8725C20.657 14.5744 20.7095 14.2744 20.612 13.9819C20.5707 13.86 20.5182 13.7531 20.3757 13.7044C20.2651 14.2406 20.0963 14.7506 19.7251 15.1688C19.7157 15.1388 19.7232 15.1144 19.7363 15.0956C19.7682 15.0506 19.8113 15.0113 19.8376 14.9644C19.8976 14.8556 19.9482 14.7413 20.0063 14.6325C20.132 14.4 20.252 14.1638 20.2145 13.8881C20.207 13.8263 20.1788 13.7663 20.1582 13.7063C20.132 13.635 20.0701 13.6406 20.0213 13.6613C19.9538 13.6894 19.8957 13.7381 19.8301 13.7719C19.7982 13.7888 19.7607 13.7925 19.727 13.8019C19.7026 13.8094 19.6763 13.815 19.652 13.8281C19.5863 13.8619 19.5057 13.9406 19.4607 13.9219C19.3951 13.8956 19.3576 13.9163 19.307 13.9331C19.262 13.9481 19.2151 13.965 19.1682 13.9706C19.0801 13.9819 18.9901 13.9894 18.9001 13.9894C18.8532 13.9894 18.8063 13.9706 18.7595 13.9575C18.7351 13.9519 18.7107 13.935 18.6863 13.935C18.5963 13.9313 18.5082 13.9388 18.4295 13.875C18.3676 13.8263 18.2813 13.8038 18.2213 13.7531C18.1576 13.6988 18.1051 13.6988 18.0357 13.7325C18.0076 13.7456 17.9532 13.7475 17.9363 13.7288C17.8932 13.6838 17.8482 13.6613 17.7845 13.6463C17.672 13.6219 17.5426 13.6556 17.4676 13.7475C17.4507 13.77 17.4226 13.7963 17.3963 13.8C17.2763 13.8169 17.1563 13.8244 17.0363 13.8413C16.9688 13.8506 16.8976 13.86 16.8357 13.8844C16.8038 13.8956 16.7832 13.9406 16.7588 13.9706C16.7663 13.98 16.772 13.9894 16.7795 14.0006C16.8282 13.9856 16.877 13.9556 16.9257 13.9575C17.0701 13.9631 17.2163 13.98 17.3588 13.9987C17.3832 14.0025 17.4245 14.0531 17.4188 14.0681C17.4095 14.0981 17.3738 14.1319 17.3438 14.1375C17.2857 14.1488 17.2257 14.1375 17.1657 14.1413C17.1395 14.1431 17.1151 14.16 17.0851 14.1731C17.2107 14.25 17.3213 14.3156 17.4263 14.3794C17.4001 14.4338 17.387 14.4637 17.3663 14.5087C17.2426 14.4919 17.1113 14.4919 16.9932 14.4506C16.8563 14.4038 16.7232 14.4038 16.5882 14.4038C16.5845 14.4131 16.5807 14.4244 16.577 14.4338C16.7363 14.5125 16.8938 14.5913 17.0588 14.6719C17.0382 14.6944 17.0251 14.7056 17.0157 14.7206C16.9501 14.8144 16.7776 14.8688 16.6857 14.8256C16.6013 14.7844 16.5188 14.7431 16.4326 14.7038C16.2507 14.625 16.0688 14.55 15.8888 14.4675C15.737 14.4 15.572 14.4244 15.4145 14.4056C15.3976 14.4038 15.3713 14.4094 15.3638 14.4225C15.2982 14.5238 15.197 14.4881 15.1051 14.4956C15.0601 14.4994 15.0132 14.5031 14.9701 14.5163C14.9495 14.5219 14.9176 14.5575 14.9213 14.5669C14.9401 14.6175 14.9626 14.6663 14.9945 14.7094C15.0488 14.7806 15.1182 14.8425 15.1726 14.9156C15.2288 14.9906 15.2663 15.0788 15.3226 15.1519C15.4126 15.27 15.512 15.3825 15.6076 15.4969C15.617 15.5081 15.6207 15.5231 15.6282 15.5363C15.647 15.5644 15.6676 15.5925 15.6882 15.6206C15.7051 15.6413 15.722 15.6619 15.7388 15.6825C15.7613 15.7125 15.782 15.7425 15.8045 15.7725C15.8195 15.7913 15.8363 15.8081 15.8513 15.8288C15.902 15.9038 15.9451 15.9844 15.9995 16.0556C16.0557 16.1269 16.1213 16.1925 16.1813 16.26C16.187 16.2656 16.1851 16.2787 16.1888 16.2863C16.2076 16.3144 16.2282 16.3444 16.2488 16.3706C16.2657 16.3913 16.2863 16.41 16.3032 16.4325C16.3276 16.4644 16.352 16.4963 16.3745 16.5281C16.3876 16.5469 16.4007 16.5675 16.4157 16.5863C16.4363 16.6144 16.4551 16.6425 16.4757 16.6688C16.4907 16.6875 16.5113 16.7025 16.5263 16.7231C16.5807 16.8038 16.6313 16.8881 16.6895 16.965C16.7438 17.0381 16.8113 17.1038 16.8657 17.1769C16.9426 17.2819 17.0101 17.3925 17.0851 17.4956C17.2238 17.6869 17.3663 17.8763 17.507 18.0656C17.6251 18.2231 17.7413 18.3825 17.8632 18.5363C17.9195 18.6075 17.987 18.6713 18.047 18.7388C18.0563 18.75 18.0582 18.7669 18.0657 18.78C18.0845 18.8081 18.1051 18.8381 18.1257 18.8644C18.1407 18.8831 18.1632 18.8981 18.1763 18.9169C18.227 18.9938 18.2682 19.0744 18.3226 19.1475C18.3751 19.2169 18.4407 19.2769 18.4951 19.3444C18.572 19.4419 18.6451 19.5413 18.7201 19.6406C18.7276 19.65 18.7313 19.6612 18.7388 19.6725C18.7613 19.7044 18.7857 19.7381 18.8082 19.77C18.8232 19.7888 18.8382 19.8094 18.8513 19.8281C18.9038 19.905 18.9563 19.9838 19.0107 20.0588C19.0295 20.0925 19.0595 20.1244 19.082 20.1506Z" fill="currentColor"/>
<path d="M11.9626 22.8168C12.3996 22.8168 12.7539 22.8134 12.7539 22.8093C12.7539 22.8051 12.3996 22.8018 11.9626 22.8018C11.5256 22.8018 11.1714 22.8051 11.1714 22.8093C11.1714 22.8134 11.5256 22.8168 11.9626 22.8168Z" fill="currentColor"/>
<path d="M22.7382 12.7915C22.7455 12.7915 22.7513 12.4372 22.7513 12.0002C22.7513 11.5632 22.7455 11.209 22.7382 11.209C22.731 11.209 22.7251 11.5632 22.7251 12.0002C22.7251 12.4372 22.731 12.7915 22.7382 12.7915Z" fill="currentColor"/>
<path d="M11.9626 1.19631C12.3996 1.19631 12.7539 1.19379 12.7539 1.19068C12.7539 1.18758 12.3996 1.18506 11.9626 1.18506C11.5256 1.18506 11.1714 1.18758 11.1714 1.19068C11.1714 1.19379 11.5256 1.19631 11.9626 1.19631Z" fill="currentColor"/>
</svg>
