<svg width="25" height="24" viewBox="0 0 25 24" xmlns="http://www.w3.org/2000/svg">
<path d="M3.11933 20.1108C2.76044 19.6344 2.36239 19.1515 2.01655 18.6295C0.992083 17.1026 0.352605 15.4256 0.11117 13.592C-0.228145 11.0471 0.202524 8.6393 1.40318 6.37503C2.58425 4.1499 4.31998 2.45333 6.5712 1.30488C7.94804 0.600149 9.4097 0.18253 10.9497 0.0520247C11.0149 0.0454994 11.0736 0.0193982 11.1389 0.00634766C11.7066 0.00634766 12.2678 0.00634766 12.8355 0.00634766C13.6316 0.156429 14.4407 0.267359 15.2237 0.469643C17.0117 0.932938 18.5777 1.82038 19.9546 3.04061C21.6511 4.54795 22.8387 6.38808 23.4847 8.561C24.3004 11.2951 24.1699 13.9966 23.0671 16.6197C21.9252 19.3408 20.0068 21.3832 17.364 22.7274C15.2825 23.778 13.0769 24.1825 10.767 23.9411C8.33955 23.6931 6.17969 22.7731 4.30693 21.2005C4.18947 21.1026 4.07202 21.0047 3.95456 20.9068C3.92846 20.8873 3.89584 20.8742 3.88278 20.8677M11.9872 23.0015C18.01 22.9819 22.9953 18.1923 22.9953 11.9998C22.9953 5.93783 18.1927 1.02429 12.0198 0.998191C5.9513 0.97209 1.01818 5.83995 0.998609 11.9802C0.979033 18.0031 5.84037 22.9688 11.9872 23.0015Z" fill="currentColor"/>
<path d="M15.5692 15.2494C13.8791 18.6295 9.98353 18.4402 8.42398 15.2298C8.26738 15.406 8.12382 15.5756 7.94111 15.7779C8.29348 16.3717 8.67194 17.0047 9.05041 17.6311C9.12219 17.7551 9.20049 17.8725 9.26575 17.9965C9.4093 18.2836 9.33752 18.5577 9.09609 18.7013C8.8677 18.8318 8.58712 18.76 8.41746 18.499C8.2478 18.238 8.09119 17.9574 7.92806 17.6898C7.6018 17.1482 7.28206 16.6132 6.95579 16.0716C6.70783 15.6539 6.72088 15.5169 7.07325 15.1646C7.34731 14.884 7.63442 14.6164 7.89544 14.3293C7.96721 14.251 8.00637 14.1075 7.99984 13.9965C7.96069 13.5789 7.87586 13.1613 7.85628 12.7371C7.84323 12.4305 7.7323 12.2543 7.42562 12.2151C7.34079 12.2021 7.26248 12.1694 7.1385 12.1303C7.0341 12.6523 6.92969 13.1743 6.81876 13.6898C6.77961 13.8725 6.75351 14.0553 6.69478 14.2249C6.60995 14.4924 6.4142 14.6034 6.14013 14.5642C5.87912 14.5251 5.68989 14.2836 5.74209 14.0161C5.90522 13.1352 6.08141 12.2477 6.27716 11.3734C6.34894 11.0471 6.60995 10.9231 6.92969 11.0145C7.24943 11.1058 7.56917 11.2168 7.91501 11.3277C8.02594 10.9492 8.13687 10.5773 8.25433 10.2053C8.23475 10.1792 8.21517 10.1466 8.18907 10.1336C7.56917 9.9378 7.22986 9.48103 6.99495 8.90028C6.82529 8.48266 6.59038 8.08462 6.38809 7.67352C6.19234 7.27548 6.25106 6.98837 6.55775 6.84481C6.84486 6.70778 7.07977 6.83829 7.28858 7.24285C7.51697 7.68657 7.7584 8.12377 7.95416 8.58706C8.11077 8.94595 8.34568 9.16781 8.65889 9.23959C9.20702 8.71104 9.72904 8.20207 10.2967 7.64742C10.0618 7.18413 9.78124 6.636 9.52023 6.08135C9.45498 5.94432 9.3832 5.74856 9.4354 5.62458C9.50066 5.46798 9.67684 5.25917 9.81387 5.25264C9.99005 5.24612 10.2445 5.37662 10.3359 5.5267C10.6295 6.0161 10.8775 6.53812 11.1189 7.06015C11.2299 7.29506 11.3408 7.40599 11.6279 7.34073C11.8759 7.28201 12.1499 7.30811 12.4044 7.35378C12.6132 7.38641 12.7176 7.34726 12.809 7.1515C13.0569 6.62295 13.3245 6.10093 13.592 5.57891C13.7747 5.22654 14.0618 5.12866 14.3359 5.30485C14.5773 5.45493 14.6295 5.70289 14.4794 6.02263C14.2315 6.5316 13.977 7.03405 13.729 7.53649C13.7029 7.59522 13.6768 7.65395 13.6768 7.65395C14.225 8.1825 14.7535 8.69147 15.3147 9.23307C15.5626 9.15476 15.8237 9.01121 15.9737 8.65884C16.1891 8.14987 16.4566 7.667 16.7111 7.17108C16.8938 6.81871 17.1352 6.70778 17.4158 6.83829C17.7095 6.97532 17.7812 7.24938 17.5985 7.6148C17.2918 8.24122 16.9917 8.86113 16.6589 9.4745C16.5741 9.63763 16.4109 9.76814 16.2543 9.87255C16.0912 9.99 15.8954 10.0618 15.7062 10.1597C15.8171 10.5446 15.9281 10.9166 16.0455 11.3212C16.3392 11.2233 16.6328 11.1189 16.9264 11.0275C17.3702 10.8905 17.6116 11.0275 17.7095 11.4778C17.8856 12.2934 18.0488 13.1091 18.2119 13.9313C18.2706 14.238 18.1075 14.4924 17.8269 14.5512C17.5594 14.6099 17.3179 14.4663 17.2462 14.1662C17.0961 13.5006 16.9656 12.8285 16.822 12.1172C16.5936 12.1955 16.3783 12.2673 16.1891 12.3261C16.1042 12.9003 16.0194 13.4484 15.9542 13.99C15.9411 14.0944 16.0064 14.2445 16.0781 14.3228C16.3587 14.6295 16.6524 14.9166 16.9525 15.2037C17.2005 15.4451 17.2396 15.6931 17.0569 15.9933C16.5675 16.8024 16.0847 17.6115 15.5953 18.4207C15.3995 18.7404 15.1124 18.8383 14.8644 18.6817C14.61 18.5251 14.5578 18.2314 14.747 17.9117C15.1124 17.2918 15.4648 16.6719 15.8563 16.0716C16.039 15.7975 16.0194 15.6148 15.7649 15.4321C15.7062 15.3864 15.641 15.3146 15.5692 15.2494ZM12.5219 11.5104C12.5219 13.1743 12.5219 14.9035 12.5219 16.6393C14.8188 16.1629 15.7127 12.6915 14.8318 10.8057C14.0684 11.034 13.3114 11.269 12.5219 11.5104ZM11.4713 16.6654C11.4713 14.8905 11.4713 13.1743 11.4713 11.5169C10.6687 11.269 9.8987 11.0275 9.10261 10.7796C8.61974 12.5022 8.73067 14.1858 9.9248 15.68C10.3098 16.1629 10.8122 16.4957 11.4713 16.6654ZM9.59854 9.78772C11.145 10.7665 13.3636 10.5512 14.375 9.76162C13.7878 8.90028 13.0308 8.29995 11.9411 8.32605C10.8971 8.34563 10.1728 8.9329 9.59854 9.78772Z" fill="currentColor"/>
<path d="M21.5659 9.46163C21.4615 9.57256 21.3571 9.75527 21.1939 9.83357C20.9851 9.93798 20.7633 9.85315 20.6328 9.63781C20.574 9.53993 20.5349 9.42248 20.4957 9.31155C19.8889 7.41921 18.7731 5.89882 17.1613 4.73732C16.7437 4.43716 16.6393 4.15005 16.835 3.88251C17.0373 3.60192 17.3114 3.61497 17.7421 3.92819C19.543 5.23324 20.7894 6.93634 21.4615 9.05706C21.4876 9.15494 21.5072 9.25935 21.5659 9.46163Z" fill="currentColor"/>
<path d="M5.44844 18.2314C5.65072 18.362 5.83343 18.4403 5.97046 18.5642C6.96883 19.4712 8.0977 20.1368 9.38971 20.5153C9.83343 20.6458 10.2967 20.7176 10.7535 20.8155C10.8514 20.835 10.9493 20.8481 11.0406 20.8742C11.3212 20.9525 11.4778 21.1809 11.4386 21.4223C11.3864 21.7029 11.1385 21.8856 10.8383 21.8399C9.78123 21.6964 8.75676 21.4158 7.79101 20.959C6.83832 20.5088 5.98351 19.928 5.21353 19.2102C5.02429 19.0341 4.93294 18.8252 5.05039 18.6034C5.12217 18.4664 5.29183 18.375 5.44844 18.2314Z" fill="currentColor"/>
<path d="M4.09141 17.729C4.00658 17.6703 3.8304 17.592 3.73252 17.4549C3.53676 17.1874 3.37363 16.8872 3.21702 16.5871C3.06694 16.3065 3.15177 16.0194 3.39973 15.8823C3.63464 15.7584 3.9087 15.8301 4.07183 16.0912C4.26759 16.4044 4.45683 16.7176 4.61343 17.0504C4.75699 17.3571 4.50903 17.7225 4.09141 17.729Z" fill="currentColor"/>
<path d="M14.9558 3.58899C14.6557 3.49764 14.2446 3.38671 13.8531 3.23663C13.6181 3.14527 13.5659 2.91689 13.6247 2.68198C13.6834 2.46012 13.8531 2.29699 14.0749 2.34266C14.5056 2.43402 14.9363 2.54495 15.3539 2.70155C15.5888 2.78638 15.6214 3.03434 15.5627 3.26273C15.517 3.46501 15.3017 3.59552 14.9558 3.58899Z" fill="currentColor"/>
</svg>
