<svg width="18" height="18" viewBox="0 0 18 18" xmlns="http://www.w3.org/2000/svg">
<path d="M14.5383 6.92307H13.1536C13.1531 6.37239 12.9341 5.84442 12.5447 5.45503C12.1553 5.06564 11.6273 4.84664 11.0767 4.84609V3.46143C11.9944 3.46253 12.8743 3.82759 13.5232 4.47653C14.1721 5.12548 14.5372 6.00533 14.5383 6.92307Z" fill="currentColor"/>
<path d="M17.3076 6.9233H15.9229C15.9215 5.63843 15.4104 4.40661 14.5019 3.49807C13.5933 2.58952 12.3615 2.07846 11.0766 2.077V0.692336C12.7286 0.694168 14.3124 1.35123 15.4806 2.51937C16.6487 3.6875 17.3057 5.27131 17.3076 6.9233ZM11.9995 12.7956L13.5503 11.2448C13.7579 11.0372 14.0218 10.895 14.3094 10.836C14.597 10.7769 14.8957 10.8035 15.1683 10.9125L17.057 11.6685C17.3353 11.7799 17.5739 11.9721 17.742 12.2204C17.9101 12.4687 17.9999 12.7617 17.9999 13.0615V16.4961C18.0004 16.7003 17.9592 16.9024 17.8789 17.0901C17.7986 17.2777 17.6808 17.447 17.5328 17.5876C17.3847 17.7282 17.2096 17.8371 17.018 17.9076C16.8264 17.9781 16.6225 18.0088 16.4186 17.9978C3.1799 17.1739 0.506122 5.96097 0.00972181 1.66714C-0.0143203 1.45722 0.00635208 1.24459 0.0703795 1.04323C0.134407 0.84188 0.240338 0.656361 0.381206 0.498883C0.522074 0.341404 0.694686 0.215532 0.887689 0.129548C1.08069 0.0435641 1.28971 -0.000584625 1.501 5.84564e-06H4.87472C5.17455 -3.78192e-06 5.4675 0.0898228 5.71579 0.257898C5.96408 0.425974 6.15631 0.664588 6.26769 0.942959L7.02302 2.83163C7.13203 3.10426 7.15864 3.40287 7.09957 3.69047C7.0405 3.97807 6.89834 4.24202 6.6907 4.44961L5.13989 6.00043C5.13989 6.00043 5.99976 12.0459 11.9995 12.7956Z" fill="currentColor"/>
</svg>
