<svg width="24" height="26" viewBox="0 0 24 26" xmlns="http://www.w3.org/2000/svg">
<path fill-rule="evenodd" clip-rule="evenodd" d="M19.2558 0.405722C19.186 0.135241 19.186 0.0338101 19.0814 0H12H4.84884C4.36047 2.06242 3.87209 3.31339 1.84884 4.46294C1.2907 4.80104 0.697674 5.07152 0 5.20676C0 9.06112 1.0814 15.316 3.03488 18.4265C4.46512 20.7256 6.87209 23.0923 9.27907 24.58C9.69767 24.8505 11.5814 25.9662 12 26C13.1512 25.7971 16.1163 23.6333 17.1279 22.8557C22.186 18.8999 23.9651 11.9688 23.9651 5.24057C21.4535 4.6658 19.7442 2.84005 19.2558 0.405722Z" fill="currentColor"/>
</svg>
