<svg width="60" height="48" viewBox="0 0 60 48" fill="none" xmlns="http://www.w3.org/2000/svg">
<g clip-path="url(#clip0_16_8132)">
<path d="M0 31.0355C0 29.2854 0 27.5352 0 25.7851C0.268352 25.5634 0.501702 25.3068 0.793388 25.1317C5.64706 22.2149 10.5124 19.298 15.3661 16.3811C15.5644 16.2645 15.7511 16.1478 15.9728 16.0078C15.4244 15.0394 14.911 14.106 14.386 13.1726C13.8726 12.2509 13.931 11.9708 14.8177 11.4225C17.6179 9.67234 20.3948 7.88721 23.2183 6.18376C26.7419 4.08362 30.3004 2.06514 33.8357 0C34.034 0 34.2207 0 34.4191 0C34.6641 0.361692 34.9441 0.711716 35.1541 1.08508C37.5809 5.33204 39.9844 9.59067 42.4113 13.8376C42.5863 14.141 42.8663 14.421 43.158 14.596C48.42 17.6646 53.6937 20.7214 58.9558 23.79C59.2358 23.9533 59.4691 24.1867 59.7258 24.385C59.7258 26.1351 59.7258 27.8853 59.7258 29.6354C59.4575 29.8804 59.2124 30.1604 58.8974 30.3471C49.2484 36.1458 39.5994 41.9329 29.9504 47.7316C29.402 48.0583 28.9703 48.0817 28.3986 47.755C19.1813 42.3879 9.94069 37.0326 0.723384 31.6655C0.466699 31.5139 0.245017 31.2455 0 31.0355ZM40.8595 21.0948C40.8595 21.1648 40.8595 21.3748 40.8595 21.5848C40.8595 23.2183 40.8478 24.8517 40.8595 26.4852C40.8595 26.9519 40.7428 27.3019 40.3111 27.5469C37.2426 29.3087 34.1857 31.0705 31.1288 32.8439C30.7438 33.0656 30.3821 33.0656 29.9854 32.8323C26.0885 30.5688 22.1915 28.317 18.2829 26.0768C17.8162 25.8085 17.5946 25.4584 17.6062 24.8984C17.6296 22.9499 17.6179 21.0131 17.6179 19.0647C17.6179 18.4696 17.6179 17.8629 17.6179 17.1395C17.2095 17.2912 16.8595 17.3729 16.5562 17.5479C12.0175 20.2547 7.50219 22.9733 2.97521 25.6918C2.80019 25.7968 2.62518 25.9251 2.41517 26.0535C2.59018 26.1585 2.70685 26.2518 2.8352 26.3218C11.4575 31.3272 20.0914 36.3325 28.7137 41.3495C29.0754 41.5596 29.3204 41.5246 29.6587 41.3262C38.7127 35.8892 47.7667 30.4638 56.8206 25.0267C56.984 24.9334 57.1356 24.8167 57.3573 24.6767C53.017 22.1565 48.7234 19.6714 44.3131 17.1162C44.9781 18.4463 44.9431 18.563 43.788 19.228C43.368 19.473 42.948 19.7064 42.528 19.9514C42.5863 19.9747 42.633 20.0097 42.6913 20.0331C42.563 20.3831 42.528 20.9315 42.2829 21.0365C41.9096 21.2231 41.4079 21.0948 40.8595 21.0948ZM25.6801 6.58046C28.7137 11.9242 31.7355 17.2329 34.7808 22.5882C37.4993 21.0131 40.1711 19.4847 42.878 17.9096C39.8444 12.5659 36.8342 7.25717 33.789 1.9018C31.0705 3.46524 28.387 5.01701 25.6801 6.58046ZM29.7287 30.8255C29.7521 30.6621 29.7637 30.5921 29.7637 30.5221C29.7637 27.9903 29.7754 25.4701 29.7521 22.9383C29.7521 22.7049 29.6354 22.4482 29.5187 22.2499C27.8853 19.4497 26.2402 16.6612 24.595 13.8726C24.5017 13.7093 24.385 13.5693 24.28 13.3943C22.6699 14.3043 21.0948 15.1911 19.5314 16.1011C19.3913 16.1828 19.2397 16.4278 19.2397 16.5912C19.2163 19.193 19.228 21.7948 19.228 24.4084C19.228 24.5484 19.263 24.7701 19.3563 24.8167C20.2547 25.3651 21.1765 25.8785 22.1682 26.4618C22.1682 25.2134 22.1682 24.0933 22.1682 22.9616C22.1682 21.8882 22.7282 21.5615 23.6733 22.0982C24.5017 22.5649 25.3068 23.0666 26.1468 23.5216C26.6252 23.79 26.8352 24.1633 26.8235 24.7C26.8119 26.0418 26.8119 27.3836 26.8352 28.7253C26.8352 28.9237 26.9402 29.192 27.0919 29.2854C27.9319 29.8104 28.7953 30.2888 29.7287 30.8255ZM58.1274 26.1351C57.8357 26.2985 57.649 26.3918 57.4623 26.5085C55.3272 27.7803 53.2037 29.0637 51.0686 30.3471C44.1964 34.4657 37.3126 38.596 30.4521 42.7263C30.2654 42.8313 30.0088 43.018 29.9971 43.1813C29.9504 44.0447 29.9737 44.8965 29.9737 45.8415C30.2421 45.6898 30.4054 45.6082 30.5688 45.5032C32.8323 44.1497 35.0958 42.7846 37.3593 41.4312C44.1147 37.3826 50.8819 33.3223 57.6257 29.262C57.824 29.1454 58.0807 28.9003 58.0924 28.6903C58.1624 27.8736 58.1274 27.0569 58.1274 26.1351ZM28.3636 45.8415C28.3636 45.0365 28.3403 44.3014 28.3753 43.5664C28.3986 43.1347 28.2353 42.9246 27.8736 42.703C19.3097 37.7443 10.7457 32.7739 2.18182 27.8036C2.01847 27.7103 1.84346 27.6286 1.59844 27.5002C1.59844 28.2936 1.63345 29.0053 1.58678 29.7171C1.55177 30.1954 1.75012 30.4404 2.14682 30.6738C10.6991 35.6208 19.2397 40.5795 27.7919 45.5382C27.9553 45.6198 28.1186 45.7015 28.3636 45.8415ZM15.9378 12.6359C16.4745 13.5926 16.9762 14.4793 17.4895 15.4011C19.613 14.1993 21.6898 13.0209 23.755 11.8425C24.7001 11.3058 24.9801 11.3758 25.5284 12.3092C27.7219 16.0311 29.9154 19.7647 32.1089 23.4866C32.2139 23.6616 32.3306 23.825 32.4473 24.0117C32.7973 23.79 33.0773 23.6033 33.3923 23.3933C30.3588 18.0496 27.3369 12.7409 24.2917 7.38551C21.5032 9.1473 18.7496 10.8741 15.9378 12.6359ZM31.4088 30.7438C31.4672 30.7438 31.5139 30.7555 31.5489 30.7438C34.034 29.3087 36.5309 27.8853 39.0044 26.4385C39.1561 26.3452 39.2611 26.0651 39.2727 25.8668C39.2961 25.0151 39.2844 24.1633 39.2844 23.2999C39.2844 22.8449 39.2844 22.3899 39.2844 21.8649C39.0627 21.9699 38.9577 22.0049 38.8644 22.0632C36.9509 23.2066 35.0258 24.3384 33.124 25.4934C32.5523 25.8435 32.0272 26.1818 31.4205 25.5518C31.4088 27.3486 31.4088 29.052 31.4088 30.7438ZM23.79 24.0583C23.79 25.1317 23.79 26.1585 23.8017 27.1736C23.8017 27.2669 23.86 27.4069 23.9417 27.4652C24.3267 27.7103 24.7234 27.9203 25.2134 28.2003C25.2134 27.4536 25.1201 26.8119 25.2368 26.1935C25.4351 25.0384 24.9101 24.4317 23.79 24.0583Z" fill="#5FB130"/>
<path d="M30.8023 36.8343C31.0123 36.9743 31.2107 37.091 31.3973 37.231C31.724 37.4877 31.829 37.8143 31.6423 38.211C31.444 38.6077 31.1173 38.6894 30.709 38.6077C30.6389 38.5961 30.5456 38.5727 30.4989 38.5261C29.7289 37.826 29.0172 37.9894 28.2588 38.5844C27.8738 38.8878 27.4304 38.7827 27.1387 38.3627C26.8704 37.9894 27.0104 37.5227 27.4654 37.2193C27.7687 37.0093 28.1071 36.8576 28.4105 36.6359C29.0055 36.2042 29.6122 35.9942 30.2072 36.5076C30.2889 36.1459 30.2656 35.7492 30.4523 35.5042C30.6389 35.2592 31.0123 35.0958 31.339 35.0142C31.759 34.9091 32.144 35.2475 32.2024 35.6792C32.2607 36.2392 31.7124 36.7059 30.8023 36.8343Z" fill="#5FB130"/>
<path d="M51.1617 24.8867C51.8384 25.4468 51.9901 25.8551 51.675 26.2635C51.36 26.6835 50.9633 26.6719 50.2283 26.2518C49.9249 26.0768 49.6216 25.9135 49.3299 25.7268C48.5132 25.2368 48.5248 24.5951 49.3416 24.0817C49.7382 23.8367 50.1349 23.5917 50.5316 23.37C51.08 23.0549 51.5467 23.125 51.8034 23.545C52.0484 23.965 51.9201 24.3384 51.4067 24.7117C51.325 24.7701 51.2434 24.8284 51.1617 24.8867Z" fill="#5FB130"/>
<path d="M8.5757 25.8552C8.41236 25.7152 8.20234 25.6335 8.15567 25.4935C8.06233 25.1901 7.92232 24.7818 8.05066 24.5601C8.17901 24.3501 8.68071 24.1634 8.91406 24.2451C9.53243 24.4901 10.1275 24.8401 10.6758 25.2251C11.1075 25.5168 11.1192 26.1119 10.6992 26.4152C10.1391 26.8236 9.53243 27.1736 8.91406 27.5003C8.55237 27.687 8.17901 27.582 7.94566 27.2203C7.70064 26.8353 7.79398 26.4736 8.12067 26.1819C8.26068 26.0885 8.41236 25.9835 8.5757 25.8552Z" fill="#5FB130"/>
<path d="M14.5961 22.2616C14.8995 22.4949 15.2261 22.6233 15.3078 22.845C15.4012 23.09 15.3662 23.5217 15.2028 23.6734C14.8878 23.9884 14.4561 24.2334 14.0361 24.3734C13.8144 24.4434 13.3944 24.3151 13.2543 24.1284C13.1027 23.9417 13.056 23.44 13.196 23.3C13.581 22.915 14.0827 22.6233 14.5961 22.2616Z" fill="#5FB130"/>
<path d="M46.8566 22.9149C46.8566 23.4166 46.3315 23.8366 45.8415 23.6499C45.4565 23.4983 45.0481 23.2883 44.7681 22.9966C44.5931 22.8216 44.5347 22.4015 44.6164 22.1682C44.6864 21.9582 45.0248 21.7598 45.2698 21.7248C45.8648 21.6315 46.8566 22.4132 46.8566 22.9149Z" fill="#5FB130"/>
<path d="M41.4777 28.947C41.8978 28.947 42.2361 29.297 42.2478 29.7171C42.2594 30.1954 41.5944 30.7788 41.0694 30.7788C40.6727 30.7788 40.2876 30.4055 40.276 29.9971C40.2526 29.5304 40.9294 28.947 41.4777 28.947Z" fill="#5FB130"/>
<path d="M36.2157 33.334C36.2274 33.7773 35.609 34.3607 35.0723 34.3957C34.6523 34.4191 34.2439 34.034 34.2556 33.6023C34.2673 33.159 34.909 32.5756 35.4224 32.5756C35.8307 32.5639 36.2041 32.9256 36.2157 33.334Z" fill="#5FB130"/>
<path d="M34.1974 34.559C34.1974 35.0491 33.614 35.5741 33.054 35.5858C32.6106 35.5974 32.2256 35.2241 32.2256 34.7924C32.2373 34.3374 32.8906 33.789 33.4157 33.789C33.8357 33.7773 34.1974 34.1273 34.1974 34.559Z" fill="#5FB130"/>
<path d="M45.1066 28.3519C44.6632 28.3636 44.3248 28.0369 44.3132 27.6052C44.3015 27.1269 44.8849 26.5785 45.4449 26.5435C45.8766 26.5202 46.285 26.9052 46.285 27.3369C46.285 27.7802 45.6433 28.3403 45.1066 28.3519Z" fill="#5FB130"/>
<path d="M11.8194 25.6685C11.3877 25.6801 11.0493 25.3301 11.0493 24.8984C11.0493 24.4434 11.6677 23.8717 12.2044 23.86C12.6128 23.8483 12.9978 24.21 13.0211 24.6184C13.0445 25.0734 12.3794 25.6568 11.8194 25.6685Z" fill="#5FB130"/>
<path d="M39.4711 30.1604C39.8795 30.1604 40.2528 30.5338 40.2528 30.9421C40.2528 31.4088 39.6228 31.9572 39.0861 31.9689C38.6311 31.9805 38.2694 31.6188 38.281 31.1638C38.2927 30.6971 38.9344 30.1604 39.4711 30.1604Z" fill="#5FB130"/>
<path d="M15.9844 29.9737C15.4594 29.9854 14.8294 29.4487 14.8177 28.982C14.806 28.5503 15.1211 28.2003 15.5527 28.1769C16.0895 28.1419 16.7778 28.7253 16.7778 29.192C16.7662 29.6003 16.3928 29.962 15.9844 29.9737Z" fill="#5FB130"/>
<path d="M43.3682 20.5581C43.8816 20.5581 44.5583 21.1298 44.5583 21.5732C44.5583 21.9815 44.1733 22.3549 43.7766 22.3666C43.2515 22.3782 42.5981 21.8182 42.5981 21.3515C42.5981 20.9315 42.9598 20.5581 43.3682 20.5581Z" fill="#5FB130"/>
<path d="M22.5184 32.529C22.5184 32.949 22.1684 33.3107 21.7484 33.3224C21.235 33.334 20.57 32.7857 20.5466 32.3306C20.535 31.9106 20.9317 31.5022 21.3517 31.5139C21.8884 31.5139 22.5184 32.074 22.5184 32.529Z" fill="#5FB130"/>
<path d="M37.0558 33.1707C36.6241 33.1707 36.2858 32.8323 36.2741 32.4123C36.2624 31.9106 36.8925 31.3739 37.4758 31.3856C37.8842 31.3972 38.2576 31.7706 38.2459 32.1673C38.2342 32.599 37.5692 33.1707 37.0558 33.1707Z" fill="#5FB130"/>
<path d="M18.6681 30.3005C18.6681 30.7438 18.3298 31.0822 17.8981 31.0822C17.3614 31.0822 16.708 30.5338 16.708 30.0788C16.708 29.6704 17.0814 29.3087 17.5014 29.2971C18.0614 29.2854 18.6681 29.8104 18.6681 30.3005Z" fill="#5FB130"/>
<path d="M12.146 27.7569C11.6209 27.7569 10.9792 27.2085 10.9676 26.7535C10.9559 26.3335 11.3059 25.9601 11.7143 25.9484C12.251 25.9251 12.9394 26.5085 12.9277 26.9868C12.9277 27.3835 12.5427 27.7569 12.146 27.7569Z" fill="#5FB130"/>
<path d="M48.2915 26.1468C48.2798 26.5902 47.6147 27.1619 47.1014 27.1619C46.6813 27.1619 46.2963 26.7418 46.3313 26.3101C46.3663 25.8551 47.0547 25.3067 47.5447 25.3301C47.9531 25.3534 48.3031 25.7384 48.2915 26.1468Z" fill="#5FB130"/>
<path d="M19.4146 30.4172C19.9513 30.4055 20.6047 30.9539 20.6047 31.4206C20.6047 31.8406 20.2547 32.1906 19.8347 32.2023C19.2863 32.214 18.6679 31.6773 18.6562 31.1989C18.6562 30.7672 18.9829 30.4172 19.4146 30.4172Z" fill="#5FB130"/>
<path d="M14.8295 28.0837C14.8295 28.527 14.5028 28.8421 14.0594 28.8421C13.4994 28.8421 12.8694 28.3054 12.881 27.8387C12.8927 27.4303 13.2544 27.0686 13.6744 27.0686C14.2344 27.0686 14.8295 27.582 14.8295 28.0837Z" fill="#5FB130"/>
<path d="M46.7985 23.79C46.8102 23.3817 47.1835 23.0083 47.5919 23.0083C48.1169 23.0083 48.7703 23.58 48.7586 24.035C48.7586 24.4434 48.3736 24.8168 47.9769 24.8168C47.4402 24.8168 46.7868 24.2451 46.7985 23.79Z" fill="#5FB130"/>
<path d="M25.54 35.5508C25.0033 35.5391 24.3733 34.9558 24.3966 34.5007C24.42 34.104 24.8167 33.719 25.2133 33.7423C25.7617 33.7657 26.3801 34.3374 26.3568 34.7924C26.3334 35.2008 25.9484 35.5625 25.54 35.5508Z" fill="#5FB130"/>
<path d="M16.661 21.2114C17.0927 21.2114 17.4428 21.5614 17.4428 21.9815C17.4428 22.4715 16.7777 23.0082 16.206 22.9966C15.7743 22.9849 15.4476 22.6232 15.4593 22.2032C15.4826 21.7365 16.1127 21.2114 16.661 21.2114Z" fill="#5FB130"/>
<path d="M43.088 29.5537C42.668 29.5537 42.2946 29.2037 42.2946 28.7954C42.2829 28.3287 42.9013 27.7803 43.438 27.7686C43.9047 27.7569 44.2547 28.0836 44.2547 28.5387C44.2547 29.017 43.6364 29.5421 43.088 29.5537Z" fill="#5FB130"/>
<path d="M27.477 36.6359C26.917 36.6242 26.3103 36.0992 26.3219 35.6208C26.3336 35.2008 26.6953 34.8624 27.127 34.8741C27.6987 34.8857 28.2821 35.3991 28.2704 35.8891C28.2471 36.3325 27.9204 36.6475 27.477 36.6359Z" fill="#5FB130"/>
<path d="M23.2533 32.6456C23.8133 32.6339 24.4201 33.1589 24.4317 33.6373C24.4317 34.069 24.105 34.4074 23.6617 34.4074C23.1016 34.419 22.4949 33.9057 22.4949 33.4156C22.4833 32.9956 22.8216 32.6572 23.2533 32.6456Z" fill="#5FB130"/>
</g>
<defs>
<clipPath id="clip0_16_8132">
<rect width="59.7375" height="48" fill="white"/>
</clipPath>
</defs>
</svg>
