<svg width="44" height="48" viewBox="0 0 44 48" fill="none" xmlns="http://www.w3.org/2000/svg">
<g clip-path="url(#clip0_16_8087)">
<path d="M0 48C0 33.3925 0 18.7905 0 4.16102C1.37959 4.16102 2.7537 4.16102 4.14971 4.16102C4.14971 2.75572 4.14971 1.38884 4.14971 0C10.4016 0 16.6317 0 22.8836 0C22.8836 1.37237 22.8836 2.73925 22.8836 4.14456C24.2796 4.14456 25.6537 4.14456 27.0552 4.14456C27.0552 6.94419 27.0552 9.71089 27.0552 12.505C32.6228 12.505 38.1576 12.505 43.7088 12.505C43.7088 24.3513 43.7088 36.1647 43.7088 48C29.141 48 14.5787 48 0 48ZM24.953 45.914C24.953 32.6898 24.953 19.4767 24.953 6.23605C23.5625 6.23605 22.1884 6.23605 20.7978 6.23605C20.7978 4.83623 20.7978 3.46935 20.7978 2.09698C15.9364 2.09698 11.0969 2.09698 6.22456 2.09698C6.22456 3.49131 6.22456 4.86368 6.22456 6.26349C4.82855 6.26349 3.45992 6.26349 2.0858 6.26349C2.0858 19.4931 2.0858 32.6953 2.0858 45.914C5.2063 45.914 8.31037 45.914 11.4473 45.914C11.4473 43.4767 11.4473 41.0558 11.4473 38.6459C12.8488 38.6459 14.2119 38.6459 15.6079 38.6459C15.6079 41.0833 15.6079 43.4986 15.6079 45.9195C18.7449 45.914 21.8435 45.914 24.953 45.914ZM27.0771 14.613C27.0771 25.065 27.0771 35.4785 27.0771 45.914C31.9331 45.914 36.7726 45.914 41.634 45.914C41.634 35.4785 41.634 25.054 41.634 14.613C36.7726 14.613 31.9331 14.613 27.0771 14.613Z" fill="#5FB130"/>
<path d="M18.7505 38.6295C19.4293 38.6295 20.1027 38.6295 20.7925 38.6295C20.7925 40.3587 20.7925 42.0824 20.7925 43.8226C20.1191 43.8226 19.4458 43.8226 18.7505 43.8226C18.7505 42.1098 18.7505 40.3861 18.7505 38.6295Z" fill="#5FB130"/>
<path d="M8.30481 43.8389C7.60954 43.8389 6.94712 43.8389 6.25732 43.8389C6.25732 42.1097 6.25732 40.386 6.25732 38.6404C6.93069 38.6404 7.60954 38.6404 8.30481 38.6404C8.30481 40.3696 8.30481 42.0878 8.30481 43.8389Z" fill="#5FB130"/>
<path d="M14.5786 26.0916C15.2739 26.0916 15.9418 26.0916 16.6316 26.0916C16.6316 27.4749 16.6316 28.8473 16.6316 30.2416C15.9473 30.2416 15.2739 30.2416 14.5786 30.2416C14.5786 28.8583 14.5786 27.4914 14.5786 26.0916Z" fill="#5FB130"/>
<path d="M10.4126 30.236C10.4126 28.8526 10.4126 27.4858 10.4126 26.0969C11.1024 26.0969 11.7812 26.0969 12.471 26.0969C12.471 27.4748 12.471 28.8417 12.471 30.236C11.7922 30.236 11.1188 30.236 10.4126 30.236Z" fill="#5FB130"/>
<path d="M20.8031 26.0969C20.8031 27.4858 20.8031 28.8526 20.8031 30.2415C20.1187 30.2415 19.4399 30.2415 18.7446 30.2415C18.7446 28.8636 18.7446 27.4858 18.7446 26.0969C19.4289 26.0969 20.0968 26.0969 20.8031 26.0969Z" fill="#5FB130"/>
<path d="M6.25195 32.3604C6.94722 32.3604 7.60964 32.3604 8.29944 32.3604C8.29944 33.7437 8.29944 35.1216 8.29944 36.5159C7.62607 36.5159 6.94722 36.5159 6.25195 36.5159C6.25195 35.1325 6.25195 33.7602 6.25195 32.3604Z" fill="#5FB130"/>
<path d="M10.418 36.516C10.418 35.1327 10.418 33.7548 10.418 32.366C11.1023 32.366 11.7757 32.366 12.4655 32.366C12.4655 33.7438 12.4655 35.1217 12.4655 36.516C11.7921 36.516 11.1132 36.516 10.418 36.516Z" fill="#5FB130"/>
<path d="M18.7446 19.8279C19.4344 19.8279 20.1078 19.8279 20.7976 19.8279C20.7976 21.2112 20.7976 22.5836 20.7976 23.9779C20.1133 23.9779 19.4399 23.9779 18.7446 23.9779C18.7446 22.6001 18.7446 21.2332 18.7446 19.8279Z" fill="#5FB130"/>
<path d="M14.5786 23.9724C14.5786 22.5836 14.5786 21.2167 14.5786 19.8279C15.2629 19.8279 15.9363 19.8279 16.6261 19.8279C16.6261 21.2003 16.6261 22.5726 16.6261 23.9724C15.9527 23.9724 15.2794 23.9724 14.5786 23.9724Z" fill="#5FB130"/>
<path d="M12.4708 23.9834C11.7865 23.9834 11.1131 23.9834 10.4233 23.9834C10.4233 22.6056 10.4233 21.2332 10.4233 19.8389C11.1022 19.8389 11.7756 19.8389 12.4708 19.8389C12.4708 21.2167 12.4708 22.5946 12.4708 23.9834Z" fill="#5FB130"/>
<path d="M6.24658 23.9834C6.24658 22.5946 6.24658 21.2277 6.24658 19.8389C6.9309 19.8389 7.60975 19.8389 8.30501 19.8389C8.30501 21.2222 8.30501 22.5946 8.30501 23.9834C7.62069 23.9834 6.94732 23.9834 6.24658 23.9834Z" fill="#5FB130"/>
<path d="M16.626 36.5215C15.9471 36.5215 15.2738 36.5215 14.584 36.5215C14.584 35.1327 14.584 33.7603 14.584 32.366C15.2628 32.366 15.9307 32.366 16.626 32.366C16.626 33.7438 16.626 35.1162 16.626 36.5215Z" fill="#5FB130"/>
<path d="M18.7446 32.366C19.4289 32.366 20.0968 32.366 20.7921 32.366C20.7921 33.7438 20.7921 35.1162 20.7921 36.516C20.1187 36.516 19.4399 36.516 18.7446 36.516C18.7446 35.1327 18.7446 33.7603 18.7446 32.366Z" fill="#5FB130"/>
<path d="M18.7446 17.709C18.7446 16.3147 18.7446 14.9478 18.7446 13.5645C19.4289 13.5645 20.1023 13.5645 20.7921 13.5645C20.7921 14.9423 20.7921 16.3147 20.7921 17.709C20.1133 17.709 19.4399 17.709 18.7446 17.709Z" fill="#5FB130"/>
<path d="M14.584 13.5591C15.2793 13.5591 15.9417 13.5591 16.6315 13.5591C16.6315 14.9369 16.6315 16.3148 16.6315 17.7091C15.9581 17.7091 15.2847 17.7091 14.584 17.7091C14.584 16.3313 14.584 14.9589 14.584 13.5591Z" fill="#5FB130"/>
<path d="M10.418 13.5591C11.1132 13.5591 11.7757 13.5591 12.4655 13.5591C12.4655 14.9424 12.4655 16.3148 12.4655 17.7091C11.7921 17.7091 11.1132 17.7091 10.418 17.7091C10.418 16.3313 10.418 14.9589 10.418 13.5591Z" fill="#5FB130"/>
<path d="M8.29944 17.7201C7.61512 17.7201 6.94175 17.7201 6.25195 17.7201C6.25195 16.3313 6.25195 14.9589 6.25195 13.5701C6.9308 13.5701 7.60417 13.5701 8.29944 13.5701C8.29944 14.9369 8.29944 16.3093 8.29944 17.7201Z" fill="#5FB130"/>
<path d="M6.25732 26.0916C6.94164 26.0916 7.61501 26.0916 8.30481 26.0916C8.30481 27.4804 8.30481 28.8473 8.30481 30.2416C7.62596 30.2416 6.95259 30.2416 6.25732 30.2416C6.25732 28.8692 6.25732 27.4969 6.25732 26.0916Z" fill="#5FB130"/>
<path d="M8.30481 10.4082C7.62049 10.4082 6.95259 10.4082 6.25732 10.4082C6.25732 9.72747 6.25732 9.05226 6.25732 8.34961C6.93069 8.34961 7.60954 8.34961 8.30481 8.34961C8.30481 9.03579 8.30481 9.71649 8.30481 10.4082Z" fill="#5FB130"/>
<path d="M10.418 8.34961C11.1132 8.34961 11.7866 8.34961 12.4709 8.34961C12.4709 9.03579 12.4709 9.711 12.4709 10.4027C11.7921 10.4027 11.1187 10.4027 10.418 10.4027C10.418 9.72747 10.418 9.04677 10.418 8.34961Z" fill="#5FB130"/>
<path d="M16.637 8.35498C16.637 9.04117 16.637 9.71637 16.637 10.408C15.9473 10.408 15.2739 10.408 14.5786 10.408C14.5786 9.72735 14.5786 9.05214 14.5786 8.35498C15.2575 8.35498 15.9308 8.35498 16.637 8.35498Z" fill="#5FB130"/>
<path d="M20.8031 8.35498C20.8031 9.04665 20.8031 9.71088 20.8031 10.4026C20.1242 10.4026 19.4454 10.4026 18.7446 10.4026C18.7446 9.73284 18.7446 9.05763 18.7446 8.35498C19.4289 8.35498 20.1023 8.35498 20.8031 8.35498Z" fill="#5FB130"/>
<path d="M37.4951 31.3121C37.4951 30.6094 37.4951 29.9342 37.4951 29.2371C38.174 29.2371 38.8473 29.2371 39.559 29.2371C39.559 29.8903 39.559 30.5381 39.5535 31.1858C39.5535 31.2297 39.466 31.3066 39.4167 31.3066C38.7871 31.3176 38.1521 31.3121 37.4951 31.3121Z" fill="#5FB130"/>
<path d="M37.5005 35.4785C37.5005 34.7868 37.5005 34.1061 37.5005 33.4089C38.1848 33.4089 38.8582 33.4089 39.548 33.4089C39.548 34.1006 39.548 34.7813 39.548 35.4785C38.8582 35.4785 38.1903 35.4785 37.5005 35.4785Z" fill="#5FB130"/>
<path d="M35.3764 29.215C35.3764 29.9286 35.3764 30.6038 35.3764 31.312C34.8728 31.312 34.3855 31.312 33.8983 31.312C33.307 31.312 33.307 31.312 33.307 30.7246C33.307 30.2964 33.3016 29.8628 33.3125 29.4346C33.3125 29.3577 33.4056 29.2205 33.4603 29.2205C34.0899 29.2095 34.7195 29.215 35.3764 29.215Z" fill="#5FB130"/>
<path d="M31.2103 29.2371C31.2103 29.9452 31.2103 30.6094 31.2103 31.2956C30.5205 31.2956 29.8416 31.2956 29.1519 31.2956C29.1519 30.6039 29.1519 29.9287 29.1519 29.2371C29.8416 29.2371 30.5205 29.2371 31.2103 29.2371Z" fill="#5FB130"/>
<path d="M37.4951 43.8335C37.4951 43.1418 37.4951 42.4556 37.4951 41.7639C38.1849 41.7639 38.8583 41.7639 39.5426 41.7639C39.5426 42.4611 39.5426 43.1418 39.5426 43.8335C38.8528 43.8335 38.1849 43.8335 37.4951 43.8335Z" fill="#5FB130"/>
<path d="M39.5426 20.8711C39.5426 21.5573 39.5426 22.238 39.5426 22.9351C38.8583 22.9351 38.1904 22.9351 37.4951 22.9351C37.4951 22.2435 37.4951 21.5628 37.4951 20.8711C38.1849 20.8711 38.8528 20.8711 39.5426 20.8711Z" fill="#5FB130"/>
<path d="M39.548 16.699C39.548 17.3852 39.548 18.0659 39.548 18.763C38.8637 18.763 38.1903 18.763 37.5005 18.763C37.5005 18.0768 37.5005 17.4016 37.5005 16.699C38.1793 16.699 38.8527 16.699 39.548 16.699Z" fill="#5FB130"/>
<path d="M39.5481 27.1181C38.8528 27.1181 38.1849 27.1181 37.4951 27.1181C37.4951 26.4265 37.4951 25.7567 37.4951 25.0596C38.1794 25.0596 38.8528 25.0596 39.5481 25.0596C39.5481 25.7403 39.5481 26.41 39.5481 27.1181Z" fill="#5FB130"/>
<path d="M37.4951 39.6615C37.4951 38.9698 37.4951 38.2946 37.4951 37.5974C38.1794 37.5974 38.8583 37.5974 39.5426 37.5974C39.5426 38.2891 39.5426 38.9698 39.5426 39.6615C38.8583 39.6615 38.1959 39.6615 37.4951 39.6615Z" fill="#5FB130"/>
<path d="M31.2047 41.7694C31.2047 42.4611 31.2047 43.1363 31.2047 43.828C30.5204 43.828 29.847 43.828 29.1572 43.828C29.1572 43.1418 29.1572 42.4666 29.1572 41.7694C29.8361 41.7694 30.504 41.7694 31.2047 41.7694Z" fill="#5FB130"/>
<path d="M29.1519 39.656C29.1519 38.9533 29.1519 38.2836 29.1519 37.5919C29.8362 37.5919 30.5041 37.5919 31.1993 37.5919C31.1993 38.2726 31.1993 38.9533 31.1993 39.656C30.5205 39.656 29.8526 39.656 29.1519 39.656Z" fill="#5FB130"/>
<path d="M29.1631 16.688C29.8474 16.688 30.5098 16.688 31.1996 16.688C31.1996 17.3742 31.1996 18.0494 31.1996 18.752C30.5317 18.752 29.8529 18.752 29.1631 18.752C29.1631 18.0658 29.1631 17.3797 29.1631 16.688Z" fill="#5FB130"/>
<path d="M31.2047 20.8765C31.2047 21.5681 31.2047 22.2433 31.2047 22.9405C30.5204 22.9405 29.8525 22.9405 29.1572 22.9405C29.1572 22.2543 29.1572 21.5791 29.1572 20.8765C29.8415 20.8765 30.5149 20.8765 31.2047 20.8765Z" fill="#5FB130"/>
<path d="M33.3291 33.4146C34.0079 33.4146 34.6813 33.4146 35.3711 33.4146C35.3711 34.1007 35.3711 34.7814 35.3711 35.4786C34.6923 35.4786 34.0244 35.4786 33.3291 35.4786C33.3291 34.7869 33.3291 34.1117 33.3291 33.4146Z" fill="#5FB130"/>
<path d="M35.3822 37.5974C35.3822 38.2891 35.3822 38.9588 35.3822 39.645C34.6978 39.645 34.019 39.645 33.3237 39.645C33.3237 38.9643 33.3237 38.2946 33.3237 37.5974C34.008 37.5974 34.6814 37.5974 35.3822 37.5974Z" fill="#5FB130"/>
<path d="M31.2106 33.4146C31.2106 34.1117 31.2106 34.7814 31.2106 35.4731C30.5262 35.4731 29.8584 35.4731 29.1631 35.4731C29.1631 34.7924 29.1631 34.1117 29.1631 33.4146C29.8419 33.4146 30.5098 33.4146 31.2106 33.4146Z" fill="#5FB130"/>
<path d="M33.3237 18.7576C33.3237 18.0605 33.3237 17.3853 33.3237 16.6936C34.008 16.6936 34.6814 16.6936 35.3712 16.6936C35.3712 17.3798 35.3712 18.0605 35.3712 18.7576C34.6924 18.7576 34.019 18.7576 33.3237 18.7576Z" fill="#5FB130"/>
<path d="M35.3767 20.8765C35.3767 21.5626 35.3767 22.2324 35.3767 22.9295C34.6924 22.9295 34.019 22.9295 33.3237 22.9295C33.3237 22.2433 33.3237 21.5736 33.3237 20.8765C34.0026 20.8765 34.6705 20.8765 35.3767 20.8765Z" fill="#5FB130"/>
<path d="M31.2048 27.1346C30.5588 27.1346 29.9347 27.1401 29.3161 27.1291C29.2559 27.1291 29.1519 27.0523 29.1519 27.0138C29.1409 26.3661 29.1464 25.7238 29.1464 25.0596C29.8471 25.0596 30.515 25.0596 31.2048 25.0596C31.2048 25.7403 31.2048 26.421 31.2048 27.1346Z" fill="#5FB130"/>
<path d="M33.3237 43.828C33.3237 43.1308 33.3237 42.4556 33.3237 41.7694C34.008 41.7694 34.6814 41.7694 35.3712 41.7694C35.3712 42.4556 35.3712 43.1363 35.3712 43.828C34.6924 43.828 34.019 43.828 33.3237 43.828Z" fill="#5FB130"/>
<path d="M35.3763 25.0375C35.3763 25.7511 35.3763 26.4263 35.3763 27.129C34.7194 27.129 34.0734 27.1345 33.4329 27.1235C33.3891 27.1235 33.3179 27.0137 33.3124 26.9588C33.3015 26.3769 33.3015 25.7896 33.3124 25.2077C33.3124 25.1528 33.411 25.0485 33.4657 25.0485C34.0953 25.032 34.7194 25.0375 35.3763 25.0375Z" fill="#5FB130"/>
</g>
<defs>
<clipPath id="clip0_16_8087">
<rect width="43.7143" height="48" fill="white"/>
</clipPath>
</defs>
</svg>
