<svg width="48" height="42" viewBox="0 0 48 42" fill="none" xmlns="http://www.w3.org/2000/svg">
<g clip-path="url(#clip0_16_8169)">
<path d="M3.18531 15.9799C2.36644 15.9799 1.58973 15.9859 0.819028 15.9799C0.307237 15.9739 -0.0359642 15.5946 0.000162273 15.1069C0.0242466 14.7998 0.204879 14.6011 0.457764 14.4445C1.7824 13.6257 3.10102 12.8068 4.41963 11.9879C10.6936 8.09833 16.9555 4.21474 23.2234 0.331147C23.3198 0.270936 23.4101 0.216747 23.5064 0.156536C23.8376 -0.0542017 24.1627 -0.0481806 24.4939 0.156536C26.818 1.60159 29.1482 3.04063 31.4783 4.48569C36.7528 7.75513 42.0333 11.0306 47.3077 14.3C47.4161 14.3663 47.5305 14.4325 47.6389 14.5108C47.946 14.7275 48.0664 15.0768 47.964 15.4079C47.8557 15.7511 47.5727 15.9679 47.1994 15.9739C46.525 15.9799 45.8567 15.9799 45.1823 15.9799C45.0739 15.9799 44.9655 15.9799 44.815 15.9799C44.815 16.1425 44.815 16.281 44.815 16.4195C44.815 24.4696 44.815 32.5138 44.815 40.564C44.815 40.865 44.809 41.1661 44.5441 41.3527C44.3815 41.4671 44.1647 41.5635 43.9721 41.5635C42.3945 41.5815 40.823 41.5755 39.2455 41.5695C38.7337 41.5695 38.4267 41.2504 38.4026 40.7446C38.3965 40.6362 38.4026 40.5218 38.4026 40.4134C38.4026 33.4892 38.4026 26.565 38.4026 19.6407C38.4026 19.5022 38.4026 19.3638 38.4026 19.1952C38.2641 19.1891 38.1617 19.1771 38.0533 19.1771C28.6785 19.1771 19.3097 19.1771 9.93493 19.1711C9.65194 19.1711 9.58571 19.2554 9.58571 19.5263C9.59173 26.4686 9.59173 33.4169 9.59173 40.3592C9.59173 40.4917 9.59173 40.6181 9.59173 40.7506C9.57367 41.2383 9.26057 41.5695 8.77889 41.5695C7.1833 41.5755 5.58772 41.5755 3.99213 41.5695C3.52249 41.5695 3.20939 41.2383 3.19133 40.7687C3.18531 40.6483 3.19133 40.5278 3.19133 40.4074C3.19133 32.4174 3.19133 24.4335 3.19133 16.4435C3.18531 16.3051 3.18531 16.1666 3.18531 15.9799ZM3.67904 14.3482C3.80548 14.3723 3.84161 14.3783 3.88375 14.3843C4.54607 14.4265 4.79294 14.6914 4.79294 15.3537C4.79294 21.0737 4.79294 26.7938 4.79294 32.5138C4.79294 34.8921 4.79896 37.2704 4.78692 39.6488C4.78692 39.9137 4.85315 39.992 5.11807 39.9859C5.94296 39.9679 6.76183 39.9799 7.58671 39.9799C7.99013 39.9799 7.99013 39.9799 7.99013 39.5705C7.99013 32.6041 7.99013 25.6437 7.99013 18.6774C7.99013 18.5449 7.98411 18.4185 8.00217 18.286C8.04432 17.9067 8.33333 17.6237 8.71266 17.5875C8.82103 17.5755 8.93544 17.5815 9.04381 17.5815C19.0147 17.5815 28.9916 17.5815 38.9625 17.5815C39.0709 17.5815 39.1853 17.5815 39.2937 17.5875C39.6248 17.6176 39.9078 17.8585 39.9741 18.1776C40.0042 18.3221 39.9981 18.4787 39.9981 18.6292C39.9981 25.6016 39.9981 32.574 39.9981 39.5524C39.9981 39.6789 39.9981 39.8053 39.9981 39.9498C41.0759 39.9498 42.1236 39.9498 43.1953 39.9498C43.1953 39.7872 43.1953 39.6488 43.1953 39.5103C43.1953 31.5323 43.1953 23.5544 43.1953 15.5765C43.1953 14.6493 43.3037 14.5168 44.2129 14.3602C44.2189 14.3602 44.2249 14.3482 44.2551 14.3121C44.0262 14.1676 43.8035 14.0231 43.5807 13.8846C37.1442 9.89863 30.7076 5.90666 24.2711 1.90867C24.0784 1.78825 23.946 1.77018 23.7352 1.89663C17.7684 5.61163 11.7894 9.31459 5.81652 13.0236C5.1241 13.445 4.43769 13.8786 3.67904 14.3482Z" fill="#5FB130"/>
<path d="M20.7849 29.6598C20.7849 29.4973 20.7849 29.3769 20.7849 29.2564C20.7849 27.2996 20.7849 25.3427 20.7849 23.3859C20.7849 22.6754 21.0739 22.3804 21.7844 22.3804C24.8552 22.3804 27.9259 22.3804 30.9967 22.3804C31.7132 22.3804 32.0022 22.6634 32.0022 23.3799C32.0022 28.5761 32.0022 33.7722 32.0022 38.9684C32.0022 39.697 31.7192 39.98 30.9786 39.98C27.9199 39.98 24.8612 39.98 21.7965 39.98C21.08 39.98 20.7849 39.6849 20.7849 38.9805C20.7849 38.7818 20.7849 38.5831 20.7849 38.3362C20.6525 38.3844 20.5561 38.4205 20.4598 38.4627C19.382 38.9263 18.3042 39.3899 17.2325 39.8595C16.9375 39.992 16.6665 39.992 16.3655 39.8656C14.8301 39.1972 13.2947 38.5349 11.7533 37.8786C11.38 37.716 11.1934 37.4511 11.1994 37.0417C11.1994 35.0066 11.1994 32.9714 11.1934 30.9303C11.1934 30.5449 11.374 30.28 11.7232 30.1355C13.2646 29.4792 14.806 28.8229 16.3414 28.1546C16.6725 28.0101 16.9615 28.0221 17.2927 28.1666C18.3705 28.6483 19.4603 29.1119 20.5501 29.5816C20.6043 29.5996 20.6705 29.6177 20.7849 29.6598ZM22.4166 38.3483C25.09 38.3483 27.7332 38.3483 30.3765 38.3483C30.3765 36.2228 30.3765 34.1094 30.3765 32.0081C29.8406 32.0081 29.3349 32.0081 28.805 32.0081C28.805 32.1405 28.805 32.2489 28.805 32.3573C28.805 32.9895 28.805 33.6217 28.805 34.2539C28.799 35.0367 28.227 35.3859 27.5165 35.0427C27.2275 34.9042 26.9385 34.7657 26.6555 34.6092C26.4688 34.5068 26.3123 34.5008 26.1256 34.6031C25.8185 34.7778 25.5055 34.9283 25.1863 35.0788C24.5782 35.3678 23.9761 34.9765 23.9821 34.3081C23.9881 33.6277 23.9881 32.9474 23.9881 32.261C23.9881 32.1767 23.9701 32.0863 23.9641 32.0081C23.4342 32.0081 22.9284 32.0081 22.4106 32.0081C22.4166 34.1335 22.4166 36.2288 22.4166 38.3483ZM28.799 24C28.799 24.1205 28.799 24.2288 28.799 24.3372C28.799 24.9995 28.805 25.6619 28.799 26.3242C28.793 27.0106 28.2089 27.3718 27.5887 27.0768C27.2516 26.9203 26.9324 26.7336 26.5892 26.5891C26.4688 26.5409 26.2942 26.5409 26.1798 26.5951C25.8185 26.7456 25.4814 26.9504 25.1261 27.1069C24.5481 27.3538 23.9821 26.9624 23.9821 26.3362C23.9881 25.6619 23.9881 24.9935 23.9881 24.3192C23.9881 24.2168 23.9761 24.1084 23.9701 24.0121C23.4282 24.0121 22.9224 24.0121 22.4227 24.0121C22.4227 26.1375 22.4227 28.2389 22.4227 30.3583C25.084 30.3583 27.7272 30.3583 30.3825 30.3583C30.3825 28.2329 30.3825 26.1255 30.3825 24.0061C29.8527 24 29.3469 24 28.799 24ZM17.5938 37.9147C17.6781 37.8907 17.7383 37.8846 17.7925 37.8605C18.7317 37.4571 19.665 37.0417 20.6103 36.6503C20.7849 36.5781 20.7909 36.4697 20.7909 36.3192C20.7909 35.0788 20.7909 33.8325 20.7909 32.5921C20.7909 32.4536 20.7909 32.3151 20.7909 32.1526C20.7006 32.1767 20.6404 32.1827 20.5923 32.2068C19.653 32.6102 18.7197 33.0196 17.7744 33.411C17.5998 33.4832 17.5998 33.5976 17.5998 33.7421C17.5998 34.6634 17.5998 35.5846 17.5998 36.5058C17.5938 36.9755 17.5938 37.4331 17.5938 37.9147ZM12.8251 32.1345C12.813 32.2429 12.801 32.3031 12.801 32.3573C12.801 33.694 12.795 35.0246 12.807 36.3613C12.807 36.4637 12.9214 36.6142 13.0177 36.6563C13.9028 37.0537 14.8 37.4331 15.6911 37.8184C15.7694 37.8545 15.8537 37.8726 15.9319 37.9027C15.956 37.8605 15.9741 37.8425 15.9741 37.8304C15.9801 36.4336 15.9861 35.0427 15.9801 33.6458C15.9801 33.5735 15.9139 33.4712 15.8477 33.4411C14.8602 33.0076 13.8667 32.5801 12.8251 32.1345ZM19.5566 30.9002C18.6113 30.4908 17.7563 30.1174 16.8953 29.7622C16.811 29.7261 16.6786 29.7622 16.5882 29.7983C15.8115 30.1235 15.0408 30.4607 14.2641 30.7918C14.2099 30.8159 14.1557 30.858 14.0654 30.9183C14.9626 31.3036 15.8175 31.6769 16.6786 32.0322C16.7629 32.0683 16.8953 32.0322 16.9917 31.996C17.4071 31.8274 17.8226 31.6408 18.238 31.4662C18.6535 31.2916 19.0629 31.1109 19.5566 30.9002ZM27.1733 24.0121C26.6374 24.0121 26.1256 24.0121 25.6138 24.0121C25.6138 24.3613 25.6138 24.6864 25.6138 25.0176C25.8848 24.9333 26.1377 24.7948 26.3905 24.7948C26.6495 24.8008 26.9084 24.9453 27.1733 25.0296C27.1733 24.6744 27.1733 24.3432 27.1733 24.0121ZM25.6199 33.1039C26.1557 32.6644 26.6615 32.7246 27.1793 33.0919C27.1793 32.6884 27.1793 32.3513 27.1793 32.0081C26.6495 32.0081 26.1437 32.0081 25.6199 32.0081C25.6199 32.3513 25.6199 32.6824 25.6199 33.1039Z" fill="#5FB130"/>
<path d="M23.9697 12.7947C21.3746 12.7947 18.7735 12.7947 16.1785 12.7947C16.0701 12.7947 15.9557 12.8007 15.8473 12.7827C15.4559 12.7345 15.1549 12.3973 15.1549 11.9999C15.1489 11.5965 15.4318 11.2593 15.8292 11.2051C15.9497 11.1871 16.0701 11.1931 16.1905 11.1931C21.3746 11.1931 26.5588 11.1931 31.7429 11.1931C31.8634 11.1931 31.9838 11.1871 32.1042 11.2051C32.5136 11.2533 32.8207 11.5965 32.8147 12.0059C32.8147 12.4094 32.4956 12.7526 32.0922 12.7947C31.9838 12.8067 31.8694 12.8007 31.761 12.8007C29.1659 12.7947 26.5648 12.7947 23.9697 12.7947Z" fill="#5FB130"/>
<path d="M23.9759 9.59761C22.3804 9.59761 20.7848 9.59761 19.1892 9.59761C18.8219 9.59761 18.551 9.42902 18.4125 9.09184C18.286 8.77272 18.3282 8.44156 18.5991 8.24287C18.7918 8.09836 19.0688 8.00202 19.3096 8.00202C21.8385 7.98396 24.3673 7.98998 26.8962 7.98998C27.4983 7.98998 28.1004 7.98396 28.7025 7.98998C29.2564 7.996 29.6237 8.32716 29.6177 8.80885C29.6117 9.27849 29.2444 9.59761 28.7085 9.59761C27.125 9.59761 25.5535 9.59761 23.9759 9.59761Z" fill="#5FB130"/>
</g>
<defs>
<clipPath id="clip0_16_8169">
<rect width="48" height="41.5755" fill="white"/>
</clipPath>
</defs>
</svg>
