<svg width="49" height="48" viewBox="0 0 49 48" fill="none" xmlns="http://www.w3.org/2000/svg">
<g clip-path="url(#clip0_16_8160)">
<path d="M0 40.0783C0.089063 39.6281 0.148438 39.1679 0.277085 38.7325C0.707556 37.2778 1.43985 35.9567 2.22163 34.6702C3.33986 32.8296 4.61148 31.0978 5.96227 29.4205C6.07113 29.2869 6.18988 29.1582 6.31358 29.0395C6.64014 28.7278 6.95186 28.6931 7.26853 29.0197C7.67426 29.4403 8.0503 29.8905 8.40656 30.3507C9.77714 32.1567 11.0933 33.9973 12.1818 35.9913C12.7607 37.0552 13.2803 38.1486 13.5128 39.351C13.9136 41.4093 13.0329 43.3341 11.2269 44.3979C10.3313 44.9224 9.36151 45.2143 8.33234 45.3182C7.60499 45.3974 7.5753 45.4172 7.5753 46.1346C7.5753 46.3969 7.5753 46.6591 7.5753 46.9411C21.2118 46.9411 34.8335 46.9411 48.4701 46.9411C48.4701 47.2924 48.4701 47.624 48.4701 47.9852C48.4008 47.9901 48.3216 47.9951 48.2425 47.9951C32.221 47.9951 16.1996 47.9951 0.173178 47.9951C0.113803 47.9951 0.0593753 47.9901 0 47.9901C0 47.6438 0 47.2974 0 46.951C2.01381 46.951 4.02763 46.951 6.05628 46.951C6.05628 46.5552 6.06123 46.194 6.05628 45.8328C6.04639 45.4716 5.98701 45.4122 5.62581 45.3677C4.78466 45.2638 3.95341 45.1203 3.16668 44.7739C1.70704 44.1258 0.628389 43.1164 0.183074 41.533C0.0940109 41.2213 0.0593753 40.8898 0 40.5682C0 40.4099 0 40.2466 0 40.0783ZM6.06123 38.6533C6.58076 38.6533 7.07061 38.6533 7.5852 38.6533C7.5852 40.4247 7.5852 42.1763 7.5852 43.9922C8.23338 43.8685 8.85682 43.7942 9.45552 43.631C11.5881 43.0372 12.3649 41.4539 12.0235 39.4401C11.8652 38.5197 11.4248 37.7033 10.9943 36.8869C10.0146 35.0364 8.80734 33.3442 7.55551 31.6767C7.32296 31.37 7.07556 31.0731 6.82321 30.7564C6.7391 30.8554 6.67972 30.9197 6.6253 30.989C6.14535 31.6273 5.6555 32.2606 5.1805 32.9038C3.98309 34.5317 2.89949 36.2288 2.05834 38.0744C1.71199 38.8315 1.47449 39.6083 1.52891 40.4593C1.61798 41.7953 2.18204 42.8195 3.44377 43.3588C3.91382 43.5617 4.42841 43.6706 4.9331 43.7893C5.28935 43.8734 5.6555 43.9081 6.05628 43.9724C6.06123 42.1614 6.06123 40.4099 6.06123 38.6533Z" fill="#5FB130"/>
<path d="M45.4666 45.437C34.8532 45.437 24.2597 45.437 13.6563 45.437C13.6563 44.9422 13.6563 44.4573 13.6563 43.9427C19.198 43.9427 24.7347 43.9427 30.3011 43.9427C30.3011 38.881 30.3011 33.8489 30.3011 28.802C33.8488 28.802 37.3668 28.802 40.9095 28.802C40.9095 33.839 40.9095 38.8711 40.9095 43.9229C41.9288 43.9229 42.9184 43.9229 43.9426 43.9229C43.9426 43.8289 43.9426 43.7399 43.9426 43.6508C43.9426 37.2333 43.9426 30.8208 43.9476 24.4033C43.9476 24.2004 43.8733 24.1064 43.7051 24.0124C43.2697 23.77 42.8491 23.4978 42.384 23.2158C41.7903 23.7897 41.0728 24.2202 40.1574 24.2153C39.252 24.2103 38.5345 23.7996 37.8962 23.1614C37.2481 23.7947 36.5108 24.2301 35.6103 24.2252C34.7197 24.2202 33.9874 23.7947 33.3491 23.1614C32.6959 23.7947 31.9636 24.2301 31.0631 24.2252C30.1725 24.2202 29.4402 23.7947 28.8019 23.1614C28.1587 23.7897 27.4412 24.2103 26.5358 24.2103C25.6253 24.2103 24.9079 23.8046 24.2597 23.1614C23.6115 23.7798 22.8842 24.2252 21.9836 24.2252C21.0881 24.2252 20.3607 23.7996 19.7125 23.1614C19.0644 23.7798 18.3469 24.2153 17.4315 24.2103C16.5261 24.2054 15.8086 23.7947 15.1654 23.1614C14.5172 23.7848 13.7948 24.2153 12.8794 24.2103C11.969 24.2054 11.2565 23.7897 10.6182 23.1614C9.10415 24.4874 7.59008 24.5616 6.08095 23.1811C5.89788 23.3147 5.72965 23.4483 5.55152 23.5621C5.33876 23.7007 5.126 23.864 4.8885 23.9382C4.60647 24.0272 4.54214 24.1707 4.54709 24.4478C4.56193 25.7937 4.55204 27.1346 4.55204 28.4804C4.55204 28.5695 4.55204 28.6585 4.55204 28.7624C4.03745 28.7624 3.54761 28.7624 3.02807 28.7624C3.02807 28.6536 3.02807 28.5596 3.02807 28.4655C3.02807 27.0702 3.02807 25.6799 3.02807 24.2845C3.02807 24.1509 3.01323 24.0569 2.85984 24.0075C2.06817 23.7452 1.53874 23.1762 1.11322 22.4835C0.880665 22.1074 0.786654 21.7215 0.786654 21.2762C0.786654 18.3322 0.761914 15.3881 0.74707 12.4441C0.74707 12.3452 0.74707 12.2462 0.74707 12.1324C2.26609 12.1324 3.77026 12.1324 5.28433 12.1324C5.28433 12.6173 5.28433 13.0972 5.28433 13.6118C4.2898 13.6118 3.30021 13.6118 2.29083 13.6118C2.28588 13.7207 2.27598 13.7998 2.27598 13.879C2.27598 15.9423 2.27104 18.0006 2.28093 20.0639C2.28588 20.5835 2.31557 21.103 2.37 21.6176C2.43432 22.2113 2.73614 22.5429 3.31505 22.627C3.67625 22.6765 4.05724 22.6616 4.4135 22.5874C4.90829 22.4884 5.21506 22.0481 5.2398 21.4593C5.27444 20.6626 5.28433 19.8611 5.29423 19.0595C5.30413 18.5251 5.29423 17.9858 5.29423 17.4316C5.79892 17.4316 6.29372 17.4316 6.82314 17.4316C6.82314 17.5207 6.82314 17.6048 6.82314 17.6939C6.82314 18.7181 6.82315 19.7374 6.83304 20.7616C6.83799 21.0634 6.86768 21.3702 6.91221 21.672C6.99137 22.2212 7.33773 22.5429 7.86716 22.627C8.16899 22.6765 8.49555 22.6765 8.80232 22.627C9.43566 22.5231 9.77707 22.0975 9.79686 21.3999C9.82655 20.1876 9.83149 18.9754 9.85129 17.7631C9.85129 17.6543 9.85129 17.5504 9.85129 17.4267C10.3609 17.4267 10.8557 17.4267 11.3753 17.4267C11.3753 17.5256 11.3753 17.6147 11.3753 17.6988C11.3802 18.7478 11.3753 19.7918 11.3851 20.8408C11.3851 21.0931 11.4 21.3554 11.4544 21.6028C11.6029 22.3153 12.2263 22.7457 12.9982 22.6962C13.78 22.6418 14.3242 22.1272 14.349 21.3554C14.3886 20.1431 14.3886 18.9309 14.4034 17.7186C14.4034 17.6197 14.4034 17.5256 14.4034 17.4168C14.913 17.4168 15.393 17.4168 15.9224 17.4168C15.9224 17.5108 15.9224 17.6048 15.9224 17.6988C15.9274 18.7874 15.9274 19.8759 15.9422 20.9645C15.9472 21.1921 15.962 21.4296 16.0164 21.6522C16.1797 22.3449 16.813 22.7606 17.5701 22.6962C18.3617 22.627 18.8763 22.1074 18.9011 21.3059C18.9357 20.1134 18.9357 18.916 18.9506 17.7186C18.9506 17.6197 18.9506 17.5256 18.9506 17.4168C19.4602 17.4168 19.9401 17.4168 20.4597 17.4168C20.4597 17.5207 20.4597 17.6147 20.4597 17.7087C20.4696 18.8566 20.4696 19.9996 20.4894 21.1475C20.4993 21.6374 20.6032 22.1025 21.0485 22.4043C21.568 22.7606 22.1271 22.7903 22.6912 22.533C23.2454 22.2757 23.4433 21.7908 23.4532 21.2218C23.4779 20.059 23.4829 18.8962 23.4928 17.7335C23.4928 17.6345 23.4928 17.5355 23.4928 17.4217C23.9975 17.4217 24.4873 17.4217 25.0019 17.4217C25.0019 17.5256 25.0019 17.6246 25.0019 17.7236C25.0167 18.8962 25.0167 20.0639 25.0464 21.2366C25.0613 21.7957 25.2542 22.2757 25.7985 22.528C26.3725 22.7952 26.9365 22.7655 27.461 22.3994C27.8964 22.0975 28.0003 21.6275 28.0102 21.1376C28.03 19.9996 28.035 18.8616 28.0449 17.7236C28.0449 17.6246 28.0449 17.5306 28.0449 17.4217C28.5545 17.4217 29.0394 17.4217 29.554 17.4217C29.554 17.5108 29.554 17.5999 29.554 17.684C29.5688 18.8566 29.5787 20.0244 29.5936 21.197C29.6035 21.7759 29.7964 22.2757 30.3506 22.5379C30.9394 22.815 31.5183 22.7358 32.0428 22.3796C32.4881 22.0728 32.5525 21.5681 32.5623 21.0783C32.5821 19.965 32.5772 18.8517 32.5871 17.7384C32.5871 17.6395 32.5871 17.5405 32.5871 17.4267C33.0967 17.4267 33.5816 17.4267 34.1061 17.4267C34.1061 17.5108 34.1061 17.5999 34.1061 17.6889C34.1209 18.8913 34.1259 20.0986 34.1556 21.3009C34.1704 21.8798 34.4129 22.34 34.9769 22.5676C35.5756 22.8101 36.1447 22.7507 36.6493 22.335C37.065 21.9936 37.1145 21.4939 37.1194 21.0041C37.1343 19.9056 37.1293 18.8121 37.1343 17.7137C37.1343 17.6246 37.1343 17.5355 37.1343 17.4267C37.6439 17.4267 38.1337 17.4267 38.6582 17.4267C38.6582 17.5108 38.6582 17.5949 38.6582 17.684C38.6582 18.6389 38.6533 19.5988 38.6632 20.5538C38.6681 20.915 38.683 21.2811 38.7572 21.6324C38.8957 22.3301 39.5291 22.7507 40.291 22.6962C41.0332 22.6418 41.5874 22.1569 41.622 21.4494C41.6715 20.5093 41.6666 19.5691 41.6814 18.634C41.6864 18.2382 41.6814 17.8423 41.6814 17.4316C42.1861 17.4316 42.6759 17.4316 43.2054 17.4316C43.2054 17.5108 43.2054 17.5949 43.2054 17.679C43.2054 18.7824 43.2054 19.8908 43.2153 20.9942C43.2202 21.3554 43.2351 21.7166 43.428 22.0481C43.6161 22.3647 43.8684 22.5923 44.2395 22.622C44.5413 22.6468 44.853 22.6715 45.1499 22.6319C45.7734 22.5478 46.1544 22.0827 46.1791 21.4098C46.2088 20.5686 46.2236 19.7275 46.2286 18.8863C46.2385 17.2288 46.2335 15.5712 46.2335 13.9136C46.2335 13.8246 46.2335 13.7355 46.2335 13.6267C45.2241 13.6267 44.2345 13.6267 43.2301 13.6267C43.2301 13.117 43.2301 12.6272 43.2301 12.1274C44.7343 12.1274 46.2286 12.1274 47.7674 12.1274C47.7674 12.2116 47.7674 12.3006 47.7674 12.3847C47.7476 15.4624 47.7327 18.535 47.713 21.6126C47.713 21.7314 47.6783 21.8551 47.6288 21.964C47.3468 22.5824 47.0499 23.196 46.4611 23.5869C46.2187 23.7502 45.9465 23.8788 45.6793 23.9976C45.5408 24.0619 45.4814 24.1312 45.4864 24.2895C45.4963 25.0911 45.4913 25.8877 45.4913 26.6892C45.4913 32.8247 45.4913 38.9601 45.4913 45.0956C45.4666 45.2094 45.4666 45.3133 45.4666 45.437ZM39.3757 43.9328C39.3757 39.3807 39.3757 34.8484 39.3757 30.3111C36.8522 30.3111 34.3436 30.3111 31.8399 30.3111C31.8399 32.3348 31.8399 34.3437 31.8399 36.3773C32.3496 36.3773 32.8394 36.3773 33.3243 36.3773C33.3243 36.887 33.3243 37.3718 33.3243 37.8815C32.8147 37.8815 32.3248 37.8815 31.8399 37.8815C31.8399 39.9151 31.8399 41.924 31.8399 43.9328C34.3585 43.9328 36.8522 43.9328 39.3757 43.9328Z" fill="#5FB130"/>
<path d="M24.2399 15.8977C19.2672 15.8977 14.2945 15.8878 9.32185 15.9076C8.4807 15.9126 7.882 15.5266 7.36247 14.9428C7.0359 14.5766 6.87262 14.1363 6.86767 13.6316C6.85778 11.687 6.83304 9.7425 6.82314 7.79301C6.81324 6.02165 6.84293 4.24534 6.81325 2.47397C6.80335 1.80105 7.08043 1.28152 7.48617 0.806515C7.93643 0.286981 8.51534 0.0494794 9.213 0.0494794C11.1476 0.0445315 13.0872 0 15.0268 0C22.1915 0 29.3561 0.00494794 36.5256 0.0148438C37.5251 0.0148438 38.5197 0.0544274 39.5192 0.0593753C39.9744 0.0593753 40.3455 0.227605 40.6869 0.509638C41.1223 0.870838 41.4192 1.331 41.6319 1.84558C41.6666 1.92475 41.6715 2.02371 41.6715 2.10782C41.6715 5.57138 41.6715 9.03495 41.6616 12.4985C41.6616 12.9339 41.6468 13.3743 41.6121 13.8097C41.5528 14.5519 41.1272 15.0714 40.5434 15.4772C40.1376 15.7543 39.7072 15.9076 39.1876 15.9027C34.2001 15.8878 29.2225 15.8977 24.2399 15.8977ZM24.2449 1.54376C24.2449 1.53386 24.2449 1.51902 24.2449 1.50912C21.7808 1.50912 19.3167 1.50417 16.8477 1.50912C14.4727 1.51407 12.0976 1.52891 9.72264 1.54376C9.43566 1.54376 9.14373 1.56355 8.85675 1.58829C8.53018 1.61303 8.43617 1.70209 8.40154 2.02371C8.3768 2.23647 8.357 2.44923 8.357 2.66199C8.34711 5.58128 8.33721 8.50057 8.33721 11.4199C8.33721 12.2363 8.3669 13.0527 8.40154 13.8641C8.41638 14.1858 8.53018 14.2748 8.85675 14.2946C9.16847 14.3144 9.48019 14.3391 9.79686 14.3391C11.4693 14.354 13.1417 14.3787 14.819 14.3787C22.33 14.3738 29.841 14.3639 37.352 14.349C38.104 14.349 38.8512 14.3193 39.6033 14.2897C39.9546 14.2798 40.0486 14.1858 40.0882 13.8345C40.1129 13.6118 40.1278 13.3891 40.1278 13.1714C40.1376 10.3016 40.1475 7.43181 40.1475 4.562C40.1475 3.71591 40.1179 2.86486 40.0832 2.01876C40.0684 1.69714 39.9595 1.60808 39.628 1.58334C39.3311 1.56355 39.0343 1.53881 38.7374 1.53881C33.9082 1.54376 29.074 1.54376 24.2449 1.54376Z" fill="#5FB130"/>
<path d="M15.1604 40.8898C15.1604 40.3802 15.1604 39.8953 15.1604 39.3906C15.6651 39.3906 16.1549 39.3906 16.6596 39.3906C16.6596 36.3526 16.6596 33.3393 16.6596 30.2963C14.6458 30.2963 12.6419 30.2963 10.6182 30.2963C10.6182 29.7866 10.6182 29.3017 10.6182 28.802C15.6651 28.802 20.7021 28.802 25.7539 28.802C25.7539 32.8346 25.7539 36.8523 25.7539 40.8898C22.2211 40.8898 18.6982 40.8898 15.1604 40.8898ZM18.1984 39.3708C20.2172 39.3708 22.226 39.3708 24.225 39.3708C24.225 36.3427 24.225 33.3294 24.225 30.3111C22.2112 30.3111 20.2122 30.3111 18.1984 30.3111C18.1984 33.3343 18.1984 36.3476 18.1984 39.3708Z" fill="#5FB130"/>
<path d="M23.4731 12.8598C22.9684 12.8598 22.4835 12.8598 21.9788 12.8598C21.9788 11.6129 21.9788 10.3709 21.9788 9.10921C20.9645 9.10921 19.9749 9.10921 18.9556 9.10921C18.9556 10.3462 18.9556 11.5881 18.9556 12.8499C18.4361 12.8499 17.9413 12.8499 17.4316 12.8499C17.4316 9.58422 17.4316 6.31857 17.4316 3.03809C17.9215 3.03809 18.4113 3.03809 18.9358 3.03809C18.9358 4.53236 18.9358 6.03654 18.9358 7.55556C19.96 7.55556 20.9496 7.55556 21.964 7.55556C21.964 6.05138 21.964 4.55216 21.964 3.03809C22.4736 3.03809 22.9634 3.03809 23.4731 3.03809C23.4731 6.29878 23.4731 9.56937 23.4731 12.8598Z" fill="#5FB130"/>
<path d="M31.0185 7.95135C31.0185 8.6688 31.0086 9.38625 31.0235 10.1037C31.0334 10.4105 30.9592 10.6777 30.8107 10.9449C30.5287 11.4594 30.1823 11.9097 29.7123 12.261C28.5149 13.1566 26.9464 13.0081 25.9073 11.8553C25.5758 11.4891 25.3482 11.029 25.081 10.6034C25.0414 10.5391 25.0414 10.4451 25.0414 10.3659C25.0414 8.75291 25.0414 7.13493 25.0414 5.52191C25.0414 5.45758 25.0365 5.38336 25.0612 5.32894C25.5164 4.25523 26.2289 3.40913 27.3966 3.13205C28.5446 2.85991 29.5292 3.27554 30.2813 4.16617C30.5584 4.49273 30.7513 4.89846 30.974 5.26956C31.0136 5.33883 31.0185 5.44274 31.0185 5.5318C31.0235 6.33832 31.0185 7.14483 31.0185 7.95135ZM26.6 7.84744C26.5901 7.84744 26.5802 7.84744 26.5703 7.84744C26.5703 8.61437 26.5505 9.3813 26.5753 10.1482C26.5951 10.8014 27.0651 11.2467 27.7133 11.2912C27.9261 11.3061 28.1438 11.3061 28.3565 11.2912C28.9849 11.2516 29.4748 10.8212 29.4847 10.1977C29.5144 8.70838 29.4995 7.2141 29.4847 5.72477C29.4797 5.31904 29.3016 4.96279 28.9206 4.76982C28.3862 4.49768 27.8222 4.4581 27.2779 4.72034C26.8919 4.90836 26.605 5.20524 26.6 5.67529C26.5951 6.39769 26.6 7.12009 26.6 7.84744Z" fill="#5FB130"/>
<path d="M32.5923 2.99353C33.9579 3.02322 35.3038 3.01332 36.6397 3.09249C37.4858 3.14197 37.9954 3.75551 38.3764 4.44328C38.5298 4.72036 38.604 5.06672 38.6238 5.38339C38.6535 5.91777 38.6387 6.45709 38.5941 6.98652C38.5051 8.02559 37.4363 9.01518 36.3923 9.04981C35.7095 9.07455 35.0267 9.0696 34.3389 9.0795C34.2647 9.0795 34.1954 9.08445 34.1014 9.0894C34.1014 10.3412 34.1014 11.5832 34.1014 12.8399C33.5918 12.8399 33.1019 12.8399 32.5923 12.8399C32.5923 9.58419 32.5923 6.31855 32.5923 2.99353ZM34.1014 7.56543C34.804 7.56543 35.4769 7.56543 36.1548 7.56543C36.2637 7.56543 36.3676 7.55059 36.4764 7.53574C36.9613 7.46647 37.0999 7.31803 37.1098 6.82819C37.1197 6.30865 37.1197 5.78912 37.1098 5.26958C37.0999 4.76489 36.9019 4.56203 36.4022 4.55708C35.6749 4.54718 34.9525 4.54718 34.2251 4.54718C34.1855 4.54718 34.1509 4.55708 34.1014 4.56698C34.1014 5.56646 34.1014 6.5511 34.1014 7.56543Z" fill="#5FB130"/>
<path d="M15.9275 6.03149C15.4278 6.03149 14.9379 6.03149 14.4283 6.03149C14.4085 5.94242 14.3838 5.85831 14.3689 5.76924C14.2601 4.91325 13.508 4.48278 12.7015 4.52731C12.3947 4.5471 12.0929 4.65101 11.8009 4.74997C11.5139 4.84893 11.41 5.09138 11.3705 5.3833C11.2913 5.96221 11.4892 6.36795 12.0236 6.63019C12.6223 6.92706 13.2111 7.23878 13.7851 7.57524C14.2403 7.84243 14.6757 8.13436 15.1012 8.44113C16.1403 9.19817 16.1996 11.1773 15.0715 12.0185C14.0869 12.7607 13.033 13.0873 11.8652 12.6123C10.6926 12.1323 10.0296 11.212 9.84649 9.95026C9.84154 9.92057 9.84649 9.88593 9.85144 9.8414C10.3413 9.8414 10.8262 9.8414 11.321 9.8414C11.3408 9.90573 11.3655 9.9651 11.3705 10.0294C11.4843 11.0932 12.4244 11.405 13.1171 11.3505C13.2457 11.3406 13.3793 11.3159 13.503 11.2813C14.2502 11.0932 14.4134 10.8607 14.3887 10.0937C14.3788 9.74739 14.1957 9.51978 13.9137 9.36145C13.3843 9.06457 12.835 8.79244 12.3155 8.48072C11.7465 8.13931 11.1725 7.788 10.6431 7.39217C9.54466 6.56586 9.55951 4.69554 10.7025 3.81481C11.6871 3.05282 12.741 2.79553 13.8939 3.26064C15.0171 3.71585 15.6851 4.59163 15.883 5.80388C15.8978 5.888 15.9127 5.95232 15.9275 6.03149Z" fill="#5FB130"/>
</g>
<defs>
<clipPath id="clip0_16_8160">
<rect width="48.4701" height="48" fill="white"/>
</clipPath>
</defs>
</svg>
