<svg width="48" height="48" viewBox="0 0 48 48" fill="none" xmlns="http://www.w3.org/2000/svg">
<g clip-path="url(#clip0_16_8174)">
<path d="M48 48C32 48 16 48 0 48C0 47.4667 0 46.9333 0 46.4C1.05143 46.4 2.09524 46.4 3.1619 46.4C3.1619 37.3181 3.1619 28.2895 3.1619 19.2152C2.91048 19.2152 2.68952 19.2229 2.46095 19.2152C1.90476 19.1924 1.59238 18.88 1.59238 18.3238C1.58476 17.0438 1.58476 15.7562 1.59238 14.4762C1.59238 13.9276 1.92 13.6076 2.47619 13.5848C2.69714 13.5771 2.92571 13.5848 3.18476 13.5848C3.18476 12.8 3.18476 12.0533 3.18476 11.3067C3.18476 9.63048 3.23048 9.59238 4.88381 9.59238C5.10476 9.59238 5.32571 9.59238 5.57714 9.59238C5.57714 9.37143 5.57714 9.22667 5.57714 9.07429C5.57714 6.44571 5.57714 3.81714 5.57714 1.18857C5.58476 0.24381 5.82095 0 6.74286 0C18.2324 0 29.7219 0 41.2114 0C42.1791 0 42.4076 0.220952 42.4076 1.18095C42.4076 3.82476 42.4076 6.46095 42.4076 9.10476C42.4076 9.24952 42.4076 9.40191 42.4076 9.58476C42.9333 9.58476 43.4133 9.56952 43.8933 9.58476C44.4952 9.60762 44.8 9.92 44.8076 10.5219C44.8152 11.2686 44.8076 12.0229 44.8076 12.7695C44.8076 13.0286 44.8076 13.2952 44.8076 13.5771C45.0667 13.5771 45.2648 13.5695 45.4705 13.5771C46.0876 13.5924 46.4 13.9124 46.4076 14.5371C46.4152 15.779 46.4152 17.0286 46.4076 18.2705C46.4076 18.8952 46.0952 19.2 45.4705 19.2152C45.2571 19.2229 45.0514 19.2152 44.8457 19.2152C44.8457 28.3048 44.8457 37.341 44.8457 46.4076C45.9124 46.4076 46.9486 46.4076 48.0076 46.4076C48 46.9638 48 47.4819 48 48ZM4.83048 19.2381C4.83048 28.3048 4.83048 37.3257 4.83048 46.3695C17.6152 46.3695 30.3771 46.3695 43.1543 46.3695C43.1543 37.3105 43.1543 28.2819 43.1543 19.2381C30.3695 19.2381 17.6152 19.2381 4.83048 19.2381ZM7.2381 9.55429C18.4381 9.55429 29.5848 9.55429 40.7391 9.55429C40.7391 6.89524 40.7391 4.25905 40.7391 1.63048C29.5543 1.63048 18.4076 1.63048 7.2381 1.63048C7.2381 4.27429 7.2381 6.90286 7.2381 9.55429ZM44.7695 15.2533C30.9105 15.2533 17.0667 15.2533 3.23048 15.2533C3.23048 16.0457 3.23048 16.8 3.23048 17.5619C17.0895 17.5619 30.9181 17.5619 44.7695 17.5619C44.7695 16.7771 44.7695 16.0229 44.7695 15.2533ZM4.82286 13.5543C17.6152 13.5543 30.3848 13.5543 43.1543 13.5543C43.1543 12.7771 43.1543 12.0229 43.1543 11.2533C30.3619 11.2533 17.6 11.2533 4.82286 11.2533C4.82286 12.0229 4.82286 12.7695 4.82286 13.5543Z" fill="#5FB130"/>
<path d="M20.7923 26.4076C20.7923 25.1352 20.7923 23.8705 20.7923 22.5981C20.7923 21.8819 21.0894 21.5771 21.8056 21.5771C23.5351 21.5695 25.2571 21.5695 26.9866 21.5771C27.6875 21.5771 28.0151 21.9047 28.0151 22.5981C28.0228 25.1276 28.0228 27.6495 28.0151 30.179C28.0151 30.8952 27.6875 31.2228 26.9637 31.2228C25.2494 31.2228 23.5351 31.2228 21.8209 31.2228C21.0818 31.2228 20.7923 30.9257 20.7847 30.179C20.7923 28.9219 20.7923 27.6647 20.7923 26.4076ZM22.4304 29.5466C23.7485 29.5466 25.0437 29.5466 26.3466 29.5466C26.3466 27.4286 26.3466 25.3486 26.3466 23.2457C25.0285 23.2457 23.7256 23.2457 22.4304 23.2457C22.4304 25.3714 22.4304 27.4514 22.4304 29.5466Z" fill="#5FB130"/>
<path d="M20.7925 39.1771C20.7925 37.92 20.7925 36.6629 20.7925 35.4057C20.7925 34.6819 21.082 34.3848 21.7982 34.3848C23.5277 34.3848 25.2496 34.3848 26.9791 34.3848C27.703 34.3848 28.0153 34.7048 28.023 35.4362C28.023 37.9505 28.023 40.4648 28.023 42.9791C28.023 43.7029 27.7106 44.0229 26.9791 44.0229C25.2649 44.0305 23.5506 44.0305 21.8363 44.0229C21.0668 44.0229 20.8001 43.7333 20.7925 42.9562C20.7925 41.6914 20.7925 40.4343 20.7925 39.1771ZM22.4306 36.0381C22.4306 38.1714 22.4306 40.2591 22.4306 42.3467C23.7563 42.3467 25.0515 42.3467 26.3468 42.3467C26.3468 40.2286 26.3468 38.141 26.3468 36.0381C25.0287 36.0381 23.7411 36.0381 22.4306 36.0381Z" fill="#5FB130"/>
<path d="M14.415 39.2076C14.415 40.4419 14.415 41.6686 14.415 42.9029C14.415 43.7181 14.1331 44.0076 13.3255 44.0152C11.6341 44.0152 9.95028 44.0152 8.25886 44.0152C7.46648 44.0152 7.18457 43.7257 7.18457 42.9333C7.18457 40.4495 7.18457 37.9581 7.18457 35.4743C7.18457 34.6667 7.47409 34.3848 8.28933 34.3848C9.98076 34.3848 11.6646 34.3848 13.356 34.3848C14.1179 34.3848 14.415 34.6819 14.415 35.4438C14.4227 36.701 14.415 37.9581 14.415 39.2076ZM8.8379 42.3467C10.1636 42.3467 11.4512 42.3467 12.7617 42.3467C12.7617 40.2362 12.7617 38.1486 12.7617 36.0457C11.4436 36.0457 10.1484 36.0457 8.8379 36.0457C8.8379 38.1562 8.8379 40.2362 8.8379 42.3467Z" fill="#5FB130"/>
<path d="M7.18457 26.4C7.18457 25.1581 7.18457 23.9086 7.18457 22.6667C7.18457 21.8667 7.48171 21.5771 8.29695 21.5771C9.97314 21.5771 11.6493 21.5771 13.3255 21.5771C14.1255 21.5771 14.4227 21.8819 14.4227 22.6895C14.4227 25.1657 14.4227 27.6419 14.4227 30.1181C14.4227 30.9486 14.1331 31.2305 13.2874 31.2305C11.6265 31.2305 9.96552 31.2305 8.29695 31.2305C7.46648 31.2305 7.18457 30.9486 7.18457 30.1029C7.18457 28.861 7.18457 27.6343 7.18457 26.4ZM8.84552 23.2381C8.84552 25.3714 8.84552 27.4591 8.84552 29.5543C10.156 29.5543 11.4436 29.5543 12.7389 29.5543C12.7389 27.4362 12.7389 25.341 12.7389 23.2381C11.4284 23.2381 10.1484 23.2381 8.84552 23.2381Z" fill="#5FB130"/>
<path d="M40.8075 26.4001C40.8075 27.642 40.8075 28.8839 40.8075 30.1334C40.8075 30.9334 40.518 31.2229 39.7332 31.2229C38.0341 31.2229 36.3351 31.2229 34.6284 31.2229C33.897 31.2229 33.577 30.9105 33.577 30.1867C33.5694 27.6648 33.5694 25.1353 33.577 22.6134C33.577 21.9048 33.897 21.5848 34.6056 21.5848C36.3351 21.5772 38.057 21.5772 39.7865 21.5848C40.4951 21.5848 40.8075 21.8972 40.8151 22.6058C40.8075 23.8629 40.8075 25.1353 40.8075 26.4001ZM35.238 23.2382C35.238 25.3715 35.238 27.4591 35.238 29.562C36.5561 29.562 37.8437 29.562 39.1389 29.562C39.1389 27.4439 39.1389 25.341 39.1389 23.2382C37.8284 23.2382 36.5484 23.2382 35.238 23.2382Z" fill="#5FB130"/>
<path d="M40.8078 39.2152C40.8078 40.4571 40.8078 41.6991 40.8078 42.9486C40.8078 43.7333 40.5259 44.0152 39.7259 44.0152C38.0421 44.0152 36.3507 44.0152 34.6669 44.0152C33.8821 44.0152 33.585 43.7181 33.585 42.9333C33.585 40.4495 33.585 37.9581 33.585 35.4743C33.585 34.6819 33.8821 34.3848 34.6592 34.3848C36.3583 34.3848 38.0573 34.3848 39.7564 34.3848C40.5183 34.3848 40.8078 34.6743 40.8078 35.4438C40.8078 36.701 40.8078 37.9581 40.8078 39.2152ZM39.1469 42.3543C39.1469 40.2286 39.1469 38.141 39.1469 36.0457C37.8288 36.0457 36.5335 36.0457 35.2307 36.0457C35.2307 38.1638 35.2307 40.2514 35.2307 42.3543C36.5488 42.3543 37.8364 42.3543 39.1469 42.3543Z" fill="#5FB130"/>
<path d="M17.6685 5.3486C17.7142 3.78669 18.8418 2.68955 20.3732 2.72765C21.897 2.76574 23.0018 3.91622 22.9713 5.43241C22.9408 7.01717 21.7827 8.11431 20.198 8.0686C18.7123 8.02288 17.6304 6.85717 17.6685 5.3486ZM21.9427 5.39431C21.9427 4.48003 21.5389 3.84003 20.8304 3.64955C19.5808 3.31431 18.5904 4.17527 18.6894 5.5086C18.7427 6.21717 18.9713 6.83431 19.7104 7.10098C20.9294 7.54288 21.9427 6.76574 21.9427 5.39431Z" fill="#5FB130"/>
<path d="M15.9467 5.74473C15.1086 5.74473 14.3391 5.74473 13.5163 5.74473C13.5163 6.48378 13.5163 7.22283 13.5163 7.94664C13.4325 7.97711 13.3944 7.99997 13.3639 7.99997C12.5029 8.04568 12.5029 8.04568 12.5029 7.19235C12.5029 5.88187 12.5029 4.57902 12.5029 3.26854C12.5029 3.1314 12.5029 2.99425 12.5029 2.81902C12.8382 2.81902 13.1429 2.81902 13.501 2.81902C13.501 3.53521 13.501 4.2514 13.501 4.99044C14.3239 4.99044 15.101 4.99044 15.9239 4.99044C15.9239 4.25902 15.9239 3.54283 15.9239 2.86473C15.9772 2.82664 15.9848 2.8114 15.9925 2.8114C16.922 2.68187 16.9296 2.68187 16.9296 3.59616C16.9296 4.92949 16.9144 6.26283 16.9372 7.59616C16.9448 7.93902 16.8382 8.0533 16.5029 8.01521C16.3277 7.99235 16.1525 8.01521 15.9391 8.01521C15.9467 7.2533 15.9467 6.52187 15.9467 5.74473Z" fill="#5FB130"/>
<path d="M27.7179 2.81909C28.8379 2.81909 29.9122 2.81909 31.0017 2.81909C31.0017 3.0629 31.0017 3.29147 31.0017 3.55814C30.2626 3.55814 29.516 3.55814 28.7464 3.55814C28.7464 4.04576 28.7464 4.48766 28.7464 4.99052C29.2264 4.99052 29.7064 5.01338 30.1788 4.9829C30.5141 4.96766 30.5445 5.12766 30.5445 5.39433C30.5522 5.68385 30.476 5.80576 30.1636 5.79052C29.6988 5.76766 29.2264 5.7829 28.7388 5.7829C28.7388 6.27052 28.7388 6.72004 28.7388 7.21528C29.4779 7.21528 30.2245 7.21528 30.9331 7.21528C30.9788 7.27623 31.0017 7.29909 31.0017 7.32195C31.0703 8.0229 31.0703 8.0229 30.3541 8.0229C29.5769 8.0229 28.8074 8.0229 28.0303 8.0229C27.855 8.0229 27.7026 8.03052 27.7026 7.77909C27.7179 6.13338 27.7179 4.49528 27.7179 2.81909Z" fill="#5FB130"/>
<path d="M24.5485 8.01518C24.5485 6.51423 24.5485 5.08185 24.5485 3.60375C24.1676 3.60375 23.8171 3.60375 23.4666 3.60375C22.9714 3.60375 22.9714 3.60375 22.9866 3.1009C22.9866 3.0247 22.9942 2.94851 23.0019 2.83423C24.3657 2.83423 25.7219 2.83423 27.1009 2.83423C27.1009 3.07804 27.1009 3.30661 27.1009 3.60375C26.7047 3.60375 26.3162 3.61899 25.9276 3.59613C25.6381 3.5809 25.5619 3.68756 25.5619 3.96185C25.5771 5.16566 25.5542 6.36947 25.5771 7.58089C25.5847 7.94661 25.4704 8.06089 25.1276 8.01518C24.9523 7.99994 24.7771 8.01518 24.5485 8.01518Z" fill="#5FB130"/>
<path d="M34.8878 7.17719C34.8878 7.48195 34.8878 7.71814 34.8878 8.01528C34.583 8.01528 34.2935 8.01528 34.0116 8.01528C33.3868 8.01528 32.7697 8.01528 32.1449 8.01528C31.9544 8.01528 31.8325 7.99243 31.8325 7.75624C31.8401 6.141 31.8401 4.53338 31.8478 2.91814C31.8478 2.89528 31.863 2.87243 31.8859 2.81909C32.183 2.81909 32.4878 2.81909 32.8306 2.81909C32.8306 4.26671 32.8306 5.69909 32.8306 7.17719C33.5163 7.17719 34.1792 7.17719 34.8878 7.17719Z" fill="#5FB130"/>
</g>
<defs>
<clipPath id="clip0_16_8174">
<rect width="48" height="48" fill="white"/>
</clipPath>
</defs>
</svg>
