<svg width="61" height="68" viewBox="0 0 61 68" fill="none" xmlns="http://www.w3.org/2000/svg">
<g clip-path="url(#clip0_16_7900)">
<path d="M0.717468 68C0.146151 67.6545 0 67.1231 0 66.472C0.0132864 46.2634 0 26.0547 0.0132864 5.84601C0.0132864 4.65023 0.358734 4.31807 1.55451 4.30478C2.39156 4.30478 3.24189 4.29149 4.07894 4.30478C4.43767 4.31807 4.61039 4.19849 4.76983 3.85304C5.85932 1.36848 7.75928 -0.0133136 10.4963 -2.71356e-05C13.1934 0.0132593 15.1067 1.36848 16.1563 3.85304C16.3689 4.34464 16.6745 4.30478 17.0465 4.30478C24.8191 4.30478 32.5916 4.30478 40.3642 4.30478C42.6628 4.30478 44.9746 4.30478 47.2732 4.30478C48.5486 4.30478 48.8542 4.61037 48.8542 5.85929C48.8542 22.0023 48.8542 38.1321 48.8675 54.2751C48.8675 54.9261 48.6815 55.4044 48.2298 55.8562C44.39 59.6827 40.5502 63.5224 36.7237 67.3489C36.4846 67.5881 36.2188 67.7741 35.9664 67.9867C24.1946 68 12.4627 68 0.717468 68ZM46.6221 6.5369C36.6041 6.5369 26.6393 6.5369 16.6479 6.5369C16.6479 8.17113 16.6612 9.76551 16.6479 11.3466C16.6346 12.5158 16.6745 13.6983 16.515 14.8542C16.2759 16.6346 14.5088 18.2157 12.2767 18.043C10.4564 17.9101 8.79562 16.329 8.70262 14.4689C8.63619 12.941 8.64947 11.413 8.64947 9.88509C8.64947 9.10118 9.10121 8.63616 9.73896 8.63616C10.39 8.63616 10.8152 9.14104 10.8284 9.95152C10.8417 11.2536 10.8152 12.5689 10.8284 13.871C10.8417 15.0668 11.6256 15.9038 12.6753 15.864C13.7116 15.8241 14.4158 15.0269 14.4158 13.8444C14.4158 11.5857 14.4158 9.32705 14.4158 7.06836C14.4158 6.88235 14.3892 6.68305 14.3759 6.51033C10.297 6.51033 6.2712 6.51033 2.24541 6.51033C2.24541 26.2806 2.24541 46.0109 2.24541 65.7546C13.0074 65.7546 23.7163 65.7546 34.4783 65.7546C34.4783 65.4755 34.4783 65.2364 34.4783 64.9972C34.4783 61.7155 34.4783 58.447 34.4783 55.1653C34.4783 54.0226 34.8503 53.6506 35.993 53.6506C39.288 53.6506 42.5963 53.6506 45.8914 53.6506C46.1305 53.6506 46.3564 53.6506 46.6354 53.6506C46.6221 37.9062 46.6221 22.2415 46.6221 6.5369ZM36.737 63.921C39.3943 61.2637 42.0914 58.5666 44.7222 55.9359C42.1579 55.9359 39.4474 55.9359 36.737 55.9359C36.737 58.6729 36.737 61.3568 36.737 63.921ZM13.8445 4.26492C13.3662 3.01599 11.8781 2.13909 10.3501 2.19224C8.86206 2.24538 7.45369 3.12229 7.09496 4.26492C9.35365 4.26492 11.5858 4.26492 13.8445 4.26492Z" fill="#5FB130"/>
<path d="M40.4438 68C40.3109 67.8804 40.1781 67.7742 40.0585 67.6546C39.5005 67.0301 39.7795 66.0735 40.6032 65.8875C40.8823 65.821 41.1746 65.821 41.4536 65.821C44.815 65.821 48.1898 65.821 51.5513 65.821C51.817 65.821 52.0694 65.821 52.3617 65.821C52.3617 46.0375 52.3617 26.3205 52.3617 6.59009C52.3352 6.56352 52.3086 6.52366 52.2687 6.52366C51.4184 6.41737 50.9667 6.03206 50.9667 5.39432C50.9799 4.72999 51.4715 4.34469 52.3617 4.31811C54.3946 4.25168 54.6204 4.46426 54.6204 6.4838C54.6204 26.4135 54.6204 46.3298 54.6337 66.2595C54.6337 66.9637 54.5274 67.5616 53.9694 68.0133C49.4786 68 44.9612 68 40.4438 68Z" fill="#5FB130"/>
<path d="M57.4504 68C56.6133 67.2161 56.5735 66.3392 57.3839 65.9539C57.6364 65.8343 57.9287 65.8077 58.2077 65.728C58.2077 45.9844 58.2077 26.2673 58.2077 6.51036C58.0084 6.49708 57.8224 6.49708 57.663 6.45722C57.1049 6.31107 56.7728 5.93905 56.7993 5.35444C56.8126 4.8097 57.1182 4.45097 57.6762 4.34467C57.7161 4.33139 57.7692 4.33139 57.8091 4.3181C60.1077 4.18524 60.4398 4.29153 60.4398 6.55022C60.4132 26.4533 60.4265 46.3697 60.4265 66.2728C60.4265 66.9637 60.3734 67.6014 59.7091 68C58.965 68 58.2077 68 57.4504 68Z" fill="#5FB130"/>
<path d="M24.4205 47.8046C29.1372 47.8046 33.8539 47.8046 38.5705 47.8046C38.7698 47.8046 38.9691 47.7913 39.1684 47.8179C39.753 47.8976 40.1118 48.2563 40.1516 48.8276C40.1915 49.3857 39.8992 49.8108 39.3146 49.9304C39.0621 49.9836 38.7831 50.0101 38.5307 50.0101C29.1372 50.0101 19.7569 50.0101 10.3634 50.0101C10.0977 50.0101 9.83198 49.9969 9.57953 49.9437C8.99493 49.8241 8.70263 49.4255 8.7292 48.8542C8.75577 48.2829 9.11451 47.9242 9.68583 47.8312C9.89841 47.7913 10.1243 47.8179 10.3501 47.8179C15.027 47.8046 19.7304 47.8046 24.4205 47.8046Z" fill="#5FB130"/>
<path d="M24.4336 34.7839C29.23 34.7839 34.0397 34.7839 38.8361 34.7839C39.8193 34.7839 40.4172 35.4748 40.0585 36.2321C39.9256 36.5111 39.6068 36.7503 39.3145 36.8832C39.0487 37.0027 38.7033 36.9629 38.3977 36.9629C29.0839 36.9629 19.7701 36.9629 10.4563 36.9629C10.1906 36.9629 9.92485 36.9629 9.65912 36.9097C9.04794 36.8034 8.64935 36.3251 8.70249 35.7538C8.75564 35.2091 9.1808 34.8105 9.76541 34.7706C9.9647 34.7573 10.164 34.7706 10.3633 34.7706C15.0534 34.7839 19.7435 34.7839 24.4336 34.7839Z" fill="#5FB130"/>
<path d="M24.4336 41.2943C29.23 41.2943 34.0397 41.2943 38.8361 41.2943C39.8193 41.2943 40.4172 41.9851 40.0585 42.7425C39.9256 43.0215 39.6068 43.2739 39.3145 43.3935C39.0222 43.5131 38.6634 43.4865 38.3313 43.4865C29.0573 43.4865 19.7967 43.4865 10.5227 43.4865C10.1906 43.4865 9.85842 43.4732 9.53955 43.4201C8.98151 43.3005 8.7025 42.9152 8.71579 42.3705C8.72907 41.7991 9.06123 41.4271 9.63255 41.3208C9.84513 41.281 10.071 41.3075 10.2969 41.3075C15.0003 41.2943 19.717 41.2943 24.4336 41.2943Z" fill="#5FB130"/>
<path d="M24.4603 21.7632C29.2434 21.7632 34.0132 21.7632 38.7964 21.7632C39.7397 21.7632 40.311 22.3212 40.125 23.0519C40.0054 23.517 39.7264 23.8491 39.2215 23.889C38.9558 23.9156 38.6901 23.9289 38.4243 23.9289C29.084 23.9289 19.7569 23.9289 10.4165 23.9289C10.1508 23.9289 9.88506 23.9289 9.61933 23.889C9.04802 23.796 8.66271 23.331 8.68928 22.7862C8.71585 22.2415 9.14102 21.8163 9.71234 21.7632C9.93821 21.7499 10.1508 21.7499 10.3767 21.7499C15.0801 21.7632 19.7702 21.7632 24.4603 21.7632Z" fill="#5FB130"/>
<path d="M24.4738 28.2735C29.2569 28.2735 34.04 28.2735 38.8231 28.2735C39.8462 28.2735 40.4441 29.0043 40.0322 29.7749C39.886 30.0406 39.5406 30.2532 39.2483 30.3861C39.0224 30.4924 38.7301 30.4525 38.4644 30.4525C29.0975 30.4525 19.7305 30.4525 10.3636 30.4525C10.0978 30.4525 9.83212 30.4525 9.56639 30.3994C8.98178 30.2798 8.6762 29.8812 8.70277 29.3099C8.72934 28.7386 9.07479 28.3798 9.65939 28.2868C9.87198 28.2602 10.0978 28.2735 10.3237 28.2735C15.0404 28.2735 19.7571 28.2735 24.4738 28.2735Z" fill="#5FB130"/>
</g>
<defs>
<clipPath id="clip0_16_7900">
<rect width="60.44" height="68" fill="white"/>
</clipPath>
</defs>
</svg>
