<svg width="69" height="68" viewBox="0 0 69 68" fill="none" xmlns="http://www.w3.org/2000/svg">
<g clip-path="url(#clip0_16_7909)">
<path d="M38.4013 0C38.4013 1.40084 38.4013 2.80865 38.4013 4.25131C39.1331 4.25131 39.823 4.25131 40.5339 4.25131C40.5339 16.364 40.5339 28.435 40.5339 40.5547C39.4815 40.5547 38.4361 40.5547 37.3628 40.5547C37.3628 41.9834 37.3628 43.3773 37.3628 44.792C36.645 44.792 35.955 44.792 35.2233 44.792C35.2233 43.3982 35.2233 42.0043 35.2233 40.5826C34.5054 40.5826 33.8224 40.5826 33.1046 40.5826C33.1046 41.2586 33.1046 41.9416 33.1046 42.6525C32.3798 42.6525 31.6898 42.6525 30.958 42.6525C30.958 41.9764 30.958 41.2865 30.958 40.5686C29.8708 40.5686 28.8324 40.5686 27.7451 40.5686C27.7451 35.5716 27.7451 30.6094 27.7451 25.6194C26.8531 25.6194 26.0098 25.6194 25.1665 25.6194C24.9574 25.6194 24.7483 25.6472 24.5392 25.6263C23.2917 25.5357 22.4275 26.1699 21.6957 27.0829C20.7688 28.2398 20.2601 29.5849 19.9325 31.0136C18.8313 35.7737 17.7023 40.5338 16.6151 45.2938C16.4269 46.1162 16.3015 46.9595 16.2527 47.8028C16.183 49.113 17.1935 50.5278 18.448 50.932C18.8174 51.0505 19.2216 51.0784 19.6119 51.0854C23.2011 51.1202 26.7903 51.1551 30.3796 51.169C36.1502 51.1969 41.9208 51.2038 47.6984 51.2248C47.789 51.2248 47.8796 51.2248 48.0051 51.2248C48.0051 52.6326 48.0051 54.0195 48.0051 55.4552C48.1723 55.4621 48.3047 55.4691 48.4372 55.4761C49.6219 55.5249 50.8067 55.5458 51.9846 55.6224C52.3051 55.6433 52.6466 55.7688 52.9324 55.9221C53.8872 56.4169 54.6259 57.1557 55.0859 58.1244C55.2741 58.5217 55.3717 58.9886 55.3856 59.4277C55.4414 61.5046 55.4623 63.5814 55.4901 65.6653C55.4901 65.8116 55.4901 65.9649 55.4901 66.1392C59.7693 66.1392 63.9997 66.1392 68.265 66.1392C68.265 66.7734 68.265 67.3797 68.265 68.007C45.524 68.007 22.7899 68.007 -0.00683594 68.007C-0.00683594 67.8815 -0.00683594 67.7491 -0.00683594 67.6167C0.0210415 65.0729 0.0349802 62.5291 0.069827 59.9852C0.0977044 57.9502 1.29643 56.2845 3.20604 55.5945C3.31058 55.5597 3.43603 55.5597 3.54754 55.5597C8.77455 55.5527 14.0016 55.5388 19.2286 55.5318C27.9891 55.5179 36.7426 55.5039 45.5031 55.49C45.6146 55.49 45.733 55.49 45.8655 55.49C45.8655 54.7791 45.8655 54.0961 45.8655 53.3574C45.7121 53.3574 45.5658 53.3574 45.4194 53.3574C40.7709 53.3574 36.1293 53.3713 31.4807 53.3504C27.6476 53.3365 23.8144 53.2738 19.9813 53.2668C18.2459 53.2598 16.859 52.542 15.716 51.3154C14.3431 49.8448 13.8692 48.0955 14.3082 46.1302C15.5209 40.7289 16.6987 35.3207 18.0089 29.9403C18.5874 27.5638 19.9255 25.5775 21.9815 24.1488C22.546 23.7516 23.1732 23.5564 23.8702 23.5494C24.9295 23.5355 25.9819 23.5007 27.0412 23.4728C27.2573 23.4658 27.4803 23.4519 27.7173 23.4379C27.7173 22.7619 27.7173 22.1068 27.7173 21.4099C27.5012 21.368 27.2782 21.3123 27.0552 21.2774C25.6055 21.0335 24.3441 20.4272 23.2987 19.3887C23.2081 19.2981 23.0687 19.1797 22.9572 19.1866C21.626 19.2633 20.274 19.2006 18.9916 19.6396C16.5524 20.476 14.6985 21.9953 13.7995 24.4624C12.8237 27.1387 11.9108 29.8358 11.0466 32.5469C9.70845 36.7424 8.44699 40.9519 7.14372 45.1545C6.59314 46.9316 6.32134 48.7437 6.398 50.6045C6.43285 51.5105 6.40497 52.4095 6.40497 53.3365C5.67319 53.3365 4.97625 53.3365 4.24447 53.3365C4.24447 53.1901 4.24447 53.0647 4.24447 52.9392C4.28629 51.1481 4.28629 49.3639 4.38386 47.5728C4.42567 46.8898 4.67657 46.2208 4.86474 45.5517C6.92767 38.1921 9.22756 30.9021 11.8132 23.7097C12.6147 21.4796 14.2107 19.9672 16.1342 18.7406C17.6744 17.7579 19.361 17.1864 21.2009 17.0679C21.6679 17.0401 21.7097 16.9843 21.5842 16.5452C20.4622 12.5588 23.7517 9.12289 26.867 8.63503C27.1388 8.59321 27.4106 8.53746 27.7242 8.4817C27.7242 7.0948 27.7242 5.70093 27.7242 4.27918C28.449 4.27918 29.139 4.27918 29.8847 4.27918C29.8847 2.82956 29.8847 1.41478 29.8847 0.00696936C32.7352 0 35.5648 0 38.4013 0ZM53.3993 66.1322C53.3436 63.7487 53.3018 61.407 53.2251 59.0653C53.2042 58.4241 52.556 57.8178 51.9079 57.7829C50.6464 57.7202 49.378 57.6575 48.1166 57.6575C36.6659 57.6435 25.2153 57.6366 13.7646 57.6435C10.5866 57.6435 7.40159 57.6854 4.22356 57.7272C3.85419 57.7341 3.44996 57.7899 3.11544 57.9432C2.47425 58.2359 2.2373 58.8144 2.23033 59.5113C2.20942 61.6579 2.17457 63.8044 2.14669 65.958C2.14669 66.0137 2.16063 66.0695 2.1676 66.1183C5.01807 66.1183 7.84066 66.1183 10.6911 66.1183C10.6911 64.6965 10.6911 63.3096 10.6911 61.9158C22.0791 61.9158 33.4391 61.9158 44.841 61.9158C44.841 63.3375 44.841 64.7383 44.841 66.1392C47.6984 66.1322 50.514 66.1322 53.3993 66.1322ZM29.8917 38.3802C32.7561 38.3802 35.5717 38.3802 38.3873 38.3802C38.3873 36.9585 38.3873 35.5646 38.3873 34.1289C36.2547 34.1289 34.15 34.1289 32.0452 34.1289C32.0452 33.4041 32.0452 32.7072 32.0452 31.9824C34.1779 31.9824 36.2896 31.9824 38.3943 31.9824C38.3943 23.4379 38.3943 14.9353 38.3943 6.42575C35.5578 6.42575 32.7422 6.42575 29.8987 6.42575C29.8987 7.15056 29.9126 7.86143 29.8917 8.56534C29.8847 8.83714 29.9684 8.9835 30.2123 9.09501C31.2577 9.58983 32.1358 10.2937 32.8188 11.2346C34.3033 13.2906 34.5821 15.4511 33.3833 17.737C32.6725 19.096 31.6062 20.1066 30.2193 20.7617C29.9684 20.8802 29.8847 21.0405 29.8847 21.3193C29.8917 26.8669 29.8917 32.4214 29.8917 37.969C29.8917 38.1015 29.8917 38.2269 29.8917 38.3802ZM12.8307 66.1183C22.7969 66.1183 32.7282 66.1183 42.6596 66.1183C42.6596 65.4144 42.6596 64.7383 42.6596 64.0553C32.7003 64.0553 22.769 64.0553 12.8307 64.0553C12.8307 64.7592 12.8307 65.4283 12.8307 66.1183ZM27.6336 19.096C27.9263 19.096 28.2121 19.11 28.5048 19.096C30.0659 18.9985 31.5434 17.7579 31.8152 16.2316C31.9337 15.5765 31.9337 14.8935 31.9128 14.2245C31.8989 13.8411 31.8083 13.4299 31.641 13.0884C30.6165 11.0116 28.8672 10.454 26.7555 10.7886C24.9644 11.0673 23.7656 12.4961 23.5356 14.4126C23.2081 17.1167 25.2362 19.3678 27.6336 19.096ZM32.0522 2.1605C32.0522 2.87834 32.0522 3.56134 32.0522 4.2304C33.4809 4.2304 34.8748 4.2304 36.2687 4.2304C36.2687 3.52649 36.2687 2.8435 36.2687 2.1605C34.8539 2.1605 33.46 2.1605 32.0522 2.1605Z" fill="#5FB130"/>
<path d="M47.7401 0C47.7749 0.0139387 47.8028 0.0418161 47.8377 0.0348468C48.5346 -0.0278774 48.8273 0.397253 49.0782 0.961771C50.3118 3.72164 51.5732 6.46756 52.8068 9.22743C52.9114 9.46438 53.0368 9.54105 53.2947 9.54802C56.3751 9.58286 59.4486 9.65256 62.5291 9.67346C63.3027 9.68043 63.7836 9.89648 64.1111 10.6771C65.3865 13.6739 66.7316 16.6358 68.0627 19.6048C68.2648 20.0508 68.2788 20.4272 68.0767 20.8802C66.7943 23.7585 65.5398 26.6508 64.2714 29.5292C64.1669 29.7731 64.1669 29.9682 64.2714 30.2122C65.5538 33.1184 66.8222 36.0246 68.1045 38.9308C68.2718 39.3072 68.2858 39.6278 68.1115 40.0111C66.7176 43.0915 65.3238 46.1789 63.9578 49.2733C63.672 49.9215 63.2957 50.1863 62.536 50.1724C59.3092 50.1097 56.0824 50.1027 52.8486 50.1236C52.0193 50.1306 51.5175 49.8797 51.169 49.0782C49.9912 46.3532 48.7367 43.67 47.524 40.9659C47.4056 40.701 47.2731 40.6104 46.9874 40.6104C45.6841 40.6035 44.3878 40.5826 43.0846 40.5616C42.9731 40.5616 42.8546 40.5616 42.7152 40.5616C42.7152 39.8438 42.7152 39.1538 42.7152 38.4221C42.8197 38.4151 42.9243 38.4081 43.0358 38.4081C44.3809 38.3872 45.7329 38.3593 47.078 38.3524C47.2941 38.3524 47.3986 38.2827 47.4892 38.0806C48.6531 35.4322 49.8379 32.7838 51.0017 30.1355C51.0645 29.9891 51.0645 29.7661 51.0017 29.6267C49.8379 26.9784 48.6531 24.33 47.4892 21.6817C47.3916 21.4586 47.2731 21.4099 47.0501 21.4029C45.712 21.3959 44.3809 21.368 43.0427 21.3471C42.9382 21.3471 42.8406 21.3402 42.7152 21.3332C42.7152 20.6293 42.7152 19.9393 42.7152 19.1866C43.44 19.1866 44.1509 19.1866 44.8548 19.1866C45.6005 19.1797 46.3392 19.1657 47.085 19.1657C47.2871 19.1657 47.3916 19.103 47.4753 18.9148C48.6531 16.2456 49.8448 13.5763 51.0157 10.907C51.0714 10.7816 51.0714 10.5865 51.0157 10.461C49.8448 7.79871 48.66 5.14338 47.4892 2.48109C47.3986 2.27201 47.2801 2.21625 47.071 2.21625C45.029 2.20232 42.98 2.18141 40.938 2.16747C40.8265 2.16747 40.708 2.16747 40.5547 2.16747C40.5547 1.42872 40.5547 0.724813 40.5547 0.0209081C42.9521 0 45.3496 0 47.7401 0ZM57.6226 47.9492C59.0862 47.9492 60.5498 47.9422 62.0133 47.9561C62.2294 47.9561 62.3409 47.8934 62.4315 47.6913C63.6023 45.029 64.7871 42.3737 65.958 39.7114C66.0137 39.5859 66.0207 39.3908 65.9719 39.2653C64.7941 36.5961 63.6093 33.9268 62.4315 31.2576C62.3479 31.0694 62.2433 31.0067 62.0412 31.0067C59.135 30.9927 56.2357 30.9718 53.3295 30.937C53.0507 30.937 52.9323 31.0276 52.8208 31.2785C51.6569 33.9268 50.4721 36.5752 49.3082 39.2305C49.2455 39.3769 49.2455 39.5999 49.3082 39.7393C50.4721 42.3806 51.6499 45.0151 52.8068 47.6564C52.9044 47.8795 53.0089 47.9631 53.2668 47.9631C54.7234 47.9422 56.173 47.9492 57.6226 47.9492ZM57.6087 28.7346C59.0583 28.7346 60.5149 28.7277 61.9645 28.7416C62.2154 28.7416 62.3479 28.6789 62.4594 28.435C63.6163 25.8075 64.7802 23.1801 65.951 20.5596C66.0346 20.3645 66.0486 20.2111 65.958 20.009C64.7802 17.3746 63.6093 14.7402 62.4524 12.0988C62.3548 11.8758 62.2433 11.7921 61.9924 11.7921C59.0792 11.7782 56.166 11.7643 53.2529 11.7294C52.988 11.7294 52.9253 11.8688 52.8417 12.057C51.6638 14.7123 50.486 17.3746 49.3152 20.0299C49.2524 20.1693 49.2524 20.3714 49.3082 20.5108C50.4721 23.1592 51.6569 25.8075 52.8208 28.4559C52.9183 28.6719 53.0229 28.7486 53.2598 28.7416C54.7025 28.7277 56.1521 28.7346 57.6087 28.7346Z" fill="#5FB130"/>
<path d="M48.012 48.0398C48.012 48.7507 48.012 49.4337 48.012 50.1376C40.5618 50.1376 33.1185 50.1376 25.6543 50.1376C25.6543 49.4406 25.6543 48.7507 25.6543 48.0398C33.0976 48.0398 40.5339 48.0398 48.012 48.0398Z" fill="#5FB130"/>
<path d="M32.0449 27.752C32.7558 27.752 33.4388 27.752 34.1357 27.752C34.1357 28.4559 34.1357 29.1458 34.1357 29.8567C33.4458 29.8567 32.7558 29.8567 32.0449 29.8567C32.0449 29.1598 32.0449 28.4698 32.0449 27.752Z" fill="#5FB130"/>
<path d="M32.0381 23.5007C32.7559 23.5007 33.4389 23.5007 34.1359 23.5007C34.1359 24.1976 34.1359 24.8806 34.1359 25.5845C33.4389 25.5845 32.749 25.5845 32.0381 25.5845C32.0381 24.8876 32.0381 24.2046 32.0381 23.5007Z" fill="#5FB130"/>
</g>
<defs>
<clipPath id="clip0_16_7909">
<rect width="68.2718" height="68" fill="white"/>
</clipPath>
</defs>
</svg>
