<svg width="49" height="55" viewBox="0 0 49 55" fill="none" xmlns="http://www.w3.org/2000/svg">
<g clip-path="url(#clip0_16_8042)">
<path fill-rule="evenodd" clip-rule="evenodd" d="M37.0855 4.73186C36.9635 4.24395 36.9635 4.06099 36.7805 4H24.3999H11.8973C11.0435 7.72029 10.1896 9.97685 6.6523 12.0505C5.67649 12.6603 4.63969 13.1482 3.41992 13.3922C3.41992 20.3449 5.31056 31.6277 8.7259 37.2386C11.2264 41.3858 15.4346 45.655 19.6428 48.3385C20.3747 48.8264 23.668 50.839 24.3999 50.9C26.4125 50.5341 31.5965 46.6308 33.3652 45.2281C42.2085 38.0925 45.3189 25.5899 45.3189 13.4532C40.9277 12.4164 37.9393 9.12302 37.0855 4.73186Z" fill="#5FB130"/>
</g>
<path fill-rule="evenodd" clip-rule="evenodd" d="M24.4288 51.5668C24.6425 46.5603 24.3576 40.6955 24.4288 35.546C24.5001 32.7566 24.5001 33.6864 23.9303 33.5434L22.0786 34.3301C23.3605 31.7553 23.2181 32.3275 22.221 29.6812C21.9361 29.3951 21.9361 30.2534 22.0073 29.3236C23.2181 29.3951 22.221 29.3236 22.6483 29.6097C23.1469 30.1103 23.6454 30.1819 24.4288 30.3249V3.21826H12.6774C12.0364 3.57587 12.6062 2.86065 12.1076 3.93348C11.9652 4.14804 11.894 4.64869 11.7515 4.86326C10.3983 8.29629 6.55239 12.23 3.13379 13.1597C3.27623 20.8841 5.5553 31.8268 8.83146 37.477C10.9681 41.1246 12.9623 42.9842 15.5975 45.6305C16.9506 46.9179 22.1498 50.78 24.4288 51.5668ZM17.3068 13.6604C17.9477 12.0869 17.8053 12.5161 17.3068 10.9426C18.4463 11.5863 18.8736 11.5863 20.0131 10.9426C19.5146 12.373 19.4434 12.3015 20.0131 13.6604C18.4463 13.0882 18.8736 13.0167 17.3068 13.6604Z" fill="#0D526E"/>
<path fill-rule="evenodd" clip-rule="evenodd" d="M24.4288 30.3251C25.4971 30.2536 26.1381 29.8245 26.9215 29.4669C26.3518 30.6827 25.4259 32.5423 26.7791 33.8297C27.2064 34.4018 27.1352 32.9714 27.1352 34.3303C26.2805 34.9025 26.9215 34.4018 26.7791 34.2588C25.9244 33.9012 25.141 33.329 24.0015 33.5436C24.5712 33.6866 24.5712 32.8284 24.5 35.5462C24.4288 40.6957 24.6425 46.632 24.5 51.567C24.9273 51.71 24.7849 51.567 25.5683 51.1379C31.266 47.9194 36.8925 43.342 40.2398 37.4773C43.5872 31.684 45.7951 21.1704 45.9375 13.303C42.0204 11.4435 36.9637 7.36674 36.75 3.14697H24.4288V30.3251ZM27.064 7.72435C27.4201 6.86609 27.4201 6.65152 27.064 5.79327C27.9186 6.07935 28.1323 6.07935 28.9869 5.79327C28.6308 6.86609 28.702 6.65152 28.9869 7.65282C28.2035 7.50978 27.8474 7.43826 27.064 7.72435ZM29.7704 18.8817C31.907 14.0182 31.266 16.0208 29.7704 12.0156C30.7675 12.4448 31.6933 13.303 33.189 13.303C34.6846 13.303 35.6105 12.4448 36.6076 12.0156C34.7558 16.0924 34.8983 14.8765 36.6076 18.9532C32.4055 17.1652 34.0436 17.0221 29.7704 18.8817ZM33.7587 27.8934C34.3285 26.6775 34.3997 26.3914 33.7587 25.1756C35.1119 25.6762 35.0407 25.8193 36.4651 25.1756C35.8954 26.7491 35.8954 26.2484 36.4651 27.8934C34.827 27.3212 35.3968 27.3212 33.7587 27.8934Z" fill="#5FB130"/>
<path fill-rule="evenodd" clip-rule="evenodd" d="M24.4287 52.8545C27.3488 52.4253 35.5392 45.6308 37.747 42.8414C38.388 42.0547 38.8866 41.5541 39.4564 40.6958C40.0973 39.8375 40.5247 39.1223 41.0944 38.1926C44.7979 32.1848 46.7921 20.7413 47.1482 12.4448C44.9404 11.8011 42.234 9.87006 41.0944 8.65419C39.1715 6.50855 38.7441 5.22116 37.5334 2.07422H24.5712H11.6802C10.6119 5.14964 9.97088 6.65159 8.26158 8.65419C6.90838 10.0131 4.27321 11.6581 1.99414 12.5164C2.35025 21.0989 4.27321 31.6841 7.90548 37.978C11.1104 43.6282 18.8023 50.5658 24.4287 52.8545ZM24.4287 51.5671C22.1497 50.7803 16.9505 46.9182 15.5973 45.6308C12.9622 43.056 10.968 41.1249 8.83135 37.4773C5.55519 31.8987 3.27612 20.9559 3.13368 13.16C6.55228 12.2303 10.3982 8.29659 11.7514 4.86356C11.8226 4.57747 11.9651 4.14834 12.1075 3.93378C12.6061 2.86095 12.0363 3.57617 12.7485 3.14704H24.5H36.8212C36.9636 7.36681 42.0203 11.4435 45.8662 13.3031C45.6526 21.1704 43.4447 31.7556 40.1686 37.4773C36.75 43.3421 31.1947 47.9195 25.497 51.1379C24.7136 51.5671 24.8561 51.7101 24.4287 51.5671Z" fill="#FDFDFD"/>
<path fill-rule="evenodd" clip-rule="evenodd" d="M24.5 55L24.4288 52.8544C18.8023 50.5657 11.1105 43.6281 7.90552 37.9779C4.27326 31.684 2.35029 21.0988 1.99419 12.5163C4.27326 11.658 6.90843 10.013 8.11919 8.58257C9.82849 6.6515 10.4695 5.14954 11.5378 2.0026H24.4288V0H9.89971C8.90262 4.36281 7.90552 7.0091 3.77471 9.44083C2.63517 10.156 1.42442 10.7282 0 11.0143C0 19.1677 2.20785 32.3992 6.19622 38.9792C9.11628 43.8427 14.0305 48.8492 18.9448 51.9961C19.7994 52.5683 23.6453 54.9285 24.5 55Z" fill="#0D526E"/>
<path fill-rule="evenodd" clip-rule="evenodd" d="M24.4999 2.0026H37.4621C38.6728 5.14954 39.1002 6.43693 41.0231 8.58257C42.1627 9.86996 44.869 11.7295 47.0769 12.3732C46.7208 20.6697 44.7266 32.1131 41.0231 38.1209C40.4534 39.0507 40.026 39.7659 39.385 40.6242C38.744 41.4824 38.2455 41.9831 37.6757 42.7698C35.4679 45.5592 27.2775 52.3537 24.3574 52.7828L24.4286 54.9285C26.7789 54.4994 32.8327 49.922 34.8981 48.277C45.2252 39.909 48.8574 25.2471 48.8574 11.0143C43.6583 9.79844 40.1685 5.93628 39.1714 0.786736C39.1714 0.286086 39.1714 0.0715215 38.9577 0H24.4999V2.0026Z" fill="#5FB130"/>
<path fill-rule="evenodd" clip-rule="evenodd" d="M29.7705 18.8814C34.0438 17.0219 32.4057 17.1649 36.6077 18.8814C34.8984 14.8762 34.756 16.0921 36.6077 11.9438C35.6106 12.373 34.6848 13.3028 33.1891 13.2312C31.6935 13.2312 30.7676 12.3015 29.7705 11.9438C31.2661 16.0206 31.9071 14.018 29.7705 18.8814Z" fill="#FDFDFD"/>
<path fill-rule="evenodd" clip-rule="evenodd" d="M24.4289 30.3253C23.6455 30.2538 23.0757 30.1107 22.6484 29.6101L22.2211 29.6816C23.2181 32.3279 23.3606 31.7557 22.0786 34.3305L23.9304 33.4722C25.0699 33.2577 25.8533 33.8298 26.708 34.1874L26.7792 33.7583C25.426 32.4709 26.3519 30.6829 26.9216 29.3955C26.1382 29.7531 25.4972 30.2538 24.4289 30.3253Z" fill="#FDFDFD"/>
<path fill-rule="evenodd" clip-rule="evenodd" d="M33.7588 27.8936C35.3969 27.3214 34.8271 27.3214 36.4652 27.8936C35.8242 26.2486 35.8954 26.8208 36.4652 25.1758C35.0408 25.8195 35.112 25.6764 33.7588 25.1758C34.3998 26.3916 34.3286 26.6777 33.7588 27.8936Z" fill="#FDFDFD"/>
<path fill-rule="evenodd" clip-rule="evenodd" d="M17.3066 13.6607C18.8735 13.017 18.4462 13.16 20.013 13.6607C19.4433 12.2303 19.5145 12.3018 20.013 10.9429C18.8735 11.5866 18.4462 11.5866 17.3066 10.9429C17.8052 12.5163 17.9476 12.0157 17.3066 13.6607Z" fill="#FDFDFD"/>
<path fill-rule="evenodd" clip-rule="evenodd" d="M27.064 7.7243C27.8474 7.43822 28.2035 7.43822 28.9869 7.7243C28.702 6.65148 28.6308 6.93757 28.9869 5.86475C28.1323 6.15083 27.9898 6.07931 27.064 5.86475C27.3488 6.723 27.4201 6.93757 27.064 7.7243Z" fill="#FDFDFD"/>
<path fill-rule="evenodd" clip-rule="evenodd" d="M26.779 33.758L26.7078 34.1871C26.8502 34.3301 26.2804 34.8308 27.0639 34.2586C27.2063 32.8997 27.2063 34.3301 26.779 33.758Z" fill="#9AC97F"/>
<path fill-rule="evenodd" clip-rule="evenodd" d="M22.221 29.6813L22.6483 29.6098C22.221 29.2522 23.2181 29.3953 22.0073 29.3237C21.9361 30.182 21.9361 29.3953 22.221 29.6813Z" fill="#8DA6B3"/>
<defs>
<clipPath id="clip0_16_8042">
<rect width="41.9599" height="46.9" fill="white" transform="translate(3.41992 4)"/>
</clipPath>
</defs>
</svg>
