<svg width="77" height="71" viewBox="0 0 77 71" fill="none" xmlns="http://www.w3.org/2000/svg">
<g clip-path="url(#clip0_16_7952)">
<path d="M76.9998 11.2779C74.4117 12.6951 71.9093 14.2241 69.5612 16.0106C66.1332 18.6218 63.1166 21.6195 60.8971 25.3559C58.6603 29.1181 57.5634 33.198 57.4863 37.57C57.4777 37.9995 57.7005 37.9823 57.9919 37.9823C63.3309 37.9823 68.6785 37.9823 74.0175 37.9823C74.6174 37.9823 74.626 37.9823 74.626 38.5836C74.626 49.2087 74.626 59.8252 74.626 70.4503C74.626 71.0172 74.626 71.0172 74.0432 71.0172C63.3995 71.0172 52.7643 71.0172 42.1205 71.0172C41.992 71.0172 41.872 71.0086 41.7092 71C41.7006 70.8368 41.692 70.6994 41.692 70.5619C41.692 61.2167 41.692 51.8628 41.692 42.5175C41.692 40.9285 41.5892 39.3395 41.632 37.7504C41.8377 29.9856 43.9887 22.8478 48.5393 16.5002C51.7616 11.9908 55.798 8.3489 60.3314 5.23954C63.1081 3.34128 66.0133 1.67493 69.0298 0.188967C69.1584 0.128841 69.2869 0.0687152 69.4498 0C69.8011 0.515364 70.1439 1.01355 70.4867 1.52032C72.5778 4.64687 74.6688 7.77341 76.7599 10.9C76.8284 11.003 76.9227 11.0889 77.0084 11.1834C76.9998 11.2178 76.9998 11.2435 76.9998 11.2779Z" fill="#5FB130"/>
<path d="M27.8011 0C30.1835 3.74498 32.5659 7.48137 34.9655 11.2607C34.7427 11.3895 34.537 11.5098 34.3313 11.6215C30.7234 13.5541 27.3469 15.8045 24.3732 18.6304C20.5596 22.2466 17.8001 26.5155 16.4203 31.6348C15.889 33.6017 15.5891 35.6117 15.4862 37.6388C15.4777 37.7247 15.4862 37.8106 15.4862 37.9652C15.6662 37.9652 15.829 37.9652 16.0004 37.9652C21.5108 37.9652 27.0212 37.9737 32.5402 37.9566C32.9601 37.9566 32.9858 38.1284 32.9858 38.4633C32.9773 48.3927 32.9773 58.3306 32.9773 68.26C32.9773 69.1447 32.9773 70.0294 32.9773 70.9571C22.0079 70.9571 11.0642 70.9571 0.0433861 70.9571C0.0433861 70.811 0.0433861 70.6392 0.0433861 70.4761C0.0433861 61.0105 0.0433861 51.5536 0.0433861 42.0881C0.0433861 40.1297 -0.0337425 38.1627 0.0605258 36.2129C0.394749 29.642 2.27154 23.535 5.85374 17.9862C9.25596 12.7123 13.7894 8.54646 18.957 5.04198C21.6822 3.19526 24.536 1.58045 27.4926 0.128841C27.5783 0.085894 27.6725 0.0515364 27.8011 0Z" fill="#5FB130"/>
</g>
<defs>
<clipPath id="clip0_16_7952">
<rect width="77" height="71" fill="white"/>
</clipPath>
</defs>
</svg>
