<svg width="183" height="52" viewBox="0 0 183 52" fill="none" xmlns="http://www.w3.org/2000/svg">
<path fill-rule="evenodd" clip-rule="evenodd" d="M23.2824 48.7543C23.4861 44.0209 23.2146 38.476 23.2824 33.6073C23.3503 30.9701 23.3503 31.8492 22.8073 31.714L21.0425 32.4578C22.2643 30.0235 22.1285 30.5644 21.1782 28.0625C20.9067 27.792 20.9067 28.6034 20.9746 27.7244C22.1285 27.792 21.1782 27.7244 21.5855 27.9949C22.0606 28.4682 22.5358 28.5358 23.2824 28.6711V3.04297H12.0825C11.4716 3.38107 12.0146 2.70487 11.5395 3.71917C11.4037 3.92203 11.3359 4.39537 11.2001 4.59824C9.91041 7.84401 6.24498 11.5631 2.98682 12.4422C3.12257 19.7452 5.29468 30.0911 8.41708 35.4331C10.4534 38.8817 12.354 40.6398 14.8655 43.1418C16.1552 44.359 21.1103 48.0105 23.2824 48.7543ZM16.4946 12.9155C17.1055 11.4279 16.9698 11.8336 16.4946 10.346C17.5807 10.9545 17.9879 10.9545 19.074 10.346C18.5988 11.6984 18.531 11.6307 19.074 12.9155C17.5807 12.3746 17.9879 12.3069 16.4946 12.9155Z" fill="#0D526E"/>
<path fill-rule="evenodd" clip-rule="evenodd" d="M23.2823 28.6708C24.3004 28.6032 24.9113 28.1975 25.658 27.8594C25.115 29.0089 24.2326 30.767 25.5223 31.9842C25.9295 32.5252 25.8616 31.1728 25.8616 32.4575C25.0471 32.9985 25.658 32.5252 25.5223 32.3899C24.7077 32.0518 23.9611 31.5109 22.875 31.7137C23.418 31.849 23.418 31.0375 23.3501 33.6071C23.2823 38.4757 23.4859 44.0882 23.3501 48.754C23.7574 48.8893 23.6217 48.754 24.3683 48.3483C29.7986 45.3054 35.161 40.9777 38.3513 35.4328C41.5415 29.9556 43.6458 20.0154 43.7815 12.5772C40.0482 10.8191 35.2289 6.96469 35.0252 2.9751H23.2823V28.6708ZM25.7938 7.3028C26.1332 6.49135 26.1332 6.28849 25.7938 5.47705C26.6083 5.74753 26.8119 5.74753 27.6265 5.47705C27.2871 6.49135 27.355 6.28849 27.6265 7.23518C26.8798 7.09994 26.5404 7.03232 25.7938 7.3028ZM28.3731 17.8516C30.4095 13.2534 29.7986 15.1467 28.3731 11.36C29.3234 11.7657 30.2059 12.5772 31.6313 12.5772C33.0567 12.5772 33.9392 11.7657 34.8895 11.36C33.1246 15.2144 33.2604 14.0648 34.8895 17.9192C30.8846 16.2287 32.4458 16.0934 28.3731 17.8516ZM32.1743 26.3717C32.7174 25.2222 32.7852 24.9517 32.1743 23.8021C33.464 24.2755 33.3961 24.4107 34.7537 23.8021C34.2107 25.2898 34.2107 24.8165 34.7537 26.3717C33.1925 25.8308 33.7355 25.8308 32.1743 26.3717Z" fill="#5FB130"/>
<path fill-rule="evenodd" clip-rule="evenodd" d="M23.2821 49.9713C26.0651 49.5656 33.8711 43.1417 35.9753 40.5045C36.5862 39.7607 37.0614 39.2873 37.6044 38.4759C38.2153 37.6644 38.6226 36.9882 39.1656 36.1092C42.6953 30.4291 44.5959 19.6098 44.9353 11.7659C42.831 11.1573 40.2517 9.33155 39.1656 8.182C37.3329 6.1534 36.9256 4.93623 35.7717 1.96094H23.4178H11.1318C10.1137 4.86861 9.50276 6.28864 7.87368 8.182C6.584 9.46679 4.0725 11.0221 1.90039 11.8335C2.23978 19.9479 4.0725 29.9557 7.53429 35.9063C10.5888 41.2483 17.9197 47.8075 23.2821 49.9713ZM23.2821 48.7542C21.11 48.0103 16.1548 44.3589 14.8652 43.1417C12.3537 40.7074 10.4531 38.8816 8.41671 35.433C5.29431 30.1586 3.1222 19.8127 2.98644 12.4421C6.2446 11.563 9.91003 7.8439 11.1997 4.59813C11.2676 4.32765 11.4034 3.92193 11.5391 3.71906C12.0143 2.70476 11.4712 3.38096 12.15 2.97524H23.3499H35.0929C35.2287 6.96484 40.048 10.8192 43.7134 12.5773C43.5098 20.0156 41.4056 30.0234 38.2832 35.433C35.025 40.9778 29.7305 45.3055 24.3002 48.3484C23.5536 48.7542 23.6893 48.8894 23.2821 48.7542Z" fill="#FDFDFD"/>
<path fill-rule="evenodd" clip-rule="evenodd" d="M23.3501 52L23.2823 49.9714C17.9199 47.8075 10.589 41.2484 7.5345 35.9064C4.0727 29.9558 2.23998 19.948 1.90059 11.8335C4.0727 11.0221 6.5842 9.46684 7.73813 8.11443C9.36721 6.28869 9.97812 4.86866 10.9963 1.89337H23.2823V0H9.43509C8.48479 4.12484 7.5345 6.62679 3.59755 8.92588C2.5115 9.60208 1.35757 10.143 0 10.4135C0 18.1222 2.10423 30.632 5.90542 36.8531C8.68843 41.4512 13.372 46.1847 18.0556 49.1599C18.8702 49.7009 22.5356 51.9324 23.3501 52Z" fill="#0D526E"/>
<path fill-rule="evenodd" clip-rule="evenodd" d="M23.3501 1.89337H35.704C36.8579 4.86866 37.2652 6.08583 39.0979 8.11443C40.1839 9.3316 42.7633 11.0897 44.8675 11.6983C44.5282 19.5423 42.6276 30.3615 39.0979 36.0416C38.5549 36.9207 38.1476 37.5969 37.5367 38.4083C36.9258 39.2198 36.4506 39.6931 35.9076 40.4369C33.8034 43.0741 25.9974 49.4981 23.2144 49.9038L23.2822 51.9324C25.5222 51.5267 31.2919 47.199 33.2603 45.6437C43.1027 37.7321 46.5645 23.87 46.5645 10.4135C41.6094 9.26398 38.2833 5.61248 37.333 0.743823C37.333 0.270481 37.333 0.0676203 37.1294 0H23.3501V1.89337Z" fill="#5FB130"/>
<path fill-rule="evenodd" clip-rule="evenodd" d="M28.373 17.8516C32.4457 16.0935 30.8845 16.2288 34.8894 17.8516C33.2603 14.0649 33.1245 15.2145 34.8894 11.2925C33.9391 11.6982 33.0567 12.5773 31.6312 12.5096C30.2058 12.5096 29.3233 11.6306 28.373 11.2925C29.7985 15.1468 30.4094 13.2535 28.373 17.8516Z" fill="#FDFDFD"/>
<path fill-rule="evenodd" clip-rule="evenodd" d="M23.2825 28.6711C22.5358 28.6034 21.9928 28.4682 21.5855 27.9949L21.1782 28.0625C22.1285 30.5644 22.2643 30.0235 21.0425 32.4578L22.8073 31.6463C23.8934 31.4435 24.64 31.9845 25.4546 32.3226L25.5224 31.9168C24.2328 30.6997 25.1152 29.0092 25.6582 27.792C24.9115 28.1301 24.3006 28.6034 23.2825 28.6711Z" fill="#FDFDFD"/>
<path fill-rule="evenodd" clip-rule="evenodd" d="M32.1743 26.3718C33.7355 25.8309 33.1925 25.8309 34.7537 26.3718C34.1428 24.8165 34.2107 25.3575 34.7537 23.8022C33.3961 24.4108 33.464 24.2756 32.1743 23.8022C32.7852 24.9518 32.7173 25.2223 32.1743 26.3718Z" fill="#FDFDFD"/>
<path fill-rule="evenodd" clip-rule="evenodd" d="M16.4946 12.9153C17.988 12.3067 17.5807 12.4419 19.074 12.9153C18.531 11.5629 18.5989 11.6305 19.074 10.3457C17.988 10.9543 17.5807 10.9543 16.4946 10.3457C16.9698 11.8333 17.1055 11.36 16.4946 12.9153Z" fill="#FDFDFD"/>
<path fill-rule="evenodd" clip-rule="evenodd" d="M25.7939 7.30305C26.5406 7.03257 26.88 7.03257 27.6267 7.30305C27.3551 6.28875 27.2873 6.55923 27.6267 5.54492C26.8121 5.8154 26.6764 5.74778 25.7939 5.54492C26.0655 6.35637 26.1333 6.55923 25.7939 7.30305Z" fill="#FDFDFD"/>
<path fill-rule="evenodd" clip-rule="evenodd" d="M25.5224 31.9167L25.4546 32.3224C25.5903 32.4577 25.0473 32.931 25.794 32.3901C25.9297 31.1053 25.9297 32.4577 25.5224 31.9167Z" fill="#9AC97F"/>
<path fill-rule="evenodd" clip-rule="evenodd" d="M21.1779 28.0622L21.5851 27.9946C21.1779 27.6565 22.1282 27.7917 20.9742 27.7241C20.9064 28.5356 20.9064 27.7917 21.1779 28.0622Z" fill="#8DA6B3"/>
<path d="M67.403 27.995H60.8188V42.601H56.5425V24.0054H71.6793V42.601H67.403V27.995Z" fill="#0D526E"/>
<path d="M75.1411 42.6007V24.0051C76.1593 24.0051 79.4174 23.9375 80.8429 23.9375C86.5447 23.9375 88.3774 26.9128 88.3774 30.0909C88.3774 33.4043 85.798 36.3796 81.4538 36.3796C81.0465 36.3796 80.0284 36.3796 79.3496 36.312V42.6007H75.1411ZM79.4175 27.9947V32.2548C80.0284 32.3224 80.775 32.39 81.3859 32.39C82.5399 32.39 83.8974 31.9167 83.8974 30.0909C83.8974 28.4681 82.8114 27.9271 81.318 27.9271C80.7071 27.9271 80.2999 27.9271 79.4175 27.9947Z" fill="#0D526E"/>
<path d="M99.17 23.667C104.872 23.667 109.148 27.3861 109.148 33.3367C109.148 39.0168 104.872 43.0064 99.17 43.0064C93.4682 43.0064 89.1919 39.2873 89.1919 33.3367C89.2598 27.8594 93.1967 23.667 99.17 23.667ZM99.17 38.9492C102.7 38.9492 104.6 36.4472 104.6 33.2691C104.6 29.8881 102.225 27.589 99.17 27.589C96.0476 27.589 93.7398 29.8204 93.7398 33.2691C93.8076 36.5148 96.1834 38.9492 99.17 38.9492Z" fill="#0D526E"/>
<path d="M111.252 24.0054H121.977V27.995H115.529V42.601H111.252V24.0054Z" fill="#0D526E"/>
<path d="M123.539 42.6007V24.0051C124.557 24.0051 127.815 23.9375 129.24 23.9375C134.942 23.9375 136.775 26.9128 136.775 30.0909C136.775 33.4043 134.195 36.3796 129.851 36.3796C129.444 36.3796 128.426 36.3796 127.747 36.312V42.6007H123.539ZM127.883 27.9947V32.2548C128.494 32.3224 129.24 32.39 129.851 32.39C131.005 32.39 132.363 31.9167 132.363 30.0909C132.363 28.4681 131.277 27.9271 129.783 27.9271C129.172 27.9271 128.765 27.9271 127.883 27.9947Z" fill="#0D526E"/>
<path d="M139.015 24.0054H150.147V27.995H143.359V31.2407H149.4V35.2303H143.359V38.6114H150.418V42.601H139.083V24.0054H139.015Z" fill="#0D526E"/>
<path d="M167.592 40.7752C166.438 42.0599 164.062 42.939 161.482 42.939C155.713 42.939 151.64 39.0847 151.64 33.2693C151.64 27.9273 154.966 23.5996 161.415 23.5996C163.926 23.5996 166.03 24.4787 167.116 25.5606L165.216 28.7388C164.198 28.1302 163.179 27.5892 161.415 27.5892C158.496 27.5892 156.188 29.5502 156.188 33.2693C156.188 36.5827 158.496 38.9494 161.89 38.9494C163.247 38.9494 164.673 38.5437 165.962 37.597L167.592 40.7752Z" fill="#0D526E"/>
<path d="M183 40.7752C181.846 42.0599 179.47 42.939 176.891 42.939C171.121 42.939 167.048 39.0847 167.048 33.2693C167.048 27.9273 170.374 23.5996 176.823 23.5996C179.334 23.5996 181.439 24.4787 182.525 25.5606L180.624 28.7388C179.606 28.1302 178.588 27.5892 176.823 27.5892C173.904 27.5892 171.596 29.5502 171.596 33.2693C171.596 36.5827 173.904 38.9494 177.298 38.9494C178.656 38.9494 180.081 38.5437 181.371 37.597L183 40.7752Z" fill="#0D526E"/>
<path d="M55.9995 17.2432H56.8819C57.2213 16.8375 58.0359 15.0793 58.2395 11.6307L58.3074 10.0078H63.1267V17.2432H64.2128V19.6775H63.2625V18.1899H56.8819V19.6775H55.9316V17.2432H55.9995ZM57.968 17.2432H62.1086V10.9545H59.2577L59.1219 12.4421C58.9183 15.2146 58.2395 16.9051 57.968 17.2432Z" fill="#0D526E"/>
<path d="M66.9956 10.0078H71.6113V10.9545H68.0138V13.5917H71.2719V14.5384H68.0138V17.2432H71.7471V18.1899H66.9956V10.0078Z" fill="#0D526E"/>
<path d="M74.123 17.0405L74.6661 16.3643C75.2091 16.9729 76.0915 17.3786 76.7703 17.3786C77.8564 17.3786 78.603 16.8377 78.603 15.8234C78.603 15.0119 77.9921 14.471 76.9739 14.471H76.0236V13.5243H76.9061C77.5848 13.5243 78.2636 12.9833 78.2636 12.1719C78.2636 11.2928 77.6527 10.8195 76.7703 10.8195C75.9558 10.8195 75.4127 11.1576 74.9376 11.6985L74.3267 11.0223C74.8697 10.2785 75.82 9.80518 76.9061 9.80518C78.3315 9.80518 79.2818 10.6166 79.2818 11.969C79.2818 12.6452 78.8745 13.4567 78.1279 13.8624V13.93C79.146 14.1329 79.6212 14.9443 79.6212 15.8234C79.6212 17.311 78.3315 18.2577 76.8382 18.2577C75.5485 18.3253 74.5303 17.7167 74.123 17.0405Z" fill="#0D526E"/>
<path d="M82.8115 10.0078H83.8297V17.2432H88.2418V10.0078H89.26V17.2432H90.346V19.6775H89.3957V18.1899H82.8115V10.0078Z" fill="#0D526E"/>
<path d="M93.061 10.0078H97.6768V10.9545H94.0792V13.5917H97.3374V14.5384H94.0792V17.2432H97.8125V18.1899H93.061V10.0078Z" fill="#0D526E"/>
<path d="M106.433 14.4708H101.953V18.1899H100.935V10.0078H101.953V13.5241H106.433V10.0078H107.451V18.1899H106.433V14.4708Z" fill="#0D526E"/>
<path d="M109.963 10.0078H116.683V10.9545H113.832V18.1899H112.814V10.9545H109.963V10.0078Z" fill="#0D526E"/>
<path d="M119.194 18.1899V10.0078C119.669 10.0078 120.823 10.0078 121.366 10.0078C123.674 10.0078 124.421 11.2926 124.421 12.5098C124.421 13.8622 123.471 15.0793 121.502 15.0793C121.163 15.0793 120.688 15.0793 120.28 15.0117V18.1222H119.194V18.1899ZM120.213 10.9545V14.1326C120.62 14.2003 121.027 14.2003 121.434 14.2003C122.656 14.2003 123.335 13.5917 123.335 12.5774C123.335 11.6307 122.724 11.0221 121.434 11.0221C121.095 10.9545 120.552 10.9545 120.213 10.9545Z" fill="#0D526E"/>
</svg>
