<svg width="0" height="0" class="hidden">
  <symbol xmlns="http://www.w3.org/2000/svg" viewBox="0 0 68 68" id="ic_advantage1">
    <path d="M-0.000160079 56.8155C0.405418 55.9912 1.16301 55.8097 1.71398 56.3996C1.98182 56.6869 2.05834 57.0121 1.9206 57.3751C1.76755 57.7683 1.46145 57.9801 1.05587 58.0179C0.673253 58.0557 0.367156 57.8893 0.152888 57.5642C0.091669 57.4734 0.0457544 57.3675 -0.0078125 57.2692C-0.000160079 57.118 -0.000160079 56.9667 -0.000160079 56.8155Z" fill="currentColor"></path>
    <path d="M43.2056 26.6193C45.0805 27.7007 46.9094 28.7594 48.746 29.8182C50.2382 30.6803 51.7304 31.5499 53.2303 32.3969C53.4675 32.533 53.59 32.6994 53.6588 32.9716C54.7225 37.4334 55.8015 41.8876 56.8958 46.4249C57.5003 46.3342 58.0972 46.2586 58.6865 46.1451C60.1787 45.8502 61.5714 45.3284 62.7346 44.3226C63.8365 43.3698 64.4487 42.1598 64.6554 40.7381C65.015 38.2274 64.4105 35.9134 63.0943 33.7732C62.4362 32.6994 61.6633 31.6936 60.9516 30.65C60.7832 30.408 60.5996 30.3853 60.3394 30.4534C59.8114 30.5971 59.2757 30.7105 58.7477 30.8391C57.0029 31.2626 55.3577 30.3248 54.9215 28.6006C54.1639 25.606 53.4446 22.5962 52.7099 19.594C52.3962 18.3084 52.0595 17.0379 51.784 15.7448C51.4396 14.1491 52.3962 12.5989 53.9879 12.1905C56.054 11.6611 58.1278 11.162 60.2093 10.6932C61.9694 10.2999 63.5381 11.2982 63.9666 13.045C64.9997 17.2572 66.0328 21.4619 67.0506 25.674C67.4638 27.3907 66.4078 29.0317 64.663 29.4249C64.0738 29.5611 63.4845 29.7047 62.8417 29.856C62.9718 30.0299 63.0713 30.166 63.1708 30.3022C64.5482 32.17 65.7726 34.1287 66.3465 36.4049C66.8899 38.5677 66.9434 40.7381 66.117 42.8631C65.2293 45.1393 63.4922 46.5459 61.2577 47.4231C60.1404 47.8618 58.9849 48.1416 57.7911 48.2701C57.6534 48.2852 57.5233 48.3231 57.3014 48.376C57.4544 48.7692 57.5463 49.1776 57.7529 49.5028C60.4771 53.7377 63.2244 57.965 65.9486 62.1998C67.3337 64.3475 66.2777 67.4103 63.3391 67.9396C61.6862 68.2345 60.3164 67.5086 59.4747 66.1927C57.1713 62.5855 54.845 58.9934 52.5263 55.3938C51.7534 54.1914 50.9346 53.0192 50.2229 51.7866C49.8785 51.1892 49.6719 50.4934 49.5036 49.8128C48.9373 47.582 48.4169 45.3435 47.8659 43.0522C47.4527 43.3773 47.0701 43.6723 46.6951 43.9823C44.3994 45.8426 42.1113 47.7105 39.8079 49.5633C39.609 49.7221 39.5018 49.8885 39.4942 50.1607C39.4636 52.6562 39.4253 55.1518 39.3871 57.6398C39.3488 60.0295 39.3488 62.4267 39.257 64.8164C39.2034 66.17 38.2545 67.5161 36.4638 67.8942C34.7497 68.2572 33.1809 67.6296 32.2627 66.2003C31.8877 65.6104 31.727 64.9525 31.7346 64.2568C31.7576 59.9236 31.7729 55.5904 31.8112 51.2572C31.8188 50.1153 31.8571 48.9659 31.9642 47.8315C32.0331 47.1207 32.4157 46.5157 32.959 46.009C36.1807 43.0295 39.3871 40.0424 42.6087 37.0704C42.8153 36.8813 42.8613 36.6998 42.8 36.4427C42.3638 34.4917 41.9353 32.5406 41.5068 30.5895C41.4762 30.461 41.4685 30.3097 41.5144 30.1963C42.0807 29.0166 42.6393 27.8444 43.2056 26.6193Z" fill="currentColor"></path>
    <path d="M53.0542 30.5137C49.9703 28.7366 46.9399 26.9821 43.879 25.2201C44.1621 24.6152 44.4376 24.0329 44.6978 23.4506C44.912 22.959 44.6748 22.4902 44.1621 22.3616C43.8024 22.2708 43.4504 22.4599 43.2515 22.8834C42.7081 24.0329 42.1725 25.1899 41.6291 26.3394C41.0782 27.5115 40.5195 28.6837 39.9686 29.8558C39.6931 30.4457 39.2416 30.8313 38.6217 31.0582C35.3848 32.2531 32.1554 33.4706 28.9185 34.673C27.4492 35.2175 25.8498 34.4688 25.4519 33.0547C25.1382 31.9506 25.8575 30.5742 26.9441 30.1886C29.722 29.213 32.4998 28.2299 35.2776 27.2544C35.5072 27.1712 35.6449 27.0578 35.7368 26.8158C36.9765 23.4354 38.1855 20.0475 39.4788 16.6899C40.2823 14.6103 42.4709 12.7953 45.0192 12.8709C46.6109 12.9163 47.774 13.7255 48.7 14.9354C49.4499 15.9185 49.8402 17.0529 50.1157 18.2402C51.0263 22.1196 51.9676 25.9915 52.8935 29.8634C52.9547 30.0676 52.993 30.2566 53.0542 30.5137Z" fill="currentColor"></path>
    <path d="M25.5972 7.11613C25.5972 6.53383 25.5972 5.97422 25.5972 5.35412C26.6149 5.35412 27.6098 5.35412 28.6122 5.35412C29.5994 5.35412 30.5865 5.35412 31.6196 5.35412C31.8339 3.27449 32.7981 1.67885 34.6653 0.665503C35.8514 0.0227092 37.1294 -0.151223 38.4379 0.121019C40.9173 0.635254 43.4273 2.70732 42.9835 7.10856C37.1982 7.11613 31.4054 7.11613 25.5972 7.11613Z" fill="currentColor"></path>
    <path d="M38.3312 18.3537C32.4158 18.694 28.031 14.0961 27.8091 8.57568C32.852 8.57568 37.895 8.57568 42.9379 8.57568C42.9991 10.8822 41.1932 13.1584 38.8515 13.6953C38.4306 13.7937 38.3465 13.9525 38.3541 14.3381C38.3771 15.6237 38.3618 16.9018 38.3618 18.1873C38.3694 18.2327 38.3465 18.2856 38.3312 18.3537ZM29.7758 10.2545C30.6175 14.0583 33.9769 16.4556 36.6247 16.5539C36.6247 14.4591 36.6247 12.3644 36.6247 10.2545C34.3366 10.2545 32.0715 10.2545 29.7758 10.2545Z" fill="currentColor"></path>
    <path d="M10.7822 52.0437C10.8894 51.8093 10.9582 51.5446 11.1036 51.3404C14.9375 45.9485 18.7867 40.5642 22.6282 35.1798C22.7812 34.9605 22.9343 34.7488 23.095 34.537C23.5006 34.0228 24.151 33.9094 24.6484 34.2648C25.1611 34.6278 25.2836 35.2857 24.9009 35.8377C24.35 36.6393 23.776 37.4258 23.2098 38.2199C20.1258 42.5455 17.0343 46.8862 13.935 51.227C13.5677 51.7412 13.208 52.263 12.8254 52.7621C12.527 53.1554 12.0066 53.2839 11.5551 53.1175C11.096 52.936 10.8205 52.5428 10.7822 52.0437Z" fill="currentColor"></path>
    <path d="M58.9467 5.91382C59.2222 7.03304 59.4823 8.09932 59.7502 9.20341C58.6865 9.45296 57.6534 9.69496 56.6203 9.94451C55.5949 10.1865 54.5771 10.4361 53.5364 10.6856C53.2686 9.59665 53.0084 8.5228 52.7329 7.40359C54.7914 6.90448 56.8423 6.41293 58.9467 5.91382Z" fill="currentColor"></path>
    <path d="M11.4023 54.6829C11.3947 55.2274 10.9432 55.666 10.3999 55.6584C9.86418 55.6584 9.40504 55.1896 9.41269 54.6602C9.42034 54.1384 9.86418 53.7074 10.3999 53.7149C10.9508 53.7149 11.41 54.1536 11.4023 54.6829Z" fill="currentColor"></path>
    <path d="M10.5756 56.9591C11.1419 56.9666 11.5704 57.3826 11.5704 57.9346C11.5704 58.4791 11.1113 58.9253 10.5756 58.9101C10.0323 58.895 9.58078 58.4337 9.59608 57.9044C9.60373 57.3826 10.0552 56.9515 10.5756 56.9591Z" fill="currentColor"></path>
    <path d="M4.18588 55.2123C4.73686 55.2198 5.16539 55.6736 5.15009 56.218C5.13478 56.7323 4.66798 57.1785 4.15527 57.1709C3.6196 57.1558 3.1375 56.6718 3.16046 56.1727C3.18341 55.6282 3.64256 55.2047 4.18588 55.2123Z" fill="currentColor"></path>
    <path d="M9.77988 61.1485C9.78754 60.6192 10.2237 60.2032 10.7594 60.2108C11.3027 60.2184 11.7772 60.6797 11.7619 61.1939C11.7466 61.7308 11.2568 62.177 10.6982 62.1694C10.2084 62.1543 9.77223 61.6779 9.77988 61.1485Z" fill="currentColor"></path>
    <path d="M6.02248 61.5873C5.4715 61.5873 5.04297 61.1487 5.04297 60.5966C5.04297 60.0748 5.48681 59.6438 6.02248 59.6438C6.5658 59.6438 7.02495 60.0824 7.02495 60.6269C7.0326 61.1563 6.58876 61.5873 6.02248 61.5873Z" fill="currentColor"></path>
    <path d="M3.19883 63.2886C3.19883 62.7517 3.65032 62.3282 4.2166 62.3358C4.74462 62.3434 5.18081 62.782 5.18081 63.3113C5.17315 63.8407 4.70636 64.302 4.17834 64.2944C3.63502 64.2869 3.19118 63.8331 3.19883 63.2886Z" fill="currentColor"></path>
    <path d="M8.8766 57.927C8.8766 58.4714 8.43276 58.9101 7.88944 58.9101C7.36142 58.9101 6.88697 58.4412 6.89462 57.9194C6.90227 57.39 7.36142 56.9666 7.92005 56.9666C8.45572 56.9666 8.8766 57.39 8.8766 57.927Z" fill="currentColor"></path>
    <path d="M7.34647 56.3163C6.8108 56.3239 6.344 55.8701 6.35166 55.3332C6.35166 54.8038 6.78784 54.3652 7.30821 54.3577C7.85918 54.3577 8.31833 54.7887 8.33363 55.3181C8.34894 55.8474 7.88979 56.3087 7.34647 56.3163Z" fill="currentColor"></path>
    <path d="M10.9124 63.4551C11.471 63.4551 11.9225 63.8861 11.9302 64.4155C11.9378 64.9524 11.4863 65.391 10.9277 65.391C10.3691 65.391 9.93288 64.9524 9.94053 64.4079C9.95583 63.8786 10.3844 63.4551 10.9124 63.4551Z" fill="currentColor"></path>
  </symbol>
  <symbol xmlns="http://www.w3.org/2000/svg" viewBox="0 0 64 68" id="ic_advantage2">
    <path d="M38.4591 0C38.8784 0.279032 39.3256 0.511558 39.6889 0.837095C39.9125 1.04172 40.0523 1.37656 40.1175 1.68349C40.3132 2.57639 40.4436 3.47859 40.6206 4.37149C40.6486 4.51101 40.8069 4.66913 40.9467 4.73424C41.9342 5.16208 42.9498 5.56203 43.9373 5.99918C44.1609 6.10149 44.2914 6.1387 44.5056 5.98058C45.1392 5.50622 45.7913 5.06907 46.4435 4.62262C47.459 3.93435 48.4745 3.94365 49.3783 4.73424C50.0677 5.3295 50.7012 5.98988 51.3161 6.67816C51.959 7.40364 51.9962 8.60347 51.4466 9.40336C50.9807 10.0916 50.5056 10.7892 50.0118 11.4589C49.8441 11.6821 49.8814 11.8309 49.9838 12.0728C50.4031 13.068 50.7851 14.0818 51.195 15.077C51.2416 15.1979 51.4093 15.3281 51.5304 15.356C52.4155 15.5328 53.3006 15.6816 54.1856 15.8304C55.1359 15.9885 55.8813 16.9279 55.9279 18.0719C55.9558 18.8346 55.9558 19.588 55.9279 20.3507C55.8813 21.6156 55.0987 22.4341 53.8409 22.6109C53.0397 22.7225 52.2478 22.8713 51.4652 23.0294C51.3348 23.0573 51.1857 23.2061 51.1298 23.327C50.6826 24.4246 50.2633 25.5407 49.8068 26.7219C50.2633 27.373 50.7944 28.1171 51.2975 28.8705C51.9962 29.9215 52.0056 30.8144 51.195 31.7538C50.5522 32.4979 49.8161 33.1769 49.0708 33.8186C48.4093 34.386 47.2634 34.3767 46.546 33.8651C45.8379 33.3629 45.1578 32.8234 44.4497 32.3212C44.3473 32.2467 44.133 32.2188 44.0119 32.2747C42.987 32.6746 41.9808 33.1118 40.9653 33.5024C40.7417 33.5954 40.6206 33.6791 40.5833 33.9395C40.4436 34.8231 40.2852 35.7067 40.1082 36.5903C39.9312 37.4739 39.0368 38.2087 38.0865 38.2273C37.2014 38.2459 36.3163 38.2459 35.4312 38.2273C34.3878 38.2087 33.5586 37.4553 33.3816 36.4229C33.2418 35.5858 33.1021 34.7487 32.9344 33.9116C32.9064 33.7721 32.7573 33.5954 32.6176 33.5396C31.5834 33.0931 30.54 32.6653 29.4872 32.2561C29.3754 32.2095 29.1891 32.2467 29.0773 32.3119C28.276 32.842 27.4934 33.3908 26.6922 33.9209C26.0028 34.386 24.8382 34.2651 24.1022 33.5954C23.4314 32.9815 22.7885 32.3305 22.1829 31.6515C21.5028 30.8888 21.4656 29.7541 22.0339 28.9077C22.4997 28.2194 22.9749 27.5311 23.4686 26.8521C23.5991 26.6661 23.6084 26.5452 23.5152 26.322C23.0867 25.3175 22.7047 24.285 22.2854 23.2712C22.2295 23.1503 22.0805 23.0108 21.95 22.9829C21.1022 22.8155 20.2451 22.6574 19.3879 22.5271C18.3911 22.3783 17.6178 21.5877 17.5805 20.5832C17.5432 19.6531 17.5432 18.723 17.5712 17.7929C17.6085 16.7791 18.419 15.9606 19.4066 15.8211C20.2823 15.6909 21.1488 15.5235 22.0152 15.356C22.127 15.3374 22.2482 15.1793 22.2947 15.0584C22.714 14.0446 23.1239 13.0308 23.5152 12.0077C23.5711 11.8681 23.5618 11.6449 23.4873 11.5333C23.0401 10.845 22.5649 10.1754 22.0991 9.50568C21.4376 8.55697 21.4376 7.50595 22.2109 6.65955C22.8817 5.91547 23.6177 5.21789 24.3817 4.55752C25.0059 4.01805 26.1798 4.03666 26.8692 4.51101C27.5959 5.01327 28.3133 5.52483 29.04 6.01778C29.1425 6.08289 29.3288 6.12009 29.4406 6.07359C30.5027 5.65504 31.5648 5.22719 32.6176 4.79004C32.7294 4.74354 32.8505 4.59472 32.8691 4.47381C33.0462 3.59021 33.1859 2.70661 33.3536 1.83231C33.484 1.13473 33.866 0.623171 34.4996 0.288333C34.6766 0.195322 34.8443 0.111613 35.012 0.0186021C36.1579 0 37.3132 0 38.4591 0ZM43.3317 19.1974C43.2852 15.4304 40.3225 12.5285 36.5772 12.575C33.1114 12.6215 30.1394 15.6444 30.1487 19.0486C30.158 22.8062 33.0741 25.7081 36.7449 25.736C40.3597 25.7639 43.3783 22.7225 43.3317 19.1974Z" fill="currentColor"></path>
    <path d="M13.7607 68.0001C9.15827 63.517 4.60243 59.0804 0 54.5973C0.316766 54.2624 0.605583 53.9555 0.903716 53.6579C3.44716 51.1373 5.99061 48.626 8.53406 46.1147C9.74522 44.9149 10.9378 43.7057 12.4005 42.7942C14.3383 41.5944 16.4253 40.8503 18.6892 40.562C20.4873 40.3387 22.2575 40.4411 23.9997 40.8596C25.1084 41.1293 26.1798 41.5665 27.2699 41.9106C27.5121 41.985 27.7823 42.0222 28.0431 42.0222C32.2543 42.0315 36.4561 42.0315 40.6672 42.0222C42.0461 42.0222 43.192 42.4873 44.1144 43.5476C45.5212 45.1567 45.3628 47.7796 43.779 49.2212C42.8566 50.0583 41.7945 50.4397 40.5647 50.4304C37.984 50.4211 35.4126 50.4211 32.8319 50.4304C31.7698 50.4304 31.1083 51.1838 31.1642 52.2255C31.2015 52.8859 31.9095 53.6206 32.7574 53.6113C34.2946 53.5834 35.8319 53.6206 37.3691 53.602C38.8877 53.5834 40.425 53.6579 41.925 53.4811C44.2355 53.2114 46.015 51.9651 47.2727 50.0025C47.9435 48.9608 48.3441 47.8168 48.3907 46.5611C48.4 46.4216 48.4839 46.2635 48.577 46.1612C50.487 44.0127 52.4155 41.8641 54.3347 39.7249C54.9124 39.0831 55.4621 38.4134 56.0863 37.8089C57.3068 36.6276 58.7695 36.2091 60.4465 36.6276C63.0831 37.2973 64.0241 39.9667 63.2787 42.2083C63.0551 42.8965 62.5427 43.529 62.0582 44.1057C61.0334 45.3427 59.9527 46.5332 58.8906 47.7517C57.698 49.1189 56.5055 50.4769 55.313 51.8441C54.1111 53.2207 52.9093 54.588 51.7074 55.9645C50.487 57.3597 49.2572 58.7548 48.046 60.1593C47.2448 61.0894 46.3783 61.9451 45.3255 62.5869C43.6951 63.5542 41.9436 64.0843 40.0337 64.0843C32.8412 64.0843 25.6581 64.1029 18.4656 64.0564C17.711 64.0564 17.2824 64.3541 16.8259 64.8377C15.829 65.898 14.8135 66.9212 13.7607 68.0001Z" fill="currentColor"></path>
  </symbol>
  <symbol xmlns="http://www.w3.org/2000/svg" viewBox="0 0 65 68" id="ic_advantage3">
    <path d="M38.4625 0C40.4388 2.06125 42.415 4.1225 44.4338 6.1625C46.3888 8.16 48.4288 10.0938 50.3625 12.1125C50.7238 12.495 50.9575 13.1325 51 13.6638C51.085 15.2575 51 16.8513 51.0425 18.445C51.0425 19.0188 50.8512 19.3588 50.405 19.7625C49.5975 20.4638 48.8963 21.335 48.2375 22.185C47.7488 22.8438 47.3875 23.6088 46.7925 24.2888C46.7925 21.2075 46.7925 18.1262 46.7925 14.8962C45.2412 14.8962 43.8175 14.8962 42.3725 14.8962C41.3525 14.8962 40.3112 14.8962 39.2912 14.8962C37.2725 14.875 36.1463 13.7488 36.1463 11.73C36.1463 9.28625 36.1463 6.86375 36.1463 4.335C25.5213 4.335 14.96 4.335 4.335 4.335C4.335 21.9937 4.335 39.61 4.335 57.375C14.9175 57.375 25.5 57.375 36.2313 57.375C36.0187 58.7988 35.87 60.0525 35.615 61.285C35.5725 61.4975 34.9563 61.6887 34.595 61.6887C28.22 61.71 21.845 61.6888 15.47 61.6675C12.07 61.6675 8.67 61.5612 5.27 61.6887C2.5925 61.7738 0.85 60.775 0 58.225C0 39.95 0 21.675 0 3.4C0.53125 1.76375 1.63625 0.68 3.1875 0C14.9388 0 26.7113 0 38.4625 0Z" fill="currentColor"></path>
    <path d="M38.4627 68.0001C37.6552 67.4688 37.5702 66.8526 38.0589 66.0238C38.2927 65.6413 38.4414 65.1101 38.3989 64.6638C38.1227 61.5401 38.6752 58.5438 40.0989 55.8238C42.9039 50.5113 45.9427 45.3263 48.8964 40.0988C48.9602 39.9713 49.0664 39.8863 49.1939 39.7163C51.6377 41.1613 54.0602 42.5851 56.5252 44.0513C53.7627 48.9601 51.0002 53.7626 48.3439 58.6288C47.1752 60.7751 45.6664 62.6238 43.7327 64.1113C42.7977 64.8338 41.6502 65.3226 40.7364 66.0663C40.0777 66.5976 39.6314 67.3626 39.1002 68.0213C38.8877 68.0001 38.6752 68.0001 38.4627 68.0001Z" fill="currentColor"></path>
    <path d="M64.8126 29.3251C62.4538 33.4901 60.1163 37.6763 57.7151 41.9051C55.2288 40.4388 52.8063 38.9938 50.3413 37.5276C52.6151 33.4901 54.8038 29.4951 57.1201 25.5638C58.4163 23.3751 61.9013 23.4176 63.6226 25.5426C64.1113 26.1588 64.4301 26.9238 64.8126 27.6251C64.8126 28.1988 64.8126 28.7513 64.8126 29.3251Z" fill="currentColor"></path>
    <path d="M21.3138 42.5212C17.8713 42.5212 14.4501 42.5212 11.0076 42.5212C9.45634 42.5212 8.50009 41.6925 8.52134 40.3962C8.54259 39.1212 9.52009 38.2712 11.0501 38.2712C17.8713 38.2712 24.7138 38.2712 31.5351 38.2712C33.0651 38.2712 34.0213 39.1212 34.0001 40.4175C34.0001 41.735 33.0651 42.5212 31.4926 42.5212C28.1138 42.5212 24.7138 42.5212 21.3138 42.5212Z" fill="currentColor"></path>
    <path d="M21.271 51.0213C17.871 51.0213 14.471 51.0213 11.071 51.0213C9.49854 51.0213 8.54229 50.235 8.49979 48.96C8.45729 47.6637 9.49854 46.75 11.0498 46.75C17.871 46.75 24.7135 46.75 31.5348 46.75C32.7885 46.75 33.6598 47.3237 33.8935 48.3225C34.1273 49.2787 33.8935 50.1288 33.0435 50.6388C32.6185 50.8938 32.0448 51 31.5348 51C28.1348 51.0425 24.7135 51.0213 21.271 51.0213Z" fill="currentColor"></path>
    <path d="M21.1438 25.5212C17.7863 25.5212 14.4075 25.5212 11.05 25.5212C9.49875 25.5212 8.52125 24.7138 8.5 23.4388C8.5 22.1213 9.49875 21.25 11.0925 21.25C17.8925 21.25 24.6925 21.25 31.4925 21.25C33.0438 21.25 34 22.0363 34.0213 23.3538C34.0425 24.7138 33.1075 25.5 31.45 25.5C28.0075 25.5213 24.5863 25.5212 21.1438 25.5212Z" fill="currentColor"></path>
    <path d="M21.2926 34.0212C17.8501 34.0212 14.4288 34.0212 10.9863 34.0212C9.45634 34.0212 8.50009 33.1712 8.52134 31.875C8.54259 30.6425 9.52009 29.7712 10.9651 29.7712C17.8288 29.7712 24.6926 29.7712 31.5776 29.7712C33.1076 29.7712 34.0638 30.6212 34.0426 31.9387C34.0213 33.2137 33.1076 34.0212 31.6201 34.0212C28.1563 34.0212 24.7138 34.0212 21.2926 34.0212Z" fill="currentColor"></path>
    <path d="M21.2711 17.0212C17.8711 17.0212 14.4711 17.0212 11.0711 17.0212C9.47734 17.0212 8.47859 16.15 8.49984 14.8537C8.54234 13.5787 9.51984 12.7712 11.0498 12.7712C17.8498 12.7712 24.6498 12.7712 31.4498 12.7712C33.0861 12.7712 34.0211 13.5787 33.9998 14.96C33.9786 16.2562 33.0436 17.0425 31.4711 17.0425C28.0711 17.0212 24.6711 17.0212 21.2711 17.0212Z" fill="currentColor"></path>
    <path d="M54.2299 25.3513C54.1661 25.5213 54.0386 25.9463 53.8474 26.3076C51.7436 30.0688 49.6399 33.8088 47.5149 37.5701C46.8349 38.7813 45.8999 39.1426 44.9011 38.6326C43.8811 38.1013 43.6261 36.9751 44.2849 35.7851C46.4099 31.9601 48.5774 28.1563 50.7236 24.3526C51.2124 23.5026 51.8711 22.9926 52.8911 23.3113C53.8049 23.5451 54.2511 24.1826 54.2299 25.3513Z" fill="currentColor"></path>
  </symbol>
  <symbol xmlns="http://www.w3.org/2000/svg" viewBox="0 0 58 68" id="ic_advantage4">
    <path d="M52.0478 62.7518C51.9461 62.7518 51.8797 62.7518 51.8089 62.7518C50.3176 62.7518 48.8308 62.7518 47.3396 62.7518C47.1183 62.7518 46.8971 62.743 46.6802 62.7164C45.8174 62.6235 45.1846 62.9509 44.658 63.6501C43.5606 65.1104 42.41 66.5264 41.2507 67.9955C39.432 64.1147 37.631 60.2693 35.8211 56.4018C35.6839 56.5169 35.5733 56.6187 35.4538 56.7116C34.5556 57.4107 33.675 57.486 32.697 56.8974C32.1483 56.5656 31.6394 56.1762 31.1084 55.8133C30.5907 55.4593 30.0508 55.1451 29.4313 54.9991C28.4357 54.769 27.533 55.0168 26.6966 55.5434C25.993 55.9859 25.3072 56.4638 24.6036 56.9107C24.2363 57.1452 23.8336 57.3178 23.3823 57.3045C22.9707 57.2913 22.6167 57.1143 22.2671 56.9196C22.0193 56.778 21.776 56.6231 21.5149 56.4594C19.7272 60.287 17.9439 64.1014 16.1473 67.9557C15.8287 67.5751 15.5278 67.2255 15.2401 66.8671C14.2755 65.6502 13.3197 64.4245 12.3506 63.212C12.0851 62.8801 11.7311 62.6987 11.293 62.7075C9.77518 62.7429 8.25738 62.7783 6.74401 62.8093C6.27495 62.8182 5.80147 62.8093 5.29701 62.8093C5.39879 62.535 5.48729 62.2518 5.61119 61.9863C6.91659 59.1719 8.23083 56.362 9.54065 53.5477C9.91678 52.7379 10.3106 51.9414 10.6823 51.1271C11.1071 50.1935 11.2222 49.2332 10.8239 48.2597C10.3726 47.1579 9.48755 46.5649 8.37686 46.2905C7.5184 46.0781 6.63781 45.941 5.77492 45.7463C4.6421 45.4896 4.00932 44.6665 4.09339 43.5249C4.13322 42.985 4.27925 42.4584 4.36775 41.923C4.46953 41.3168 4.61998 40.7105 4.64653 40.0999C4.70405 38.7812 4.08897 37.79 3.00483 37.0687C2.33664 36.6218 1.65961 36.1925 1.00912 35.7235C-0.0838686 34.958 -0.296272 33.834 0.411739 32.7144C0.911772 31.9224 1.43835 31.1524 1.93839 30.3603C2.24372 29.8735 2.41187 29.3337 2.43399 28.754C2.46055 28.0548 2.24372 27.4176 1.86759 26.838C1.39853 26.1078 0.916197 25.3821 0.442714 24.652C0.199336 24.2758 0.0267581 23.8687 0.00463281 23.4174C-0.0307677 22.612 0.389614 22.0456 1.0047 21.6075C1.66403 21.1385 2.34549 20.696 3.01368 20.2402C3.67744 19.7844 4.20845 19.218 4.47838 18.4392C4.72175 17.74 4.67308 17.0364 4.54033 16.3284C4.38987 15.5496 4.1996 14.7796 4.09339 13.9964C3.94294 12.8901 4.4297 11.8945 5.81917 11.5715C6.64223 11.3812 7.46972 11.2263 8.29278 11.0405C9.93006 10.6732 10.8151 9.61117 11.116 8.00044C11.262 7.22163 11.4169 6.4384 11.6072 5.67286C11.8992 4.51792 12.886 3.90726 14.0586 4.11966C14.9879 4.28781 15.9172 4.47367 16.8509 4.61969C18.112 4.8144 19.1563 4.37632 19.9351 3.39395C20.5192 2.65496 21.0149 1.8496 21.5547 1.07522C21.8822 0.606158 22.276 0.212328 22.8513 0.0663004C23.4929 -0.097427 24.077 0.0840007 24.6124 0.429156C25.316 0.876088 26.0108 1.33629 26.7055 1.7965C27.2365 2.14608 27.8118 2.38061 28.449 2.43371C29.1702 2.49124 29.8384 2.29211 30.4402 1.91155C31.1748 1.44692 31.8917 0.955739 32.6174 0.477832C32.9847 0.234453 33.3741 0.0530252 33.821 0.0176247C34.6042 -0.0531764 35.1972 0.287554 35.6353 0.884938C36.0999 1.51772 36.5336 2.17706 36.9628 2.83639C37.4982 3.66388 38.1797 4.28339 39.1532 4.54447C39.8258 4.72147 40.4896 4.64182 41.1578 4.50907C41.9277 4.35419 42.6977 4.19931 43.4721 4.09311C44.627 3.93381 45.5297 4.63297 45.7864 5.84544C45.9634 6.67735 46.1183 7.51369 46.3085 8.34118C46.6581 9.8634 47.6449 10.744 49.1494 11.0759C49.9327 11.2484 50.7159 11.3989 51.4947 11.5759C52.3266 11.7618 52.9506 12.1954 53.1939 13.0627C53.3267 13.5318 53.2515 13.992 53.1585 14.4566C52.9992 15.2708 52.8001 16.0806 52.7028 16.8993C52.5435 18.2754 53.0612 19.3773 54.2073 20.1694C54.9463 20.6827 55.703 21.1694 56.4287 21.7005C57.0039 22.1208 57.3579 22.6872 57.3314 23.4307C57.3137 23.913 57.1234 24.3422 56.8579 24.7405C56.4021 25.4219 55.9375 26.0945 55.495 26.7804C55.1498 27.3159 54.9507 27.9044 54.9197 28.5416C54.8843 29.2717 55.1056 29.9399 55.495 30.5462C55.9463 31.2453 56.411 31.9356 56.8756 32.6304C57.1323 33.0153 57.3181 33.4313 57.3358 33.9004C57.3668 34.7146 56.9552 35.3075 56.3225 35.7545C55.6676 36.2191 54.9861 36.6395 54.3223 37.0908C53.5347 37.6263 52.9683 38.3299 52.7603 39.2812C52.6098 39.9804 52.6983 40.6707 52.8444 41.3566C52.9904 42.0381 53.1585 42.7151 53.2559 43.4054C53.4152 44.5426 52.7426 45.4985 51.6186 45.7507C50.7956 45.9365 49.9681 46.0914 49.1406 46.2419C47.6316 46.5118 46.3926 47.7862 46.1935 49.3129C46.1448 49.6846 46.1758 50.0563 46.3439 50.4103C47.5962 53.083 48.8397 55.7558 50.0831 58.4329C50.6805 59.7162 51.2735 61.0039 51.862 62.2916C51.9372 62.4332 51.9815 62.5792 52.0478 62.7518ZM48.0874 28.8779C48.1272 18.0453 39.5603 9.32796 28.8384 9.23504C18.258 9.14211 9.3725 17.6294 9.22647 28.4487C9.07602 39.4494 18.0102 47.9853 28.5729 48.1225C39.3037 48.2597 48.1582 39.2326 48.0874 28.8779Z" fill="currentColor"></path>
    <path d="M28.8162 45.8171C19.4085 45.8746 11.3948 38.3918 11.5275 28.4354C11.6514 19.01 19.3023 11.5272 28.6481 11.5139C37.9673 11.5007 45.9014 19.0631 45.8262 28.7186C45.751 38.352 38.0115 45.8702 28.8162 45.8171ZM20.3334 29.6656C20.3644 30.1302 20.6387 30.4267 20.9175 30.7099C22.0016 31.8073 23.0902 32.8959 24.1876 33.98C24.5947 34.3871 25.0195 34.7721 25.5505 35.0243C25.7718 35.1261 25.9798 35.25 26.1877 35.3739C26.3117 35.4491 26.4179 35.4624 26.555 35.3916C26.8073 35.2588 27.0816 35.1571 27.3294 35.0199C27.5595 34.8916 27.7985 34.7632 27.9888 34.5862C28.6614 33.949 29.3207 33.2897 29.98 32.6348C32.0288 30.5948 34.0732 28.5504 36.1176 26.5105C36.2592 26.3689 36.3964 26.2273 36.5247 26.0768C36.8256 25.7228 36.923 25.267 36.7061 24.9529C36.4583 24.59 36.1928 24.2271 35.8742 23.9307C35.4627 23.5457 34.852 23.3952 34.2989 23.8953C33.9714 24.1917 33.644 24.4882 33.3298 24.8024C31.4447 26.6831 29.5641 28.5681 27.679 30.4488C27.4533 30.67 27.2188 30.8869 26.971 31.0816C26.5639 31.4002 26.2763 31.4002 25.8514 31.0904C25.7098 30.9887 25.5727 30.8736 25.4443 30.7497C24.6788 29.993 23.9177 29.2319 23.1522 28.4752C23.0017 28.3248 22.8335 28.1876 22.661 28.0637C22.2937 27.8026 21.9176 27.8159 21.5459 28.0637C21.1564 28.3248 20.8157 28.6434 20.5723 29.046C20.4661 29.2319 20.413 29.4576 20.3334 29.6656Z" fill="currentColor"></path>
  </symbol>
  <symbol xmlns="http://www.w3.org/2000/svg" viewBox="0 0 13 22" id="ic_arr_hor">
    <path d="M12 1L2 10.4118L12 21" stroke="currentColor" stroke-width="2" fill="none"></path>
  </symbol>
  <symbol xmlns="http://www.w3.org/2000/svg" viewBox="0 0 24 24" id="ic_category1">
    <path d="M24.0001 12.3138C23.9721 12.6497 23.9441 12.9895 23.9201 13.3253C23.8081 14.7406 23.3682 16.056 22.7603 17.3273C22.4204 18.031 22.0124 18.7026 21.5125 19.2984C20.5887 20.4018 19.5928 21.4333 18.345 22.1969C16.8773 23.0965 15.2975 23.6482 13.6058 23.8881C12.0381 24.1079 10.4943 24.016 8.9586 23.5882C7.92277 23.3004 6.93094 22.9325 6.00709 22.4008C5.45519 22.081 4.93527 21.7011 4.44335 21.2974C3.93944 20.8856 3.46752 20.4298 3.01559 19.958C2.18773 19.0945 1.58783 18.071 1.08391 16.9915C0.200062 15.0885 -0.127884 13.0895 0.0440877 11.0145C0.26805 8.28786 1.30388 5.90905 3.16757 3.89805C5.10724 1.8031 7.48685 0.53973 10.3144 0.135932C10.6383 0.087956 10.9623 0.071964 11.2862 0.03998C11.3662 0.031984 11.4422 0.011994 11.5182 0C11.8781 0 12.2381 0 12.598 0C12.9619 0.03998 13.3259 0.071964 13.6858 0.123938C15.5015 0.383808 17.1732 1.0075 18.665 2.08696C19.1929 2.47076 19.7288 2.84658 20.2127 3.27836C20.9206 3.91004 21.5045 4.65367 22.0324 5.44528C22.9643 6.84058 23.5402 8.37181 23.8281 10.015C23.9001 10.4188 23.9361 10.8306 23.9921 11.2384C24.0001 11.5942 24.0001 11.954 24.0001 12.3138ZM19.6768 4.47776C14.6137 9.56322 9.5825 14.6167 4.53934 19.6782C6.95494 21.965 9.85045 23.0685 13.1899 22.6487C17.5852 22.093 20.5527 19.6262 22.1524 15.5002C23.4202 11.3743 22.5763 7.72414 19.6768 4.47776ZM3.69548 18.7706C4.1674 18.2749 4.62332 17.7991 5.07125 17.3193C5.10724 17.2794 5.12724 17.1994 5.11924 17.1434C4.91928 15.976 4.69131 14.8126 4.51934 13.6452C4.27538 12.002 4.11141 10.3548 4.28738 8.69165C4.39536 7.67216 4.61533 6.68466 5.07525 5.75712C6.07108 3.74613 8.57067 3.32634 10.1704 4.90555C10.7423 5.46926 11.1222 6.14893 11.3902 6.89655C11.4902 7.18041 11.5782 7.47226 11.6701 7.75612C11.7501 7.74413 11.8221 7.71614 11.8781 7.73213C12.0861 7.7961 12.1261 7.68816 12.1781 7.51624C12.426 6.68466 12.75 5.89305 13.3099 5.2014C14.3137 3.96602 16.1454 3.50625 17.4812 4.41379C17.5452 4.45777 17.6172 4.50575 17.6891 4.52974C17.7411 4.54573 17.8251 4.54573 17.8571 4.51374C18.1411 4.23388 18.417 3.94603 18.701 3.65417C18.661 3.61819 18.633 3.5902 18.605 3.56222C17.6452 2.7906 16.5773 2.21489 15.4095 1.83108C12.842 0.991504 10.3104 1.12344 7.81479 2.13493C7.08291 2.43078 6.37503 2.77061 5.77113 3.29035C5.28322 3.71014 4.81129 4.15792 4.33537 4.5937C4.13141 4.78161 3.90344 4.95752 3.73147 5.17341C2.3957 6.84458 1.54384 8.71164 1.34387 10.8666C1.1839 12.5657 1.34787 14.2129 1.96777 15.8121C2.3717 16.8596 2.91161 17.8311 3.69548 18.7706ZM9.39053 10.4028C9.5825 9.81109 10.0024 9.50725 10.4344 9.21139C10.5343 9.14343 10.6223 9.04348 10.6743 8.93553C10.8383 8.61569 10.9783 8.28386 11.2582 8.03598C11.2942 8.004 11.2982 7.91604 11.2862 7.86007C11.1142 7.02049 10.7983 6.24488 10.2704 5.56122C9.72647 4.85357 9.03859 4.3978 8.12674 4.32184C7.1789 4.24188 6.40303 4.56572 5.79913 5.29735C5.3552 5.83708 5.07925 6.46077 4.91928 7.13643C4.54334 8.71164 4.54734 10.3108 4.68331 11.906C4.7913 13.1894 5.02326 14.4648 5.21123 15.7401C5.26722 16.1239 5.3632 16.4998 5.44719 16.8956C5.49918 16.8636 5.51518 16.8556 5.53117 16.8436C6.17507 16.2079 6.82296 15.5722 7.46285 14.9285C7.51484 14.8766 7.54284 14.7606 7.53084 14.6847C7.49085 14.4888 7.59883 14.3768 7.7508 14.3808C8.05875 14.3848 8.20673 14.1729 8.3827 13.993C8.67465 13.6972 8.9666 13.3973 9.27055 13.0895C8.55867 12.7616 7.87478 12.4458 7.1749 12.1259C7.1669 12.1859 7.1589 12.2379 7.1589 12.2859C7.13091 12.8456 7.10691 13.4053 7.07492 13.961C7.07092 14.045 7.03892 14.1609 6.98293 14.2009C6.72297 14.3848 6.44702 14.5527 6.17107 14.7126C5.9871 14.8206 5.81913 14.7926 5.74314 14.6647C5.67115 14.5367 5.73114 14.3728 5.90311 14.2609C6.07508 14.1489 6.25905 14.049 6.42702 13.933C6.48301 13.8931 6.53101 13.8131 6.53501 13.7451C6.559 13.4133 6.563 13.0815 6.583 12.7456C6.60299 12.3858 6.61499 12.026 6.66298 11.6702C6.69098 11.4463 6.83896 11.3863 7.03892 11.4783C7.69081 11.7821 8.33871 12.086 8.9906 12.3898C9.07058 12.4258 9.15857 12.4538 9.24655 12.4898C9.24655 12.082 9.24655 11.6982 9.24655 11.2984C9.31454 11.3223 9.38253 11.3463 9.45052 11.3703C9.78646 11.4783 10.1184 11.5902 10.4584 11.6862C10.6823 11.7501 10.7423 11.7061 10.8543 11.4623C10.6863 11.4183 10.5223 11.3703 10.3544 11.3303C9.52651 11.1264 8.81863 10.6707 8.08275 10.2709C7.89078 10.1669 7.7828 10.031 7.7788 9.81909C7.7668 9.29535 7.7668 8.76762 7.7588 8.24388C7.7588 8.07596 7.90278 8.01999 8.01476 8.01999C8.09475 8.01999 8.19473 8.12394 8.24672 8.2039C8.29071 8.26787 8.28271 8.37181 8.28271 8.45577C8.28671 8.83558 8.28271 9.21539 8.28671 9.5952C8.28671 9.65917 8.29071 9.75112 8.33071 9.77511C8.66265 9.98701 9.00659 10.1829 9.39053 10.4028ZM17.5052 4.84158C17.3412 4.74163 17.2052 4.64168 17.0493 4.56572C16.0654 4.09795 14.5537 4.28986 13.7178 5.29735C13.1179 6.02099 12.706 6.82059 12.502 7.73613C12.458 7.93203 12.446 8.07996 12.622 8.21989C12.718 8.29985 12.774 8.43578 12.838 8.55172C12.9179 8.69965 12.9739 8.85557 13.0539 8.9995C13.1179 9.11944 13.2019 9.15142 13.3179 9.03148C14.6577 7.69215 15.9974 6.36082 17.3372 5.02549C17.3932 4.98151 17.4332 4.92154 17.5052 4.84158Z" fill="currentColor"></path>
    <path d="M15.5773 14.8488C15.1774 14.8128 14.8014 14.7808 14.4255 14.7448C14.2855 14.7328 14.2855 14.8208 14.2735 14.9207C14.1695 15.6324 14.0736 16.344 13.9536 17.0517C13.8496 17.6554 13.6936 18.2471 13.4137 18.7988C13.1217 19.3705 12.7058 19.8103 12.0659 19.9942C12.0419 20.0022 12.0139 20.0062 11.9659 20.0142C11.9659 19.9302 11.9659 19.8623 11.9659 19.7903C11.9659 17.8313 11.9659 15.8723 11.9619 13.9172C11.9619 13.7693 12.0059 13.6694 12.1099 13.5694C12.8178 12.8738 13.5217 12.1741 14.2255 11.4745C14.2735 11.4265 14.3335 11.3865 14.4295 11.3105C14.4295 11.7223 14.4295 12.0902 14.4295 12.494C14.5255 12.458 14.5815 12.438 14.6415 12.41C15.2574 12.1261 15.8733 11.8423 16.4892 11.5504C16.9611 11.3265 17.1211 11.4145 17.1451 11.9382C17.169 12.5099 17.185 13.0817 17.189 13.6534C17.189 13.8173 17.241 13.9053 17.385 13.9772C17.557 14.0612 17.717 14.1771 17.8889 14.2651C18.0649 14.357 18.0569 14.5089 17.9969 14.6409C17.9329 14.7808 17.7969 14.8248 17.645 14.7288C17.385 14.5689 17.1171 14.417 16.8651 14.2491C16.7131 14.1491 16.6491 13.9932 16.6531 13.8013C16.6611 13.2416 16.6571 12.6859 16.6571 12.0822C16.4892 12.1541 16.3852 12.1941 16.2852 12.2421C15.7093 12.498 15.1334 12.7578 14.5535 13.0097C14.4495 13.0537 14.3975 13.1056 14.3975 13.2256C14.3935 13.4655 14.3695 13.7053 14.3615 13.9452C14.3535 14.1651 14.3975 14.2091 14.6215 14.2331C15.0454 14.2731 15.4693 14.313 15.8933 14.353C15.9572 14.361 16.0252 14.377 16.0852 14.405C16.2292 14.465 16.2852 14.5569 16.2252 14.7208C15.9213 15.5564 15.6293 16.4 15.3174 17.2356C15.2334 17.4635 15.2094 17.6794 15.2574 17.9152C15.3653 18.451 15.4653 18.9867 15.5533 19.5264C15.5773 19.6664 15.6453 19.8343 15.4893 19.9502C15.3054 20.0902 15.1174 20.0182 15.0614 19.7663C14.9694 19.3425 14.8974 18.9187 14.8214 18.491C14.8014 18.387 14.8014 18.2791 14.7734 18.1751C14.6175 17.6074 14.7774 17.0917 14.9894 16.5719C15.1934 16.0802 15.3573 15.5764 15.5373 15.0727C15.5533 15.0087 15.5573 14.9367 15.5773 14.8488Z" fill="currentColor"></path>
    <path d="M11.5459 14.1812C11.5459 16.1362 11.5459 18.0472 11.5459 19.9703C11.2659 19.9463 11.062 19.8023 10.882 19.6184C10.5061 19.2346 10.2501 18.7709 10.0981 18.2671C9.91015 17.6394 9.77818 16.9957 9.6222 16.3561C9.58621 16.2041 9.6222 16.0802 9.74218 15.9643C10.2901 15.4285 10.826 14.8848 11.3699 14.3411C11.4139 14.2931 11.4659 14.2491 11.5459 14.1812Z" fill="currentColor"></path>
    <path d="M19.1126 6.69678C19.1726 7.06859 19.2446 7.43241 19.2926 7.79623C19.3846 8.50787 19.5166 9.21952 19.5286 9.93516C19.5606 11.6383 19.3646 13.3255 19.0567 14.9966C18.8647 16.0281 18.6447 17.0556 18.4328 18.0871C18.4048 18.223 18.3968 18.4189 18.1888 18.3789C17.9848 18.339 18.0448 18.163 18.0728 18.0191C18.3528 16.5878 18.6767 15.1685 18.8967 13.7293C19.1966 11.7902 19.3006 9.83521 19.0007 7.88019C18.9607 7.62431 18.8887 7.37244 18.8327 7.12057C18.7807 6.88069 18.8287 6.79273 19.1126 6.69678Z" fill="currentColor"></path>
    <path d="M8.84261 16.8877C9.14256 17.3195 9.08657 17.7713 8.98659 18.235C8.8906 18.6828 8.83061 19.1386 8.74663 19.5903C8.73063 19.6863 8.71863 19.8062 8.65864 19.8702C8.59465 19.9422 8.47067 20.0141 8.37869 20.0061C8.26271 19.9941 8.16672 19.8942 8.19072 19.7463C8.2787 19.2105 8.37869 18.6748 8.45067 18.1351C8.48667 17.8712 8.46267 17.5953 8.47067 17.3275C8.47067 17.2795 8.48267 17.2235 8.51066 17.1915C8.62265 17.0836 8.73863 16.9836 8.84261 16.8877Z" fill="currentColor"></path>
  </symbol>
  <symbol xmlns="http://www.w3.org/2000/svg" viewBox="0 0 24 24" id="ic_category2">
    <path d="M11.2501 0C11.7245 0 12.2007 0 12.6751 0C12.6826 0.005625 12.6882 0.015 12.6957 0.016875C12.9076 0.0375 13.1195 0.050625 13.3313 0.076875C13.6088 0.110625 13.8882 0.140625 14.162 0.193125C14.4713 0.253125 14.7751 0.335625 15.0807 0.4125C15.752 0.579375 16.3988 0.825 17.0251 1.11938C17.3888 1.29 17.7507 1.47 18.092 1.68563C18.2513 1.78688 18.422 1.87313 18.5776 1.97813C18.752 2.09438 18.917 2.22563 19.0838 2.35125C19.2038 2.44313 19.322 2.53875 19.442 2.6325C19.5151 2.69062 19.5882 2.74875 19.6595 2.80875C19.7288 2.86688 19.8001 2.925 19.8676 2.985C19.8976 3.01125 19.9238 3.04313 19.9557 3.06938C20.0551 3.15375 20.1657 3.22688 20.2557 3.32063C20.4657 3.53813 20.6663 3.76688 20.8726 3.98813C20.9476 4.07063 21.0301 4.14563 21.1088 4.22438C21.1313 4.24875 21.152 4.27688 21.1726 4.30313C21.2213 4.37063 21.2663 4.44 21.3188 4.50563C21.4032 4.60875 21.4988 4.70062 21.5757 4.8075C21.6713 4.93875 21.7501 5.07938 21.8401 5.21438C21.8663 5.25375 21.9095 5.28188 21.9357 5.32125C21.9807 5.3925 22.0126 5.47313 22.0576 5.54438C22.1495 5.69063 22.2488 5.83313 22.3407 5.97937C22.3745 6.03188 22.3913 6.09563 22.4195 6.15188C22.607 6.53438 22.817 6.90938 22.9782 7.30313C23.1676 7.76438 23.3232 8.23875 23.4732 8.71313C23.6157 9.16313 23.7151 9.62438 23.7751 10.0931C23.8163 10.4062 23.8501 10.7212 23.8876 11.0363C23.897 11.1206 23.912 11.2031 23.9251 11.2875C23.9251 11.7619 23.9251 12.2381 23.9251 12.7125C23.9195 12.7219 23.9082 12.7313 23.9063 12.7406C23.8857 12.9469 23.8726 13.1531 23.8482 13.3575C23.8145 13.6388 23.7882 13.92 23.732 14.1956C23.6476 14.595 23.5407 14.9906 23.4395 15.3881C23.2857 15.9806 23.057 16.545 22.7982 17.0981C22.6801 17.3513 22.5451 17.5969 22.4195 17.8463C22.3913 17.9025 22.3745 17.9663 22.3407 18.0188C22.2676 18.1369 22.187 18.2513 22.1101 18.3675C22.0276 18.4931 21.947 18.6188 21.8645 18.7444C21.8232 18.8081 21.7763 18.87 21.7351 18.9338C21.6732 19.0275 21.6188 19.1269 21.5532 19.2169C21.4895 19.3031 21.4088 19.3781 21.3413 19.4606C21.212 19.62 21.0901 19.7869 20.957 19.9444C20.8707 20.0456 20.7695 20.1338 20.6757 20.2275C20.6607 20.2425 20.6457 20.2594 20.6307 20.2763C20.4957 20.4206 20.3663 20.5706 20.2257 20.7094C20.1132 20.82 19.9857 20.9138 19.8676 21.0169C19.8095 21.0675 19.7626 21.1294 19.7026 21.1781C19.5751 21.2812 19.442 21.3769 19.3126 21.4781C19.1495 21.6056 18.9901 21.7388 18.8213 21.8606C18.7032 21.945 18.5757 22.0144 18.4482 22.0875C18.3076 22.1681 18.1895 22.2806 18.0376 22.35C17.8351 22.4419 17.6476 22.5675 17.4488 22.6725C17.2688 22.7663 17.087 22.8581 16.9013 22.9369C16.5826 23.0719 16.2638 23.2088 15.9395 23.325C15.3338 23.5444 14.7151 23.715 14.0795 23.8144C13.7007 23.8744 13.3182 23.9137 12.9376 23.9644C12.8513 23.9756 12.7651 23.9888 12.6788 24.0019C12.2045 24.0019 11.7282 24.0019 11.2538 24.0019C11.2445 23.9963 11.2351 23.985 11.2257 23.9831C10.922 23.9513 10.6182 23.9306 10.3163 23.8875C9.95633 23.835 9.59445 23.7788 9.24195 23.6963C8.71508 23.5725 8.19758 23.415 7.6932 23.2181C7.06133 22.9725 6.45008 22.6856 5.86883 22.3331C5.75633 22.2656 5.64383 22.1963 5.53133 22.1269C5.39445 22.0425 5.25383 21.9619 5.1207 21.8719C5.03633 21.8156 4.96133 21.7444 4.8807 21.6806C4.7532 21.5794 4.62195 21.4781 4.49445 21.3769C4.41945 21.3169 4.34445 21.255 4.26945 21.1931C4.20008 21.135 4.1307 21.0769 4.06133 21.0188C4.0257 20.9888 3.99195 20.9569 3.95633 20.9287C3.88695 20.8725 3.81008 20.8219 3.74633 20.7581C3.5682 20.5744 3.3957 20.3831 3.21945 20.1975C3.1782 20.1525 3.1257 20.1187 3.08445 20.0737C3.00758 19.9875 2.93445 19.8956 2.85945 19.8075C2.82383 19.7663 2.78258 19.7288 2.74883 19.6856C2.67945 19.5956 2.61383 19.5 2.54445 19.41C2.4807 19.3294 2.40758 19.2563 2.3457 19.1737C2.2782 19.0837 2.22383 18.9844 2.16008 18.8944C2.10945 18.8231 2.0457 18.7612 1.99883 18.6863C1.94445 18.6019 1.90883 18.5081 1.85445 18.4237C1.77945 18.3038 1.69133 18.1912 1.6182 18.0713C1.56008 17.9756 1.51883 17.8687 1.4682 17.7675C1.29383 17.4113 1.09695 17.0644 0.948828 16.6987C0.763203 16.2375 0.605703 15.765 0.455703 15.2906C0.313203 14.8406 0.213828 14.3794 0.153828 13.9106C0.112578 13.5975 0.0788281 13.2825 0.0394531 12.9675C0.0300781 12.8831 0.0150781 12.8006 0.00195312 12.7163C0.00195312 12.2419 0.00195312 11.7656 0.00195312 11.2913C0.00757812 11.2763 0.0188281 11.2594 0.0207031 11.2444C0.0338281 11.0963 0.0394531 10.9481 0.0582031 10.8019C0.0975781 10.4944 0.142578 10.1888 0.187578 9.88125C0.260703 9.3825 0.393828 8.89875 0.540078 8.41875C0.744453 7.74938 1.01633 7.10813 1.3332 6.48375C1.41758 6.31687 1.49445 6.14625 1.5882 5.98688C1.68945 5.81437 1.8057 5.64937 1.91445 5.48063C1.95383 5.42063 1.98195 5.35313 2.0232 5.295C2.0757 5.21812 2.14133 5.14875 2.19383 5.07188C2.25758 4.98 2.3082 4.87688 2.37383 4.78688C2.43945 4.69875 2.52008 4.62563 2.58945 4.54125C2.71695 4.38375 2.83695 4.21875 2.9682 4.065C3.05445 3.96375 3.1557 3.87563 3.24945 3.78C3.26445 3.765 3.28133 3.75 3.29445 3.73313C3.42758 3.58875 3.55695 3.43688 3.69758 3.29813C3.81008 3.1875 3.93758 3.09375 4.0557 2.99063C4.1157 2.93813 4.16633 2.87438 4.2282 2.82375C4.35008 2.72438 4.47945 2.6325 4.6032 2.535C4.7757 2.40188 4.94258 2.26313 5.1207 2.13563C5.23695 2.05313 5.36445 1.98563 5.4882 1.9125C5.62508 1.83188 5.7432 1.72313 5.89133 1.65563C6.09383 1.56188 6.28133 1.43625 6.48008 1.33312C6.66008 1.23937 6.84195 1.14938 7.02945 1.06875C7.3407 0.93375 7.65195 0.796875 7.97258 0.684375C8.58195 0.470625 9.20258 0.2925 9.84195 0.193125C10.2245 0.135 10.6088 0.091875 10.9932 0.043125C11.0776 0.02625 11.1638 0.013125 11.2501 0ZM9.47258 14.5575C9.3657 14.55 9.27945 14.565 9.21195 14.5369C9.1107 14.4938 9.0132 14.4919 8.91008 14.4994C8.86883 14.5031 8.8257 14.5031 8.78445 14.4975C8.6982 14.4863 8.61195 14.4694 8.5257 14.4581C8.50695 14.4563 8.4882 14.4694 8.46758 14.4769C8.4357 14.4881 8.40383 14.5106 8.37383 14.5069C8.19195 14.4919 8.01195 14.4694 7.84695 14.58C7.82258 14.5969 7.77945 14.5819 7.7457 14.5875C7.69695 14.5931 7.63695 14.5894 7.6032 14.6156C7.4682 14.7244 7.30133 14.7281 7.1457 14.775C7.08383 14.7938 7.01633 14.7863 6.95445 14.7975C6.85508 14.8163 6.75945 14.8575 6.66008 14.8631C6.42758 14.8744 6.19508 14.8631 5.96445 14.8706C5.74695 14.8781 5.53883 14.8294 5.3307 14.7769C5.23883 14.7544 5.1507 14.715 5.05883 14.7019C4.85258 14.6756 4.64445 14.6625 4.43633 14.6438C4.3107 14.6325 4.1832 14.6175 4.05758 14.6063C3.93758 14.5969 3.8157 14.5894 3.6957 14.5875C3.51383 14.5856 3.3357 14.5763 3.16133 14.6719C2.98883 14.7675 2.80508 14.8388 2.6982 15.015C2.6607 15.0769 2.64383 15.1538 2.61945 15.2231C2.53883 15.45 2.58758 15.6656 2.6907 15.87C2.76008 16.0069 2.8557 16.1288 3.00008 16.1981C3.11445 16.2525 3.2307 16.32 3.35258 16.3444C3.5532 16.3819 3.75945 16.3875 3.96195 16.4044C4.07633 16.4138 4.1907 16.4194 4.30508 16.4344C4.42883 16.4513 4.55258 16.4888 4.67633 16.4963C4.85445 16.5075 5.03445 16.5 5.21258 16.5C5.8182 16.4963 6.42383 16.515 7.02758 16.4625C7.18508 16.4494 7.3407 16.4363 7.4982 16.4231C7.56195 16.4175 7.62758 16.4137 7.69133 16.4025C7.84695 16.3744 8.0007 16.3388 8.15445 16.3125C8.27633 16.2919 8.40008 16.275 8.52195 16.2619C8.5932 16.2544 8.66633 16.2638 8.7357 16.2525C8.86133 16.2338 8.98508 16.1906 9.1107 16.185C9.43508 16.17 9.75758 16.1681 10.082 16.1625C10.3163 16.1588 10.5451 16.1719 10.7682 16.2656C10.9557 16.3444 11.1301 16.4363 11.297 16.5506C11.4057 16.6256 11.507 16.7194 11.672 16.7138C11.6607 16.7719 11.6645 16.8319 11.6382 16.8675C11.5801 16.9425 11.5032 16.9913 11.3963 16.9725C11.3288 16.9613 11.2595 16.9725 11.1901 16.9706C11.1657 16.9706 11.1395 16.9669 11.1207 16.9538C11.0251 16.8994 10.9332 16.8375 10.8376 16.785C10.7251 16.7231 10.6145 16.6556 10.4963 16.6069C10.3801 16.56 10.2545 16.5113 10.1326 16.5075C9.96758 16.5 9.79883 16.4756 9.63195 16.5356C9.54008 16.5694 9.43508 16.5638 9.3357 16.5731C9.12008 16.5938 8.90445 16.6125 8.68883 16.6331C8.62695 16.6388 8.56695 16.6575 8.50508 16.6669C8.34195 16.6875 8.1807 16.7063 8.01758 16.7269C7.89758 16.7419 7.77758 16.7588 7.6557 16.7719C7.59383 16.7794 7.53195 16.7756 7.47008 16.785C7.34445 16.8056 7.21883 16.8319 7.0932 16.8581C7.0032 16.8769 6.9132 16.8994 6.82133 16.9125C6.66758 16.935 6.51383 16.9688 6.36008 16.9669C6.09758 16.965 5.83508 16.9837 5.56883 16.9237C5.3082 16.8638 5.0307 16.9369 4.75883 16.8825C4.53195 16.8375 4.2957 16.8412 4.0632 16.8206C3.93383 16.8094 3.80445 16.7962 3.67508 16.7831C3.66383 16.7812 3.6507 16.7775 3.63945 16.7738C3.50633 16.7456 3.36945 16.7231 3.2382 16.6875C3.1032 16.6519 2.9682 16.6144 2.8407 16.5619C2.73945 16.5206 2.6382 16.4663 2.55758 16.395C2.46383 16.3125 2.3757 16.2131 2.31383 16.1044C2.25008 15.9919 2.22758 15.8569 2.16945 15.7388C2.07945 15.5569 2.10945 15.3675 2.13945 15.1856C2.1657 15.0375 2.23695 14.8913 2.31008 14.7563C2.3757 14.6381 2.45633 14.5163 2.55758 14.4319C2.66633 14.3419 2.8107 14.2931 2.9382 14.2219C3.12945 14.115 3.34508 14.0813 3.5532 14.0738C3.91133 14.0606 4.27133 14.0869 4.63133 14.1C4.76445 14.1056 4.89758 14.1225 5.0307 14.1394C5.2407 14.1675 5.4507 14.2106 5.6607 14.2256C5.9307 14.2444 6.20258 14.25 6.47258 14.2481C6.6657 14.2463 6.86445 14.2463 7.04445 14.1544C7.08008 14.1356 7.12133 14.115 7.14195 14.0831C7.22633 13.9613 7.27508 13.8263 7.2732 13.6744C7.2732 13.6238 7.26195 13.5694 7.2807 13.5263C7.34445 13.3725 7.3932 13.2188 7.3932 13.05C7.3932 12.8869 7.41008 12.7238 7.42695 12.5625C7.44008 12.4388 7.46258 12.3169 7.48508 12.195C7.49445 12.1388 7.50945 12.0844 7.52445 12.03C7.54133 11.9663 7.56383 11.9062 7.5732 11.8425C7.58633 11.7619 7.5282 11.6625 7.64258 11.6119C7.6482 11.61 7.65195 11.5875 7.6482 11.5763C7.6032 11.3644 7.7532 11.1862 7.74758 10.98C7.74758 10.9594 7.75695 10.9388 7.7682 10.92C7.83383 10.7925 7.89945 10.6631 7.9707 10.5375C8.05695 10.3856 8.14883 10.2375 8.23508 10.0837C8.2707 10.0219 8.28008 9.92438 8.3307 9.89438C8.49383 9.80063 8.52195 9.61312 8.63445 9.48375C8.77695 9.31688 8.8932 9.13313 9.09758 9.03188C9.13133 9.015 9.1482 8.97937 9.10695 8.94188C9.07508 8.91375 9.04695 8.88188 9.02258 8.84813C8.96445 8.77313 8.91008 8.69812 8.85195 8.62313C8.79945 8.55375 8.74695 8.48813 8.69445 8.41875C8.63258 8.33625 8.5707 8.25375 8.50883 8.17125C8.45445 8.09813 8.40008 8.02688 8.34758 7.95375C8.29883 7.88438 8.25383 7.80938 8.2032 7.74188C8.14883 7.66875 8.0832 7.60125 8.02883 7.52813C7.93883 7.40625 7.86008 7.27688 7.7682 7.15688C7.67258 7.03125 7.5657 6.915 7.46445 6.79313C7.45695 6.78375 7.4532 6.7725 7.4457 6.76125C7.39508 6.68438 7.3482 6.60563 7.29383 6.5325C7.23758 6.4575 7.17383 6.38812 7.1157 6.315C7.05008 6.2325 6.9882 6.14813 6.92445 6.06563C6.8757 6.00188 6.82133 5.94187 6.77445 5.87437C6.72008 5.7975 6.67508 5.715 6.62258 5.63625C6.58695 5.58188 6.5457 5.53312 6.50633 5.48063C6.47633 5.44125 6.44258 5.40188 6.41258 5.3625C6.36383 5.29875 6.31883 5.23313 6.2682 5.17125C6.21195 5.1 6.1482 5.0325 6.09383 4.95938C6.04133 4.88813 6.00008 4.80938 5.94945 4.73625C5.8782 4.635 5.80133 4.5375 5.72633 4.43813C5.53883 4.18688 5.35133 3.93563 5.16195 3.68625C5.12445 3.6375 5.07945 3.615 5.0232 3.66938C4.9332 3.75938 4.84133 3.8475 4.74945 3.93375C4.62945 4.04813 4.50758 4.15875 4.38945 4.27688C4.16633 4.5 3.9432 4.72312 3.73133 4.95563C3.60195 5.09812 3.4932 5.26125 3.37883 5.41687C3.2832 5.54625 3.1932 5.67938 3.09758 5.81063C2.9982 5.94938 2.89133 6.08438 2.79758 6.22875C2.70195 6.375 2.6157 6.52688 2.5332 6.68062C2.46195 6.81187 2.40758 6.95062 2.34008 7.08563C2.28945 7.185 2.22383 7.27875 2.17695 7.38C2.08508 7.57688 1.9932 7.77563 1.91445 7.97813C1.7307 8.4525 1.57695 8.93437 1.45695 9.4275C1.3407 9.9075 1.25633 10.3931 1.20195 10.8825C1.16445 11.2144 1.1532 11.55 1.14383 11.8837C1.1382 12.12 1.15133 12.3562 1.16258 12.5925C1.17008 12.765 1.17945 12.9394 1.20008 13.11C1.23008 13.3594 1.26758 13.6088 1.31258 13.8563C1.35945 14.1188 1.40445 14.3813 1.47383 14.6381C1.57695 15.015 1.69133 15.39 1.8207 15.7594C1.95758 16.1475 2.12445 16.5244 2.32508 16.8881C2.4282 17.0738 2.4957 17.2781 2.63633 17.4431C2.66633 17.4769 2.66258 17.5388 2.68883 17.5781C2.76758 17.6963 2.85758 17.8088 2.93633 17.9288C3.0057 18.0319 3.06195 18.1444 3.12945 18.2494C3.16695 18.3075 3.21945 18.3544 3.2607 18.4106C3.3207 18.4931 3.36945 18.5813 3.4332 18.66C3.50445 18.75 3.58695 18.8325 3.66008 18.9225C3.7857 19.0725 3.9057 19.2281 4.0332 19.3744C4.09695 19.4456 4.17758 19.5019 4.24508 19.5713C4.29758 19.6256 4.33695 19.6931 4.38945 19.7475C4.47383 19.8337 4.5657 19.9144 4.6557 19.9988C4.67258 20.0138 4.6857 20.0306 4.70258 20.0438C4.77758 20.1056 4.85633 20.1656 4.93133 20.2294C5.02883 20.3119 5.11695 20.4075 5.22008 20.4825C5.41508 20.6269 5.6157 20.7619 5.81258 20.9025C5.94195 20.9944 6.06758 21.0938 6.2007 21.18C6.36008 21.2831 6.52133 21.3844 6.69008 21.4688C7.0707 21.66 7.4532 21.8494 7.84133 22.0238C8.32695 22.2413 8.83695 22.4006 9.35258 22.5263C9.8232 22.6425 10.2995 22.7362 10.7832 22.7756C11.1132 22.8019 11.4432 22.8319 11.7732 22.8488C11.9307 22.8563 12.0901 22.8431 12.2476 22.8319C12.6488 22.8037 13.0501 22.7794 13.4495 22.7362C13.7232 22.7063 13.997 22.6594 14.2651 22.5975C14.5745 22.5263 14.8782 22.4306 15.1857 22.3463C15.677 22.2113 16.1457 22.0125 16.6051 21.7969C16.8601 21.6769 17.1095 21.54 17.3551 21.3994C17.5763 21.2738 17.7863 21.1313 18.002 20.9944C18.077 20.9456 18.0788 20.8706 18.0151 20.8106C17.9907 20.7881 17.9682 20.7638 17.9495 20.7375C17.8988 20.6681 17.8538 20.595 17.8032 20.5238C17.7638 20.4675 17.7207 20.415 17.6757 20.3625C17.6195 20.295 17.5557 20.2313 17.5013 20.16C17.4357 20.0737 17.3757 19.9837 17.312 19.8956C17.267 19.8356 17.2145 19.7831 17.1713 19.7231C17.087 19.5994 17.0082 19.47 16.9238 19.3463C16.8845 19.2863 16.8376 19.2319 16.7926 19.1756C16.727 19.095 16.6595 19.0163 16.5976 18.9319C16.547 18.8663 16.5057 18.7931 16.4551 18.7294C16.397 18.6581 16.3332 18.5925 16.2713 18.5231C16.2657 18.5175 16.2638 18.5063 16.2582 18.4988C16.2076 18.42 16.1607 18.3394 16.1045 18.2644C16.0501 18.1912 15.9863 18.1238 15.932 18.0506C15.8757 17.9738 15.827 17.8913 15.7707 17.8163C15.7107 17.7375 15.6413 17.6644 15.5813 17.5837C15.5307 17.5163 15.4913 17.4375 15.4388 17.37C15.347 17.25 15.2457 17.1375 15.1538 17.0194C15.0451 16.8788 14.942 16.7362 14.837 16.5938C14.672 16.3688 14.5107 16.1419 14.3438 15.9206C14.2538 15.8006 14.1545 15.69 14.0645 15.5719C13.9726 15.45 13.892 15.3188 13.802 15.1969C13.7907 15.1819 13.7438 15.1781 13.7232 15.1894C13.6295 15.2325 13.4345 15.195 13.3651 15.1144C13.2526 14.9831 13.1232 14.895 12.9413 14.9194C12.9207 14.9213 12.8982 14.9175 12.8776 14.9138C12.8195 14.9025 12.7632 14.8894 12.692 14.8744C12.767 15.0038 12.8307 15.1088 12.8907 15.2138C12.9676 15.3488 12.9601 15.4913 12.9151 15.63C12.8813 15.735 12.7857 15.7463 12.7295 15.6619C12.7163 15.6431 12.7182 15.615 12.7145 15.5906C12.6995 15.4988 12.6938 15.4031 12.6657 15.315C12.6488 15.2587 12.6076 15.1969 12.5588 15.1688C12.4763 15.12 12.3788 15.09 12.2851 15.0638C12.1595 15.0281 12.0301 14.9981 11.9007 14.9794C11.7882 14.9625 11.672 14.9681 11.5576 14.9531C11.4695 14.9419 11.3851 14.91 11.2988 14.8913C11.1901 14.8669 11.0813 14.835 10.9707 14.8313C10.8695 14.8275 10.7682 14.8612 10.667 14.8744C10.6126 14.8819 10.5545 14.8763 10.5001 14.8856C10.3988 14.9063 10.2995 14.9438 10.1982 14.955C10.0351 14.9719 9.8682 14.985 9.70508 14.9719C9.58883 14.9625 9.47258 14.9194 9.36383 14.8725C9.27008 14.8313 9.2832 14.7075 9.37133 14.655C9.40508 14.64 9.42945 14.6025 9.47258 14.5575ZM19.082 20.1506C19.1626 20.0831 19.2563 20.01 19.3426 19.9275C19.4588 19.815 19.5638 19.6931 19.6782 19.5788C19.7776 19.4794 19.8863 19.3913 19.982 19.29C20.0851 19.1794 20.1788 19.0613 20.2745 18.9431C20.3982 18.7913 20.5238 18.6375 20.6382 18.48C20.7188 18.3694 20.7807 18.2475 20.8595 18.135C20.9457 18.0094 21.0451 17.8913 21.1295 17.7638C21.2176 17.6288 21.3001 17.4862 21.377 17.3438C21.4576 17.1919 21.5251 17.0363 21.602 16.8825C21.6488 16.7888 21.7107 16.7006 21.7538 16.6031C21.8438 16.4044 21.9357 16.2075 22.0126 16.0031C22.1176 15.7256 22.2226 15.4481 22.3051 15.1631C22.4063 14.8144 22.5038 14.4619 22.5713 14.1056C22.6426 13.7325 22.6838 13.3519 22.7232 12.9731C22.7551 12.6713 22.7776 12.3675 22.7776 12.0656C22.7757 11.7225 22.7495 11.3794 22.7251 11.0363C22.7082 10.7963 22.6895 10.5563 22.6482 10.32C22.5863 9.97125 22.5095 9.62438 22.427 9.27938C22.2676 8.61 22.0276 7.96875 21.7313 7.34812C21.6845 7.24688 21.6188 7.155 21.5682 7.05562C21.4576 6.84375 21.3545 6.63 21.2382 6.42C21.1857 6.32438 21.1107 6.24188 21.0507 6.15C20.972 6.02625 20.9045 5.89688 20.822 5.775C20.7207 5.62688 20.612 5.48438 20.5032 5.34188C20.4338 5.25375 20.357 5.17125 20.2838 5.08687C20.1488 4.9275 20.0195 4.76625 19.8807 4.60875C19.8188 4.53938 19.742 4.485 19.6782 4.41937C19.6276 4.36688 19.592 4.30125 19.5413 4.24875C19.4626 4.16813 19.3801 4.09312 19.2938 4.02C19.1626 3.9075 19.0257 3.79875 18.8926 3.68813C18.7913 3.60375 18.6957 3.51 18.5907 3.42937C18.4801 3.345 18.3582 3.27563 18.2438 3.19313C18.167 3.13875 18.1013 3.07125 18.0245 3.01688C17.9251 2.94563 17.8238 2.87438 17.7188 2.8125C17.4488 2.655 17.1788 2.49563 16.9032 2.3475C16.6932 2.235 16.4757 2.13188 16.2545 2.04375C15.8738 1.89188 15.4932 1.73812 15.1032 1.61625C14.6007 1.45875 14.087 1.33688 13.562 1.27313C13.247 1.23375 12.9338 1.185 12.617 1.16625C12.302 1.1475 11.9832 1.1625 11.6663 1.16063C11.267 1.15875 10.8695 1.19438 10.4738 1.25625C10.1982 1.29938 9.9207 1.33875 9.6507 1.40062C9.34133 1.47187 9.03758 1.56188 8.73195 1.64813C8.2407 1.785 7.77195 1.98 7.31445 2.20125C7.08945 2.31 6.87758 2.44313 6.6582 2.56313C6.51008 2.64563 6.3582 2.72438 6.21008 2.80875C6.16133 2.83688 6.10695 2.87625 6.14633 2.94563C6.17633 2.99813 6.21758 3.045 6.25508 3.09375C6.3207 3.18 6.38633 3.26438 6.45383 3.34875C6.49508 3.39938 6.54008 3.44813 6.58133 3.49875C6.60195 3.52313 6.61695 3.55125 6.6357 3.57563C6.65258 3.59625 6.67508 3.61313 6.69008 3.63563C6.7407 3.71062 6.78383 3.79125 6.84008 3.8625C6.89633 3.93375 6.96195 3.99938 7.02195 4.06687C7.02758 4.0725 7.02758 4.08563 7.0332 4.09313C7.05383 4.12313 7.07633 4.15313 7.09883 4.18125C7.11383 4.2 7.12883 4.21875 7.14195 4.23938C7.19258 4.31438 7.23758 4.395 7.29195 4.46625C7.3482 4.5375 7.41195 4.60313 7.47383 4.67063C7.47758 4.67438 7.47758 4.68188 7.48133 4.6875C7.5282 4.76063 7.56945 4.83938 7.62195 4.90688C7.68195 4.98375 7.75695 5.04938 7.81508 5.12813C7.89008 5.22938 7.95195 5.34188 8.02883 5.44312C8.27633 5.77688 8.5257 6.10687 8.77695 6.43875C8.81445 6.48938 8.8632 6.53063 8.90445 6.57938C8.9307 6.60938 8.95133 6.645 8.97383 6.67688C8.98883 6.69563 9.00383 6.71438 9.01695 6.735C9.06758 6.81 9.11258 6.88875 9.16883 6.96C9.22508 7.03125 9.28883 7.09688 9.3507 7.16438C9.35445 7.16813 9.35258 7.1775 9.35633 7.18125C9.40695 7.26 9.45758 7.33875 9.51195 7.41375C9.5682 7.48875 9.63195 7.55813 9.6882 7.63313C9.74258 7.70625 9.78758 7.78688 9.84383 7.85813C9.90008 7.92938 9.9957 7.98563 10.0182 8.06438C10.0482 8.1675 10.127 8.17875 10.187 8.2275C10.2957 8.14688 10.397 8.06812 10.5038 7.995C10.5395 7.97063 10.6051 7.94063 10.6295 7.95563C10.7513 8.0325 10.8582 7.96125 10.967 7.935C11.0795 7.90688 11.1863 7.85438 11.2951 7.81313C11.3232 7.80375 11.3551 7.79625 11.3851 7.79625C11.5426 7.79813 11.6926 7.77375 11.8501 7.73625C12.0601 7.68563 12.2888 7.71 12.5082 7.7025C12.5176 7.7025 12.5307 7.7025 12.5345 7.70813C12.5795 7.785 12.6545 7.75125 12.7182 7.75875C12.8438 7.77187 12.9713 7.785 13.097 7.80188C13.1401 7.8075 13.1813 7.83187 13.2245 7.84312C13.3126 7.8675 13.4045 7.90875 13.4926 7.90688C13.7026 7.89938 13.8995 7.95937 14.102 7.99312C14.1357 7.99875 14.1695 8.00062 14.2013 8.01188C14.3401 8.06437 14.4826 8.10938 14.612 8.17688C14.7151 8.23125 14.8332 8.27437 14.8801 8.40563C14.9045 8.475 14.9626 8.51625 15.0451 8.535C15.1276 8.55375 15.2101 8.59313 15.2776 8.64375C15.4088 8.74312 15.5213 8.865 15.6901 8.90438C15.7032 8.90812 15.7145 8.92688 15.7257 8.94C15.767 8.98875 15.7988 9.0525 15.8495 9.08625C15.9995 9.1875 16.1551 9.27563 16.3088 9.37125C16.4438 9.45563 16.5882 9.48375 16.7532 9.45563C16.7438 9.41625 16.7438 9.37688 16.7251 9.34875C16.652 9.23438 16.6182 9.11438 16.6351 8.97937C16.6426 8.92125 16.6613 8.865 16.6707 8.80688C16.7007 8.61938 16.7682 8.45438 16.9051 8.31188C17.1188 8.08687 17.3682 8.05875 17.6438 8.1375C17.7845 8.17688 17.9232 8.22938 18.0563 8.28938C18.2495 8.3775 18.4126 8.5125 18.5401 8.68125C18.7257 8.92875 18.7763 9.22875 18.8195 9.52313C18.842 9.67688 18.8045 9.84 18.7951 9.99938C18.7932 10.0181 18.7932 10.0369 18.7988 10.0538C18.8138 10.1081 18.8288 10.1625 18.8513 10.215C18.8663 10.2506 18.8945 10.2825 18.9188 10.3219C18.9657 10.2581 18.8982 10.1663 19.0145 10.1588C19.0182 10.2788 19.0257 10.3988 19.202 10.3519C19.2076 10.3313 19.217 10.3031 19.2338 10.2525C19.2563 10.2937 19.2676 10.3162 19.2807 10.3369C19.3407 10.4381 19.3913 10.545 19.5338 10.5563C19.5695 10.56 19.622 10.5994 19.6313 10.6331C19.6688 10.7775 19.8038 10.8019 19.9013 10.8694C19.9538 10.9069 20.042 10.8825 20.072 10.9725C20.0832 11.0081 20.1207 11.0381 20.1545 11.0625C20.2163 11.1056 20.2838 11.13 20.327 11.205C20.3832 11.3025 20.462 11.3888 20.537 11.4731C20.5782 11.5181 20.6401 11.5444 20.6795 11.5913C20.7432 11.6644 20.7938 11.7506 20.852 11.8275C20.9513 11.9587 21.0601 12.0844 21.1501 12.2213C21.1857 12.2756 21.197 12.2625 21.2288 12.2325C21.2607 12.2025 21.2926 12.1725 21.3245 12.1406C21.332 12.1463 21.3395 12.15 21.347 12.1556C21.3113 12.2438 21.2776 12.33 21.242 12.4181C21.2513 12.4219 21.2588 12.4275 21.2682 12.4313C21.3282 12.375 21.3957 12.3244 21.4445 12.2587C21.4913 12.1969 21.5213 12.12 21.5495 12.0469C21.5776 11.97 21.5945 11.8875 21.6151 11.8088C21.6226 11.8088 21.632 11.8106 21.6395 11.8106C21.6395 11.8575 21.6526 11.91 21.6376 11.9494C21.5682 12.1238 21.4988 12.2963 21.4145 12.465C21.3732 12.5494 21.437 12.5944 21.4595 12.6525C21.4651 12.6656 21.512 12.6694 21.5401 12.6656C21.5738 12.66 21.6057 12.6375 21.6395 12.63C21.7763 12.6 21.8663 12.5138 21.9338 12.3956C21.947 12.3731 21.9788 12.3619 22.0013 12.3469C22.0088 12.3544 22.0163 12.3619 22.0238 12.3694C22.0126 12.3994 22.0088 12.4388 21.9863 12.4556C21.887 12.5363 21.7876 12.6188 21.677 12.6825C21.602 12.7275 21.4988 12.7369 21.5832 12.8588C21.587 12.8625 21.5832 12.8719 21.5851 12.8775C21.587 12.9506 21.587 13.0181 21.527 13.0781C21.497 13.11 21.5026 13.1737 21.4763 13.2113C21.4107 13.3031 21.3338 13.3875 21.2607 13.4756C21.347 13.6013 21.4276 14.1075 21.3657 14.205C21.3582 14.1506 21.3732 14.0925 21.3563 14.0438C21.3001 13.8844 21.2982 13.7119 21.2138 13.56C21.1838 13.5056 21.1557 13.4963 21.1107 13.5019C21.0751 13.5056 21.0413 13.5206 21.0076 13.53C21.0695 13.785 21.1407 14.0381 21.1895 14.295C21.2401 14.5631 21.2063 14.8369 21.197 15.1069C21.1707 14.925 21.1557 14.7431 21.137 14.5612C21.1201 14.4075 21.1032 14.2556 21.0788 14.1038C21.0545 13.9481 21.0001 13.8056 20.8932 13.6875C20.8782 13.6706 20.837 13.6556 20.8182 13.665C20.7582 13.6912 20.7057 13.7288 20.642 13.7663C20.7713 14.1638 20.7113 14.5725 20.702 14.9794C20.6776 14.9456 20.672 14.9081 20.6701 14.8725C20.657 14.5744 20.7095 14.2744 20.612 13.9819C20.5707 13.86 20.5182 13.7531 20.3757 13.7044C20.2651 14.2406 20.0963 14.7506 19.7251 15.1688C19.7157 15.1388 19.7232 15.1144 19.7363 15.0956C19.7682 15.0506 19.8113 15.0113 19.8376 14.9644C19.8976 14.8556 19.9482 14.7413 20.0063 14.6325C20.132 14.4 20.252 14.1638 20.2145 13.8881C20.207 13.8263 20.1788 13.7663 20.1582 13.7063C20.132 13.635 20.0701 13.6406 20.0213 13.6613C19.9538 13.6894 19.8957 13.7381 19.8301 13.7719C19.7982 13.7888 19.7607 13.7925 19.727 13.8019C19.7026 13.8094 19.6763 13.815 19.652 13.8281C19.5863 13.8619 19.5057 13.9406 19.4607 13.9219C19.3951 13.8956 19.3576 13.9163 19.307 13.9331C19.262 13.9481 19.2151 13.965 19.1682 13.9706C19.0801 13.9819 18.9901 13.9894 18.9001 13.9894C18.8532 13.9894 18.8063 13.9706 18.7595 13.9575C18.7351 13.9519 18.7107 13.935 18.6863 13.935C18.5963 13.9313 18.5082 13.9388 18.4295 13.875C18.3676 13.8263 18.2813 13.8038 18.2213 13.7531C18.1576 13.6988 18.1051 13.6988 18.0357 13.7325C18.0076 13.7456 17.9532 13.7475 17.9363 13.7288C17.8932 13.6838 17.8482 13.6613 17.7845 13.6463C17.672 13.6219 17.5426 13.6556 17.4676 13.7475C17.4507 13.77 17.4226 13.7963 17.3963 13.8C17.2763 13.8169 17.1563 13.8244 17.0363 13.8413C16.9688 13.8506 16.8976 13.86 16.8357 13.8844C16.8038 13.8956 16.7832 13.9406 16.7588 13.9706C16.7663 13.98 16.772 13.9894 16.7795 14.0006C16.8282 13.9856 16.877 13.9556 16.9257 13.9575C17.0701 13.9631 17.2163 13.98 17.3588 13.9987C17.3832 14.0025 17.4245 14.0531 17.4188 14.0681C17.4095 14.0981 17.3738 14.1319 17.3438 14.1375C17.2857 14.1488 17.2257 14.1375 17.1657 14.1413C17.1395 14.1431 17.1151 14.16 17.0851 14.1731C17.2107 14.25 17.3213 14.3156 17.4263 14.3794C17.4001 14.4338 17.387 14.4637 17.3663 14.5087C17.2426 14.4919 17.1113 14.4919 16.9932 14.4506C16.8563 14.4038 16.7232 14.4038 16.5882 14.4038C16.5845 14.4131 16.5807 14.4244 16.577 14.4338C16.7363 14.5125 16.8938 14.5913 17.0588 14.6719C17.0382 14.6944 17.0251 14.7056 17.0157 14.7206C16.9501 14.8144 16.7776 14.8688 16.6857 14.8256C16.6013 14.7844 16.5188 14.7431 16.4326 14.7038C16.2507 14.625 16.0688 14.55 15.8888 14.4675C15.737 14.4 15.572 14.4244 15.4145 14.4056C15.3976 14.4038 15.3713 14.4094 15.3638 14.4225C15.2982 14.5238 15.197 14.4881 15.1051 14.4956C15.0601 14.4994 15.0132 14.5031 14.9701 14.5163C14.9495 14.5219 14.9176 14.5575 14.9213 14.5669C14.9401 14.6175 14.9626 14.6663 14.9945 14.7094C15.0488 14.7806 15.1182 14.8425 15.1726 14.9156C15.2288 14.9906 15.2663 15.0788 15.3226 15.1519C15.4126 15.27 15.512 15.3825 15.6076 15.4969C15.617 15.5081 15.6207 15.5231 15.6282 15.5363C15.647 15.5644 15.6676 15.5925 15.6882 15.6206C15.7051 15.6413 15.722 15.6619 15.7388 15.6825C15.7613 15.7125 15.782 15.7425 15.8045 15.7725C15.8195 15.7913 15.8363 15.8081 15.8513 15.8288C15.902 15.9038 15.9451 15.9844 15.9995 16.0556C16.0557 16.1269 16.1213 16.1925 16.1813 16.26C16.187 16.2656 16.1851 16.2787 16.1888 16.2863C16.2076 16.3144 16.2282 16.3444 16.2488 16.3706C16.2657 16.3913 16.2863 16.41 16.3032 16.4325C16.3276 16.4644 16.352 16.4963 16.3745 16.5281C16.3876 16.5469 16.4007 16.5675 16.4157 16.5863C16.4363 16.6144 16.4551 16.6425 16.4757 16.6688C16.4907 16.6875 16.5113 16.7025 16.5263 16.7231C16.5807 16.8038 16.6313 16.8881 16.6895 16.965C16.7438 17.0381 16.8113 17.1038 16.8657 17.1769C16.9426 17.2819 17.0101 17.3925 17.0851 17.4956C17.2238 17.6869 17.3663 17.8763 17.507 18.0656C17.6251 18.2231 17.7413 18.3825 17.8632 18.5363C17.9195 18.6075 17.987 18.6713 18.047 18.7388C18.0563 18.75 18.0582 18.7669 18.0657 18.78C18.0845 18.8081 18.1051 18.8381 18.1257 18.8644C18.1407 18.8831 18.1632 18.8981 18.1763 18.9169C18.227 18.9938 18.2682 19.0744 18.3226 19.1475C18.3751 19.2169 18.4407 19.2769 18.4951 19.3444C18.572 19.4419 18.6451 19.5413 18.7201 19.6406C18.7276 19.65 18.7313 19.6612 18.7388 19.6725C18.7613 19.7044 18.7857 19.7381 18.8082 19.77C18.8232 19.7888 18.8382 19.8094 18.8513 19.8281C18.9038 19.905 18.9563 19.9838 19.0107 20.0588C19.0295 20.0925 19.0595 20.1244 19.082 20.1506Z" fill="currentColor"></path>
    <path d="M11.9626 22.8168C12.3996 22.8168 12.7539 22.8134 12.7539 22.8093C12.7539 22.8051 12.3996 22.8018 11.9626 22.8018C11.5256 22.8018 11.1714 22.8051 11.1714 22.8093C11.1714 22.8134 11.5256 22.8168 11.9626 22.8168Z" fill="currentColor"></path>
    <path d="M22.7382 12.7915C22.7455 12.7915 22.7513 12.4372 22.7513 12.0002C22.7513 11.5632 22.7455 11.209 22.7382 11.209C22.731 11.209 22.7251 11.5632 22.7251 12.0002C22.7251 12.4372 22.731 12.7915 22.7382 12.7915Z" fill="currentColor"></path>
    <path d="M11.9626 1.19631C12.3996 1.19631 12.7539 1.19379 12.7539 1.19068C12.7539 1.18758 12.3996 1.18506 11.9626 1.18506C11.5256 1.18506 11.1714 1.18758 11.1714 1.19068C11.1714 1.19379 11.5256 1.19631 11.9626 1.19631Z" fill="currentColor"></path>
  </symbol>
  <symbol xmlns="http://www.w3.org/2000/svg" viewBox="0 0 25 24" id="ic_category3">
    <path d="M12.015 1.96588e-06C18.6367 0.00374728 23.9963 5.37453 24.0038 12C24.0075 18.603 18.6405 24.0075 11.9963 24C5.35209 23.9925 -0.01495 18.6142 3.12872e-05 11.97C0.0150126 5.34457 5.3858 -0.00374335 12.015 1.96588e-06ZM20.457 18.794C22.7341 15.7715 23.4083 12.4682 22.3633 8.85019C21.2098 4.84644 17.6367 1.8015 13.4495 1.26592C9.96258 0.820227 6.9476 1.87641 4.37456 4.29588C9.74535 9.13483 15.0862 13.9513 20.457 18.794ZM3.5431 5.20599C1.3034 8.16854 0.599282 11.4232 1.59179 14.985C2.74535 19.1236 6.28093 22.176 10.5506 22.7303C14.0375 23.1798 17.0525 22.1199 19.6255 19.7041C14.2585 14.8652 8.91389 10.0487 3.5431 5.20599Z" fill="currentColor"></path>
    <path d="M13.809 5.05635C13.8615 4.87657 13.8877 4.68182 13.9738 4.52451C14.0974 4.29605 14.4045 4.19867 14.6405 4.2586C14.8765 4.31852 15.0712 4.54699 15.1012 4.79418C15.1274 5.03762 14.9888 5.26983 14.7641 5.4159C14.5731 5.5395 14.3821 5.67433 14.221 5.82789C13.8203 6.20991 13.7229 6.69305 13.839 7.22114C13.854 7.2923 13.9251 7.36721 13.9888 7.40466C14.3896 7.65185 14.7978 7.8953 15.206 8.13126C15.2772 8.17245 15.3821 8.19867 15.4607 8.17994C16.0487 8.02639 16.3521 7.57695 16.5768 7.05635C16.6105 6.9777 16.633 6.89156 16.678 6.81665C16.7978 6.6144 17.0412 6.52451 17.2622 6.59193C17.4982 6.66309 17.6442 6.86908 17.6368 7.11253C17.6293 7.35223 17.4757 7.52826 17.236 7.58818C17.0188 7.64062 16.7978 7.68931 16.5918 7.76796C16.206 7.92152 15.9963 8.22863 15.9102 8.62189C15.8914 8.70429 15.9289 8.8129 15.9776 8.88781C16.1349 9.14249 16.3446 9.36721 16.472 9.63687C16.6218 9.95897 16.8839 10.0526 17.1873 10.0901C17.7753 10.1612 18.2397 9.8953 18.6592 9.52451C18.7379 9.45335 18.8053 9.37096 18.8839 9.2998C19.0862 9.11253 19.3858 9.09006 19.6068 9.24736C19.824 9.40092 19.9027 9.70429 19.7903 9.95148C19.678 10.1949 19.4308 10.311 19.1536 10.2549C18.3521 10.0863 17.603 10.4047 17.1723 11.105C16.9588 11.4459 17.0974 11.9215 17.4532 12.1125C17.8652 12.3335 18.2622 12.3073 18.6517 12.0526C18.8615 11.914 19.045 11.9103 19.1836 12.0301C19.3633 12.1837 19.4083 12.4234 19.2847 12.5994C19.1611 12.7792 18.9214 12.8391 18.7191 12.7193C18.4345 12.5507 18.1311 12.4571 17.7978 12.4346C17.5431 12.4196 17.3072 12.4983 17.1574 12.6781C17.0637 12.7942 17.0263 13.0264 17.0712 13.1687C17.2547 13.7193 17.5244 14.2249 18.0675 14.517C18.5244 14.7605 19.0113 14.7867 19.5057 14.6818C19.9289 14.5919 20.2098 14.6631 20.4045 14.9515C20.633 15.2811 20.5618 15.7343 20.2472 15.974C19.9177 16.2286 19.4607 16.1762 19.1948 15.8429C18.9064 15.4833 18.5806 15.1725 18.1723 14.9515C17.7603 14.7268 17.3334 14.6107 16.8577 14.6931C16.7791 14.708 16.6667 14.6556 16.5993 14.5994C14.2397 12.4796 11.8877 10.3597 9.53188 8.23612C8.80904 7.58444 8.08994 6.93275 7.36335 6.28481C7.23975 6.1762 7.24349 6.08631 7.3184 5.96272C7.43076 5.78294 7.64799 5.68556 7.85024 5.73051C8.07121 5.7792 8.22477 5.94774 8.25473 6.19118C8.30342 6.55073 8.41952 6.88406 8.64799 7.16871C8.7566 7.29979 8.89143 7.42339 9.03376 7.51328C9.25848 7.65186 9.49818 7.72676 9.74162 7.532C9.79031 7.49455 9.85024 7.47208 9.91016 7.45335C10.6143 7.24362 10.7678 6.64811 10.8765 6.04137C10.9439 5.65935 10.8427 5.28856 10.6293 4.95523C10.4757 4.71178 10.3147 4.48706 10.0937 4.2923C9.88394 4.11253 9.82402 3.74174 9.92514 3.53575C10.0937 3.18744 10.3633 3.01141 10.6854 3.04137C11.0075 3.07133 11.2884 3.27732 11.3409 3.58818C11.3708 3.77171 11.3446 3.97395 11.2959 4.15747C11.1274 4.76796 11.1049 5.37096 11.3184 5.9777C11.4869 6.45335 11.839 6.77171 12.2622 6.99642C12.427 7.08631 12.6517 7.10129 12.8577 7.00391C13.4233 6.74549 13.678 6.2586 13.8015 5.68931C13.8465 5.49081 13.8502 5.28481 13.8727 5.08257C13.854 5.06758 13.8315 5.06009 13.809 5.05635Z" fill="currentColor"></path>
    <path d="M12.2509 17.2323C12.1011 17.2959 11.94 17.3409 11.809 17.427C11.5281 17.618 11.2209 17.7978 10.9925 18.045C10.4681 18.6105 10.4569 19.2922 10.6816 19.9888C10.7453 20.1911 10.8202 20.3821 10.7453 20.603C10.6516 20.8952 10.4157 21.1087 10.1161 21.1349C9.78273 21.1648 9.47936 20.9851 9.34453 20.6854C9.22468 20.412 9.29584 20.06 9.50558 19.854C9.99247 19.3746 10.3221 18.809 10.4007 18.1162C10.4457 17.7079 10.337 17.3371 10.1348 16.9888C10.1086 16.9439 10.0561 16.9102 10.0112 16.8877C9.92506 16.839 9.82019 16.8165 9.74154 16.7604C9.44191 16.5281 9.13854 16.6218 8.84266 16.7379C8.52805 16.8615 8.27712 17.075 8.17599 17.4045C8.10858 17.6218 8.08236 17.854 8.05989 18.0824C8.03367 18.3633 7.86139 18.5619 7.59921 18.5843C7.35202 18.6068 7.11981 18.427 7.06738 18.1798C7.01494 17.9401 7.15727 17.7341 7.40446 17.5993C7.67412 17.4495 7.95502 17.2959 8.1685 17.0787C8.3333 16.9139 8.42693 16.6555 8.49434 16.4233C8.573 16.1574 8.48685 15.9064 8.28461 15.7042C8.19097 15.6105 8.08985 15.5207 8.02618 15.4083C7.78273 15.0001 7.39322 14.8278 6.95876 14.7229C6.49435 14.6143 6.05614 14.7192 5.66288 14.9514C5.35577 15.1311 5.07487 15.3671 4.80521 15.6068C4.48311 15.8914 4.02993 15.8989 3.75277 15.5918C3.48685 15.2959 3.52431 14.824 3.83891 14.5731C4.03367 14.4158 4.25464 14.3933 4.49435 14.4607C5.37075 14.7079 6.46438 14.266 6.9288 13.472C6.97375 13.3933 6.96251 13.2735 6.95502 13.1723C6.92506 12.7903 6.87262 12.4045 6.8539 12.0225C6.84266 11.7753 6.74528 11.633 6.49434 11.5656C6.04116 11.4457 5.6067 11.4944 5.18723 11.7079C4.97749 11.8128 4.79023 11.7753 4.65914 11.5993C4.51682 11.4045 4.51682 11.1536 4.66288 10.9963C4.81644 10.8315 5.02618 10.809 5.22468 10.9251C5.40446 11.0338 5.58049 11.1574 5.77524 11.236C6.16476 11.3933 6.68536 11.2547 6.95876 10.9401C6.99247 10.8989 7.0112 10.8427 7.02618 10.7903C7.07861 10.6368 7.10483 10.4682 7.17974 10.3296C7.29584 10.1199 7.23592 9.94762 7.1273 9.77159C6.77524 9.19855 6.21719 8.98507 5.59172 8.89518C5.45689 8.87646 5.31832 8.8802 5.17974 8.86897C4.82393 8.84275 4.55802 8.53938 4.58798 8.2023C4.62169 7.83526 4.94004 7.57683 5.30333 7.62552C5.53554 7.65548 5.68161 7.81279 5.77899 8.00754C6.02993 8.50567 6.367 8.90267 6.94004 9.03751C6.99996 9.05249 7.05989 9.10118 7.10858 9.14612C10.4981 12.1986 13.8839 15.2547 17.2734 18.3034C17.3895 18.4083 17.3932 18.4832 17.3071 18.5993C17.1498 18.8053 16.8876 18.9027 16.6442 18.8353C16.3857 18.7641 16.2359 18.5731 16.1835 18.3034C16.1348 18.0487 16.0861 17.7866 15.9887 17.5469C15.7303 16.9027 15.1048 16.6742 14.5131 16.6442C14.4606 16.6405 14.4082 16.678 14.3558 16.6967C14.0449 16.8203 13.734 16.9551 13.4194 17.0675C13.3146 17.1049 13.2696 17.1536 13.2546 17.2585C13.1797 17.8053 13.4269 18.2248 13.7827 18.5993C13.9737 18.8016 14.0187 18.9926 13.9138 19.2285C13.8352 19.4083 13.6816 19.4682 13.5018 19.4607C13.3221 19.4532 13.1573 19.3821 13.1161 19.1948C13.0861 19.0487 13.0861 18.8839 13.1236 18.7416C13.2809 18.1611 13.1123 17.663 12.6104 17.3446C12.5243 17.2884 12.3932 17.2735 12.2509 17.2323Z" fill="currentColor"></path>
  </symbol>
  <symbol xmlns="http://www.w3.org/2000/svg" viewBox="0 0 25 24" id="ic_category4">
    <path d="M24.0735 12.5105C23.8941 12.5105 23.9017 12.513 23.8865 12.6924C23.8486 13.1144 23.8107 13.5364 23.7501 13.9533C23.7071 14.254 23.6414 14.5522 23.5656 14.8453C23.4949 15.1182 23.3559 15.5553 23.2573 15.8206C23.1108 16.2199 22.9541 16.6166 22.7848 17.0083C22.6736 17.2609 22.5271 17.4959 22.3906 17.736C22.2239 18.0266 22.0596 18.3197 21.8752 18.6002C21.7362 18.8124 21.5644 19.0045 21.4127 19.2066C20.9958 19.76 20.5157 20.2603 19.9977 20.7177C19.6288 21.0436 19.2422 21.357 18.8404 21.64C18.474 21.8952 18.0798 22.115 17.6856 22.3273C17.3243 22.5218 16.9503 22.6937 16.5764 22.8604C16.3439 22.964 16.0988 23.0398 15.8562 23.1207C15.601 23.2041 15.3433 23.2875 15.083 23.3532C14.8505 23.4113 14.6105 23.4517 14.3729 23.4922C14.052 23.5503 13.7337 23.6084 13.4102 23.6513C13.2308 23.6766 13.0489 23.6716 12.867 23.6741C12.7735 23.6766 12.728 23.7069 12.728 23.8055C12.7305 24.6444 12.7305 22.4486 12.7305 23.7928C12.7305 23.808 12.7381 23.8257 12.7406 23.8409H11.6288C11.6313 23.664 11.6364 23.4871 11.6364 23.3102C11.6364 22.1403 11.6364 24.5054 11.6389 23.8409C11.6389 23.7246 11.6035 23.6791 11.4822 23.669C11.0451 23.6311 10.6054 23.5983 10.1708 23.5326C9.80188 23.477 9.43549 23.3961 9.07668 23.2925C8.68249 23.1788 8.29841 23.0196 7.90927 22.8882C7.23713 22.6633 6.61553 22.3247 6.01414 21.9609C5.42791 21.6046 4.872 21.1978 4.36663 20.7303C3.83852 20.2426 3.33821 19.7246 2.89853 19.151C2.52961 18.6735 2.1986 18.1731 1.90296 17.6476C1.70839 17.3014 1.5492 16.935 1.39001 16.5711C1.24092 16.2275 1.10447 15.8813 0.983184 15.5275C0.897271 15.2774 0.846734 15.0146 0.783563 14.7568C0.720392 14.4966 0.657221 14.2363 0.606684 13.9735C0.578888 13.8371 0.558674 13.6981 0.546039 13.5566C0.515717 13.2609 0.495502 12.9628 0.475287 12.6671C0.467707 12.5433 0.412116 12.5079 0.290828 12.5105C-0.737599 12.5155 1.54667 12.513 0.518244 12.513C0.46518 12.513 0.409589 12.513 0.346418 12.513V11.4189C0.396955 11.4189 0.447492 11.4189 0.495502 11.4189C1.52646 11.4189 -0.750234 11.4189 0.28072 11.4189C0.442438 11.4189 0.460126 11.4037 0.475287 11.2445C0.482868 11.1662 0.475288 11.0853 0.485395 11.0045C0.528351 10.633 0.563727 10.2616 0.621845 9.89519C0.664801 9.61218 0.730499 9.3317 0.798724 9.05375C0.846734 8.85665 0.925066 8.66461 0.983184 8.47004C1.02867 8.31591 1.08173 8.16177 1.13479 8.00763C1.20302 7.81306 1.26872 7.61597 1.3521 7.42646C1.47592 7.1485 1.60479 6.87308 1.74629 6.60523C1.92823 6.2641 2.11521 5.92551 2.31989 5.59954C2.79746 4.83896 3.37358 4.15671 4.01793 3.53258C4.45507 3.1106 4.91496 2.71136 5.42286 2.37781C5.78167 2.14029 6.13543 1.89266 6.51193 1.68293C6.85811 1.48836 7.2245 1.32917 7.59089 1.17251C7.93454 1.02342 8.28325 0.884446 8.63701 0.763158C8.89222 0.677245 9.16006 0.629235 9.42033 0.566063C9.6528 0.510473 9.88527 0.452355 10.1203 0.404345C10.2694 0.374023 10.5119 0.33612 10.6635 0.320959C10.9415 0.295691 11.2194 0.278003 11.4974 0.260315C11.5934 0.255261 11.644 0.222412 11.6414 0.116284C11.6389 -0.459837 11.6389 1.76632 11.6389 0.179456C11.6389 0.14408 11.6667 0.116284 11.7021 0.116284C12.028 0.116284 12.354 0.116284 12.68 0.116284C12.7153 0.116284 12.7431 0.146607 12.7406 0.181983C12.7381 0.214832 12.7356 0.247681 12.7356 0.28053C12.733 1.82696 12.733 -0.444676 12.7305 0.091016C12.7305 0.214832 12.7659 0.255261 12.8947 0.265368C13.342 0.300744 13.7892 0.338647 14.2314 0.404345C14.5448 0.452355 14.8556 0.538268 15.1639 0.619127C15.4721 0.699986 15.7804 0.780845 16.0836 0.884446C16.3565 0.97794 16.6244 1.09923 16.8897 1.21546C17.1323 1.31906 17.3774 1.41761 17.6073 1.54648C17.9838 1.75621 18.3553 1.97857 18.7166 2.21357C19.3559 2.62797 19.9371 3.11565 20.4778 3.65387C20.9023 4.07838 21.294 4.52816 21.6477 5.01332C21.9863 5.47826 22.3022 5.95836 22.5599 6.47383C22.7469 6.84528 22.9339 7.21925 23.0931 7.60333C23.2245 7.91919 23.318 8.25273 23.4165 8.58122C23.5075 8.88192 23.5959 9.18767 23.6566 9.49594C23.7349 9.88002 23.7905 10.2666 23.8436 10.6532C23.8739 10.8756 23.879 11.103 23.9042 11.3279C23.9067 11.3608 23.9573 11.4062 23.9927 11.4163C24.0483 11.4315 24.1089 11.4214 24.1695 11.4214M12.733 22.5547C12.8189 22.5421 12.8771 22.5345 12.9352 22.5269C13.2308 22.4991 13.529 22.4738 13.8246 22.441C13.9535 22.4258 14.0824 22.4031 14.2062 22.3728C14.5018 22.302 14.7949 22.2262 15.088 22.1479C15.3129 22.0872 15.5378 22.0291 15.7526 21.9457C16.071 21.8219 16.3868 21.6905 16.6951 21.5414C17.0337 21.3772 17.3774 21.2129 17.6907 21.0083C18.0975 20.7455 18.4841 20.4549 18.8657 20.1567C19.1335 19.947 19.3938 19.7246 19.6338 19.482C19.9017 19.2142 20.1569 18.9312 20.3894 18.6356C20.68 18.2641 20.9554 17.88 21.2131 17.4833C21.481 17.0689 21.716 16.6343 21.8928 16.1693C22.004 15.8813 22.1354 15.6008 22.2314 15.3052C22.335 14.9817 22.4109 14.6507 22.4917 14.3197C22.5524 14.0746 22.6181 13.827 22.6534 13.5793C22.6989 13.2685 22.7115 12.9527 22.7419 12.6393C22.752 12.5433 22.7242 12.5029 22.6206 12.5029C22.0596 12.5079 21.5012 12.5054 20.9402 12.5054C20.8442 12.5054 20.7987 12.5433 20.7962 12.6368C20.7861 13.0689 20.7078 13.4934 20.6067 13.9103C20.5309 14.2287 20.4652 14.5522 20.3489 14.8554C20.167 15.3229 19.975 15.7928 19.7273 16.23C19.462 16.7 19.1462 17.1498 18.8177 17.5793C18.5751 17.8952 18.282 18.1731 17.9939 18.4511C17.5088 18.9186 16.9579 19.2976 16.3868 19.6488C16.2302 19.7448 16.1822 19.7347 16.1241 19.6235C16.0786 19.5376 16.0432 19.4416 15.9826 19.3658C15.9042 19.2723 15.9522 19.2268 16.028 19.1839C16.1089 19.1359 16.1948 19.0929 16.2757 19.0424C17.0514 18.5496 17.7488 17.9659 18.3376 17.2559C18.6762 16.8465 18.9819 16.417 19.227 15.9445C19.3786 15.6539 19.5201 15.3557 19.644 15.0525C19.7602 14.772 19.8512 14.4789 19.9421 14.1883C19.9977 14.0064 20.0381 13.8194 20.0735 13.6299C20.1342 13.2938 20.1847 12.9552 20.2403 12.6166C20.2555 12.5256 20.2125 12.4978 20.1266 12.5004C19.9042 12.5029 19.6793 12.5004 19.457 12.5004C19.3407 12.5004 19.2245 12.5004 19.1057 12.5004C19.1057 12.1289 19.1057 11.7752 19.1057 11.4088C19.1588 11.4088 19.2043 11.4088 19.2498 11.4088C19.5328 11.4088 19.8133 11.4037 20.0963 11.4113C20.2125 11.4138 20.258 11.381 20.2403 11.2622C20.1999 11.0019 20.167 10.7392 20.1241 10.4814C20.0887 10.2641 20.0558 10.0443 19.9927 9.83707C19.8891 9.50352 19.7779 9.16998 19.6414 8.84654C19.4898 8.48268 19.3306 8.11881 19.131 7.78021C18.9213 7.42393 18.6762 7.08786 18.421 6.76442C17.9585 6.17314 17.4153 5.65766 16.7987 5.2281C16.5486 5.05374 16.2858 4.89708 16.0306 4.73284C15.9598 4.68735 15.9017 4.64692 15.9826 4.54838C16.0457 4.47004 16.076 4.36644 16.1316 4.28053C16.1746 4.21736 16.2226 4.14155 16.3161 4.23505C16.3591 4.27548 16.4247 4.29064 16.4753 4.32601C16.8644 4.59891 17.2637 4.85918 17.6376 5.15229C18.1481 5.54901 18.5852 6.02405 18.9794 6.53953C19.2776 6.92867 19.558 7.33044 19.7703 7.77263C19.9143 8.07333 20.0584 8.3715 20.1923 8.67472C20.2757 8.86423 20.3439 9.0588 20.4121 9.25337C20.4601 9.38982 20.5081 9.52879 20.5385 9.6703C20.5915 9.90024 20.637 10.1327 20.6724 10.3677C20.7204 10.6659 20.7633 10.964 20.7911 11.2622C20.8038 11.3784 20.8442 11.4113 20.9554 11.4113C21.5062 11.4088 22.0596 11.4088 22.6105 11.4138C22.7166 11.4138 22.7545 11.381 22.7419 11.2748C22.6989 10.9135 22.6736 10.5496 22.6105 10.1908C22.5473 9.82696 22.4639 9.46562 22.3654 9.10934C22.2795 8.79095 22.1784 8.4751 22.0596 8.16935C21.9055 7.77769 21.7488 7.38603 21.5517 7.01458C21.3395 6.61534 21.0893 6.23631 20.8392 5.85981C20.5031 5.35191 20.0988 4.89455 19.6692 4.46246C19.3963 4.18704 19.1032 3.92677 18.7975 3.68925C18.4311 3.40119 18.0495 3.13081 17.6579 2.87813C17.3799 2.69872 17.0767 2.55217 16.776 2.40814C16.4677 2.26158 16.1493 2.13018 15.8309 2.00637C15.6389 1.93056 15.4368 1.8775 15.2397 1.81433C15.0628 1.75874 14.8859 1.69304 14.7065 1.65261C14.4589 1.59702 14.2087 1.55153 13.9585 1.51363C13.673 1.46815 13.3875 1.43277 13.1019 1.39992C12.9882 1.38982 12.8669 1.38982 12.7356 1.37971C12.733 1.42772 12.7254 1.47826 12.7254 1.52627C12.7254 1.90529 12.7229 2.28432 12.7254 2.66335C12.7254 2.75684 12.7052 2.7998 12.5991 2.79727C12.3136 2.79222 12.0255 2.79222 11.74 2.79727C11.6566 2.79727 11.6263 2.76442 11.6288 2.68609C11.6313 2.62797 11.6237 2.56733 11.6187 2.50668C11.5656 2.56733 11.5353 2.62797 11.51 2.69114C11.4241 2.91856 11.3407 3.1485 11.2573 3.37592C11.2018 3.53258 11.1335 3.68672 11.0982 3.84591C11.0274 4.17946 10.9415 4.51553 10.9263 4.85412C10.9086 5.28874 10.9238 5.72841 10.9819 6.15798C11.0299 6.51174 11.1537 6.85791 11.2649 7.20157C11.3635 7.50226 11.4822 7.7979 11.6035 8.09102C11.6819 8.28558 11.7804 8.47257 11.8663 8.66208C11.975 8.90213 12.0786 9.14724 12.1923 9.38476C12.3211 9.65008 12.4627 9.90529 12.594 10.1706C12.7735 10.5294 12.9503 10.8882 13.1196 11.2496C13.2561 11.5402 13.3925 11.8333 13.5012 12.1365C13.6402 12.5206 13.7665 12.9097 13.8752 13.3014C13.9838 13.693 14.0798 14.0898 14.1582 14.489C14.2188 14.7998 14.2719 15.1182 14.2795 15.434C14.2896 15.9748 14.2719 16.5155 14.2441 17.0563C14.2239 17.4959 14.138 17.9255 13.9965 18.345C13.8903 18.6583 13.8095 18.9817 13.673 19.2799C13.4633 19.7373 13.2157 20.1769 12.9049 20.5736C12.7861 20.7253 12.6648 20.8769 12.5334 21.0411C12.6042 21.0487 12.6572 21.0563 12.7254 21.0639C12.733 21.5642 12.733 22.0544 12.733 22.5547ZM11.3812 22.062C11.3963 21.976 11.3989 21.9179 11.4191 21.8623C11.4671 21.7259 11.5454 21.597 11.5681 21.458C11.6035 21.2256 11.7147 21.0234 11.7855 20.8061C11.8562 20.5838 11.9421 20.3664 12.0002 20.1441C12.076 19.8585 12.1367 19.5705 12.1898 19.2824C12.2529 18.9337 12.3237 18.585 12.3489 18.2338C12.3919 17.6476 12.3692 17.0588 12.2984 16.4726C12.2832 16.3488 12.258 16.2249 12.2277 16.1011C12.1746 15.8788 12.119 15.6589 12.0609 15.4391C12.0002 15.2117 11.9396 14.9843 11.8613 14.7644C11.7779 14.5244 11.6743 14.2894 11.5808 14.0544C11.4696 13.779 11.366 13.5035 11.2498 13.2332C11.1234 12.9426 10.9819 12.657 10.8505 12.369C10.6787 11.9899 10.5069 11.6134 10.3477 11.2319C10.1657 10.7998 9.98382 10.3652 9.82715 9.92298C9.70081 9.56922 9.60984 9.20283 9.50624 8.83896C9.47845 8.74042 9.46329 8.63682 9.44307 8.53574C9.38748 8.26284 9.32936 7.98994 9.27883 7.71704C9.26114 7.61344 9.27377 7.50731 9.26366 7.40119C9.19544 6.72904 9.22071 6.0569 9.32936 5.39234C9.38748 5.05122 9.47592 4.70757 9.59468 4.3816C9.74377 3.96973 9.9636 3.58817 10.2289 3.23441C10.6004 2.74168 11.0451 2.32222 11.5378 1.95583C11.5808 1.92298 11.6237 1.86486 11.6313 1.8118C11.6465 1.70314 11.644 1.59196 11.6313 1.48331C11.6288 1.45046 11.5757 1.39487 11.5454 1.39487C11.3407 1.39992 11.1335 1.4075 10.9289 1.43025C10.6964 1.45551 10.4664 1.49342 10.2365 1.53385C10.0192 1.57175 9.79936 1.60965 9.58963 1.6703C9.29399 1.75368 9.00593 1.85476 8.71534 1.9533C8.50814 2.02405 8.30094 2.09228 8.10131 2.17819C7.83094 2.29695 7.56057 2.41824 7.3003 2.56227C6.91117 2.77706 6.51445 2.98426 6.15311 3.23947C5.73618 3.53511 5.33694 3.8636 4.95792 4.20725C4.62184 4.513 4.29588 4.83896 4.01287 5.19525C3.66922 5.62734 3.36095 6.09228 3.06531 6.55975C2.86569 6.87055 2.69891 7.20662 2.54225 7.54269C2.39822 7.85097 2.28451 8.1744 2.16828 8.49531C2.06467 8.78337 1.96107 9.07143 1.88274 9.36707C1.80441 9.66019 1.75135 9.96088 1.70334 10.2591C1.65027 10.6027 1.61995 10.9489 1.57699 11.2951C1.56689 11.3734 1.59215 11.4163 1.67554 11.4163C2.26177 11.4163 2.84547 11.4163 3.4317 11.4138C3.45949 11.4138 3.50751 11.386 3.51509 11.3633C3.53783 11.2824 3.54793 11.199 3.56057 11.1182C3.60352 10.8428 3.63132 10.5623 3.68691 10.2894C3.75514 9.96088 3.83094 9.63239 3.93202 9.31148C4.04067 8.96278 4.15943 8.61155 4.31357 8.28053C4.57131 7.72462 4.87958 7.19146 5.25103 6.70125C5.64775 6.17819 6.07984 5.69304 6.58268 5.266C7.04256 4.87434 7.53277 4.53321 8.0533 4.23252C8.12658 4.18956 8.16196 4.19967 8.19986 4.2679C8.25545 4.3715 8.30599 4.4852 8.37927 4.57617C8.44749 4.65956 8.39696 4.69746 8.34136 4.73031C7.83852 5.00826 7.37106 5.33675 6.93896 5.71578C6.39317 6.19335 5.90548 6.72147 5.5113 7.33296C5.27377 7.70188 5.06404 8.09102 4.85684 8.47762C4.75324 8.67472 4.67491 8.88697 4.5991 9.09923C4.5233 9.30896 4.46013 9.52374 4.40201 9.73852C4.33884 9.96594 4.28325 10.1934 4.23524 10.4258C4.19733 10.6103 4.17459 10.7973 4.14932 10.9843C4.13164 11.1232 4.11648 11.2622 4.09879 11.4239C4.5233 11.4239 4.92254 11.4239 5.31673 11.4239C5.31673 11.7954 5.31673 12.1466 5.31673 12.5206C4.90991 12.5206 4.51319 12.5206 4.08615 12.5206C4.39696 15.5149 5.84484 17.7486 8.42728 19.2647C8.34642 19.4012 8.26303 19.5301 8.19228 19.664C8.15438 19.7373 8.11395 19.7347 8.05583 19.6994C7.89917 19.6033 7.73239 19.5225 7.58584 19.4138C7.19418 19.1258 6.79746 18.8453 6.42854 18.5294C5.93581 18.1049 5.50624 17.6147 5.14238 17.0714C4.91243 16.7253 4.67491 16.3791 4.49045 16.0102C4.29083 15.616 4.13669 15.1965 3.98508 14.7796C3.87137 14.4688 3.7703 14.1504 3.70207 13.827C3.63132 13.4858 3.60353 13.1321 3.55804 12.7859C3.55046 12.7227 3.52772 12.6621 3.52267 12.6014C3.51761 12.5307 3.48476 12.5105 3.41654 12.5105C2.84294 12.513 2.27188 12.513 1.69828 12.5105C1.5871 12.5105 1.56183 12.556 1.57699 12.657C1.59721 12.7884 1.60732 12.9223 1.62248 13.0563C1.64774 13.2736 1.66543 13.4909 1.70586 13.7057C1.74882 13.9432 1.80946 14.1757 1.86505 14.4107C1.92823 14.6735 1.98382 14.9362 2.06467 15.194C2.14301 15.4441 2.24408 15.6892 2.34768 15.9318C2.49424 16.2704 2.63069 16.6166 2.80757 16.9375C3.02235 17.3317 3.25987 17.7133 3.51761 18.0822C3.76777 18.4385 4.03814 18.7872 4.33378 19.1055C4.66986 19.4669 5.02614 19.8156 5.40517 20.1314C5.8322 20.4852 6.27946 20.8213 6.77219 21.0815C7.18154 21.2988 7.58584 21.5364 8.01035 21.7158C8.46518 21.9078 8.94023 22.062 9.41275 22.2035C9.7185 22.2944 10.0394 22.3399 10.3527 22.4006C10.4993 22.4284 10.6484 22.446 10.7975 22.4637C11.04 22.4915 11.2801 22.5143 11.5227 22.532C11.5555 22.5345 11.6187 22.4915 11.6187 22.4688C11.6263 22.2894 11.6237 22.11 11.6237 21.9078C11.5404 21.9609 11.4772 22.0013 11.3812 22.062Z" fill="currentColor"></path>
    <path d="M15.5553 3.79773C15.4441 4.0681 15.3127 4.33089 15.2243 4.60885C15.1359 4.88427 15.0929 5.17486 15.0222 5.45787C14.9362 5.79394 14.9413 6.13506 14.9716 6.47366C14.9994 6.81479 15.0601 7.15086 15.199 7.46924C15.3633 7.84827 15.5199 8.23487 15.6968 8.60885C15.8156 8.86153 15.9596 9.10411 16.0885 9.35174C16.2628 9.68023 16.4372 10.0087 16.6065 10.3397C16.7 10.5217 16.796 10.7036 16.8769 10.8906C16.9779 11.1231 17.074 11.3581 17.1523 11.5981C17.2584 11.9291 17.3494 12.2652 17.4404 12.5987C17.4707 12.7099 17.4934 12.8262 17.506 12.9424C17.5616 13.4528 17.6147 13.9658 17.5642 14.4787C17.5263 14.8552 17.4808 15.2292 17.3519 15.5931C17.1952 16.0327 17.0108 16.4497 16.753 16.8438C16.4928 17.2406 16.1542 17.5589 15.8181 17.8799C15.7954 17.9001 15.7549 17.9026 15.6817 17.9253C15.7145 17.8318 15.7373 17.7712 15.7549 17.7131C15.8535 17.3795 15.9621 17.0485 16.0481 16.7124C16.1087 16.48 16.1517 16.2399 16.1845 16.0024C16.23 15.684 16.278 15.3631 16.2856 15.0422C16.2906 14.7718 16.2452 14.4989 16.2123 14.2311C16.1921 14.0744 16.1618 13.9178 16.1239 13.7636C16.0834 13.5893 16.038 13.4174 15.9773 13.2507C15.8737 12.9651 15.7625 12.6821 15.6438 12.4016C15.5199 12.1136 15.3886 11.8306 15.2521 11.5501C15.0853 11.2039 14.911 10.8603 14.7366 10.5191C14.6103 10.2715 14.4713 10.0289 14.345 9.77878C14.1428 9.37701 13.9432 8.97271 13.7537 8.56336C13.5591 8.13885 13.4959 7.68655 13.5263 7.22413C13.5465 6.92597 13.6046 6.63285 13.6829 6.33974C13.7739 6.00619 13.9028 5.69034 14.067 5.39217C14.345 4.8868 14.6709 4.41681 15.1434 4.06305C15.2496 3.98219 15.3481 3.89122 15.4517 3.80531C15.4745 3.78762 15.5073 3.78257 15.5351 3.77246C15.5402 3.78004 15.5477 3.79015 15.5553 3.79773Z" fill="currentColor"></path>
    <path d="M8.06812 7.01185C8.0378 7.10787 8.00748 7.20642 7.9721 7.29991C7.87861 7.56523 7.78006 7.82802 7.68404 8.09082C7.492 8.62651 7.4642 9.17989 7.50969 9.73832C7.52232 9.90762 7.57286 10.0744 7.61834 10.2386C7.67393 10.4458 7.73205 10.653 7.80785 10.8527C7.89124 11.0801 7.98221 11.3075 8.09086 11.5248C8.29554 11.9392 8.51032 12.3486 8.7251 12.7579C8.85397 13.0055 9.00305 13.2431 9.12687 13.4932C9.26585 13.7712 9.38713 14.0592 9.51095 14.3448C9.59181 14.5318 9.66762 14.7187 9.73079 14.9108C9.7889 15.0877 9.83439 15.2671 9.87987 15.449C9.93546 15.6739 9.986 15.9013 10.0391 16.1287C10.0441 16.1439 10.0492 16.1616 10.0492 16.1767C10.1098 16.7074 10.1629 17.2405 10.0972 17.7737C10.0567 18.1148 9.96326 18.4484 9.8824 18.7844C9.76616 19.2696 9.54633 19.7168 9.25321 20.1136C9.01822 20.4319 8.71752 20.7048 8.44462 20.9954C8.39408 21.0485 8.33091 21.0914 8.27279 21.1395C8.26016 21.1319 8.24753 21.1243 8.23489 21.1167C8.26016 21.0258 8.2829 20.9323 8.3107 20.8413C8.36881 20.6417 8.43451 20.4446 8.48758 20.245C8.56591 19.9518 8.65435 19.6613 8.70489 19.3631C8.75542 19.0573 8.78827 18.744 8.78827 18.4357C8.78574 18.034 8.77058 17.6271 8.70741 17.2304C8.65435 16.8944 8.54569 16.5608 8.42693 16.2399C8.28796 15.8634 8.11613 15.497 7.94683 15.1306C7.70931 14.6151 7.4541 14.1098 7.2191 13.5943C7.0498 13.2228 6.8805 12.8514 6.739 12.4673C6.62782 12.1666 6.55454 11.8482 6.47368 11.5374C6.30943 10.8931 6.34986 10.2361 6.37766 9.58418C6.39282 9.22284 6.52422 8.87919 6.68593 8.55323C6.86029 8.19947 7.06749 7.86593 7.34291 7.58292C7.55264 7.36561 7.79269 7.17862 8.01758 6.979C8.03274 6.98911 8.05043 6.99922 8.06812 7.01185Z" fill="currentColor"></path>
  </symbol>
  <symbol xmlns="http://www.w3.org/2000/svg" viewBox="0 0 25 24" id="ic_category5">
    <path d="M3.11933 20.1108C2.76044 19.6344 2.36239 19.1515 2.01655 18.6295C0.992083 17.1026 0.352605 15.4256 0.11117 13.592C-0.228145 11.0471 0.202524 8.6393 1.40318 6.37503C2.58425 4.1499 4.31998 2.45333 6.5712 1.30488C7.94804 0.600149 9.4097 0.18253 10.9497 0.0520247C11.0149 0.0454994 11.0736 0.0193982 11.1389 0.00634766C11.7066 0.00634766 12.2678 0.00634766 12.8355 0.00634766C13.6316 0.156429 14.4407 0.267359 15.2237 0.469643C17.0117 0.932938 18.5777 1.82038 19.9546 3.04061C21.6511 4.54795 22.8387 6.38808 23.4847 8.561C24.3004 11.2951 24.1699 13.9966 23.0671 16.6197C21.9252 19.3408 20.0068 21.3832 17.364 22.7274C15.2825 23.778 13.0769 24.1825 10.767 23.9411C8.33955 23.6931 6.17969 22.7731 4.30693 21.2005C4.18947 21.1026 4.07202 21.0047 3.95456 20.9068C3.92846 20.8873 3.89584 20.8742 3.88278 20.8677M11.9872 23.0015C18.01 22.9819 22.9953 18.1923 22.9953 11.9998C22.9953 5.93783 18.1927 1.02429 12.0198 0.998191C5.9513 0.97209 1.01818 5.83995 0.998609 11.9802C0.979033 18.0031 5.84037 22.9688 11.9872 23.0015Z" fill="currentColor"></path>
    <path d="M15.5692 15.2494C13.8791 18.6295 9.98353 18.4402 8.42398 15.2298C8.26738 15.406 8.12382 15.5756 7.94111 15.7779C8.29348 16.3717 8.67194 17.0047 9.05041 17.6311C9.12219 17.7551 9.20049 17.8725 9.26575 17.9965C9.4093 18.2836 9.33752 18.5577 9.09609 18.7013C8.8677 18.8318 8.58712 18.76 8.41746 18.499C8.2478 18.238 8.09119 17.9574 7.92806 17.6898C7.6018 17.1482 7.28206 16.6132 6.95579 16.0716C6.70783 15.6539 6.72088 15.5169 7.07325 15.1646C7.34731 14.884 7.63442 14.6164 7.89544 14.3293C7.96721 14.251 8.00637 14.1075 7.99984 13.9965C7.96069 13.5789 7.87586 13.1613 7.85628 12.7371C7.84323 12.4305 7.7323 12.2543 7.42562 12.2151C7.34079 12.2021 7.26248 12.1694 7.1385 12.1303C7.0341 12.6523 6.92969 13.1743 6.81876 13.6898C6.77961 13.8725 6.75351 14.0553 6.69478 14.2249C6.60995 14.4924 6.4142 14.6034 6.14013 14.5642C5.87912 14.5251 5.68989 14.2836 5.74209 14.0161C5.90522 13.1352 6.08141 12.2477 6.27716 11.3734C6.34894 11.0471 6.60995 10.9231 6.92969 11.0145C7.24943 11.1058 7.56917 11.2168 7.91501 11.3277C8.02594 10.9492 8.13687 10.5773 8.25433 10.2053C8.23475 10.1792 8.21517 10.1466 8.18907 10.1336C7.56917 9.9378 7.22986 9.48103 6.99495 8.90028C6.82529 8.48266 6.59038 8.08462 6.38809 7.67352C6.19234 7.27548 6.25106 6.98837 6.55775 6.84481C6.84486 6.70778 7.07977 6.83829 7.28858 7.24285C7.51697 7.68657 7.7584 8.12377 7.95416 8.58706C8.11077 8.94595 8.34568 9.16781 8.65889 9.23959C9.20702 8.71104 9.72904 8.20207 10.2967 7.64742C10.0618 7.18413 9.78124 6.636 9.52023 6.08135C9.45498 5.94432 9.3832 5.74856 9.4354 5.62458C9.50066 5.46798 9.67684 5.25917 9.81387 5.25264C9.99005 5.24612 10.2445 5.37662 10.3359 5.5267C10.6295 6.0161 10.8775 6.53812 11.1189 7.06015C11.2299 7.29506 11.3408 7.40599 11.6279 7.34073C11.8759 7.28201 12.1499 7.30811 12.4044 7.35378C12.6132 7.38641 12.7176 7.34726 12.809 7.1515C13.0569 6.62295 13.3245 6.10093 13.592 5.57891C13.7747 5.22654 14.0618 5.12866 14.3359 5.30485C14.5773 5.45493 14.6295 5.70289 14.4794 6.02263C14.2315 6.5316 13.977 7.03405 13.729 7.53649C13.7029 7.59522 13.6768 7.65395 13.6768 7.65395C14.225 8.1825 14.7535 8.69147 15.3147 9.23307C15.5626 9.15476 15.8237 9.01121 15.9737 8.65884C16.1891 8.14987 16.4566 7.667 16.7111 7.17108C16.8938 6.81871 17.1352 6.70778 17.4158 6.83829C17.7095 6.97532 17.7812 7.24938 17.5985 7.6148C17.2918 8.24122 16.9917 8.86113 16.6589 9.4745C16.5741 9.63763 16.4109 9.76814 16.2543 9.87255C16.0912 9.99 15.8954 10.0618 15.7062 10.1597C15.8171 10.5446 15.9281 10.9166 16.0455 11.3212C16.3392 11.2233 16.6328 11.1189 16.9264 11.0275C17.3702 10.8905 17.6116 11.0275 17.7095 11.4778C17.8856 12.2934 18.0488 13.1091 18.2119 13.9313C18.2706 14.238 18.1075 14.4924 17.8269 14.5512C17.5594 14.6099 17.3179 14.4663 17.2462 14.1662C17.0961 13.5006 16.9656 12.8285 16.822 12.1172C16.5936 12.1955 16.3783 12.2673 16.1891 12.3261C16.1042 12.9003 16.0194 13.4484 15.9542 13.99C15.9411 14.0944 16.0064 14.2445 16.0781 14.3228C16.3587 14.6295 16.6524 14.9166 16.9525 15.2037C17.2005 15.4451 17.2396 15.6931 17.0569 15.9933C16.5675 16.8024 16.0847 17.6115 15.5953 18.4207C15.3995 18.7404 15.1124 18.8383 14.8644 18.6817C14.61 18.5251 14.5578 18.2314 14.747 17.9117C15.1124 17.2918 15.4648 16.6719 15.8563 16.0716C16.039 15.7975 16.0194 15.6148 15.7649 15.4321C15.7062 15.3864 15.641 15.3146 15.5692 15.2494ZM12.5219 11.5104C12.5219 13.1743 12.5219 14.9035 12.5219 16.6393C14.8188 16.1629 15.7127 12.6915 14.8318 10.8057C14.0684 11.034 13.3114 11.269 12.5219 11.5104ZM11.4713 16.6654C11.4713 14.8905 11.4713 13.1743 11.4713 11.5169C10.6687 11.269 9.8987 11.0275 9.10261 10.7796C8.61974 12.5022 8.73067 14.1858 9.9248 15.68C10.3098 16.1629 10.8122 16.4957 11.4713 16.6654ZM9.59854 9.78772C11.145 10.7665 13.3636 10.5512 14.375 9.76162C13.7878 8.90028 13.0308 8.29995 11.9411 8.32605C10.8971 8.34563 10.1728 8.9329 9.59854 9.78772Z" fill="currentColor"></path>
    <path d="M21.5659 9.46163C21.4615 9.57256 21.3571 9.75527 21.1939 9.83357C20.9851 9.93798 20.7633 9.85315 20.6328 9.63781C20.574 9.53993 20.5349 9.42248 20.4957 9.31155C19.8889 7.41921 18.7731 5.89882 17.1613 4.73732C16.7437 4.43716 16.6393 4.15005 16.835 3.88251C17.0373 3.60192 17.3114 3.61497 17.7421 3.92819C19.543 5.23324 20.7894 6.93634 21.4615 9.05706C21.4876 9.15494 21.5072 9.25935 21.5659 9.46163Z" fill="currentColor"></path>
    <path d="M5.44844 18.2314C5.65072 18.362 5.83343 18.4403 5.97046 18.5642C6.96883 19.4712 8.0977 20.1368 9.38971 20.5153C9.83343 20.6458 10.2967 20.7176 10.7535 20.8155C10.8514 20.835 10.9493 20.8481 11.0406 20.8742C11.3212 20.9525 11.4778 21.1809 11.4386 21.4223C11.3864 21.7029 11.1385 21.8856 10.8383 21.8399C9.78123 21.6964 8.75676 21.4158 7.79101 20.959C6.83832 20.5088 5.98351 19.928 5.21353 19.2102C5.02429 19.0341 4.93294 18.8252 5.05039 18.6034C5.12217 18.4664 5.29183 18.375 5.44844 18.2314Z" fill="currentColor"></path>
    <path d="M4.09141 17.729C4.00658 17.6703 3.8304 17.592 3.73252 17.4549C3.53676 17.1874 3.37363 16.8872 3.21702 16.5871C3.06694 16.3065 3.15177 16.0194 3.39973 15.8823C3.63464 15.7584 3.9087 15.8301 4.07183 16.0912C4.26759 16.4044 4.45683 16.7176 4.61343 17.0504C4.75699 17.3571 4.50903 17.7225 4.09141 17.729Z" fill="currentColor"></path>
    <path d="M14.9558 3.58899C14.6557 3.49764 14.2446 3.38671 13.8531 3.23663C13.6181 3.14527 13.5659 2.91689 13.6247 2.68198C13.6834 2.46012 13.8531 2.29699 14.0749 2.34266C14.5056 2.43402 14.9363 2.54495 15.3539 2.70155C15.5888 2.78638 15.6214 3.03434 15.5627 3.26273C15.517 3.46501 15.3017 3.59552 14.9558 3.58899Z" fill="currentColor"></path>
  </symbol>
  <symbol xmlns="http://www.w3.org/2000/svg" viewBox="0 0 18 18" id="ic_phone">
    <path d="M14.5383 6.92307H13.1536C13.1531 6.37239 12.9341 5.84442 12.5447 5.45503C12.1553 5.06564 11.6273 4.84664 11.0767 4.84609V3.46143C11.9944 3.46253 12.8743 3.82759 13.5232 4.47653C14.1721 5.12548 14.5372 6.00533 14.5383 6.92307Z" fill="currentColor"></path>
    <path d="M17.3076 6.9233H15.9229C15.9215 5.63843 15.4104 4.40661 14.5019 3.49807C13.5933 2.58952 12.3615 2.07846 11.0766 2.077V0.692336C12.7286 0.694168 14.3124 1.35123 15.4806 2.51937C16.6487 3.6875 17.3057 5.27131 17.3076 6.9233ZM11.9995 12.7956L13.5503 11.2448C13.7579 11.0372 14.0218 10.895 14.3094 10.836C14.597 10.7769 14.8957 10.8035 15.1683 10.9125L17.057 11.6685C17.3353 11.7799 17.5739 11.9721 17.742 12.2204C17.9101 12.4687 17.9999 12.7617 17.9999 13.0615V16.4961C18.0004 16.7003 17.9592 16.9024 17.8789 17.0901C17.7986 17.2777 17.6808 17.447 17.5328 17.5876C17.3847 17.7282 17.2096 17.8371 17.018 17.9076C16.8264 17.9781 16.6225 18.0088 16.4186 17.9978C3.1799 17.1739 0.506122 5.96097 0.00972181 1.66714C-0.0143203 1.45722 0.00635208 1.24459 0.0703795 1.04323C0.134407 0.84188 0.240338 0.656361 0.381206 0.498883C0.522074 0.341404 0.694686 0.215532 0.887689 0.129548C1.08069 0.0435641 1.28971 -0.000584625 1.501 5.84564e-06H4.87472C5.17455 -3.78192e-06 5.4675 0.0898228 5.71579 0.257898C5.96408 0.425974 6.15631 0.664588 6.26769 0.942959L7.02302 2.83163C7.13203 3.10426 7.15864 3.40287 7.09957 3.69047C7.0405 3.97807 6.89834 4.24202 6.6907 4.44961L5.13989 6.00043C5.13989 6.00043 5.99976 12.0459 11.9995 12.7956Z" fill="currentColor"></path>
  </symbol>
  <symbol xmlns="http://www.w3.org/2000/svg" viewBox="0 0 24 26" id="ic_shield">
    <path fill-rule="evenodd" clip-rule="evenodd" d="M19.2558 0.405722C19.186 0.135241 19.186 0.0338101 19.0814 0H12H4.84884C4.36047 2.06242 3.87209 3.31339 1.84884 4.46294C1.2907 4.80104 0.697674 5.07152 0 5.20676C0 9.06112 1.0814 15.316 3.03488 18.4265C4.46512 20.7256 6.87209 23.0923 9.27907 24.58C9.69767 24.8505 11.5814 25.9662 12 26C13.1512 25.7971 16.1163 23.6333 17.1279 22.8557C22.186 18.8999 23.9651 11.9688 23.9651 5.24057C21.4535 4.6658 19.7442 2.84005 19.2558 0.405722Z" fill="currentColor"></path>
  </symbol>
  <symbol xmlns="http://www.w3.org/2000/svg" viewBox="0 0 18 18" id="ic_user">
    <path d="M4.26316 4.26316C4.26316 6.61358 6.17589 8.52632 8.52632 8.52632C10.8767 8.52632 12.7895 6.61358 12.7895 4.26316C12.7895 1.91274 10.8767 0 8.52632 0C6.17589 0 4.26316 1.91274 4.26316 4.26316ZM16.1053 18H17.0526V17.0526C17.0526 13.3967 14.0769 10.4211 10.4211 10.4211H6.63158C2.97474 10.4211 0 13.3967 0 17.0526V18H16.1053Z" fill="currentColor"></path>
  </symbol>
</svg>